<?xml version="1.0" encoding="UTF-8"?>
<!DOCTYPE svg PUBLIC "-//W3C//DTD SVG 1.1//EN" "http://www.w3.org/Graphics/SVG/1.1/DTD/svg11.dtd">
<!-- Creator: CorelDRAW 2019 (64-Bit) -->
<svg xmlns="http://www.w3.org/2000/svg" xml:space="preserve" width="8.5in" height="11in" version="1.1" style="shape-rendering:geometricPrecision; text-rendering:geometricPrecision; image-rendering:optimizeQuality; fill-rule:evenodd; clip-rule:evenodd"
viewBox="0 0 8500 11000"
 xmlns:xlink="http://www.w3.org/1999/xlink"
 xmlns:xodm="http://www.corel.com/coreldraw/odm/2003">
 <defs>
  <style type="text/css">
   <![CDATA[
    .str0 {stroke:#593E37;stroke-width:6.94;stroke-miterlimit:2.61313}
    .fil24 {fill:#00AFEF}
    .fil25 {fill:black}
    .fil8 {fill:#040404}
    .fil22 {fill:#040404}
    .fil1 {fill:#17242D}
    .fil21 {fill:#17242D}
    .fil5 {fill:#391300}
    .fil18 {fill:#391300}
    .fil0 {fill:#51A3BB}
    .fil11 {fill:#593E37}
    .fil19 {fill:#593E37}
    .fil16 {fill:#666667}
    .fil17 {fill:#868586}
    .fil20 {fill:#895A47}
    .fil15 {fill:#94B7CB}
    .fil12 {fill:#9B231B}
    .fil14 {fill:#A7A6A7}
    .fil4 {fill:#B0D7F4}
    .fil7 {fill:#BE9373}
    .fil9 {fill:#CC3438}
    .fil13 {fill:#D1CED0}
    .fil6 {fill:#F29025}
    .fil3 {fill:#F6BB92}
    .fil2 {fill:#F7D4B9}
    .fil10 {fill:#F7F7F7}
    .fil23 {fill:#F7F7F7}
    .fil26 {fill:black;fill-rule:nonzero}
   ]]>
  </style>
 </defs>
 <g id="Layer_x0020_1">
  <metadata id="CorelCorpID_0Corel-Layer"/>
  <g id="_1650626667104">
   <path class="fil0" d="M4730.87 8561.09c-1.61,1.3 -4.51,0.42 -5.44,2.98 -4.8,13.16 -9.52,-0.51 -31.85,14.78l-4.91 111.58 74.89 4.14c7.23,-1.37 21.16,-5.12 33.29,-4.5 39.38,1.97 18.96,1.1 26.32,11.52l9.88 -2.55c21.66,-0.41 18.96,0.93 31.27,13.26 16.2,-24.63 -3.09,-10.44 20.81,-19.3l25.55 0.13c11.58,-1.22 22.32,-3.3 34.26,-3.15 2.94,0.04 11.76,0.42 14.33,0.81 24.73,3.72 12.23,4 16.51,6.06l7.92 -1.47 90.51 -4.27c1.17,-122.48 -21.49,-124.42 -10.97,-172.27l4.59 -14.53 126.26 -2384.7c-0.15,-15.4 0.27,-29.34 1.72,-44.96 0.42,-4.54 1.65,-17.1 2.55,-21.15 3.59,-16.11 1.04,-5.49 6.92,-13.84 9.79,-14.31 -25.61,-5.75 26.3,-11.83l85.17 -0.64 5.03 25.74c11.89,94.65 47.83,221.63 68.66,320.31 113.36,537.13 222.02,1065.2 317.82,1608.28l84.95 501.2c27.42,153.43 -1.35,42.44 2.4,155.27l-16.79 72.28c80.93,2.01 82.87,5.2 83.88,37.5l24.19 -42.57 68.29 3.15c17.53,-3.17 20.7,-3.17 33.29,-2.41 34.69,2.09 15.53,-12.27 29.83,15.48l15.18 -10.35c21.65,-8.65 34.39,-4.78 60.63,-3.55l92.16 7.02 -13.52 -128.15c-29.69,-19.61 -33.35,12.04 -38.56,-43.46 -13.15,-213.04 -51.87,-460.49 -80.48,-671.87 -30.02,-221.71 -59.66,-439.89 -91.94,-659.76l-205.89 -1295.96 -1004.56 0.69 -20.44 2645.06z"/>
   <path class="fil1" d="M4752.07 3997.38l-15.22 17.44 73.19 239.43c-32.61,23.69 -165.5,73.34 -209.72,91.94 -64.88,27.3 -162.91,63.6 -215.88,94.08l-61.86 275.02 64.6 19.94c45.26,11.12 94.03,26.07 141.1,38.97 21.32,5.84 49.16,11.48 70.28,18.26 36.59,11.76 26.35,17.97 26.73,60.17l11.1 1111.97 114.93 1.92 1004.56 -0.68 24.55 -3.6c6.33,-149 -5.12,-1081.2 13.28,-1128.98 7.72,-11.45 35.41,-19.84 73.56,-25.11 26.44,-15.17 160.8,-47.81 206.04,-58.9 68.84,-16.87 54.35,-11.43 53.78,-32.96 -29.8,-122.93 -58.5,-246.25 -87.44,-367.87 -32.25,-135.53 -52.73,-236.77 -172.81,-276.7 -41.15,240.98 -182.11,-100.12 -209.75,-45.01 -50.03,-48.35 -150.96,-73.46 -242.24,-84.36 -10.96,24.13 -43.22,72.15 -54.9,98.89 -33.56,76.85 -62.89,97.4 -156.35,97.02 -125.54,-0.51 -185.41,-84.04 -194.55,-207.3l-256.96 66.43z"/>
   <path class="fil2" d="M3310.21 8637.08c7.38,29.77 7.15,32.82 -5.17,55.1 49.31,-3.09 73.88,5.55 65.64,58.07l80.81 -9.45 0.57 -103.13 89.52 -1311.33 -263.14 0.82c-0.74,154.89 46.67,1275.13 31.76,1309.93z"/>
   <polygon class="fil2" points="3905.55,8603.28 3910.44,8826.54 3917.31,8828.03 3911.02,8739.31 3991.71,8746.02 3994.23,8698.62 4050.38,8685.81 4048.07,8613.16 4083.94,7280.69 3820.14,7280.17 "/>
   <path class="fil1" d="M3219.75 6554.72l-3.93 776.51 451.72 3.08c0.11,-8.22 -1.18,-13.35 1,-22.19 6.46,-26.2 -0.11,-3.99 7.04,-15.5l23.41 -413.98c12.19,39.24 28.63,335.13 27.72,394.22 0.98,2.1 2.54,2.68 2.91,6.31 0.87,8.76 6.27,-0.71 6.07,48.32l432.67 1.01 0.15 -156.35c15.05,-94.67 -17.94,-959.64 -9.11,-1011.67l-6.05 -135.3 -934.13 1.65 0.54 523.89z"/>
   <path class="fil3" d="M5806.44 4343.69c-2.19,-21.65 0.33,-22.44 0.46,-62.62 4.33,5.13 6.36,5.4 11.43,14.73 0.67,1.24 7.33,16.81 7.34,16.9 2.52,9.79 5.93,29.52 5.93,29.52 0.76,0.05 17.12,41.06 12.46,64.34 1.87,15.96 -0.93,50.37 4.38,59.69 12.93,22.71 30.39,2.13 36.91,-8.5 27.32,-44.53 6.59,-98.28 -8.35,-140.42 -4.21,-11.86 -4.99,-19.45 -6.25,-29.61 10.46,20.81 19.67,23.83 26,50.74l20.63 94.04c29.92,-2.19 24.56,5.16 28.81,-23.98 0.4,-65.84 -11.63,-91.39 -25.57,-147.5 32.22,43.97 23.82,49.37 32.47,70.94 10.84,27.04 -3.63,11.04 21.89,22.91l1.2 -61.65c-11.33,-82.46 -83.96,-144.66 -109.37,-221.5 -47.74,-39.98 -79.64,-257.26 -546.79,-288.78l1.28 -39.7c79.49,-27.42 178.62,-88.85 252.33,-128.67 90.57,-48.94 96.17,-147.3 110.84,-274.5 47.24,5.79 66.64,12.14 96.65,-20.43 19.9,-21.58 35.6,-58.56 40.6,-92.14 6.63,-44.53 -2.12,-82.52 -17.96,-112.32 -24.48,-46.08 -32.6,-35.15 -78.69,-56.54l3.88 -85.7c-13.32,17.26 -9.8,64 -6.69,89.02 4.96,13.97 8.71,12.95 -5.33,8.35 -0.3,0.65 -7.87,15.52 -7.99,15.7 -15.34,27.06 -75.25,-42.23 -75.25,-42.23 -27.58,-344.99 16.34,-370.03 -194.8,-370.07 -102.17,-0.02 -628.87,-11.3 -684.52,6.8 -21.21,51.53 -23.48,270.17 -28.29,345.95 0,0 3.23,27.7 -8.94,22.65 -18.43,-25.83 -18.31,-21.37 -32.63,-48.15l1.87 57.65c-34.6,19.67 -106.03,29.11 -90.22,169.85 4.13,36.7 19.62,71.35 40.71,93.14 35.68,36.86 50.57,24.76 101.18,16.64 9.27,96.3 18.69,195.79 74.32,250.92 19.19,19.02 179.66,107.43 210.43,117.85 33.54,15.01 44.34,20.52 69.02,23.71 8.44,11.1 3.16,18.24 9.07,38.21 70,-3.97 25.51,13.81 205.65,-12.02 -16.28,63.7 -108.62,98.62 -203.17,82.27l-3.92 -57.43 -59.97 3.11c-94.65,-16.67 -311.94,77.85 -356.23,64.29l53.57 165.66c13.42,-0.19 5.83,1.24 26.76,-3.02l231.96 -56.83c9.14,123.26 81.52,208.72 207.06,209.23 93.47,0.38 155.48,-42.29 189.04,-119.14 11.68,-26.74 14.14,-64.19 25.1,-88.31 91.28,10.9 186.44,42.75 236.47,91.1 94.31,91.14 0.65,120.5 6.15,210.66l2.24 36.76c7.86,10.24 23.84,15.85 49.97,-18.93 6.91,-9.2 13.04,-24.27 24.59,-26.6 14.03,-2.82 7.67,0.46 14.05,4.5l13.2 140.96c0.31,3.11 1.63,18.94 2.15,21.09 5.63,23.27 34.19,25.57 41.86,1.37l0 0 -1 -73.98z"/>
   <path class="fil4" d="M4983.7 8695.97l-1.05 18.04c0.29,58.99 14.58,117.43 15.96,186.19l-1.63 32.65c-32.42,60.68 -83.14,77.09 -171.13,75.24 -39.78,-0.84 -72.63,-8.02 -97.11,-26.56 -34.3,-25.97 -26.57,-33.4 -32.63,-77.16 2.71,-23.25 -0.74,-29.74 13.22,-44.15l55.31 -154.35 -1.09 -10.69 -74.89 -4.06 4.91 -109.58c22.33,-15.02 27.05,-1.59 31.85,-14.52 0.93,-2.51 3.83,-1.65 5.44,-2.92l-37.7 1.5c-14.02,20.77 -7.44,19.89 -14.79,34.17l-621.02 6.93 -9.29 14.89 2.31 69.8 11.16 -2.79c32.71,6.57 2.78,0.29 23.91,3.95l8.96 61.66 22.87 6.46c28.25,2.7 29.83,4.67 54.7,15.06l33.39 10.46 21.79 8.07 31.55 9.72 29 10.07 37.52 6.91 13.39 13.53c7.04,-1.32 23.18,-2.63 27.26,-1.51 31.13,8.5 10.01,0.27 19.76,13.35l1.39 1.43c45.4,14 110.47,14.64 113.94,70.51 8.81,14.06 16.25,24.43 0.57,46.9 -6.01,8.61 -19.61,15.75 -31.59,21.29 -93.37,43.11 -166.25,17.01 -252.2,-17.23 -102.61,-40.89 -204.03,-76.41 -306.17,-114.4l-1.15 -28.24 -4.89 -214.48c-72.98,-7.42 -165.46,3.31 -238.47,5.25 -52.59,1.39 -182.41,-4.33 -215.01,21.43l-0.57 102.09 -1.46 80.42 0.68 32.43c-96.06,41.41 -285.07,100.53 -386.17,143.82l-16.71 8.8c-1,-1.63 -3.75,2.16 -5.5,3.44 1.99,1.18 4.65,2.15 6.35,2.77 32,11.65 44.13,9.46 79.17,11.7l266.88 19.76c742.6,42.57 1760.17,44.68 2507.41,-21.81 22.25,-1.98 64.02,-0.91 82.91,-15.04l-85.91 -29.91 -7.41 -7.04 -7.18 -6.98 -7.06 -8.33c-22.93,-21.69 -34.53,-79.92 -17.97,-114.46l13.56 -111.17c-1.01,-31.72 2.82,-23.54 -78.11,-25.51l0.64 -64.19 -711.11 -30.15c-14.6,-27.33 -15.56,-72.28 -16.66,-101.13l-4.59 14.27c-10.52,46.98 12.14,48.89 10.97,169.17l-90.51 4.19z"/>
   <path class="fil5" d="M3265.78 3286.07l-18.55 -20.94c-1.26,-6.73 -1.42,-14.55 -1.65,-21.41l-13.64 -340.04c-0.24,-263.46 -38.11,-220.68 575.2,-220.66 66.48,0 133.01,0.27 199.49,-0.12 84.59,-0.5 101.87,5.35 127.11,72.47 13.84,100.71 -16.73,338.31 -22.69,450.93 -3.46,65.34 -26.9,111.7 -59.22,144.22 -49.94,50.28 -94.18,26.43 -160.63,3.01 -100.85,-35.56 -110.61,11.19 -186.92,21.2 -73.27,9.6 -98.02,-29.84 -187.35,-7.82 -55.54,13.69 -116.89,61.55 -169.9,48.41 -48.61,-12.05 -92.34,-65.36 -81.24,-129.25zm-70.09 -1062.24c-4.65,7.81 -3,10.41 -5.94,12.86l10.11 13.39c43.86,8.84 53.02,43.69 46.97,103.51 -89.63,62.26 -111.1,187.55 -104.69,335.88 3.78,87.34 26.7,368.2 13.9,433.55 14.64,6.69 4,-4.64 16.15,10.62 19.04,13.35 6.43,-12.41 15.02,28.47l15.11 215.46c0.5,30.05 3.61,29.25 6.35,59.56 8.77,124.19 29.28,197.39 115.83,244.41 60.55,32.89 181.6,106.64 244.74,122.94 72.96,22.47 180.6,29.92 251.07,-9.37 24.84,-7.19 202.99,-104.49 231.2,-123.13 75.13,-49.67 92.97,-138.66 101.74,-252.56l6.76 -49.21 7.6 -62.51 1.61 -44.68c0.54,-14.29 -0.19,-19.03 2.66,-33.38 4.28,-21.53 -3.43,-7.41 6.93,-16.54l-4.55 -14.12c0.28,-6.76 -0.19,-33.65 0.46,-37.46 5.04,-29.97 -4.04,-19.36 16.33,-27.93l4 -4.52c2.98,-114.56 2.91,-229.1 5.51,-343.62 2.9,-127.24 15.02,-215.74 -31.41,-322.6l-70.41 -68.03 -56.3 -14.2c-29.03,-6.91 -21.01,-3.35 -21.71,-46.53 -4.62,-103.46 -121.11,-212.97 -213.72,-230.59 18.42,65.47 9.76,85.21 -44.17,107.02 -42.68,-36.93 -108.38,-182.92 -384.23,-147.7 21.93,20.91 61.61,43.44 59.76,87.21 -1.72,40.5 -37.59,71.64 -66.86,83.27 -83.76,-43.69 -78.15,-49 -175.81,-9.47z"/>
   <path class="fil3" d="M3255.8 3280.8c-11.1,63.89 34.44,137.37 83.06,149.42 53,13.14 122.53,-35.2 178.07,-48.89 89.33,-22.02 113.11,40.49 186.39,30.89 76.32,-10.01 85.12,-57.7 185.96,-22.15 66.45,23.42 124.14,41.49 174.08,-8.78 32.32,-32.53 59.61,-109.65 63.07,-174.99 5.97,-112.62 21.15,-350.22 7.31,-450.93 -50.31,-24.85 -605.83,-41.07 -714.38,-41.36 -168.37,-0.44 -162.96,83.15 -171.06,237.57l16.79 260.36c-11.28,9.89 -11.15,-9.4 -14.5,30.26 -1.57,18.66 1.94,14.76 5.21,38.61z"/>
   <path class="fil3" d="M3111.8 4985.91c1.79,-25.4 12.65,-48.74 16.8,-75.13 -99.35,-33.92 -238.31,-64.39 -332.42,-93.67l9.65 38.09c-1.71,12.39 -8.28,34.55 -11.48,48.09 -20.52,86.87 -54.21,180.5 -98.89,248.29 -154.82,234.87 -418.71,-17.89 -555.46,-159.93 -44.48,-46.19 -179.94,-192.63 -208.65,-249.71l191.72 -6.2 -16.2 0 -651.4 -1.78 8.33 3.57c7.73,1.68 7.26,2.09 17.09,2.83 44.85,3.38 257.53,-7.06 273.61,2.69 24.15,32.56 40.08,65.15 61.78,99.57l198.79 288.67c88.87,116.94 201.09,236.61 344.42,312.81 387.75,206.18 657.29,-177.69 752.58,-461.86 0,0 -0.26,3.67 -0.26,3.67z"/>
   <path class="fil3" d="M6068.98 4743.94c-45.24,11.09 -182.94,50.15 -209.39,65.32 30.2,6.5 38.86,33.84 61.04,86.27l208.68 492.6c34.06,62.61 138.22,81.16 196.07,26.28 59.97,-56.9 283.51,-745.55 330.56,-787.82 -34.3,-30.49 -113.19,-52.81 -157.19,-68.69 1.56,1.31 4.09,1.01 4.96,3.56l15.43 9.01c9.23,4.09 13.82,4.46 22.28,6.95l-282.93 530.38c-19.01,-15.75 -85.54,-233.22 -102.68,-285.33 -5.44,-16.54 -11.73,-32.78 -16.58,-49.31 -3.49,-11.91 -3.09,-11.69 -5.59,-24.39 -9.07,-50.31 -8.61,-18.58 -64.66,-4.83z"/>
   <path class="fil4" d="M2861.6 8919.52c2.46,-52.91 57.02,-57.9 112.32,-72.37l22.55 -5.88 13.27 -9.32 14.73 7.67 2.92 -17.28 25.02 -1.78c10.43,-11.4 -2.7,-2.35 16.91,-7.39l35.04 -9.8 31.83 -10.35 20.97 -5.72 31.96 -5.66c2.51,-3.33 2.64,-11.83 24.84,-10.08 11.22,-14.35 6.78,-11.34 31.97,-11.18l22.89 -7.5 10.13 -50.31c-4.35,-13.04 -7.19,-11.26 5.96,-7.66 -3.42,-14.35 -4.14,-8.85 12.09,-4.89l8.03 2.75c12.32,-22.06 12.55,-25.07 5.17,-54.54 -194.14,8.26 -394.58,27.99 -580.1,54.56 -121.04,17.33 -444.32,53.12 -478.19,147.2 46.12,74.37 198.61,94.93 304.81,114.24 109.65,19.94 248.85,44.5 366.66,49.54 -8.67,-7.61 0.91,-0.52 -14.3,-10.54 -16.26,-10.71 -78.25,-35.1 -47.5,-73.7z"/>
   <path class="fil3" d="M4271.69 5076.17l0.31 367.08c-17.28,21.29 -11.83,118.03 -9.04,142.72l4.7 -11.61c2.42,-9.93 2.6,-7.27 3.84,-19.77l0.49 -111.34c127.71,4.94 133.47,-94.08 207.8,-265.3 24,-55.3 46.81,-112.88 69.95,-165.7 14.54,-33.18 57.59,-157.93 75.55,-159.61 -0.39,-42.19 9.86,-48.41 -26.73,-60.17 -21.12,-6.78 -48.96,-12.42 -70.28,-18.26 -47.07,-12.9 -95.84,-27.85 -141.1,-38.97 0.72,33.58 -41.2,140.28 -53.62,178.39 -10.1,30.97 -20.48,58.54 -29.83,87.95 -7.13,22.43 -11.56,69.32 -32.04,74.59z"/>
   <path class="fil4" d="M6094.11 8707.91l55.15 148.3c6.35,8.19 3.54,-1.41 9.68,16.1 2.23,6.37 3.83,13.26 4.64,20.03 2.31,19.16 1.88,22.46 -2.81,36.53 -1.4,41.72 -28.69,50.28 -56.09,67.18l-9.23 6.1c115.4,-7.38 245.45,-30.63 355.73,-49.82 93.75,-16.32 261.05,-46.45 293.16,-112.35 -30.48,-98.41 -433.81,-145.31 -562.67,-158.13 0,0 -6.36,0.38 -5.79,21.63l-81.77 4.43z"/>
   <path class="fil6" d="M3930.44 4040.4l-31.64 -6.37c-73.19,82.24 -85.17,110.26 -205.17,108.03 -185.08,-3.43 -186.37,-72.18 -203.55,-111.88 -99.17,27.74 -203.12,50.08 -305.37,75.33 -111.13,27.45 -200.33,39.35 -254.11,114.44 -49.34,68.91 -68.09,185.88 -89.46,278.95 -19.79,86.19 -57.36,208.05 -67.4,289.98 0.67,2.61 1.31,5.65 2.05,7.84 0.7,2.08 1.74,5.25 2.47,7.3 0.7,1.96 5,10.26 6.34,12.33l12.65 5.09c94.11,29.28 197.7,50.99 297.05,84.91 -4.15,26.39 13.51,39.17 11.72,64.57 -1.54,22.08 6.98,72.53 7.48,96.05 2.23,103.98 14.11,449.58 3.41,509.1 -9.46,56.67 -1.8,172.99 -1.5,236.65 1.25,271.27 -23.56,229.4 103.78,231.96l932.98 -1.64 107.06 -4.26 25.37 -595.38c-2.79,-24.69 0,0 0,0l-7.79 -369.61 -0.84 -587.48c19.2,-13.2 81.54,-39.63 108.44,-46.03 52.98,-30.48 151,-66.78 215.88,-94.08 44.21,-18.6 177.11,-68.26 209.72,-91.94l-61.49 -237.87 0.31 -1.72 -65.25 -165.54 -4.58 -22.86c-43.23,5.95 -482.72,184.05 -561.21,214.05 -112.94,43.17 -72.8,19.05 -187.37,0.08z"/>
   <path class="fil3" d="M3480.46 4031.5c17.18,39.7 23.49,206.35 208.57,209.78 120,2.22 218.25,-88.34 210.69,-204.04 0,0 -0.91,-3.21 -0.65,-3.44 -31.24,-0.01 -53.76,0.4 -95.41,-19.23l2.32 -116.41c-93.3,8.22 -144.96,-5.23 -201.87,-68.84l-27.01 -14.18 2.34 202.83 -98.98 13.53z"/>
   <path class="fil7" d="M4760.16 2688.19c55.66,-18.09 576.57,-6.82 678.75,-6.8 211.15,0.03 155.69,25.08 183.28,370.06 3.59,44.98 15.5,26.83 20.3,51.47 4.58,23.52 -13.19,40.83 4.74,58.62 27.55,10.42 29.55,-3.57 60.55,12.3 23.83,53.72 -60.37,119.46 12.3,140.91l-15.98 -27.04 35.76 -15.09 9.1 -101.95 -45.05 -9.83 1.95 -29.76c13.54,-21.94 5.74,-14.72 28.4,-24.82 67.93,15.59 38.34,82.84 41.71,139.14 -0.92,-24.96 30.71,-56.36 14.17,-109.78 -15.39,-49.72 -49.53,-48.52 -86.74,-32.81l2.47 28.27 -9.9 28.06 -48.73 2.41c-1.71,-122.26 11.04,-244.66 10.96,-368.72 -0.1,-158.43 3.13,-175.35 -204.52,-175.31l-576.15 -0.18c-77.09,-0.35 -100,6.76 -117.37,70.86zm956.79 382.1c14.04,4.6 10.29,5.63 5.33,-8.35l-5.33 8.35c-10.99,6.12 -11.13,-21.11 -13.76,23.2 0.95,-1.19 2.56,-4.48 2.89,-3.53 0.37,1.02 2.4,-3.11 2.88,-3.96 0.11,-0.19 7.69,-15.06 7.99,-15.7z"/>
   <path class="fil7" d="M3255.22 3291.36c2.02,-22.89 -1.87,-29.56 -0.3,-48.21 3.34,-39.66 1.78,2.95 10.17,-31.22l13.97 -254.59c8.09,-154.42 -24.24,-211.09 144.14,-210.65 108.55,0.3 660.23,-16.18 710.54,8.68 -25.23,-67.12 -42.04,-82.57 -126.63,-82.08 -66.48,0.39 -133.49,-11.43 -199.97,-11.43 -699.76,-0.02 -591.73,-48.63 -566.38,583.31 0.24,6.86 2.81,19 4.06,25.73l10.39 20.46z"/>
   <path class="fil8" d="M6041.4 8847.69c-42.61,-0.44 -81.6,8.56 -108.04,-7.71 15.13,-9.53 96.19,-13.13 121.96,-14.76 15.17,12.94 10.58,-19.11 13.07,17.16 -8.26,1.78 -13.98,1.13 -27,5.31zm-5.5 -51.14l-105.49 -1.3c-20.22,-10.8 -7.39,5.24 -4.68,-9.85 1.52,-8.5 -2.64,-3.37 10.3,-5.04l83.73 0.67c12.22,-8.09 -14.32,-3.74 17.28,-7.05 35.13,-3.67 8.37,-2.81 15.74,5.82 1.09,0.8 3.04,2.11 3.23,2.46 0.1,0.22 -0.84,3.01 -0.78,2.35 0.11,-1.41 -3.21,1.44 -4.79,2.23l-14.54 9.7zm-162.82 -67.25l-13.56 111.17c-3.13,87.57 48.68,120.12 132.82,126.95 104.17,8.45 161.46,-7.18 156.92,-111.21l-55.15 -148.3c-26.24,-1.21 -38.98,-5.01 -60.63,3.49l-15.18 10.16c1.8,14.74 -2.43,0.3 18.13,5.17l23.96 9.88c-6.6,4.02 -3.68,4.62 -16.4,7.36 -5.74,1.24 -15.5,1.08 -21.72,1.46 -66.72,4.01 -27.03,3.52 -94.13,-8.22 -12.26,-12.32 -10.67,17.12 -10.32,-15.98l47.32 -2.33 -9.95 -10.18 -68.29 -3.1 -13.81 23.69z"/>
   <path class="fil8" d="M4843.83 8832.78c24.87,-2.86 66.15,-4.93 83.11,7.2 -24.16,16.51 -72.06,7.84 -104.44,7.71l-19.93 -8.28c-11.17,-10.96 -11.97,25.26 -8.89,-15.57 15.62,-0.67 16.62,-2.44 32.54,0.48 28.55,5.23 8.09,2.76 17.61,8.46zm74.26 -52.11l20.1 7.62c1.69,13.04 3.6,8.46 -11.65,7.78 -23.42,1.02 -47.74,1.81 -71.22,1.2 -60.51,-1.58 -46.26,-12.55 -51.06,-19.44l113.83 2.83zm-153.44 -74.79l-55.31 154.35c-2.25,85.09 39.04,108.27 124.09,108.39 34.31,0.06 70.42,-3.43 99.11,-15.01 39.77,-16.04 39.49,-30.45 66.07,-53.41 -1.38,-68.76 -15.67,-127.2 -15.96,-186.19l-6.87 -16.59 -62.02 1.11 -4.23 10.42c3.01,13.31 6.74,11.83 -5.76,9.26l40.39 -1.85c0,50.91 2.46,13.28 -11.2,24.48 -24.37,-0.53 -41.85,7.21 -60.07,6.93 -22.45,-0.34 -46.77,-3.37 -70.37,-1.05 -2.1,-1.27 -4.46,-3.91 -5.07,-5.34 -0.48,-1.11 -1.94,-4.13 -2.3,-5.24 -5.15,-16.36 -13.26,-17.21 6.06,-9.91l34.76 -6.62c-12.89,2.57 -8.91,4 -5.64,-9.78 -10.55,1.21 -7.7,3.32 -7.17,-7.76 -31.89,-5.7 -38.02,-5.39 -58.52,3.8z"/>
   <path class="fil9" d="M4035.74 8811.59l-13.16 -1.34 -30.86 -61.01 -80.69 -6.44 6.29 85.24c50.32,2.15 230.2,79.08 287.94,100.91 49.34,18.66 91.41,41.15 148.14,44.54 61.34,3.67 129.56,-14.95 147.59,-55.21 -3.47,-55.87 -68.54,-56.51 -113.94,-70.51l15.85 12.33c-17.27,11.39 -21.02,17.99 -41.15,25.44 -9.9,3.66 -15.96,5.02 -28.45,6.87 -21.86,3.24 -5.13,4.11 -14.6,0.42l-7.55 7.75c3.65,7.33 13.9,-3.68 -1.91,6.46 -35.82,-20.75 -6.08,-30.61 -51.98,-19.69l10.23 -15.2 7.78 -6.11 11.22 -8.87 14.28 -2.72c-5.17,-4.17 2.37,-11.78 -14.28,2.72l-11.22 8.87 -7.78 6.11 -4.7 2.2 -19.86 2.34 -71.97 -22.71c-25.32,-8.77 -0.14,2.98 -23.69,-2.59 -35.45,-8.4 3.54,-1.8 -27.34,-14.32 -39.76,-16.11 3.88,10.13 -55.4,-19 -14.06,-6.91 3.59,-7.76 -28.77,-6.48z"/>
   <path class="fil9" d="M3370.68 8750.24c-3.8,14.78 -23.02,49.72 -30.04,59.2l-13.85 2.56c-43.34,-1.77 -18.98,4.17 -42.24,14.48 -29.11,12.91 -8.46,-0.2 -43.66,7.3 -1.11,2.19 -5.15,7.01 -5.91,7.97l-8.61 9.77 -20.48 0.69c-19.66,-2.48 -7.19,-1.99 -19,2.98 -5.31,2.24 -7.35,7.82 -8.21,5.89 -0.63,-1.41 -2.58,2.45 -3.92,3.64l-57.2 16.71c-15.37,12.75 -17.06,-14.48 -55.31,19.42 -2.74,1.22 14.55,2.58 -9.28,2.94 -22.09,0.32 0.62,-2.79 1.17,-4.11l-8.56 -7.33c-18.42,7.75 -69.15,-17.2 -73.14,-22.87 -11.76,-16.69 -20.83,3.55 1.48,-22.31 -55.31,14.47 -109.87,19.46 -112.32,72.37 19.23,38.87 87.6,57.43 147.93,53.59 58.8,-3.75 103.44,-25.87 153.45,-46.2 90.25,-36.67 192.67,-80.02 287.05,-105.61l1.46 -80.42 -80.81 9.36z"/>
   <path class="fil10" d="M3841.33 3460.44l-323.04 3.54c11.23,67.61 65.86,108.91 140.79,114.86 97.02,7.73 126.94,-27.57 168.36,-71.82 12.97,-21.26 12.15,-19.54 13.89,-46.58z"/>
   <path class="fil10" d="M5373.5 3401.98c-123.64,3.22 -197.61,7.47 -324.18,-0.53 34.11,153.88 292.66,156.34 324.18,0.53z"/>
   <path class="fil10" d="M4500.98 8918.28c-18.04,40.26 -86.25,58.88 -147.59,55.21 -56.73,-3.39 -98.8,-25.88 -148.14,-44.54 -57.74,-21.83 -237.63,-98.76 -287.94,-100.91l-6.86 -1.44 1.15 28.24c102.14,37.99 203.56,73.52 306.17,114.4 85.94,34.24 158.83,60.34 252.2,17.23 11.97,-5.54 25.58,-12.67 31.59,-21.29 15.68,-22.47 8.24,-32.84 -0.57,-46.9z"/>
   <path class="fil3" d="M4174.25 3198.98l-0.64 7.48c-4.26,14.92 -4.39,56.56 -13.61,163.75l-6.76 49.21c15.2,-22.04 6.19,-5.04 18.24,-14.99 71.88,50.87 163.81,-103.33 108.3,-220.07 -18.34,-38.58 -31.23,-48.17 -84.73,-55.29l-4 4.52 -8.48 6.65c0,0 -6.76,57.32 -8.31,58.74z"/>
   <path class="fil11" d="M4684.54 3000.96c14.31,26.77 -2.22,37.81 16.2,63.65 15.91,13.02 9.63,-14.39 14.96,30.51 1.4,11.83 0.37,28.13 1.67,42.29l0.5 23.36 44.75 -2.98 -3.84 -129.42c4.81,-75.78 -19.83,-288.65 1.38,-340.18 17.37,-64.11 40.28,-71.21 117.37,-70.86l576.15 0.18c207.65,-0.04 204.42,16.89 204.52,175.31 0.08,124.06 -12.67,246.46 -10.96,368.72l48.73 -2.41 9.9 -28.06 -2.47 -28.27 -0.2 -9.31c2.63,-44.31 2.77,-17.07 13.76,-23.2l5.33 -8.35c-3.11,-25.02 -6.63,-71.76 6.69,-89.02 -21.98,-172.92 57.01,-380.57 -17.29,-571.02 -3.65,-9.35 -11.23,-23.78 -13.94,-31.51 -29.4,-83.75 95.76,-6.37 123.13,13.67 -7.83,-83.95 -119.13,-145.08 -198.66,-173.14 29.28,-21.19 66.14,-8.81 98.43,-2.83 -61.35,-51.57 -145.7,-81.35 -251.48,-78.26 -18.81,9.78 -10.27,10.93 -29.93,-0.02l27.98 -11.14 72.73 -12.24c-8.86,-9.13 -2.97,-4.61 -8.54,-14.98 -54.03,1.91 -127.63,-10.03 -188.48,-10.52 -157.09,-1.28 -368.83,23.33 -413.55,193.66 -133.07,23.36 -212.28,121.63 -246.33,249.33 -41.07,154.04 15.76,326.37 1.5,477.04z"/>
   <path class="fil3" d="M3207.85 3429.11c-2.74,-30.3 -5.04,-21.48 -5.54,-51.53 -8.01,-35.21 -14.49,-206.61 -30.12,-243.94 -12.16,-15.26 -1.51,-3.93 -16.15,-10.62 -35.17,26.62 -44.65,14.55 -68.91,57.18 -50.66,89.01 0.46,262.67 107.17,227.06l13.55 21.85z"/>
   <path class="fil7" d="M3569.23 3804.48c8.4,11.28 6.73,3.91 10.78,23.67l7.94 9.23c56.91,63.61 122.02,93.08 215.32,84.85 9.83,-49.65 -11.44,-87.05 17.03,-127.13 -70.47,39.3 -178.11,31.85 -251.07,9.37z"/>
   <path class="fil7" d="M5100.94 3774.47l0.07 68c109.43,18.93 200.94,-7.77 220.31,-99.24 -95.38,24.12 -87.42,-20.56 -229.48,-12.51l9.11 43.75z"/>
   <path class="fil12" d="M3284.92 8694.91c2.52,11.51 5.26,9.65 -5.96,7.66l3.36 36.81c31.22,13.3 37.33,21.81 56.06,51.44l2.27 18.62 -13.85 2.56c-14.2,-22.49 -14.97,-22.4 -45.4,-32.64 1.72,35.88 4.85,31.28 -5.87,48.4 -26.09,-16.22 -15.2,-20.73 -50.67,-30.37l1.52 54.12 -20.48 0.69c-8.48,-23.67 -10.29,-28.32 -39.65,-30.29l2.76 15.59 5.76 27.21c-32.93,-11.88 -9.67,-5.22 -29.64,-20.11 -13.9,-10.36 -12.49,-9.06 -33.18,-10.65l2.68 21.2 -0.23 7.02c6.52,9.17 12.64,-15.34 3.17,19.25 -17.58,-3.98 -10.54,-5.17 -23.78,-14.13 -9.57,-6.49 -17.35,-10.22 -31.33,-15.45l-0.69 26.32 0.48 22.69 -8.11 -1.17c-0.55,1.31 -23.26,4.43 -1.17,4.11 23.83,-0.36 6.54,-1.72 9.28,-2.94 38.26,-33.9 39.95,-6.67 55.31,-19.42l57.2 -16.71c1.33,-1.19 3.29,-5.04 3.92,-3.64 0.86,1.94 2.9,-3.65 8.21,-5.89 11.82,-4.97 -0.65,-5.47 19,-2.98l20.48 -0.69 8.61 -9.77c0.76,-0.96 4.81,-5.78 5.91,-7.97 35.2,-7.5 14.55,5.61 43.66,-7.3 23.26,-10.31 -1.11,-16.25 42.24,-14.48l13.85 -2.56c7.02,-9.47 26.24,-44.42 30.04,-59.2 8.24,-51.98 -16.33,-60.54 -65.64,-57.48l-8.03 -2.75c0,12.15 2.13,7.91 -12.09,4.89zm-288.45 146.37l-22.55 5.88c-22.31,25.86 -13.24,5.61 -1.48,22.31 3.99,5.67 54.72,30.62 73.14,22.87 -6.67,-35.04 -17.12,-39.12 -49.11,-51.05z"/>
   <path class="fil12" d="M3991.71 8749.24l30.86 61.01 13.16 1.34c32.36,-1.28 14.71,-0.43 28.77,6.48 59.28,29.13 15.64,2.89 55.4,19 30.88,12.52 -8.11,5.92 27.34,14.32 23.56,5.57 -1.63,-6.18 23.69,2.59l71.97 22.71 7.19 -41.99c-29.41,1.28 -29.8,6.04 -44.34,20.3l-7.28 7.5c-1.06,-1.52 -2.66,-3.44 -3.06,-4.62l-4.11 -17.53c-0.02,-0.3 1.9,-20 2.02,-22.62 -50.45,15.64 -15.12,19.86 -55.07,30.57l1.16 -51.86c-36.02,6.37 -25.52,9.29 -43.83,22.47 -8.78,6.31 5.72,1 -16.6,7.59l2.85 -47.6c-32.5,5.5 -35.91,7.3 -46.09,32.7l-13.16 -1.34 6.4 -20.09c16.95,-47.57 21.75,-24.66 43.05,-48.12 8.38,-9.22 13.68,-11.46 6.99,-32.08 -8.28,-25.54 -0.29,-3.91 -17.48,-21.34l-11.16 2.79 -56.15 12.3 -2.52 45.53zm319.42 151.34c-11.06,-10.04 -10.52,11.91 -10.23,-28l-0.15 -18.13 -14.28 2.72 -11.22 8.87 -7.78 6.11 -10.23 15.2c45.91,-10.92 16.17,-1.06 51.98,19.69 15.81,-10.14 5.56,0.86 1.91,-6.46zm75.91 -52.81l-1.39 -1.43c-45.41,-4.07 -59.55,10.82 -66.97,46.49 9.47,3.7 -7.26,2.83 14.6,-0.42 12.49,-1.86 18.55,-3.22 28.45,-6.87 20.13,-7.44 23.89,-14.05 41.15,-25.44l-15.85 -12.33z"/>
   <path class="fil7" d="M3825.85 3506.15c-41.42,44.26 -69.75,80.42 -166.78,72.69 -74.93,-5.96 -129.56,-47.26 -140.79,-114.86l323.04 -3.54c-2.97,9.97 -14.33,44.48 -15.48,45.71zm16.03 -10.57l9.37 -38.1 -41.88 -7.5c-65.91,-7.04 -242.09,-5.52 -303.46,2.18 9.33,207.05 326.09,196.45 335.98,43.42z"/>
   <path class="fil5" d="M3801.15 2962.72c35.82,22 72.65,-0.51 130.42,9.15 50.56,8.44 83.54,46.41 108.93,5.54 -6.09,-25.54 -12.65,-27.78 -39.28,-38.43 -23.52,-9.41 -46.57,-15.45 -69.83,-18.62 -26.96,-3.66 -60.74,-3.88 -87.72,-0.29 -31.39,4.18 -41.83,10.58 -42.52,42.65z"/>
   <path class="fil13" d="M4163.79 8793.54c0.93,8.02 -10.98,16.52 -9.05,2.13 2.7,-20.13 7.69,-13.89 9.05,-2.13zm-134.81 -3.39c-0.15,28.16 -14.12,0.75 6.42,14.41l37.55 -52.04 15.43 21.65c0.52,2.27 0.57,3.94 0.72,6.4 0.58,9.4 -5.91,29.86 -8.73,43.67 60.67,-55.16 17.28,-19.81 37.75,-52.42 31.85,11.88 28.12,-16.43 21.31,74.48 2.32,-2.07 4.94,-4.13 7.2,-5.95 53.71,-43.41 15.46,-33.67 44.45,-41.35 15.85,26.48 6.23,30.37 0.04,62.78l13.39 -12.62c1.99,-1.92 3.74,-3.09 5.7,-5.08 32.99,-33.62 -1.26,-26.16 35.3,-32.56l4.57 23.19 -7.19 41.99 19.86 -2.34c16.7,-21.16 16.56,-36.47 32.36,-42.03 8.98,5.44 8.78,-13.43 11.17,18.14 1.01,13.23 -0.02,10.24 -5.4,22.12 -0.29,39.91 -0.83,17.96 10.23,28l7.55 -7.75c7.42,-35.67 21.56,-50.56 66.97,-46.49 -9.75,-13.08 11.36,-4.85 -19.76,-13.35 -4.08,-1.11 -20.22,0.19 -27.26,1.51l-14.88 12.18c-1.46,1.05 -4.31,2.87 -5.65,3.81 -1.37,0.96 -3.93,2.43 -5.84,3.72 1.21,-26.09 -2.49,-17.28 12.98,-33.24l-37.52 -6.91c-1.32,1.38 -2.96,3.3 -3.83,4.24l-13.68 14.39c-0.93,-1.52 -3.56,3.52 -5.3,5.32l-6.19 -34.02 -31.55 -9.72c-18.78,28.31 1.67,10.55 -20.42,20.54l-1.37 -28.61 -33.39 -10.46c-24.87,-10.39 -26.46,-12.36 -54.7,-15.06l-26.77 22.53 3.9 -28.99 -8.96 -61.66c-21.12,-3.66 8.81,2.63 -23.91,-3.95 17.19,17.43 9.19,-4.2 17.48,21.34 6.69,20.62 1.39,22.86 -6.99,32.08 -21.3,23.46 -26.09,0.55 -43.05,48.12z"/>
   <path class="fil5" d="M3337.59 2947.43c0,13.71 3.43,11.08 -9.86,8.37l-4.56 10.13 -0.09 16.04 5.83 8.15 31.82 1.79c68.74,-20.81 72.33,-16.04 145.65,-25.57l39.17 0.15 7.23 -24.75c-0.01,-0.02 10.93,-15.54 -41.78,-22 -20.7,-2.55 -45.17,-2.75 -65.96,-1.25 -41.56,2.98 -76.47,15.57 -107.46,28.94z"/>
   <path class="fil11" d="M5567.85 2914.28c36.8,-90.35 -197.85,-58.19 -206.2,-50.93 -15.5,13.46 -14.37,33.72 3.73,41.83 14.75,6.61 55.52,0.72 73.62,0.34 92.08,-1.94 92.52,24.06 128.85,8.76z"/>
   <path class="fil11" d="M4848.7 2881.43c-3.43,60.18 41.07,34.29 87.85,29.35 39.76,-4.2 103.41,2.68 129.5,-10.67l3.44 -32.67c-41.2,-22.77 -182.02,-15.65 -220.78,13.99z"/>
   <path class="fil5" d="M5412.81 2970.59c-28.27,12.55 -42.03,31.07 -34.67,80.71 4.78,32.25 24.3,64.67 63.49,47.17 49.8,-22.28 31.11,-154.48 -28.82,-127.87z"/>
   <path class="fil5" d="M3456.04 3037.06c-27.13,13.58 -40.89,32.29 -33.11,80.33 4.94,30.55 26.57,62.2 62.07,47.85 49.54,-20.03 34.95,-160.18 -28.96,-128.18z"/>
   <path class="fil5" d="M3914.5 3164.31c30.98,-44.7 31.86,-84.95 -1.18,-128.82 -49.44,-6.97 -71.12,18.01 -69.93,67.39 1.22,50.69 26.39,69.46 71.1,61.43z"/>
   <path class="fil5" d="M5010.66 3100.74c61.22,-45.93 33.5,-146.59 -19.19,-133.66 -49.41,12.12 -64.85,137.56 19.19,133.66z"/>
   <path class="fil13" d="M6160.77 8928.87c4.69,-14.07 5.12,-17.37 2.81,-36.53 -0.81,-6.78 -2.41,-13.67 -4.64,-20.03 -6.14,-17.51 -3.33,-7.91 -9.68,-16.1 4.54,104.03 -52.75,119.66 -156.92,111.21 -84.14,-6.83 -135.95,-39.37 -132.82,-126.95 -16.56,34.54 -4.96,92.77 17.97,114.46l7.06 8.33 7.18 6.98 7.41 7.04 -7.41 -7.04 -7.18 -6.98 -7.06 -8.33 -7.77 -15.31c26.75,41.11 82.69,53.28 145.08,53.86 72.7,0.67 124.38,-9.65 145.97,-64.61z"/>
   <path class="fil7" d="M3202.31 3377.57l-15.11 -215.46c-8.59,-40.88 4.02,-15.12 -15.02,-28.47l6.59 30.69c-83.61,-24.13 -101.17,72.37 -65.89,131.43 -2.61,-62.76 -14.66,-131.33 59.92,-119.44 12.44,26.99 8.28,19.27 6.75,52.86l-37.2 3.8 10.46 107.35 34.72 7.6c-7.46,15.04 -9.06,16.23 -15.89,30.7l30.65 -1.05z"/>
   <path class="fil13" d="M4696.12 8904.37c-2.74,73.13 62.56,88.44 137.33,89.33 81.25,0.98 134.13,-13.98 163.53,-60.86l1.63 -32.65c-26.58,22.96 -26.3,37.37 -66.07,53.41 -28.69,11.58 -64.8,15.06 -99.11,15.01 -85.06,-0.12 -126.35,-23.3 -124.09,-108.39 -13.96,14.41 -10.51,20.9 -13.22,44.15z"/>
   <path class="fil13" d="M3278.96 8702.57l-10.13 50.31 2.63 29.22c-33.12,-10.72 -6.72,8.27 -25.52,-21.72 -25.2,-0.17 -20.76,-3.18 -31.97,11.18l-5.25 18.68 -4.41 8.91 -4.15 -8.74 -11.04 -8.76 -31.96 5.66 -1.49 24.85c-19.28,-5.01 -7.43,0.52 -19.48,-19.13l-31.83 10.35 0.58 19.61c-6.81,16.41 9.62,9.52 -18.28,14.12l-2.9 -12.15c1.69,-13.09 4.99,-10.54 -7.44,-9.81 0.14,12.71 -3.61,10.74 7.44,9.81l-1.55 9.31 4.45 2.84 27.94 18.04 -2.68 -21.2 8.53 -22.86c10.67,3.71 15.24,0.59 36.79,45.8 16.46,-9.02 17.63,23.72 11.75,-19.39l-2.76 -15.59 0.32 -22.74c33.77,9.91 0.36,4.51 35.43,33.04 4.67,3.8 12.42,10.89 13.69,9.36 1.67,-2 5.38,3.44 8.04,5.2 -4.17,-30.55 -9.38,-36.85 1.95,-63.94l5.53 -8.89c29.83,14.84 2.38,-3.22 19.53,23.26 11.61,17.93 16.55,17.06 31.82,27.18 -10.06,-46.68 -12.81,-44.08 7.72,-67.55 1.54,1.34 3.53,3.21 4.38,4.28l17.44 27.92c36.22,39.5 23.04,6.13 26.28,1.8 -18.72,-29.63 -24.83,-38.15 -56.06,-51.44l-3.36 -36.81c11.22,2 8.48,3.85 5.96,-7.66 14.21,3.02 12.09,7.26 12.09,-4.89 -16.23,-3.96 -15.5,-9.46 -12.09,4.89 -13.14,-3.6 -10.31,-5.38 -5.96,7.66zm-190.13 147.59c-5,14.46 -8.2,11.36 6.52,11.36l-6.52 -11.36c3.02,-14.42 6.53,-10.9 -6.58,-13.09l6.58 13.09zm-12.28 -18.04l-9.01 -6.61 9.01 6.61z"/>
   <path class="fil7" d="M4717.87 3160.77l-39.54 2.39c-16.61,25.16 -1.76,66.72 -1.49,113.25l37.82 5.3 -8.65 25.95c0.09,0.82 1.26,2.92 1.92,4.36 55.33,-28.73 -14.42,-74.2 -4.58,-133.05 34.53,-18.31 23.79,-7.68 64.18,-16.97 8.65,-33.5 4.54,-105.61 -8.75,-133.64l3.84 129.42 -44.75 2.98z"/>
   <path class="fil7" d="M4169.22 3263.02l13.05 -17.96c14.28,28.32 4.7,39.17 -14.66,62.63l-7.6 62.51 25.15 -0.16 -9.76 -24.47 38.19 -2.51 8.73 -109.07c-43.12,-15.34 -30.32,8.91 -43.51,-20.9 -10.35,9.14 -2.65,-4.99 -6.93,16.54 -2.84,14.35 -2.12,19.09 -2.66,33.38z"/>
   <path class="fil10" d="M4833.05 8699.57l-2.71 10.26c12.22,-1.31 8.68,-3.22 5.64,9.78l12.6 10.59 -47.36 -3.97 1.3 20.49c23.61,-2.32 47.92,0.71 70.37,1.05 18.22,0.28 35.7,-7.46 60.07,-6.93 -14.65,-12.93 2.53,-4.26 -18.11,-11.75 -0.25,-0.09 -19.8,-0.72 -21.52,-0.71 2.77,-21.26 -1.48,-6.72 10.45,-10.17 -2.87,-12.17 -5.94,-10 5.76,-9.26l4.23 -10.42 -3.08 -4.76 -25.55 -0.12c-23.9,8.69 -4.61,-5.24 -20.81,18.95 -12.31,-12.1 -9.61,-13.42 -31.27,-13.02z"/>
   <path class="fil14" d="M4028.98 8790.16l-6.4 20.09 13.16 1.34c10.19,-25.39 13.59,-27.2 46.09,-32.7l-2.85 47.6c22.32,-6.58 7.82,-1.27 16.6,-7.59 18.31,-13.19 7.81,-16.11 43.83,-22.47l-1.16 51.86c39.95,-10.71 4.62,-14.93 55.07,-30.57 -0.11,2.63 -2.04,22.33 -2.02,22.62l4.11 17.53c0.4,1.18 2,3.11 3.06,4.62l7.28 -7.5c14.55,-14.26 14.93,-19.02 44.34,-20.3l-4.57 -23.19c-36.57,6.39 -2.31,-1.06 -35.3,32.56 -1.95,1.99 -3.7,3.17 -5.7,5.08l-13.39 12.62c6.19,-32.41 15.81,-36.3 -0.04,-62.78 -28.99,7.69 9.26,-2.06 -44.45,41.35 -2.25,1.82 -4.87,3.88 -7.2,5.95 6.81,-90.91 10.54,-62.6 -21.31,-74.48 -20.48,32.61 22.92,-2.74 -37.75,52.42 2.81,-13.81 9.31,-34.26 8.73,-43.67 -0.16,-2.46 -0.21,-4.13 -0.72,-6.4l-15.43 -21.65 -37.55 52.04c-20.54,-13.65 -6.57,13.76 -6.42,-14.41z"/>
   <path class="fil15" d="M4996.98 8932.85c-29.4,46.88 -82.28,61.84 -163.53,60.86 -74.78,-0.9 -140.07,-16.2 -137.33,-89.33 6.06,43.76 -1.67,51.19 32.63,77.16 24.48,18.54 57.33,25.72 97.11,26.56 87.99,1.85 138.71,-14.56 171.13,-75.24z"/>
   <path class="fil10" d="M5965.14 8718.89c-14.75,13.46 -26.39,10.43 -37,18.32 67.1,11.74 27.4,12.23 94.13,8.22 6.22,-0.38 15.98,-0.23 21.72,-1.46 12.72,-2.74 9.8,-3.34 16.4,-7.36l-23.96 -9.88c-20.56,-4.88 -16.33,9.57 -18.13,-5.17 -14.3,-27.25 4.86,-13.14 -29.83,-15.2 -12.59,-0.75 -15.76,-0.75 -33.29,2.37l9.95 10.18z"/>
   <path class="fil14" d="M5877.49 8954.93l7.06 8.33 7.18 6.98 7.41 7.04 85.91 29.91 110.41 -5.04 9.23 -6.1c27.4,-16.9 54.69,-25.46 56.09,-67.18 -21.59,54.96 -73.27,65.28 -145.97,64.61 -62.39,-0.58 -118.33,-12.75 -145.08,-53.86l7.77 15.31z"/>
   <path class="fil7" d="M4174.25 3198.98c19.28,-17.46 21.36,-26.86 57.19,-24.27 31.11,46.13 21.67,74.7 16.27,138.06 0,-0.03 70.25,-185.71 -65.72,-147.15l9.06 -32.03c-20.37,8.57 -11.29,-2.04 -16.33,27.93 -0.65,3.81 -0.18,30.7 -0.46,37.46z"/>
   <path class="fil7" d="M4717.37 3137.41c-1.3,-14.15 -0.26,-30.45 -1.67,-42.29 -5.33,-44.9 0.94,-17.49 -14.96,-30.51 5.63,15.63 5.2,12.81 5.9,36.57 -36.73,-14.69 -67.67,-4.62 -80.75,37.76 -12.67,41.06 12.67,83 17.72,107.2 -13.62,-53.58 -10.07,-101.57 16.57,-137.46l37.18 -1.41 20.02 30.14z"/>
   <path class="fil7" d="M3166.25 8821.91c29.35,1.96 31.17,6.62 39.65,30.29l20.48 -0.69 -1.52 -54.12c35.47,9.64 24.58,14.15 50.67,30.37 10.72,-17.12 7.59,-12.52 5.87,-48.4 30.43,10.24 31.2,10.15 45.4,32.64l13.85 -2.56 -2.27 -18.62c-3.23,4.33 9.94,37.7 -26.28,-1.8l-17.44 -27.92c-0.85,-1.07 -2.84,-2.94 -4.38,-4.28 -20.53,23.47 -17.77,20.87 -7.72,67.55 -15.27,-10.13 -20.22,-9.25 -31.82,-27.18 -17.15,-26.48 10.3,-8.42 -19.53,-23.26l-5.53 8.89c-11.33,27.09 -6.12,33.39 -1.95,63.94 -2.66,-1.77 -6.37,-7.2 -8.04,-5.2 -1.28,1.54 -9.03,-5.56 -13.69,-9.36 -35.07,-28.52 -1.67,-23.13 -35.43,-33.04l-0.32 22.74z"/>
   <path class="fil10" d="M3052.42 8820.56c1.58,29.56 -10.96,32.36 -11,32.31 -0.93,-1.56 -4.41,3.59 -6.03,5.08l-10.92 -18.33 -14.73 -7.67 -13.27 9.32c31.99,11.93 42.44,16.01 49.11,51.05l8.56 7.33 8.11 1.17 -0.48 -22.69c-7.95,-11.07 -11.01,-6.98 -7.85,-28.84 0.33,-2.28 2.74,-9.12 3.63,-11.08 5.03,-11.32 4.11,-6 10.01,-12.72l9.01 6.61 5.67 2.15 0.03 2.81c13.11,2.19 9.6,-1.33 6.58,13.09l6.52 11.36 12.55 5 6.49 -4.35 0.23 -7.02 -27.94 -18.04 -4.45 -2.84 1.55 -9.31c-11.06,0.93 -7.31,2.9 -7.44,-9.81l-7 -1.97c-19.61,5.04 -6.48,-4.01 -16.91,7.39z"/>
   <path class="fil10" d="M6041.4 8847.69c1.41,-1.21 9.35,-9.63 11.33,-12.56 11.61,-17.07 -2.72,18.33 2.59,-9.91 -25.77,1.63 -106.83,5.23 -121.96,14.76 26.43,16.27 65.43,7.27 108.04,7.71z"/>
   <path class="fil10" d="M4926.54 8796.07c-7.76,-8.08 -3.05,-4.81 -8.45,-15.4l-113.83 -2.83c4.8,6.89 -9.45,17.86 51.06,19.44 23.48,0.6 47.8,-0.19 71.22,-1.2z"/>
   <path class="fil7" d="M3719.81 3619.87l-81.27 -0.04c19.75,39.02 62.85,49.93 81.27,0.04z"/>
   <path class="fil10" d="M4822.5 8847.69c32.38,0.13 80.28,8.8 104.44,-7.71 -16.96,-12.13 -58.24,-10.06 -83.11,-7.2 -0.63,-0.02 -24.39,-1.19 -24.79,-1.11 -17.92,3.6 -7.11,-0.52 -16.47,7.73l19.93 8.28z"/>
   <polygon class="fil10" points="5930.41,8795.25 6035.9,8796.55 6050.43,8786.85 6052.78,8779.81 6019.76,8781.04 5936.03,8780.37 "/>
   <path class="fil16" d="M4909.54 8708.95c-11.69,-0.73 -8.63,-2.91 -5.76,9.26 -11.93,3.44 -7.68,-11.09 -10.45,10.17 1.72,-0.01 21.27,0.63 21.52,0.71 20.63,7.48 3.45,-1.18 18.11,11.75 13.67,-11.2 11.2,26.43 11.2,-24.48l-40.39 1.85c12.5,2.57 8.76,4.05 5.76,-9.26l4.23 -10.42 62.02 -1.11 6.87 16.59 1.05 -18.04 -7.92 1.45c-4.28,-2.02 8.22,-2.3 -16.51,-5.96 -2.57,-0.38 -11.39,-0.76 -14.33,-0.79 -11.94,-0.15 -22.67,1.89 -34.26,3.09l3.08 4.76 -4.23 10.42z"/>
   <path class="fil7" d="M3061.76 8878.15l0.69 -26.32c13.97,5.23 21.75,8.96 31.33,15.45 13.24,8.96 6.2,10.15 23.78,14.13 9.46,-34.59 3.35,-10.07 -3.17,-19.25l-6.49 4.35 -12.55 -5c-14.71,0 -11.51,3.09 -6.52,-11.36l-6.58 -13.09 -0.03 -2.81 -5.67 -2.15 -9.01 -6.61c-5.91,6.72 -4.98,1.4 -10.01,12.72 -0.88,1.96 -3.3,8.8 -3.63,11.08 -3.16,21.85 -0.1,17.77 7.85,28.84z"/>
   <path class="fil16" d="M4763.56 8695.19l1.09 10.69c20.5,-9.19 26.62,-9.51 58.52,-3.8 -0.53,11.08 -3.38,8.97 7.17,7.76 -3.26,13.78 -7.25,12.34 5.64,9.78l-34.76 6.62c-19.33,-7.3 -11.22,-6.44 -6.06,9.91 0.35,1.11 1.81,4.13 2.3,5.24 0.61,1.43 2.96,4.07 5.07,5.34l-1.3 -20.49 47.36 3.97 -12.6 -10.59c3.04,-12.99 6.58,-11.08 -5.64,-9.78l2.71 -10.26 -9.88 2.5c-7.36,-10.23 13.06,-9.37 -26.32,-11.31 -12.13,-0.6 -26.06,3.08 -33.29,4.42z"/>
   <path class="fil1" d="M5825.67 4312.7c-0.02,-0.09 -6.67,-15.67 -7.34,-16.9 -5.07,-9.33 -7.1,-9.6 -11.43,-14.73 -0.13,40.19 -3.7,36.15 8.57,55.88 11.56,-5.44 20.05,13.33 10.2,-24.25z"/>
   <path class="fil3" d="M4169.22 3263.02l-1.61 44.68c19.36,-23.47 28.94,-34.31 14.66,-62.63l-13.05 17.96z"/>
   <path class="fil14" d="M3024.48 8839.62l10.92 18.33c1.62,-1.49 5.09,-6.65 6.03,-5.08 0.03,0.05 12.57,-2.76 11,-32.31l-25.02 1.78 -2.92 17.28z"/>
   <path class="fil14" d="M3111.94 8833.94c20.69,1.59 19.28,0.29 33.18,10.65 19.97,14.89 -3.29,8.23 29.64,20.11l-5.76 -27.21c5.89,43.11 4.71,10.38 -11.75,19.39 -21.55,-45.22 -26.12,-42.09 -36.79,-45.8l-8.53 22.86z"/>
   <path class="fil14" d="M4262.76 8874.35l4.7 -2.2 7.78 -6.11 11.22 -8.87c16.65,-14.5 9.11,-6.89 14.28,-2.72l0.15 18.13c5.38,-11.88 6.41,-8.89 5.4,-22.12 -2.39,-31.57 -2.19,-12.7 -11.17,-18.14 -15.8,5.56 -15.66,20.87 -32.36,42.03z"/>
   <path class="fil14" d="M3069.33 8813.17l7 1.97c12.43,-0.73 9.14,-3.28 7.44,9.81l2.9 12.15c27.9,-4.59 11.46,2.29 18.28,-14.12l-0.58 -19.61 -35.04 9.8z"/>
   <path class="fil17" d="M5928.14 8737.21c10.61,-7.89 22.25,-4.85 37,-18.32l-47.32 2.33c-0.34,33.11 -1.94,3.67 10.32,15.98z"/>
   <path class="fil14" d="M4802.57 8839.41l19.93 8.28 -19.93 -8.28c9.36,-8.24 -1.45,-4.13 16.47,-7.73 0.4,-0.08 24.16,1.08 24.79,1.11 -9.52,-5.7 10.94,-3.23 -17.61,-8.46 -15.92,-2.92 -16.93,-1.15 -32.54,-0.48 -3.08,40.83 -2.28,4.6 8.89,15.57z"/>
   <path class="fil14" d="M3245.95 8760.38c18.8,29.99 -7.61,11 25.52,21.72l-2.63 -29.22 -22.89 7.5z"/>
   <path class="fil14" d="M4287.72 8814.06l-29 -10.07 6.19 34.02c1.74,-1.8 4.36,-6.83 5.3,-5.32l13.68 -14.39c0.87,-0.94 2.51,-2.87 3.83,-4.24z"/>
   <path class="fil14" d="M4338.63 8834.5l-13.39 -13.53c-15.47,15.96 -11.78,7.14 -12.98,33.24 1.92,-1.28 4.47,-2.76 5.84,-3.72 1.34,-0.94 4.19,-2.76 5.65,-3.81l14.88 -12.18z"/>
   <path class="fil14" d="M4227.17 8794.28l-21.79 -8.07 1.37 28.61c22.09,-9.98 1.64,7.78 20.42,-20.54z"/>
   <path class="fil18" d="M4042.44 2380.62c-9.31,-9.5 -7.06,-6.28 -11.43,-17.6 -0.83,-2.15 -2.45,-10.09 -3.24,-12.33 -4.87,-13.78 -0.18,-5.44 -7.04,-16.6 0.7,43.18 -7.32,39.62 21.71,46.53z"/>
   <polygon class="fil14" points="4117.28,8760.68 4094.41,8754.22 4090.51,8783.21 "/>
   <path class="fil14" d="M3136.2 8793.02c12.05,19.65 0.2,14.13 19.48,19.13l1.49 -24.85 -20.97 5.72z"/>
   <path class="fil14" d="M3189.13 8781.64l11.04 8.76 4.15 8.74 -4.15 -8.74 8.56 -0.17 5.25 -18.68c-22.2,-1.75 -22.33,6.75 -24.84,10.08z"/>
   <path class="fil17" d="M6041.4 8847.69c13.01,-4.18 18.73,-3.53 27,-5.31 -2.49,-36.27 2.1,-4.22 -13.07,-17.16 -5.31,28.24 9.02,-7.16 -2.59,9.91 -1.99,2.93 -9.93,11.35 -11.33,12.56z"/>
   <path class="fil19 str0" d="M5469.15 2129.83l-1.96 -11.16 -27.98 11.14c19.67,10.94 11.12,9.8 29.93,0.02z"/>
   <path class="fil19" d="M5537.93 2106.77l28.15 -4.91 -34.77 -10.41c-8.01,7.48 -2.24,6.19 6.62,15.31z"/>
   <path class="fil17" d="M6052.78 8779.81l-2.35 7.05 -14.54 9.7 14.54 -9.7c1.58,-0.79 4.9,-3.64 4.79,-2.23 -0.06,0.65 0.89,-2.14 0.78,-2.35 -0.19,-0.35 -2.14,-1.66 -3.23,-2.46 -7.37,-8.63 19.39,-9.49 -15.74,-5.82 -31.6,3.31 -5.06,-1.04 -17.28,7.05l33.02 -1.23z"/>
   <path class="fil14" d="M4926.54 8796.07c15.26,0.68 13.35,5.26 11.65,-7.78l-20.1 -7.62c5.4,10.59 0.69,7.32 8.45,15.4z"/>
   <path class="fil18" d="M3199.86 2250.07l11.05 -10.5c2.94,-2.45 -19.87,-7.93 -15.22,-15.75 -34.59,24.86 13.56,-16.19 -17.1,6.35 1.22,1.64 2.84,2.28 3.55,4.99l17.72 14.91z"/>
   <path class="fil20" d="M4154.74 8795.68c-1.93,14.39 9.98,5.89 9.05,-2.13 -1.36,-11.76 -6.35,-18 -9.05,2.13z"/>
   <path class="fil17" d="M5930.41 8795.25l5.62 -14.89c-12.94,1.67 -8.78,-3.46 -10.3,5.04 -2.7,15.09 -15.54,-0.95 4.68,9.85z"/>
   <polygon class="fil20" points="3204.32,8799.14 3208.73,8790.24 3200.17,8790.4 "/>
   <polygon class="fil17" points="4169.15,2462.85 4098.74,2394.81 "/>
   <g>
    <rect class="fil21" transform="matrix(2.19733 0.933249 -0.865921 2.03881 6723.77 3500.52)" width="291.35" height="482.39" rx="18.56" ry="18.56"/>
    <path class="fil22" d="M6764.56 3517.84l558.63 237.26c22.44,9.52 32.98,35.69 23.46,58.09l-74.7 175.86c-78.07,183.81 -303.37,-92.19 -312.67,-136.62 -11.92,-57.02 -492.27,252.61 -469.49,198.97l216.66 -510.11c9.52,-22.43 35.67,-32.98 58.11,-23.46z"/>
    <rect class="fil23" transform="matrix(2.00776 0.85273 -0.791212 1.8629 6733.37 3554.68)" width="291.35" height="482.39"/>
   </g>
   <g>
    <rect class="fil21" transform="matrix(2.38713 0.0288338 -0.0267537 2.21491 1444.2 3696.69)" width="291.35" height="482.39" rx="18.56" ry="18.56"/>
    <path class="fil22" d="M1488.51 3697.23l606.88 7.33c24.37,0.29 44.07,20.49 43.77,44.83l-2.31 191.06c-2.42,199.69 -315.65,29.93 -341.13,-7.64 -32.68,-48.22 -359.46,420.63 -358.75,362.37l6.7 -554.18c0.29,-24.37 20.47,-44.06 44.85,-43.77z"/>
    <rect class="fil23" transform="matrix(2.18118 0.0263445 -0.0244469 2.02382 1473.64 3743.15)" width="291.35" height="482.39"/>
   </g>
   <g id="TCK_x0020_Black.cdr">
    <g>
     <path class="fil24" d="M1690.39 4285.25c0,0 -46.03,-46.7 -104.89,-35.85 -0.37,0.17 -10.06,1.11 -4.92,8.86 5.13,7.74 17.19,9.96 17.19,9.96 0,0 -15.69,-7.22 -14.78,-14.25 0,0 40.27,-14.56 107.4,31.28z"/>
     <path class="fil24" d="M1679.88 4256.2c0,0 -55.38,-53.24 -113.93,-37.65 -2.54,0.69 -8.84,1.3 -7.44,7.48 1.28,5.69 10.28,12.21 22.65,15.7 0,0 -20.58,-10.57 -19.15,-17.85 0,0 39.32,-18.13 117.87,32.32z"/>
     <path class="fil24" d="M1714.79 4173.21c0,0 -8.8,8.35 0.76,37.09 9.57,28.73 -9.28,59.61 -9.28,59.61 0,0 -43.63,-119.92 -162.56,-79.67 0,0 2.61,20.79 30.14,19.38 0,0 -19.28,-4.3 -23.41,-15.61 0,0 99.91,-37.53 155.03,95.28 0,0 13.33,-24.65 16.4,-39.31 3.07,-14.67 4.78,-24.39 -2.09,-40.23 -6.87,-15.84 -7.82,-26.13 -4.99,-36.53z"/>
     <path class="fil24" d="M1681.35 4213.91c0,0 -8.45,-35.65 25.46,-59.74 0,0 6.55,18.76 32.89,18.03 0,0 2.34,-0.85 3.21,4.15 0.87,5 4.06,22.2 21.5,10.79 0,0 0.31,-3.05 -1.59,-5.36 -1.91,-2.31 -0.41,-1.72 -0.41,-1.72 0,0 0.39,-0.53 3.78,4.77 0,0 0.46,1.11 3.6,3.25 0,0 10.75,-4.39 9.02,-23.94 0,0 -1.99,-7.96 -35.54,-41.3l41.37 -48.11 -50.96 38.48 -1.84 -1.83c0,0 3.25,-20.18 -23.42,-28.53 0,0 -5.77,21.97 -2.42,29.34 0,0 -23.74,9.33 -32.3,42.52 0,0 12.31,-28.3 40.48,-37.42 0,0 -0.95,-16.69 1.24,-20.72 0,0 9.34,3.24 10.23,17.76 0,0 34.23,27.58 47.24,51.18 0,0 -1.42,12.73 -3.91,12.34 0,0 -12.72,-5.24 -12.69,1.79 0.02,7.03 -5.57,3.21 -6.73,-1.23 -1.15,-4.44 -0.29,-12.68 -13.42,-10.79 0,0 -22.09,3 -23.96,-27.72 0,0 -44.82,15.33 -30.84,74z"/>
     <path class="fil24" d="M1730.76 4128.34c0,0 13.89,9.11 10,12.53 -3.89,3.42 -7.88,-4.69 -10,-12.53z"/>
     <path class="fil24" d="M1695.78 4108.69c0,0 -46.11,22.55 -51.94,75.63 0,0 -9.28,-57.48 51.94,-75.63z"/>
    </g>
    <g>
     <path class="fil25" d="M1768.54 4222.31l-12.55 63.19c0,0 -1.78,6.43 2.79,6.51 4.57,0.07 5.42,-0.04 6.66,0 1.24,0.04 3.1,-1.09 4.03,-6.2 0.93,-5.11 13.01,-64.13 13.01,-64.13l36.09 -0.31c0,0 4.19,0.31 5.58,-6.04 1.39,-6.35 2.32,-12.39 2.32,-12.39 0,0 1.08,-4.34 -4.18,-4.65 -5.27,-0.31 -84.11,0.46 -84.11,0.46 0,0 -4.96,-0.77 -6.66,6.04 -1.7,6.81 -2.32,11.46 -2.32,11.46 0,0 -2.02,6.35 5.73,6.35 7.74,0 33.61,-0.31 33.61,-0.31z"/>
     <path class="fil25" d="M1912.2 4220.76l-0.85 3.25c0,0 -1.7,4.19 2.63,4.19 4.34,0 8.68,0 8.68,0 0,0 2.79,-0.62 3.56,-4.34 0.78,-3.72 4.49,-22.61 4.49,-22.61 0,0 1.4,-4.34 -5.26,-4.34 -6.66,0 -84.42,0.31 -84.42,0.31 0,0 -4.92,-0.85 -6.5,7.28 -1.59,8.13 -15.76,78.58 -15.76,78.58 0,0 -2.01,8.51 5.03,8.43 7.04,-0.07 83.8,0.04 84.46,0.04 0.66,0 4.33,-0.62 6.19,-10.07 1.86,-9.44 1.51,-9.91 1.7,-10.69 -0.23,-0.89 1.51,-3.25 -6.81,-3.41 -8.33,-0.15 -68.62,0.78 -68.62,0.78l9.45 -47.24 62.04 -0.15z"/>
     <path class="fil25" d="M1953.78 4233.78l6.97 -33.3c0,0 1.7,-3.56 -3.1,-3.56 -4.8,0 -11.46,0 -11.46,0 0,0 -3.87,-0.6 -4.8,3.56 -0.93,4.16 -17.04,84.42 -17.04,84.42 0,0 -1.67,5.64 3.59,5.52 5.27,-0.11 12.51,0 12.51,0 0,0 3.32,0.53 4.32,-8.02 1.01,-8.55 4.2,-24.61 4.2,-24.61l27.72 0 34.39 29.89c0,0 3.56,3.25 6.66,0.93 3.1,-2.32 7.13,-6.66 7.13,-6.66 0,0 2.94,-3.09 -1.39,-6.97 -4.34,-3.87 -28.04,-27.26 -28.04,-27.26 0,0 -3.56,-2.63 2.01,-6.35 5.57,-3.72 41.39,-31.93 41.39,-31.93 0,0 3.71,-2.17 1.31,-6.42 -2.4,-4.26 -3.79,-6.04 -3.79,-6.04 0,0 -2.63,-3.4 -7.89,0.78 -5.26,4.18 -47.27,35.82 -47.27,35.82l-27.44 0.2z"/>
    </g>
    <g>
     <path class="fil26" d="M1827.65 4322.58l-5.9 -9.5c-0.68,0 -1.74,-0.05 -3.2,-0.15l0 9.65 -3.04 0 0 -22.16c0.11,0 0.9,-0.04 2.35,-0.11 1.46,-0.08 2.52,-0.11 3.19,-0.11 5.33,0 7.99,2.12 7.99,6.36 0,1.39 -0.43,2.65 -1.28,3.76 -0.86,1.12 -1.87,1.81 -3.06,2.08l6.41 10.19 -3.47 0zm-9.1 -19.45l0 7.22c0.72,0.1 1.43,0.15 2.12,0.15 1.81,0 3.13,-0.3 3.95,-0.88 0.82,-0.59 1.24,-1.64 1.24,-3.14 0,-1.24 -0.44,-2.14 -1.33,-2.69 -0.89,-0.55 -2.28,-0.82 -4.2,-0.82 -0.3,0 -0.89,0.05 -1.78,0.15zm27.01 11.65l-11.67 0c0,1.89 0.52,3.35 1.56,4.37 0.92,0.89 2.09,1.33 3.54,1.33 1.64,0 3.01,-0.48 4.11,-1.45l1.21 2.07c-0.44,0.44 -1.13,0.83 -2.04,1.15 -1.15,0.43 -2.43,0.64 -3.84,0.64 -2.04,0 -3.77,-0.69 -5.19,-2.07 -1.58,-1.52 -2.37,-3.57 -2.37,-6.14 0,-2.67 0.81,-4.82 2.44,-6.44 1.45,-1.44 3.17,-2.16 5.16,-2.16 2.31,0 4.12,0.65 5.43,1.96 1.27,1.25 1.9,2.92 1.9,4.98 0,0.64 -0.07,1.22 -0.22,1.76zm-6.97 -6.28c-1.28,0 -2.36,0.42 -3.22,1.25 -0.83,0.8 -1.3,1.78 -1.41,2.96l8.98 0c0,-1.17 -0.36,-2.15 -1.09,-2.93 -0.8,-0.85 -1.88,-1.28 -3.26,-1.28zm20.49 14.09l0 -1.19c-1,0.98 -2.45,1.47 -4.35,1.47 -2.03,0 -3.67,-0.73 -4.93,-2.18 -1.26,-1.45 -1.89,-3.39 -1.89,-5.81 0,-2.43 0.73,-4.5 2.18,-6.22 1.45,-1.72 3.19,-2.57 5.19,-2.57 1.68,0 2.95,0.39 3.81,1.18l0 -7.5 2.88 0 0 22.82 -2.88 0zm0 -12.46c-0.72,-1.09 -1.72,-1.63 -2.98,-1.63 -1.54,0 -2.79,0.57 -3.74,1.72 -0.96,1.15 -1.43,2.61 -1.43,4.38 0,3.9 1.77,5.85 5.32,5.85 0.45,0 1,-0.14 1.63,-0.43 0.63,-0.29 1.03,-0.59 1.19,-0.92l0 -8.97zm20.62 4.65l-11.67 0c0,1.89 0.52,3.35 1.56,4.37 0.92,0.89 2.09,1.33 3.54,1.33 1.64,0 3.01,-0.48 4.11,-1.45l1.21 2.07c-0.44,0.44 -1.13,0.83 -2.04,1.15 -1.15,0.43 -2.43,0.64 -3.84,0.64 -2.04,0 -3.77,-0.69 -5.19,-2.07 -1.58,-1.52 -2.37,-3.57 -2.37,-6.14 0,-2.67 0.81,-4.82 2.43,-6.44 1.45,-1.44 3.17,-2.16 5.16,-2.16 2.31,0 4.12,0.65 5.43,1.96 1.27,1.25 1.9,2.92 1.9,4.98 0,0.64 -0.07,1.22 -0.22,1.76zm-6.97 -6.28c-1.28,0 -2.36,0.42 -3.22,1.25 -0.83,0.8 -1.3,1.78 -1.41,2.96l8.98 0c0,-1.17 -0.36,-2.15 -1.09,-2.93 -0.8,-0.85 -1.88,-1.28 -3.26,-1.28zm18.97 -6.17c-0.59,-0.2 -1.14,-0.3 -1.64,-0.3 -0.88,0 -1.61,0.33 -2.18,1 -0.57,0.67 -0.86,1.51 -0.86,2.52 0,0.27 0.03,0.55 0.09,0.85l3.28 0 0 2.41 -3.28 0 0 13.78 -2.88 0 0 -13.78 -2.35 0 0 -2.41 2.36 0c0,-2.06 0.51,-3.69 1.52,-4.86 1.02,-1.18 2.37,-1.76 4.04,-1.76 0.83,0 1.73,0.15 2.69,0.45l-0.8 2.11zm21.98 20.26l0 -9.43c0,-1.72 -0.26,-2.93 -0.78,-3.62 -0.52,-0.69 -1.39,-1.04 -2.61,-1.04 -0.66,0 -1.34,0.19 -2.06,0.59 -0.71,0.4 -1.26,0.88 -1.65,1.46l0 12.04 -2.88 0 0 -16.19 1.97 0 0.91 2.08c0.95,-1.59 2.5,-2.39 4.65,-2.39 3.55,0 5.33,2.16 5.33,6.48l0 10.03 -2.88 0zm9.9 -22.32c0.49,0 0.91,0.17 1.26,0.52 0.35,0.35 0.52,0.77 0.52,1.25 0,0.5 -0.17,0.92 -0.52,1.27 -0.35,0.34 -0.78,0.52 -1.26,0.52 -0.49,0 -0.91,-0.18 -1.26,-0.52 -0.35,-0.35 -0.52,-0.78 -0.52,-1.27 0,-0.49 0.17,-0.91 0.52,-1.25 0.34,-0.35 0.76,-0.52 1.26,-0.52zm-1.59 22.32l0 -13.78 -2.23 0 0 -2.41 5.11 0 0 16.19 -2.88 0zm17.44 0l0 -9.43c0,-1.72 -0.26,-2.93 -0.78,-3.62 -0.52,-0.69 -1.39,-1.04 -2.61,-1.04 -0.65,0 -1.34,0.19 -2.06,0.59 -0.71,0.4 -1.26,0.88 -1.65,1.46l0 12.04 -2.88 0 0 -16.19 1.96 0 0.91 2.08c0.95,-1.59 2.5,-2.39 4.65,-2.39 3.55,0 5.33,2.16 5.33,6.48l0 10.03 -2.88 0zm6.36 4.43l1.56 -2.3c1.68,1.11 3.22,1.67 4.63,1.67 1.31,0 2.33,-0.22 3.08,-0.67 0.75,-0.45 1.13,-1 1.13,-1.67 0,-1.3 -0.95,-1.96 -2.85,-1.96 -0.32,0 -0.91,0.08 -1.75,0.25 -0.85,0.17 -1.51,0.25 -1.98,0.25 -2.3,0 -3.45,-0.87 -3.45,-2.61 0,-0.53 0.27,-1.02 0.8,-1.45 0.54,-0.43 1.2,-0.75 2,-0.94 -2.28,-1.07 -3.42,-2.93 -3.42,-5.57 0,-1.69 0.59,-3.11 1.77,-4.24 1.18,-1.13 2.64,-1.7 4.37,-1.7 1.59,0 2.84,0.33 3.74,0.99l1.44 -1.73 1.87 1.77 -1.72 1.31c0.74,0.95 1.1,2.21 1.1,3.75 0,1.63 -0.51,3 -1.53,4.12 -1.02,1.11 -2.35,1.74 -4.01,1.9l-2.37 0.25c-0.28,0.03 -0.66,0.14 -1.13,0.33 -0.47,0.19 -0.71,0.43 -0.71,0.73 0,0.41 0.5,0.62 1.48,0.62 0.43,0 1.11,-0.08 2.03,-0.23 0.92,-0.15 1.6,-0.23 2.04,-0.23 1.59,0 2.84,0.38 3.73,1.14 0.89,0.76 1.34,1.81 1.34,3.16 0,1.49 -0.67,2.69 -2,3.61 -1.34,0.91 -3.03,1.37 -5.08,1.37 -1.05,0 -2.15,-0.19 -3.31,-0.56 -1.16,-0.37 -2.09,-0.83 -2.8,-1.36zm6.09 -18.61c-1,0 -1.81,0.35 -2.44,1.06 -0.64,0.7 -0.95,1.57 -0.95,2.57 0,1.13 0.31,2.07 0.92,2.81 0.61,0.74 1.43,1.11 2.48,1.11 1.02,0 1.82,-0.36 2.4,-1.08 0.57,-0.72 0.86,-1.67 0.86,-2.84 0,-1.01 -0.31,-1.87 -0.93,-2.57 -0.62,-0.71 -1.4,-1.06 -2.33,-1.06zm27.14 4.27l0 9.91 -3.03 0 0 -9.91 -7.12 -12.22 3.13 0 5.51 9.67 5.51 -9.67 3.13 0 -7.12 12.22zm4.72 1.78c0,-2.5 0.67,-4.52 2.02,-6.06 1.35,-1.54 3.12,-2.31 5.31,-2.31 2.32,0 4.11,0.74 5.39,2.22 1.28,1.48 1.92,3.52 1.92,6.15 0,2.61 -0.65,4.67 -1.96,6.19 -1.31,1.5 -3.09,2.26 -5.35,2.26 -2.31,0 -4.11,-0.76 -5.4,-2.29 -1.29,-1.52 -1.93,-3.57 -1.93,-6.16zm3.04 0c0,4.06 1.43,6.09 4.3,6.09 1.33,0 2.38,-0.54 3.14,-1.63 0.76,-1.09 1.14,-2.57 1.14,-4.46 0,-4.01 -1.43,-6.02 -4.28,-6.02 -1.31,0 -2.35,0.53 -3.13,1.6 -0.78,1.07 -1.17,2.54 -1.17,4.42zm17.36 -8.06l0 10.33c0,2.5 1.08,3.75 3.25,3.75 0.95,0 1.81,-0.27 2.6,-0.81 0.79,-0.55 1.3,-1.18 1.56,-1.89l0 -11.38 2.88 0 0 16.19 -2.88 0 0 -2.24c-0.32,0.64 -0.97,1.22 -1.94,1.75 -0.98,0.53 -1.93,0.8 -2.85,0.8 -1.77,0 -3.13,-0.51 -4.07,-1.53 -0.94,-1.02 -1.41,-2.47 -1.41,-4.34l0 -10.63 2.88 0zm23 2.76c-0.62,-0.43 -1.25,-0.65 -1.89,-0.65 -1.02,0 -1.91,0.47 -2.67,1.4 -0.76,0.94 -1.15,2.07 -1.15,3.39l0 9.3 -2.88 0 0 -16.19 2.88 0 0 2.57c1.05,-1.92 2.61,-2.88 4.68,-2.88 0.51,0 1.26,0.09 2.22,0.28l-1.2 2.79z"/>
     <path class="fil26" d="M1911.24 4348.79l0 -9.43c0,-1.72 -0.26,-2.93 -0.78,-3.62 -0.52,-0.69 -1.39,-1.04 -2.61,-1.04 -0.66,0 -1.34,0.2 -2.06,0.59 -0.71,0.4 -1.26,0.88 -1.65,1.45l0 12.05 -2.88 0 0 -16.2 1.97 0 0.91 2.09c0.95,-1.59 2.5,-2.39 4.65,-2.39 3.55,0 5.33,2.16 5.33,6.48l0 10.03 -2.88 0zm7.97 -13.93l-1.89 0 0 -2.26 1.89 0 0 -3.38 2.88 -1.11 0 4.49 4.46 0 0 2.26 -4.46 0 0 8.06c0,1.36 0.23,2.33 0.69,2.91 0.46,0.57 1.2,0.86 2.22,0.86 0.74,0 1.5,-0.19 2.3,-0.56l0.42 2.52c-1.19,0.3 -2.5,0.45 -3.93,0.45 -1.29,0 -2.37,-0.47 -3.26,-1.43 -0.88,-0.95 -1.32,-2.16 -1.32,-3.61l0 -9.2zm24.9 6.13l-11.66 0c0,1.89 0.52,3.35 1.55,4.37 0.92,0.89 2.1,1.33 3.54,1.33 1.64,0 3.01,-0.48 4.11,-1.46l1.2 2.07c-0.44,0.44 -1.12,0.83 -2.04,1.16 -1.15,0.43 -2.43,0.64 -3.84,0.64 -2.04,0 -3.77,-0.69 -5.19,-2.07 -1.58,-1.52 -2.37,-3.57 -2.37,-6.14 0,-2.67 0.81,-4.82 2.44,-6.44 1.45,-1.44 3.17,-2.16 5.15,-2.16 2.31,0 4.12,0.65 5.43,1.96 1.27,1.25 1.91,2.91 1.91,4.98 0,0.64 -0.08,1.22 -0.23,1.76zm-6.96 -6.29c-1.29,0 -2.36,0.42 -3.23,1.25 -0.83,0.8 -1.3,1.78 -1.41,2.96l8.98 0c0,-1.17 -0.36,-2.15 -1.09,-2.93 -0.8,-0.85 -1.89,-1.28 -3.26,-1.28zm20.18 14.09l0 -9.43c0,-1.72 -0.26,-2.93 -0.78,-3.62 -0.52,-0.69 -1.39,-1.04 -2.61,-1.04 -0.65,0 -1.34,0.2 -2.06,0.59 -0.71,0.4 -1.26,0.88 -1.65,1.45l0 12.05 -2.88 0 0 -16.2 1.97 0 0.91 2.09c0.95,-1.59 2.5,-2.39 4.65,-2.39 3.55,0 5.32,2.16 5.32,6.48l0 10.03 -2.88 0zm7.97 -13.93l-1.89 0 0 -2.26 1.89 0 0 -3.38 2.88 -1.11 0 4.49 4.46 0 0 2.26 -4.46 0 0 8.06c0,1.36 0.23,2.33 0.69,2.91 0.46,0.57 1.2,0.86 2.22,0.86 0.74,0 1.51,-0.19 2.3,-0.56l0.43 2.52c-1.19,0.3 -2.5,0.45 -3.93,0.45 -1.29,0 -2.37,-0.47 -3.26,-1.43 -0.89,-0.95 -1.33,-2.16 -1.33,-3.61l0 -9.2zm14.2 -8.39c0.49,0 0.91,0.18 1.27,0.52 0.34,0.35 0.52,0.77 0.52,1.25 0,0.5 -0.18,0.92 -0.52,1.27 -0.35,0.35 -0.78,0.52 -1.27,0.52 -0.48,0 -0.9,-0.18 -1.25,-0.52 -0.35,-0.35 -0.52,-0.77 -0.52,-1.27 0,-0.49 0.17,-0.91 0.52,-1.26 0.34,-0.35 0.76,-0.52 1.26,-0.52zm-1.59 22.33l0 -13.78 -2.23 0 0 -2.42 5.11 0 0 16.2 -2.88 0zm6.41 -8.13c0,-2.5 0.67,-4.53 2.02,-6.06 1.35,-1.54 3.11,-2.31 5.31,-2.31 2.31,0 4.11,0.74 5.39,2.22 1.28,1.48 1.92,3.53 1.92,6.15 0,2.61 -0.65,4.67 -1.96,6.18 -1.31,1.51 -3.09,2.26 -5.35,2.26 -2.31,0 -4.11,-0.76 -5.4,-2.28 -1.29,-1.52 -1.94,-3.58 -1.94,-6.16zm3.04 0c0,4.06 1.43,6.09 4.3,6.09 1.33,0 2.38,-0.54 3.14,-1.63 0.76,-1.09 1.14,-2.57 1.14,-4.46 0,-4.01 -1.42,-6.02 -4.28,-6.02 -1.31,0 -2.35,0.54 -3.13,1.6 -0.78,1.07 -1.17,2.54 -1.17,4.42zm24.61 8.13l0 -9.43c0,-1.72 -0.26,-2.93 -0.78,-3.62 -0.52,-0.69 -1.39,-1.04 -2.61,-1.04 -0.66,0 -1.34,0.2 -2.06,0.59 -0.71,0.4 -1.26,0.88 -1.65,1.45l0 12.05 -2.88 0 0 -16.2 1.97 0 0.91 2.09c0.95,-1.59 2.5,-2.39 4.65,-2.39 3.55,0 5.33,2.16 5.33,6.48l0 10.03 -2.88 0zm5.89 -0.96l1.01 -2.72c1.6,1.05 2.88,1.58 3.86,1.58 1.77,0 2.65,-0.75 2.65,-2.24 0,-1.07 -0.86,-1.99 -2.57,-2.76 -1.31,-0.61 -2.2,-1.06 -2.66,-1.38 -0.46,-0.31 -0.86,-0.67 -1.19,-1.06 -0.34,-0.4 -0.59,-0.83 -0.76,-1.28 -0.17,-0.45 -0.25,-0.93 -0.25,-1.44 0,-1.33 0.49,-2.37 1.46,-3.12 0.97,-0.75 2.24,-1.12 3.8,-1.12 1.18,0 2.67,0.37 4.47,1.12l-0.81 2.66c-1.14,-0.91 -2.29,-1.36 -3.44,-1.36 -0.69,0 -1.26,0.16 -1.74,0.49 -0.47,0.32 -0.7,0.73 -0.7,1.22 0,1.04 0.59,1.83 1.76,2.37l2.06 0.94c1.26,0.57 2.17,1.23 2.75,1.97 0.57,0.74 0.86,1.66 0.86,2.77 0,1.45 -0.51,2.59 -1.53,3.41 -1.02,0.82 -2.43,1.23 -4.23,1.23 -1.7,0 -3.3,-0.42 -4.8,-1.27zm16.9 -3.28c0.62,0 1.15,0.22 1.6,0.67 0.44,0.44 0.66,0.98 0.66,1.6 0,0.63 -0.22,1.17 -0.66,1.61 -0.44,0.45 -0.98,0.67 -1.6,0.67 -0.63,0 -1.16,-0.22 -1.6,-0.67 -0.44,-0.45 -0.66,-0.98 -0.66,-1.61 0,-0.63 0.22,-1.16 0.66,-1.6 0.44,-0.44 0.98,-0.67 1.6,-0.67zm11.37 0c0.63,0 1.16,0.22 1.6,0.67 0.44,0.44 0.66,0.98 0.66,1.6 0,0.63 -0.22,1.17 -0.66,1.61 -0.44,0.45 -0.98,0.67 -1.6,0.67 -0.62,0 -1.15,-0.22 -1.6,-0.67 -0.44,-0.45 -0.66,-0.98 -0.66,-1.61 0,-0.63 0.22,-1.16 0.66,-1.6 0.44,-0.44 0.98,-0.67 1.6,-0.67zm11.37 0c0.63,0 1.16,0.22 1.6,0.67 0.44,0.44 0.66,0.98 0.66,1.6 0,0.63 -0.22,1.17 -0.66,1.61 -0.44,0.45 -0.98,0.67 -1.6,0.67 -0.62,0 -1.15,-0.22 -1.6,-0.67 -0.44,-0.45 -0.66,-0.98 -0.66,-1.61 0,-0.63 0.22,-1.16 0.66,-1.6 0.44,-0.44 0.98,-0.67 1.6,-0.67z"/>
     <ellipse class="fil25" cx="1897.43" cy="4302.41" rx="1.76" ry="1.79"/>
     <polygon class="fil25" points="1893.72,4306.33 1898.85,4306.33 1898.85,4308.06 1898.85,4308.06 1898.85,4348.77 1895.97,4348.77 1895.97,4308.72 1893.72,4308.72 "/>
    </g>
   </g>
   <g id="TCK_x0020_Black.cdr_0">
    <g>
     <path class="fil24" d="M6699.26 4148.04c0,0 -24.85,-60.68 -83.42,-72.98 -0.41,0.02 -9.73,-2.79 -7.92,6.33 1.81,9.12 12.12,15.74 12.12,15.74 0,0 -11.77,-12.64 -8.26,-18.8 0,0 42.78,1.81 87.48,69.72z"/>
     <path class="fil24" d="M6700.56 4117.18c0,0 -31.02,-70.28 -91.09,-78.09 -2.61,-0.33 -8.67,-2.16 -9.73,4.09 -0.97,5.75 4.87,15.2 14.99,23.12 0,0 -15.02,-17.59 -10.94,-23.78 0,0 43.26,-1.84 96.77,74.65z"/>
     <path class="fil24" d="M6764.37 4053.65c0,0 -11.31,4.39 -13.37,34.6 -2.06,30.21 -31.22,51.63 -31.22,51.63 0,0 5.17,-127.5 -120.14,-135.43 0,0 -5.48,20.22 20.53,29.37 0,0 -16.2,-11.29 -15.73,-23.33 0,0 106.67,3.22 107.24,147.01 0,0 21.69,-17.75 30.1,-30.15 8.41,-12.4 13.68,-20.75 13.34,-38.01 -0.34,-17.26 2.69,-27.15 9.26,-35.69z"/>
     <path class="fil24" d="M6717.98 4078.62c0,0 5.72,-36.19 46.23,-45.6 0,0 -1.07,19.84 23.58,29.17 0,0 2.48,0.11 1.39,5.06 -1.09,4.96 -4.68,22.08 15.79,18.14 0,0 1.44,-2.7 0.56,-5.56 -0.88,-2.86 0.28,-1.75 0.28,-1.75 0,0 0.56,-0.34 1.69,5.85 0,0 0,1.2 2.09,4.38 0,0 11.61,0.02 17.44,-18.73 0,0 1.18,-8.12 -17.2,-51.7l56.54 -28.81 -61.75 16.24 -1.01 -2.39c0,0 10.67,-17.43 -10.83,-35.28 0,0 -13.68,18.13 -13.38,26.22 0,0 -25.51,-0.38 -46.03,27.08 0,0 22.14,-21.51 51.65,-19.25 0,0 5.46,-15.8 9.02,-18.69 0,0 7.41,6.54 2.72,20.32 0,0 21.2,38.51 24.27,65.28 0,0 -6.15,11.24 -8.3,9.93 0,0 -9.77,-9.68 -12.42,-3.16 -2.65,6.52 -6.38,0.85 -5.76,-3.69 0.62,-4.55 4.55,-11.84 -8.31,-15.07 0,0 -21.57,-5.61 -11.63,-34.74 0,0 -47.28,-2.83 -56.63,56.75z"/>
     <path class="fil24" d="M6796.19 4018.21c0,0 9.39,13.7 4.49,15.39 -4.9,1.69 -5.51,-7.33 -4.49,-15.39z"/>
     <path class="fil24" d="M6771.28 3986.75c0,0 -51.22,3.35 -76.77,50.24 0,0 13.24,-56.7 76.77,-50.24z"/>
    </g>
    <g>
     <path class="fil25" d="M6795.44 4119.49l-35.6 53.7c0,0 -4.09,5.27 0.11,7.08 4.2,1.81 5.03,2.02 6.16,2.53 1.13,0.51 3.28,0.17 6.08,-4.2 2.8,-4.38 36.39,-54.39 36.39,-54.39l33.5 13.42c0,0 3.75,1.87 7.45,-3.47 3.7,-5.34 6.85,-10.58 6.85,-10.58 0,0 2.65,-3.6 -2.11,-5.89 -4.75,-2.29 -77.98,-31.51 -77.98,-31.51 0,0 -4.29,-2.6 -8.45,3.06 -4.17,5.66 -6.5,9.72 -6.5,9.72 0,0 -4.27,5.11 2.89,8.05 7.17,2.94 31.21,12.47 31.21,12.47z"/>
     <path class="fil25" d="M6928.93 4172.61l-2.02 2.69c0,0 -3.16,3.22 0.85,4.87 4.01,1.65 8.02,3.3 8.02,3.3 0,0 2.81,0.48 4.94,-2.66 2.13,-3.14 12.74,-19.21 12.74,-19.21 0,0 2.94,-3.48 -3.22,-6.01 -6.17,-2.53 -78.21,-31.77 -78.21,-31.77 0,0 -4.23,-2.65 -8.78,4.27 -4.56,6.92 -44.42,66.71 -44.42,66.71 0,0 -5.09,7.11 1.45,9.71 6.54,2.6 77.52,31.85 78.12,32.1 0.61,0.25 4.25,1.07 9.56,-6.96 5.31,-8.04 5.16,-8.6 5.63,-9.24 0.13,-0.91 2.63,-2.44 -5.01,-5.74 -7.65,-3.31 -63.78,-25.34 -63.78,-25.34l26.68 -40.12 57.44 23.41z"/>
     <path class="fil25" d="M6962.47 4200.43l19.09 -28.16c0,0 2.93,-2.65 -1.51,-4.47 -4.44,-1.82 -10.6,-4.35 -10.6,-4.35 0,0 -3.35,-2.03 -5.8,1.47 -2.44,3.5 -47.81,71.62 -47.81,71.62 0,0 -3.69,4.58 1.23,6.47 4.92,1.89 11.57,4.75 11.57,4.75 0,0 2.87,1.75 7.05,-5.78 4.17,-7.53 13.22,-21.17 13.22,-21.17l25.65 10.53 20.46 40.71c0,0 2.06,4.36 5.81,3.39 3.75,-0.98 9.12,-3.46 9.12,-3.46 0,0 3.9,-1.75 1.36,-6.98 -2.54,-5.23 -15.59,-35.86 -15.59,-35.86 0,0 -2.3,-3.79 4.28,-5.11 6.57,-1.32 50.42,-13.82 50.42,-13.82 0,0 4.26,-0.59 3.65,-5.44 -0.6,-4.85 -1.22,-7.02 -1.22,-7.02 0,0 -1.14,-4.15 -7.59,-2.28 -6.45,1.87 -57.33,15.19 -57.33,15.19l-25.46 -10.23z"/>
    </g>
    <g>
     <path class="fil26" d="M6812.06 4234.69l-1.85 -11.04c-0.62,-0.26 -1.59,-0.71 -2.91,-1.35l-3.67 8.93 -2.81 -1.15 8.42 -20.5c0.1,0.04 0.84,0.31 2.22,0.79 1.38,0.48 2.37,0.85 2.99,1.11 4.93,2.02 6.59,5 4.98,8.92 -0.53,1.29 -1.4,2.28 -2.62,2.99 -1.22,0.7 -2.42,0.96 -3.61,0.76l2.07 11.86 -3.21 -1.31zm-1.04 -21.45l-2.74 6.69c0.63,0.37 1.26,0.68 1.9,0.94 1.68,0.69 3.01,0.92 3.99,0.69 0.99,-0.23 1.77,-1.04 2.34,-2.44 0.47,-1.15 0.4,-2.14 -0.21,-2.98 -0.61,-0.84 -1.8,-1.63 -3.57,-2.35 -0.28,-0.11 -0.85,-0.29 -1.7,-0.54zm20.56 21.03l-10.79 -4.43c-0.72,1.75 -0.8,3.3 -0.22,4.63 0.52,1.17 1.43,2.03 2.76,2.57 1.52,0.62 2.97,0.69 4.35,0.21l0.33 2.38c-0.58,0.24 -1.36,0.34 -2.33,0.3 -1.22,-0.04 -2.49,-0.33 -3.8,-0.87 -1.89,-0.78 -3.22,-2.07 -4.01,-3.89 -0.89,-2.01 -0.84,-4.2 0.13,-6.58 1.02,-2.47 2.58,-4.15 4.7,-5.03 1.89,-0.78 3.75,-0.8 5.59,-0.04 2.13,0.87 3.56,2.17 4.28,3.87 0.7,1.64 0.66,3.42 -0.13,5.33 -0.24,0.59 -0.54,1.1 -0.88,1.54zm-4.06 -8.46c-1.19,-0.49 -2.34,-0.51 -3.46,-0.07 -1.07,0.42 -1.87,1.16 -2.43,2.21l8.31 3.41c0.44,-1.09 0.48,-2.13 0.11,-3.13 -0.42,-1.09 -1.26,-1.9 -2.53,-2.42zm13.6 20.81l0.45 -1.1c-1.29,0.53 -2.82,0.43 -4.59,-0.29 -1.87,-0.77 -3.12,-2.07 -3.74,-3.89 -0.61,-1.82 -0.46,-3.85 0.46,-6.09 0.92,-2.25 2.38,-3.89 4.38,-4.93 1.99,-1.04 3.93,-1.17 5.78,-0.41 1.55,0.63 2.58,1.48 3.08,2.54l2.85 -6.94 2.67 1.09 -8.67 21.11 -2.67 -1.09zm4.73 -11.52c-0.26,-1.28 -0.97,-2.16 -2.13,-2.64 -1.43,-0.59 -2.8,-0.53 -4.11,0.17 -1.32,0.7 -2.31,1.87 -2.98,3.51 -1.48,3.61 -0.58,6.08 2.7,7.43 0.42,0.17 0.98,0.24 1.67,0.22 0.7,-0.03 1.18,-0.16 1.45,-0.4l3.41 -8.3zm17.31 12.13l-10.79 -4.43c-0.72,1.75 -0.8,3.3 -0.22,4.63 0.51,1.17 1.43,2.03 2.76,2.57 1.52,0.62 2.97,0.69 4.35,0.21l0.33 2.38c-0.58,0.24 -1.35,0.34 -2.32,0.3 -1.23,-0.04 -2.49,-0.33 -3.8,-0.87 -1.89,-0.77 -3.22,-2.07 -4.01,-3.89 -0.89,-2.01 -0.84,-4.2 0.14,-6.58 1.02,-2.47 2.58,-4.15 4.7,-5.03 1.89,-0.78 3.75,-0.8 5.59,-0.04 2.13,0.88 3.56,2.17 4.28,3.87 0.7,1.64 0.65,3.42 -0.13,5.33 -0.24,0.59 -0.54,1.1 -0.88,1.54zm-4.06 -8.46c-1.19,-0.49 -2.34,-0.51 -3.46,-0.07 -1.07,0.42 -1.87,1.15 -2.43,2.2l8.31 3.41c0.44,-1.08 0.48,-2.12 0.1,-3.13 -0.41,-1.09 -1.26,-1.9 -2.52,-2.42zm19.89 1.5c-0.47,-0.41 -0.93,-0.71 -1.4,-0.91 -0.81,-0.33 -1.61,-0.3 -2.39,0.09 -0.78,0.4 -1.37,1.07 -1.75,2.01 -0.1,0.26 -0.18,0.52 -0.23,0.82l3.04 1.25 -0.92 2.23 -3.04 -1.24 -5.23 12.74 -2.67 -1.09 5.23 -12.75 -2.18 -0.89 0.92 -2.24 2.18 0.9c0.78,-1.91 1.87,-3.22 3.26,-3.92 1.39,-0.7 2.86,-0.73 4.41,-0.1 0.77,0.32 1.55,0.8 2.32,1.44l-1.55 1.65zm12.65 27.09l3.58 -8.72c0.65,-1.59 0.87,-2.81 0.65,-3.65 -0.22,-0.84 -0.89,-1.49 -2.02,-1.95 -0.61,-0.25 -1.31,-0.33 -2.13,-0.24 -0.81,0.1 -1.5,0.33 -2.07,0.72l-4.57 11.15 -2.66 -1.09 6.15 -14.98 1.82 0.74 0.05 2.28c1.48,-1.11 3.22,-1.27 5.21,-0.45 3.29,1.35 4.11,4.02 2.47,8.01l-3.81 9.28 -2.67 -1.09zm17.63 -16.9c0.46,0.19 0.78,0.51 0.97,0.96 0.19,0.46 0.19,0.91 0.01,1.35 -0.19,0.46 -0.51,0.78 -0.96,0.98 -0.45,0.19 -0.91,0.19 -1.37,0 -0.45,-0.19 -0.77,-0.5 -0.96,-0.96 -0.19,-0.46 -0.19,-0.92 0,-1.37 0.19,-0.45 0.5,-0.78 0.95,-0.96 0.44,-0.19 0.9,-0.19 1.36,0zm-9.94 20.05l5.23 -12.75 -2.06 -0.85 0.92 -2.23 4.72 1.94 -6.15 14.98 -2.66 -1.09zm16.13 6.62l3.58 -8.72c0.65,-1.59 0.87,-2.81 0.65,-3.65 -0.22,-0.83 -0.89,-1.49 -2.02,-1.95 -0.61,-0.25 -1.32,-0.33 -2.13,-0.24 -0.81,0.1 -1.5,0.33 -2.07,0.72l-4.57 11.14 -2.66 -1.09 6.15 -14.98 1.82 0.74 0.05 2.28c1.48,-1.11 3.22,-1.27 5.21,-0.45 3.29,1.35 4.11,4.02 2.47,8.01l-3.81 9.28 -2.67 -1.09zm4.2 6.52l2.31 -1.54c1.13,1.67 2.35,2.77 3.65,3.31 1.21,0.5 2.24,0.68 3.11,0.55 0.87,-0.13 1.43,-0.5 1.68,-1.11 0.5,-1.21 -0.13,-2.18 -1.89,-2.89 -0.3,-0.13 -0.87,-0.27 -1.72,-0.44 -0.85,-0.17 -1.49,-0.35 -1.93,-0.52 -2.13,-0.87 -2.87,-2.11 -2.2,-3.72 0.2,-0.49 0.63,-0.84 1.3,-1.04 0.66,-0.2 1.4,-0.24 2.2,-0.11 -1.7,-1.85 -2.06,-4 -1.05,-6.46 0.65,-1.56 1.72,-2.65 3.25,-3.24 1.52,-0.6 3.08,-0.57 4.69,0.09 1.48,0.61 2.5,1.39 3.08,2.33l1.99 -1.05 1.06 2.35 -2.09 0.56c0.32,1.16 0.19,2.46 -0.4,3.89 -0.62,1.51 -1.61,2.59 -2.98,3.23 -1.36,0.64 -2.84,0.72 -4.43,0.24l-2.29 -0.67c-0.27,-0.08 -0.66,-0.12 -1.17,-0.13 -0.5,-0 -0.81,0.13 -0.93,0.41 -0.16,0.38 0.22,0.76 1.13,1.14 0.4,0.16 1.06,0.35 1.96,0.55 0.91,0.21 1.57,0.39 1.98,0.56 1.47,0.61 2.48,1.43 3.02,2.47 0.54,1.04 0.55,2.19 0.04,3.43 -0.56,1.38 -1.64,2.24 -3.22,2.58 -1.59,0.34 -3.33,0.12 -5.22,-0.66 -0.97,-0.4 -1.92,-0.99 -2.85,-1.78 -0.93,-0.78 -1.62,-1.56 -2.07,-2.31zm12.7 -14.91c-0.93,-0.38 -1.81,-0.37 -2.67,0.05 -0.85,0.41 -1.47,1.09 -1.85,2.02 -0.43,1.05 -0.5,2.03 -0.22,2.94 0.28,0.92 0.9,1.58 1.87,1.97 0.94,0.39 1.82,0.36 2.63,-0.09 0.8,-0.45 1.43,-1.22 1.87,-2.3 0.38,-0.93 0.42,-1.85 0.11,-2.74 -0.3,-0.89 -0.89,-1.51 -1.75,-1.86zm23.49 14.25l-3.76 9.17 -2.81 -1.15 3.76 -9.17 -1.95 -14.01 2.89 1.19 1.43 11.04 8.77 -6.85 2.89 1.19 -11.23 8.61zm3.69 3.44c0.95,-2.31 2.34,-3.93 4.17,-4.84 1.83,-0.91 3.76,-0.95 5.8,-0.12 2.14,0.88 3.52,2.24 4.15,4.1 0.63,1.85 0.44,3.99 -0.56,6.42 -0.99,2.42 -2.38,4.07 -4.17,4.97 -1.79,0.9 -3.72,0.92 -5.81,0.06 -2.14,-0.88 -3.51,-2.27 -4.12,-4.17 -0.62,-1.9 -0.43,-4.04 0.55,-6.43zm2.81 1.15c-1.54,3.76 -0.99,6.18 1.66,7.27 1.23,0.5 2.41,0.4 3.52,-0.32 1.11,-0.72 2.03,-1.95 2.75,-3.69 1.52,-3.71 0.97,-6.11 -1.67,-7.19 -1.21,-0.5 -2.38,-0.4 -3.5,0.29 -1.13,0.69 -2.04,1.91 -2.76,3.64zm19.12 -0.86l-3.93 9.56c-0.95,2.31 -0.42,3.88 1.58,4.7 0.88,0.36 1.78,0.44 2.72,0.23 0.93,-0.2 1.65,-0.59 2.16,-1.16l4.32 -10.53 2.67 1.09 -6.15 14.98 -2.67 -1.09 0.85 -2.07c-0.54,0.47 -1.36,0.76 -2.46,0.88 -1.11,0.12 -2.09,0.01 -2.94,-0.34 -1.64,-0.67 -2.7,-1.66 -3.19,-2.96 -0.49,-1.3 -0.37,-2.82 0.34,-4.55l4.04 -9.84 2.66 1.09zm20.23 11.28c-0.41,-0.64 -0.91,-1.08 -1.5,-1.32 -0.94,-0.39 -1.94,-0.29 -3,0.28 -1.06,0.58 -1.84,1.48 -2.34,2.7l-3.53 8.6 -2.67 -1.09 6.15 -14.98 2.67 1.09 -0.98 2.38c1.7,-1.38 3.51,-1.67 5.43,-0.89 0.47,0.19 1.12,0.56 1.95,1.09l-2.17 2.13z"/>
     <path class="fil26" d="M6879.44 4290.68l3.58 -8.72c0.65,-1.59 0.87,-2.81 0.65,-3.65 -0.22,-0.83 -0.89,-1.48 -2.02,-1.95 -0.61,-0.25 -1.32,-0.33 -2.13,-0.24 -0.81,0.09 -1.5,0.33 -2.07,0.72l-4.57 11.14 -2.67 -1.09 6.15 -14.98 1.82 0.75 0.05 2.27c1.48,-1.11 3.22,-1.26 5.21,-0.45 3.29,1.35 4.11,4.02 2.47,8.02l-3.81 9.28 -2.67 -1.09zm12.66 -9.87l-1.74 -0.72 0.86 -2.09 1.75 0.72 1.28 -3.13 3.08 0.07 -1.7 4.15 4.13 1.69 -0.86 2.09 -4.13 -1.69 -3.06 7.45c-0.52,1.26 -0.67,2.25 -0.46,2.96 0.21,0.7 0.78,1.25 1.73,1.64 0.68,0.28 1.46,0.4 2.33,0.35l-0.57 2.49c-1.22,-0.17 -2.48,-0.53 -3.81,-1.07 -1.19,-0.49 -2.01,-1.34 -2.47,-2.56 -0.45,-1.22 -0.41,-2.5 0.15,-3.84l3.49 -8.52zm20.71 15.13l-10.79 -4.43c-0.72,1.75 -0.8,3.29 -0.22,4.63 0.51,1.17 1.43,2.03 2.76,2.57 1.52,0.62 2.97,0.69 4.35,0.21l0.33 2.38c-0.58,0.24 -1.35,0.34 -2.32,0.3 -1.23,-0.04 -2.49,-0.33 -3.8,-0.87 -1.89,-0.77 -3.22,-2.07 -4.01,-3.89 -0.89,-2.01 -0.84,-4.2 0.14,-6.58 1.01,-2.47 2.58,-4.15 4.7,-5.03 1.89,-0.78 3.75,-0.8 5.59,-0.04 2.13,0.87 3.56,2.17 4.28,3.87 0.7,1.64 0.65,3.42 -0.13,5.33 -0.24,0.59 -0.54,1.1 -0.88,1.54zm-4.06 -8.46c-1.19,-0.49 -2.34,-0.51 -3.46,-0.07 -1.07,0.42 -1.87,1.15 -2.43,2.2l8.31 3.41c0.44,-1.08 0.48,-2.12 0.11,-3.13 -0.42,-1.09 -1.26,-1.9 -2.53,-2.42zm13.32 20.69l3.58 -8.72c0.66,-1.59 0.87,-2.81 0.66,-3.65 -0.22,-0.83 -0.89,-1.48 -2.02,-1.95 -0.61,-0.25 -1.31,-0.33 -2.13,-0.24 -0.81,0.09 -1.5,0.33 -2.07,0.72l-4.57 11.14 -2.67 -1.09 6.15 -14.98 1.82 0.75 0.05 2.27c1.48,-1.11 3.22,-1.26 5.21,-0.45 3.28,1.35 4.11,4.02 2.47,8.02l-3.81 9.28 -2.67 -1.09zm12.66 -9.87l-1.75 -0.72 0.86 -2.09 1.75 0.72 1.29 -3.13 3.08 0.07 -1.7 4.15 4.13 1.69 -0.86 2.09 -4.13 -1.69 -3.06 7.45c-0.52,1.26 -0.67,2.25 -0.46,2.96 0.2,0.7 0.78,1.25 1.73,1.64 0.69,0.28 1.46,0.4 2.34,0.35l-0.57 2.49c-1.22,-0.17 -2.49,-0.53 -3.81,-1.07 -1.19,-0.49 -2.01,-1.34 -2.47,-2.56 -0.45,-1.22 -0.41,-2.5 0.15,-3.84l3.49 -8.52zm16.33 -2.37c0.45,0.19 0.78,0.51 0.97,0.96 0.19,0.46 0.19,0.91 0.01,1.35 -0.19,0.46 -0.51,0.78 -0.96,0.98 -0.46,0.19 -0.91,0.19 -1.37,0 -0.45,-0.19 -0.77,-0.51 -0.96,-0.96 -0.19,-0.46 -0.19,-0.91 0,-1.37 0.19,-0.46 0.5,-0.78 0.95,-0.96 0.45,-0.19 0.9,-0.19 1.36,0zm-9.95 20.05l5.23 -12.74 -2.06 -0.85 0.92 -2.24 4.73 1.94 -6.15 14.98 -2.67 -1.09zm9.02 -5.09c0.95,-2.31 2.34,-3.93 4.17,-4.84 1.83,-0.91 3.76,-0.95 5.79,-0.12 2.15,0.88 3.53,2.24 4.15,4.1 0.62,1.85 0.44,3.99 -0.56,6.42 -0.99,2.42 -2.38,4.07 -4.17,4.98 -1.78,0.89 -3.72,0.92 -5.8,0.06 -2.14,-0.88 -3.51,-2.27 -4.13,-4.17 -0.61,-1.9 -0.43,-4.04 0.55,-6.43zm2.81 1.15c-1.54,3.76 -0.98,6.18 1.67,7.26 1.23,0.51 2.41,0.4 3.52,-0.31 1.12,-0.72 2.04,-1.95 2.75,-3.69 1.52,-3.71 0.96,-6.11 -1.68,-7.19 -1.21,-0.5 -2.38,-0.4 -3.5,0.29 -1.13,0.69 -2.04,1.91 -2.76,3.65zm19.68 16.87l3.58 -8.72c0.65,-1.59 0.87,-2.81 0.65,-3.65 -0.21,-0.83 -0.89,-1.49 -2.02,-1.95 -0.61,-0.25 -1.31,-0.33 -2.13,-0.24 -0.81,0.1 -1.5,0.33 -2.07,0.72l-4.57 11.14 -2.66 -1.09 6.15 -14.98 1.82 0.75 0.05 2.27c1.48,-1.11 3.22,-1.27 5.21,-0.45 3.28,1.35 4.11,4.02 2.46,8.01l-3.81 9.28 -2.66 -1.09zm5.81 1.35l1.97 -2.14c1.08,1.58 2.07,2.56 2.97,2.93 1.64,0.67 2.74,0.31 3.31,-1.06 0.41,-0.99 -0.04,-2.17 -1.33,-3.53 -0.99,-1.06 -1.63,-1.82 -1.94,-2.28 -0.31,-0.46 -0.54,-0.94 -0.7,-1.44 -0.16,-0.5 -0.23,-0.99 -0.22,-1.47 0.02,-0.48 0.13,-0.95 0.32,-1.43 0.51,-1.23 1.35,-2.01 2.53,-2.33 1.18,-0.33 2.49,-0.19 3.94,0.41 1.09,0.45 2.33,1.36 3.71,2.73l-1.76 2.15c-0.71,-1.28 -1.6,-2.13 -2.67,-2.57 -0.63,-0.26 -1.23,-0.33 -1.79,-0.21 -0.56,0.12 -0.93,0.41 -1.11,0.87 -0.39,0.96 -0.15,1.91 0.74,2.86l1.55 1.65c0.94,1 1.54,1.96 1.79,2.86 0.25,0.9 0.17,1.86 -0.25,2.89 -0.55,1.34 -1.46,2.2 -2.71,2.57 -1.25,0.37 -2.71,0.22 -4.38,-0.46 -1.58,-0.65 -2.9,-1.65 -3.96,-3zm16.88 3.38c0.58,0.24 0.98,0.65 1.23,1.22 0.24,0.58 0.24,1.15 0,1.73 -0.24,0.58 -0.65,0.99 -1.22,1.24 -0.58,0.24 -1.16,0.25 -1.74,0.01 -0.58,-0.24 -0.98,-0.65 -1.22,-1.23 -0.24,-0.58 -0.24,-1.16 0,-1.74 0.24,-0.58 0.65,-0.98 1.22,-1.23 0.58,-0.24 1.15,-0.25 1.73,-0.01zm10.52 4.32c0.58,0.24 0.99,0.65 1.23,1.22 0.24,0.57 0.24,1.15 0,1.73 -0.24,0.58 -0.65,1 -1.22,1.24 -0.58,0.25 -1.16,0.25 -1.74,0.01 -0.57,-0.24 -0.98,-0.64 -1.22,-1.23 -0.24,-0.58 -0.24,-1.16 0,-1.74 0.24,-0.58 0.64,-0.98 1.22,-1.23 0.58,-0.24 1.16,-0.24 1.73,-0.01zm10.52 4.31c0.58,0.24 0.98,0.65 1.23,1.22 0.24,0.58 0.24,1.15 0,1.73 -0.24,0.58 -0.65,0.99 -1.22,1.24 -0.58,0.24 -1.16,0.25 -1.74,0.01 -0.58,-0.24 -0.98,-0.65 -1.22,-1.23 -0.24,-0.58 -0.24,-1.16 0,-1.74 0.24,-0.58 0.65,-0.98 1.22,-1.23 0.58,-0.24 1.15,-0.24 1.73,-0.01z"/>
     <ellipse class="fil25" transform="matrix(0.0920066 0.0377624 -0.0377624 0.0920066 6884.28 4242.53)" rx="17.71" ry="17.97"/>
     <polygon class="fil25" points="6879.35,4244.75 6884.09,4246.7 6883.44,4248.3 6883.44,4248.3 6867.99,4285.96 6865.32,4284.87 6880.53,4247.81 6878.44,4246.95 "/>
    </g>
   </g>
  </g>
 </g>
</svg>
