<?xml version="1.0" encoding="UTF-8"?>
<!DOCTYPE svg PUBLIC "-//W3C//DTD SVG 1.1//EN" "http://www.w3.org/Graphics/SVG/1.1/DTD/svg11.dtd">
<!-- Creator: CorelDRAW 2019 (64-Bit) -->
<svg xmlns="http://www.w3.org/2000/svg" xml:space="preserve" width="8.5in" height="11in" version="1.1" style="shape-rendering:geometricPrecision; text-rendering:geometricPrecision; image-rendering:optimizeQuality; fill-rule:evenodd; clip-rule:evenodd"
viewBox="0 0 8500 11000"
 xmlns:xlink="http://www.w3.org/1999/xlink"
 xmlns:xodm="http://www.corel.com/coreldraw/odm/2003">
 <defs>
  <style type="text/css">
   <![CDATA[
    .fil11 {fill:#FEFEFE}
    .fil10 {fill:#00AFEF}
    .fil8 {fill:#110C09}
    .fil2 {fill:#23232C}
    .fil6 {fill:#33454C}
    .fil13 {fill:#4B1702}
    .fil15 {fill:#6C564F}
    .fil4 {fill:#923D20}
    .fil9 {fill:#A19AA2}
    .fil3 {fill:#CD6D35}
    .fil14 {fill:#CECFD0}
    .fil5 {fill:#CF7E5E}
    .fil7 {fill:#E2A370}
    .fil1 {fill:#ECC9AB}
    .fil0 {fill:#FEE6CD}
    .fil12 {fill:#FEFEFE;fill-rule:nonzero}
   ]]>
  </style>
 </defs>
 <g id="Layer_x0020_1">
  <metadata id="CorelCorpID_0Corel-Layer"/>
  <path class="fil0" d="M5733.14 5632.31c119.86,56.31 319.52,12.98 355.77,149.44l-4.41 102.01c-70.06,46.22 -183.91,82.19 -291.13,80.45l-27.5 35.82c145.79,135.87 149.84,335.04 198.13,568.17l266.74 1269.85c38.94,188.54 104.81,435.76 126.61,621.36l-64.98 9.11c12.45,155.88 41.42,147.24 84.64,194.22 20.19,6.57 94.01,66.85 146.11,90.74 65.56,30.06 130.8,36.87 206.81,49.5 160.58,26.66 255.03,67.31 313.88,196 61.98,48.18 69.91,52.51 68.95,152.28 7.52,135.53 21.35,209.03 -64.33,268.37 -58.79,40.7 -156.75,80.15 -236.8,104.87 -350.37,108.19 -861.2,150.32 -1237.19,160.64 -113.68,3.12 -227.45,4.05 -341.19,2.84l-257.04 -9.23c-116.33,7.59 -53.23,-15.33 -89.42,41.61 115.93,104.59 18.54,184.35 -130.37,171.31 -103.26,-9.07 -233.94,-51.74 -325.39,-84.88 -138.96,-50.35 -486.85,-184.47 -546.06,-270.63 -95.2,-25.97 -183.85,-58.15 -257.19,-103.11 -113.57,-69.63 -90.4,-122.07 -87.64,-285.19 2.86,-227.83 305.72,-220.2 474.72,-307.78 38.32,-194.16 30.93,-350.59 30.94,-552.69 0.02,-173.71 41.99,-380.61 36.15,-521.3l-17.15 -70.15c-15.49,47.53 -18.37,45.49 -22.5,101.97 33.91,-93.47 -2.54,-27.24 -32.98,-52.04 -13.66,16.86 -3.1,22.46 -102.35,64.31 -105.03,44.29 -851.65,304.94 -862.55,344.79 -1.13,4.09 -3.65,9.97 -4.85,15.09 -31.79,134.77 10.3,-92.34 -6.55,31.73l-0.95 153.99c-0.02,76.56 -1.51,133.92 9.49,208.43 71,85.08 165.21,77.91 231.7,267.6 45.45,129.71 8.52,321.46 -69.39,398.5 -17.67,42.01 -3.47,27.22 -42.59,47.91 -64.15,74.2 -145.43,117.18 -223.36,176.35 -85.51,64.94 -117.46,120.81 -262.63,123.41 -340.42,6.13 -310.33,-160.06 -523.16,-246.24 -229.24,12.71 -340.35,10.39 -533.96,-53.96 47.21,183.87 -224.61,295.63 754.92,416.21 129.77,15.98 667.42,102.21 785.68,139.64 396.51,125.54 521.41,303.51 924.65,455.4 212.96,80.21 22.65,28.91 344.48,112.44 765.74,198.74 1971.14,170.93 2718.54,-82.91 226.85,-77.04 417.46,-176.57 606.71,-314.55 199.96,-145.81 525.25,-498.54 376.02,-775.91 -106.76,-198.46 -211.01,-178.37 -341.46,-275.3 19.36,-97.5 145.57,-172.16 108.78,-579.85 -27.08,-299.92 -206.5,-830.33 -283.72,-1119.71 -149.8,-561.24 -215.54,-930.4 -749.42,-1345.19l-874.03 -524.97 -58.89 87.52c-65.6,94.54 -112.69,104.71 -197.29,161.7z"/>
  <path class="fil1" d="M971.31 8588.07l14.67 -1.27c73.56,6.39 148.37,7.29 222.71,9.81 102.65,3.49 103.22,0.28 214.39,-9.65l-20.25 54.24c35.9,-31.61 3.73,7.48 31.51,-42.55l225.27 -576.27c126.33,-372.57 66.17,-433.36 32.74,-745.15l630.61 -3.7c-32.14,259.54 -80.25,359.03 -5.16,636.91 20.75,76.8 144.76,446.19 203.07,496.1l-25.06 -67.7c56.21,-34.07 196.4,-86.03 270.4,-88.77l0.04 -1770.73 -106.2 -37.52c-139.1,13.74 -304.11,-17.43 -433.58,-43.96 -64.39,-13.17 -132.05,-28.53 -184.05,-54.86 -80.15,-40.59 -64.29,-72.43 -67.78,-155.18 12.15,-114 131.63,-135.72 245.9,-159.99 108.48,-23.05 259.2,-46.3 373.12,-46.2 -43.8,-178.97 -73.02,-239.59 -54.96,-447.48l-34.8 41.69 -217.56 -175.24c-123.37,-108.96 -581.34,-409.93 -781.57,-362.14 -59.46,145.15 -130.62,1195.51 -387.74,1759.22 -26.37,57.82 -48.62,127.17 -71.2,197.06l-29.74 92.32c-1.53,4.03 -3.59,8.32 -5.12,12.25l-119.8 539.86c-76.08,824.71 65.32,769.02 80.13,948.9z"/>
  <path class="fil0" d="M971.31 8588.07c-14.81,-179.88 -156.21,-124.19 -80.13,-948.9l119.8 -539.86c1.53,-3.93 3.59,-8.22 5.12,-12.25l29.74 -92.32c22.59,-69.89 44.83,-139.24 71.2,-197.06 257.13,-563.72 328.29,-1614.08 387.74,-1759.22 200.23,-47.79 658.2,253.18 781.57,362.14l217.56 175.24 34.8 -41.69 12.41 -177.36c-32.66,-383.76 -15.25,-1468.81 118.59,-1771.87 -833.51,11.22 -1002.37,743.53 -1170.08,1428.33 -516.17,49.36 -674.79,224.2 -790.4,763.62 -4.72,22.02 -7.84,40.21 -16.96,66.63l-95.1 346.87c-104.91,426.37 -459.63,1122.67 -339.87,1700.89 87.64,423.04 277.01,604.37 714.02,696.81z"/>
  <path class="fil2" d="M2538.71 5534.15c-18.05,207.89 11.16,268.51 54.96,447.48 36.71,70.64 48.9,111.72 91.53,178.63 35.96,56.39 63.99,80.47 109.38,142.35 40.88,28.41 60.28,59.01 101.28,90.34 43.44,33.18 66.87,41.12 100.37,86.19 58.45,-0.2 29.5,1.95 48.7,20.15 139.39,60.69 287.85,163.16 427.31,239.8 146.94,80.75 285.61,162.98 423.73,242.06 176.25,100.9 375.31,175.53 354.93,290.01 -7.66,42.98 -152.84,478.03 -168.96,494.93 5.84,140.69 -36.13,347.59 -36.15,521.3 -0.02,202.1 7.37,358.53 -30.94,552.69l-28.03 163.7 39.81 35.32c81.24,26.88 234.1,26.56 341.41,15.5 112.06,-14.39 94.67,-26.03 126.93,-122.82 18.36,-55.02 46.26,-157.96 68.08,-203.21 13.3,-50.73 28.45,-91.8 45.73,-145.67 71.55,-222.93 267.46,-873.91 274.11,-1029.33 31.87,-144.36 80.21,-282.89 88.61,-426.04 20.81,-354.58 -442.7,-318.42 -956.92,-522.27 -424.9,-168.46 -688.11,-570.52 -752.86,-1011.62 -14.99,-102.25 -2.72,-98.85 -48.74,-174.28 -65.91,-11.02 -344.69,-48.31 -377.15,-73.76l-284.73 11.2 -12.41 177.36z"/>
  <path class="fil3" d="M5205.21 8730.71c-119.02,6.05 -230.23,9.33 -346.65,14.83 -56.67,2.68 -113.47,4.81 -169.89,10.5 -60.82,6.13 -128.84,32.64 -125.62,-27.48 -21.82,45.25 -49.72,148.19 -68.08,203.21 -32.26,96.79 -14.87,108.44 -126.93,122.82 -23.17,76.14 -27.06,175.17 0.14,239.56 62.7,43.84 75.41,142.04 168.07,142.67 595.41,72.65 1742.74,65.02 2345.24,-147.7 132.81,-46.89 133.52,-68.52 231.26,-137.85 0.96,-99.77 -6.97,-104.1 -68.95,-152.28l-13.54 57.72 -1012.33 -3.59c-46.3,-76.76 -57.58,-198.76 -43.92,-300.87l-520.48 -21.54c0,-249.63 -1.99,-500.05 -1.99,-750.24 0,-171.18 -20.37,-610.94 11.5,-750.89l-4.37 -58.55c-35.18,-59.54 -17.35,-865.47 -13.76,-1051.23 2.5,-129.95 -16.16,-109.22 -41.08,-118.93 -40.64,25.95 -30.44,-15.11 -27.34,171.16 15.47,925.91 1.77,1996.89 -1.01,2924.93l-172.08 -15.67 1.8 -350.57z"/>
  <path class="fil4" d="M2611.5 9231.19c72.77,4.67 20.97,-17.99 59.35,28.67 -33.16,55.29 12.13,44.2 -51.82,24.04 -19.18,-15.96 -7.54,-52.65 -7.54,-52.71zm-244.07 -253.04c58.37,8.16 48.66,-1.27 45.35,69.69l-55.11 1.17c-11.34,-53.49 -26.11,-27.9 9.75,-70.86zm488.12 71.46l4.03 -75.35c53.27,9.25 56.29,11.2 64.59,59.72l-68.62 15.63zm-377.53 -174.76c107.15,-46.8 67.92,-13.82 145.29,30.46 63.93,-18.43 27.22,-19.04 69.43,-37.7 54.98,-24.28 29.74,-20.61 84.09,2.09 40.42,79.5 -1.93,78.22 -37.9,134.27 15.23,38.76 1.67,6.12 18.6,35.96 84.04,148.19 -16.91,148.63 -88.13,107.23 -29.98,-17.45 -5.91,-15.52 -46.1,-26.66 -56.54,39.47 -56.88,69.11 -144.96,28.61 -11.91,-91.11 7.76,-66.44 46.42,-128.08 -25.37,-91.95 -63.43,-34.33 -46.74,-146.19zm125.42 -143.98c23.29,2.16 31.39,-10.96 46.64,11.35 46.08,67.35 -7.09,44.79 -9.71,49.08 -47.2,-23.57 -28.09,-4.19 -36.93,-60.43zm56.61 -2289.05l114.24 6.06 8.18 2096.56c-255.07,33.81 -514.09,-105.45 -717.34,157.7 -108.3,140.21 -121.98,353.45 -19.65,504.54l106.64 125.04c212.82,86.19 182.74,252.37 523.16,246.24 145.17,-2.6 177.12,-58.47 262.63,-123.41 77.93,-59.17 159.21,-102.15 223.36,-176.35l42.59 -47.91c77.91,-77.05 114.84,-268.79 69.39,-398.5 -66.49,-189.69 -160.7,-182.52 -231.7,-267.6l-22.81 -1.01 -75.15 -32.26 -0.02 -2051.59c28.35,-16.18 -32.76,-31.15 52.67,-0.2 -33.5,-45.07 -56.94,-53.01 -100.37,-86.19 -41,-31.33 -60.41,-61.94 -101.28,-90.34 -22.1,26.72 -22.55,30.36 -119.42,24.84 -37.47,-2.14 -78.78,-5.96 -117.06,-8.7 -292,-20.93 -340.68,-46 -583.46,-130.92 3.48,82.75 -12.37,114.58 67.78,155.18 52,26.33 119.66,41.69 184.05,54.86 129.47,26.54 294.48,57.7 433.58,43.96z"/>
  <path class="fil5" d="M2766.22 8250.07l-2.6 279.27 -208.65 -1.78c-26.43,-53.23 -40.58,-72.33 -34.09,-121.03 -58.31,-49.91 -182.31,-419.3 -203.07,-496.1 -75.09,-277.88 -26.98,-377.37 5.16,-636.91l-630.61 3.7c33.43,311.79 93.59,372.57 -32.74,745.15l-225.27 576.27c-27.78,50.03 4.39,10.94 -31.51,42.55 -2.38,77.19 -31.87,122.32 -28.23,226.67 3.37,96.53 26.86,141.42 53.31,221.32 35.08,28.02 50.63,68.18 85.73,103.34 34.35,34.41 72.81,51.78 104.53,85.24 193.6,64.35 304.72,66.67 533.96,53.96l-106.64 -125.04c-102.33,-151.09 -88.65,-364.33 19.65,-504.54 203.25,-263.15 462.27,-123.89 717.34,-157.7l-8.18 -2096.56 -114.24 -6.06 106.2 37.52 -0.04 1770.73z"/>
  <path class="fil6" d="M3213 5419.35c46.02,75.43 -25.29,99.81 -10.3,202.06 64.75,441.09 383.53,864 808.43,1032.45 514.21,203.85 969.91,115.61 949.1,470.19 -8.4,143.15 -45.46,285.15 -77.33,429.51 36.29,-22.56 45.64,-31.85 77.57,-67.01 37.41,-41.18 41.04,-48.54 60.76,-100.09 5.62,-80.47 52.02,-86.64 58.63,-149.72 39.07,-383.65 27.67,-376.28 -258.33,-706.14 -113.85,-131.34 -160.62,-199.34 -247.74,-357.6 -55.46,-100.8 -140.21,-456.73 -19.36,-503.31 -121.47,-103.24 -1128.28,-192.13 -1293,-347.13 -29.92,35.62 5.38,-14.43 -15.01,37.15 -1.85,4.72 -6.71,20.33 -8.67,24.64 -19.58,43.06 20.17,17.43 -24.76,35z"/>
  <path class="fil1" d="M3018.75 8563.19l22.81 1.01c-11,-74.51 -9.51,-131.87 -9.49,-208.43l0.95 -153.99c16.84,-124.07 -25.24,103.04 6.55,-31.73 1.21,-5.12 3.73,-11 4.85,-15.09 10.9,-39.85 757.52,-300.5 862.55,-344.79 99.25,-41.85 88.69,-47.45 102.35,-64.31 30.44,24.8 66.89,-41.43 32.98,52.04 4.13,-56.48 7.01,-54.44 22.5,-101.97l17.15 70.15c16.12,-16.9 161.3,-451.95 168.96,-494.93 20.39,-114.48 -178.67,-189.11 -354.93,-290.01 -138.11,-79.08 -276.79,-161.3 -423.73,-242.06 -139.46,-76.64 -287.93,-179.11 -427.31,-239.8 -53.97,-19.08 -29.17,65.62 -28.85,218.87 0.89,413.31 -21.07,1622.12 2.66,1845.03z"/>
  <path class="fil2" d="M5458.69 7171.04l4.37 58.55c71.81,231.62 122.4,420.61 220.07,641.79 51.58,116.78 214.43,541.69 259.48,604.25l349.75 -7.11 64.98 -9.11c-21.8,-185.6 -87.67,-432.81 -126.61,-621.36l-266.74 -1269.85c-48.3,-233.13 -52.34,-432.29 -198.13,-568.17l-20.83 -12.98 -286.62 13.48 0.28 1170.51z"/>
  <path class="fil7" d="M3477.19 2630.31c49.26,12.85 17.49,12.97 49.32,59.15 11.7,16.98 9.23,97.66 27.38,125.06 29.84,45.01 93.89,83.61 126.61,122l275.08 329.54c78.56,85.21 245.24,35 273.69,-48.94 5.42,-15.94 -18.54,-56.8 -17.69,-73.7 2.6,-51.68 -8.74,-116.5 -14.41,-168.05 -11.81,-39.63 -91.45,-78.64 -186.17,-226.56 -106.4,-166.2 -104.81,-219.47 -53.31,-349.7 -89.78,0.81 -192.59,60.83 -240.81,33.34 -28.24,40.7 -51.66,78.07 -96.04,114.3 -46.54,37.98 -104.91,54.32 -143.65,83.57z"/>
  <path class="fil8" d="M4041.49 1992.67c19.52,-17.47 13.04,-25.87 50.07,-31.47 53.23,-8.04 17.27,-11.36 36.83,17.33 48.09,57.54 52.14,94.33 11.22,166.62 -29.74,52.53 -54.32,100.74 -100.44,117.72 -75.43,-85.35 -8.32,-185.86 2.32,-270.2zm-326.56 442.69c48.21,27.48 135.21,-2.13 224.99,-2.94 -51.5,130.24 -70.86,174.62 35.54,340.82 94.71,147.92 189.91,182.48 201.72,222.11l67.47 38.26 106.04 37.48 53.67 12.59 67.09 -11.81 79.32 -253.06 0.16 -90.54c-151.87,-83.15 -289.69,40.44 -353.17,-93.57 -55.57,-117.34 10.57,-309.39 60.52,-401.38l24.68 -63.3c83.41,-23.8 126.71,-6.31 211.57,-62.76 101.16,-67.29 62.7,-92.24 141.66,-136.56 105.82,71.6 71.75,184.89 63.33,305.3l243.65 -24.34c114.02,-22.3 209.07,-93.77 181.15,-234.48 -16.02,-80.67 -139.67,-197.53 -191.1,-253.02 -129.27,-139.52 -241.55,-351.5 -510.24,-391.75 -283.82,-42.51 -482.44,121.57 -569.82,298.53 -66.77,135.19 -63.87,209.33 -67.56,373.5 -3.48,155.56 -31.91,254.93 -70.68,390.93z"/>
  <path class="fil6" d="M3386.89 2662.51c-8.12,57.86 2.02,40.56 38.08,98.48 17.79,28.55 32.3,56.17 49.65,86.52 32.6,56.94 68.89,129.13 88.37,198.78 132.76,177.52 157.38,904.66 179.9,1187.96 15.23,191.52 21.7,446.87 50.73,627.64 18.15,112.97 83.11,110.05 199.91,144.88 96.85,28.89 186.61,62.44 284.47,80.85l26.11 -65.1c20.63,-59.5 -1.77,-34.43 33.16,-74.81 -7.01,-87.42 21.26,-138.28 24.66,-221.69 24.38,-269.07 82.67,-516.33 93.12,-805.43 5.24,-144.62 5.64,-299.42 -11.56,-443.01 -18.31,-152.92 -64.11,-249.25 -85.19,-370.88 -0.99,-0.81 -60.1,-32.32 -2.04,-40.62l-111.6 -32.48c41.48,270.61 103.84,185.24 92.76,651.68l-352.85 -2.82c-48.86,-312.09 -186.2,-521.24 -290.75,-774.82 -32.72,-38.38 -67.9,-103.64 -97.74,-148.65 -18.15,-27.4 -40.09,-65.88 -51.8,-82.87 -31.83,-46.18 -12.55,-37.13 -61.81,-49.99l-95.58 36.37z"/>
  <path class="fil4" d="M5122.14 4742.46c-75.7,113.83 -72.55,126.07 -182.2,198.92 -102.23,67.96 -104.39,109.69 -163.88,207.66l-2.28 35.5 0.06 80.41c175.97,-0.08 200.81,-81.98 384.06,-25.43 213.5,65.91 296.81,54.08 298.65,148.07 -78.42,44.22 -242.46,-32.56 -341.43,-35.2 208.63,251.81 375.64,129.21 573.97,162.23l0 74.55 -12.33 54.2 56.37 -11.06c84.6,-57 131.69,-67.17 197.29,-161.7l58.89 -87.52c-6.99,-104.73 17.13,-206.09 -38.76,-303.71 -86.72,-151.45 -243.71,-153.08 -317.37,-364.41 -47.83,-137.27 -14.69,-184.76 -3.4,-314.06l-499.24 0.08c31.15,176.05 39.07,147.28 -8.4,341.48z"/>
  <path class="fil4" d="M5194.37 7163.2l10.84 1567.52 -1.8 350.57 172.08 15.67c2.78,-928.05 16.48,-1999.02 1.01,-2924.93 -3.1,-186.27 -13.3,-145.2 27.34,-171.16 24.93,9.71 43.58,-11.02 41.08,118.93 -3.59,185.76 -21.42,991.7 13.76,1051.23l-0.28 -1170.51 286.62 -13.48c12.63,-15.61 -21.54,-19.85 48.33,-22.85 107.22,1.73 221.08,-34.23 291.13,-80.45l4.41 -102.01c-250.3,180.52 -1255.09,159.03 -1523.92,2.16l9.09 98.38c157.07,101.78 408.84,106.96 628.81,118.81l-8.52 1162.1z"/>
  <path class="fil9" d="M4358.6 4732.69c45.51,-61.07 23.73,-20.89 37.31,-94.15 43.5,61.93 108.17,208.03 147.4,294.32 80.15,176.25 80.67,140.23 232.75,216.19 59.5,-97.98 61.65,-139.7 163.88,-207.66 109.65,-72.85 106.5,-85.09 182.2,-198.92 -132.85,-49.08 -142.18,-166.08 -224.02,-383.98l-329.07 -865.97c-33.81,-87.94 -124.09,-344.79 -210.74,-385.81 21.07,121.63 39.19,157.94 60.77,344.22 17.2,143.59 38.18,324.78 32.94,469.4 -10.46,289.1 -69.03,543.29 -93.41,812.36z"/>
  <path class="fil0" d="M5021.24 7386.46c-19.72,51.56 -23.35,58.91 -60.76,100.09 -31.93,35.16 -41.28,44.45 -77.57,67.01 -6.65,155.42 -202.56,806.4 -274.11,1029.33 -17.28,53.87 -32.44,94.94 -45.73,145.67 -3.22,60.12 64.8,33.61 125.62,27.48 56.42,-5.68 113.21,-7.81 169.89,-10.5 116.42,-5.5 227.63,-8.78 346.65,-14.83l-10.84 -1567.52c-59.01,59.28 -102.19,181.57 -173.13,223.26z"/>
  <g id="_1650621833136">
   <g>
    <path class="fil10" d="M3824.93 4192.92c0,0 -75.53,-65.74 -163.88,-42.34 -0.55,0.3 -15.18,2.87 -6.46,14.06 8.72,11.19 27.33,13.16 27.33,13.16 0,0 -24.72,-9.17 -24.16,-19.98 0,0 59.61,-26.87 167.17,35.1z"/>
    <path class="fil10" d="M3805.53 4149.92c0,0 -90.53,-74.59 -177.85,-44.04 -3.78,1.35 -13.31,3.01 -10.46,12.26 2.62,8.51 17.07,17.39 36.31,21.26 0,0 -32.56,-13.69 -31.24,-24.94 0,0 57.75,-32.19 183.23,35.46z"/>
    <path class="fil10" d="M3849 4019.48c0,0 -12.43,13.74 5.49,56.38 17.92,42.63 -7.17,91.85 -7.17,91.85 0,0 -80.43,-177.5 -256.81,-102.33 0,0 6.39,31.35 48.16,25.99 0,0 -29.85,-4.29 -37.47,-21.04 0,0 147.74,-68.8 247.16,126.98 0,0 17.42,-39.09 20.38,-61.78 2.96,-22.68 4.43,-37.69 -7.87,-61.01 -12.3,-23.32 -14.95,-38.88 -11.85,-55.04z"/>
    <path class="fil10" d="M3802.85 4085.35c0,0 -17.03,-53.29 31.79,-93.93 0,0 12.16,27.8 52.18,23.61 0,0 3.46,-1.56 5.38,5.95 1.91,7.51 8.77,33.33 33.99,13.92 0,0 0.11,-4.68 -3.06,-7.98 -3.17,-3.3 -0.81,-2.58 -0.81,-2.58 0,0 0.52,-0.85 6.31,6.82 0,0 0.83,1.63 5.86,4.54 0,0 15.86,-7.94 10.94,-37.51 0,0 -3.96,-11.89 -58.94,-58.73l57.37 -78.09 -73.1 64.53 -3.02 -2.56c0,0 2.59,-31.1 -38.98,-40.71 0,0 -6.22,34.12 -0.26,44.95 0,0 -35.06,16.99 -44.22,68.52 0,0 15.44,-44.53 57.26,-61.7 0,0 -3.4,-25.31 -0.52,-31.69 0,0 14.61,3.84 17.65,25.85 0,0 55.34,38 77.9,72.41 0,0 -0.68,19.55 -4.51,19.24 0,0 -19.97,-6.5 -19.11,4.21 0.86,10.7 -8.11,5.54 -10.39,-1.09 -2.28,-6.63 -1.92,-19.27 -21.69,-14.86 0,0 -33.28,7.14 -39.71,-39.42 0,0 -66.45,28.57 -38.32,116.28z"/>
    <path class="fil10" d="M3868.09 3949.29c0,0 22.21,12.25 16.68,17.91 -5.53,5.66 -12.55,-6.23 -16.68,-17.91z"/>
    <path class="fil10" d="M3812.53 3923.46c0,0 -67.58,39.71 -70.27,121.21 0,0 -20.83,-86.44 70.27,-121.21z"/>
   </g>
   <g>
    <path class="fil11" d="M3936.56 4087.97l-11.73 97.69c0,0 -1.96,9.99 5,9.58 6.97,-0.42 8.25,-0.69 10.14,-0.78 1.89,-0.09 4.59,-2.02 5.41,-9.91 0.82,-7.89 12.33,-99.15 12.33,-99.15l54.91 -4.69c0,0 6.41,-0.02 7.79,-9.85 1.38,-9.83 2.09,-19.14 2.09,-19.14 0,0 1.15,-6.73 -6.91,-6.59 -8.06,0.14 -128,10.52 -128,10.52 0,0 -7.64,-0.6 -9.44,9.98 -1.8,10.57 -2.2,17.72 -2.2,17.72 0,0 -2.33,9.91 9.47,9 11.79,-0.9 51.14,-4.39 51.14,-4.39z"/>
    <path class="fil11" d="M4155.12 4068.85l-0.92 5.05c0,0 -2.11,6.57 4.5,6.06 6.6,-0.5 13.21,-1.01 13.21,-1.01 0,0 4.17,-1.27 4.92,-7.02 0.74,-5.75 4.2,-34.96 4.2,-34.96 0,0 1.62,-6.76 -8.52,-5.99 -10.15,0.78 -128.5,10.32 -128.5,10.32 0,0 -7.59,-0.72 -9.06,11.84 -1.47,12.57 -14.83,121.49 -14.83,121.49 0,0 -2.07,13.19 8.64,12.26 10.71,-0.94 127.6,-9.73 128.6,-9.81 1,-0.07 6.53,-1.45 8.26,-16.05 1.73,-14.6 1.14,-15.26 1.35,-16.47 -0.45,-1.33 1.92,-5.13 -10.77,-4.39 -12.7,0.74 -104.39,9.19 -104.39,9.19l8.87 -73.04 94.43 -7.47z"/>
    <path class="fil11" d="M4219.96 4083.81l6.73 -51.52c0,0 2.18,-5.62 -5.13,-5.06 -7.31,0.56 -17.45,1.34 -17.45,1.34 0,0 -5.97,-0.46 -6.9,5.98 -0.93,6.44 -16.09,130.52 -16.09,130.52 0,0 -1.89,8.78 6.11,7.98 8.01,-0.79 19.05,-1.46 19.05,-1.46 0,0 5.12,0.41 5.65,-12.72 0.54,-13.13 3.52,-37.95 3.52,-37.95l42.22 -3.23 55.84 41.5c0,0 5.8,4.54 10.25,0.64 4.44,-3.9 10.07,-10.97 10.07,-10.97 0,0 4.12,-5.06 -2.93,-10.45 -7.06,-5.39 -45.87,-38.24 -45.87,-38.24 0,0 -5.73,-3.59 2.33,-9.9 8.06,-6.31 59.3,-53.45 59.3,-53.45 0,0 5.4,-3.73 1.26,-9.93 -4.15,-6.2 -6.48,-8.75 -6.48,-8.75 0,0 -4.4,-4.87 -11.93,2.1 -7.52,6.98 -67.79,60.06 -67.79,60.06l-41.76 3.51z"/>
   </g>
   <g>
    <path class="fil12" d="M4038.27 4233.74l-10.09 -13.78c-1.03,0.08 -2.66,0.13 -4.9,0.15l1.13 14.7 -4.62 0.35 -2.59 -33.74c0.17,-0.01 1.36,-0.16 3.57,-0.45 2.21,-0.29 3.82,-0.46 4.83,-0.54 8.12,-0.62 12.42,2.3 12.91,8.75 0.16,2.12 -0.34,4.08 -1.52,5.88 -1.17,1.8 -2.64,2.97 -4.41,3.52l10.95 14.76 -5.28 0.4zm-16.13 -28.55l0.84 11c1.11,0.07 2.19,0.06 3.24,-0.02 2.76,-0.21 4.73,-0.81 5.92,-1.8 1.19,-0.99 1.69,-2.64 1.52,-4.93 -0.14,-1.89 -0.93,-3.2 -2.33,-3.93 -1.41,-0.73 -3.57,-0.98 -6.49,-0.76 -0.46,0.04 -1.35,0.19 -2.69,0.44zm42.48 14.58l-17.76 1.36c0.22,2.88 1.18,5.04 2.87,6.46 1.5,1.24 3.35,1.78 5.54,1.61 2.5,-0.19 4.52,-1.09 6.08,-2.69l2.08 3.02c-0.63,0.73 -1.62,1.4 -2.97,2 -1.7,0.78 -3.63,1.26 -5.77,1.42 -3.11,0.24 -5.82,-0.61 -8.14,-2.56 -2.59,-2.13 -4.03,-5.16 -4.33,-9.07 -0.31,-4.07 0.67,-7.43 2.96,-10.08 2.04,-2.36 4.57,-3.66 7.59,-3.89 3.51,-0.27 6.35,0.51 8.5,2.34 2.08,1.76 3.24,4.22 3.48,7.37 0.07,0.97 0.02,1.87 -0.14,2.7zm-11.34 -8.76c-1.96,0.15 -3.54,0.91 -4.77,2.28 -1.17,1.31 -1.76,2.86 -1.8,4.67l13.67 -1.05c-0.14,-1.78 -0.8,-3.22 -2,-4.33 -1.32,-1.2 -3.02,-1.73 -5.11,-1.57zm32.84 19.06l-0.14 -1.81c-1.4,1.61 -3.56,2.52 -6.46,2.75 -3.09,0.24 -5.67,-0.68 -7.76,-2.74 -2.09,-2.06 -3.27,-4.93 -3.56,-8.62 -0.28,-3.7 0.58,-6.94 2.59,-9.73 2.01,-2.79 4.55,-4.29 7.6,-4.53 2.55,-0.19 4.53,0.26 5.94,1.35l-0.88 -11.42 4.39 -0.33 2.66 34.75 -4.38 0.33zm-1.46 -18.97c-1.22,-1.57 -2.8,-2.28 -4.72,-2.13 -2.34,0.18 -4.18,1.2 -5.49,3.06 -1.32,1.85 -1.87,4.13 -1.67,6.84 0.45,5.93 3.39,8.69 8.78,8.28 0.68,-0.05 1.5,-0.33 2.43,-0.84 0.93,-0.51 1.5,-1.02 1.7,-1.54l-1.05 -13.67zm31.94 4.68l-17.76 1.36c0.22,2.88 1.18,5.04 2.87,6.46 1.5,1.24 3.35,1.78 5.54,1.62 2.5,-0.19 4.52,-1.09 6.08,-2.7l2.08 3.02c-0.62,0.73 -1.61,1.4 -2.97,2 -1.7,0.79 -3.63,1.26 -5.77,1.42 -3.1,0.24 -5.81,-0.61 -8.14,-2.55 -2.59,-2.13 -4.03,-5.16 -4.33,-9.07 -0.31,-4.07 0.67,-7.43 2.96,-10.08 2.04,-2.36 4.57,-3.66 7.6,-3.89 3.51,-0.27 6.35,0.51 8.49,2.35 2.08,1.76 3.24,4.22 3.48,7.37 0.07,0.98 0.03,1.87 -0.14,2.7zm-11.34 -8.76c-1.96,0.15 -3.54,0.91 -4.76,2.28 -1.17,1.31 -1.76,2.86 -1.8,4.68l13.67 -1.05c-0.13,-1.78 -0.8,-3.23 -2,-4.34 -1.31,-1.2 -3.02,-1.73 -5.11,-1.57zm28.17 -11.6c-0.92,-0.24 -1.76,-0.33 -2.54,-0.27 -1.33,0.1 -2.41,0.69 -3.2,1.77 -0.8,1.08 -1.13,2.39 -1.01,3.94 0.03,0.41 0.11,0.83 0.24,1.28l5 -0.38 0.28 3.68 -5 0.38 1.61 20.98 -4.39 0.33 -1.61 -20.98 -3.58 0.28 -0.28 -3.68 3.59 -0.28c-0.24,-3.14 0.35,-5.67 1.76,-7.58 1.42,-1.91 3.4,-2.96 5.95,-3.16 1.27,-0.1 2.66,0.02 4.15,0.37l-0.98 3.31zm35.83 28.28l-1.1 -14.36c-0.2,-2.62 -0.74,-4.43 -1.61,-5.43 -0.87,-0.99 -2.23,-1.42 -4.09,-1.28 -1,0.08 -2.02,0.46 -3.07,1.14 -1.04,0.69 -1.82,1.48 -2.34,2.41l1.41 18.34 -4.39 0.33 -1.89 -24.66 2.99 -0.23 1.63 3.07c1.26,-2.54 3.52,-3.94 6.8,-4.19 5.41,-0.41 8.36,2.67 8.87,9.24l1.17 15.27 -4.39 0.34zm12.47 -35.15c0.74,-0.06 1.41,0.16 1.98,0.65 0.57,0.5 0.89,1.11 0.94,1.84 0.06,0.76 -0.16,1.42 -0.65,1.99 -0.5,0.57 -1.12,0.89 -1.87,0.94 -0.74,0.06 -1.39,-0.17 -1.97,-0.65 -0.57,-0.49 -0.89,-1.12 -0.94,-1.87 -0.06,-0.75 0.15,-1.41 0.64,-1.97 0.48,-0.57 1.1,-0.87 1.86,-0.93zm0.19 34.18l-1.61 -20.98 -3.39 0.26 -0.28 -3.68 7.78 -0.6 1.89 24.66 -4.38 0.33zm26.55 -2.03l-1.1 -14.36c-0.2,-2.62 -0.73,-4.43 -1.61,-5.43 -0.87,-0.99 -2.23,-1.42 -4.09,-1.28 -1,0.08 -2.02,0.46 -3.07,1.14 -1.04,0.69 -1.82,1.48 -2.34,2.41l1.41 18.34 -4.38 0.33 -1.89 -24.66 2.99 -0.23 1.63 3.07c1.26,-2.54 3.52,-3.94 6.8,-4.19 5.41,-0.41 8.36,2.67 8.86,9.24l1.17 15.27 -4.38 0.34zm10.2 6.01l2.11 -3.68c2.68,1.5 5.09,2.17 7.25,2.01 1.99,-0.15 3.53,-0.61 4.61,-1.38 1.09,-0.77 1.6,-1.67 1.53,-2.68 -0.15,-1.99 -1.68,-2.88 -4.56,-2.65 -0.5,0.04 -1.37,0.23 -2.65,0.58 -1.28,0.35 -2.27,0.56 -2.99,0.61 -3.5,0.27 -5.35,-0.92 -5.56,-3.57 -0.06,-0.81 0.29,-1.58 1.06,-2.3 0.77,-0.72 1.74,-1.28 2.93,-1.67 -3.6,-1.36 -5.55,-4.06 -5.86,-8.09 -0.2,-2.58 0.54,-4.8 2.2,-6.66 1.67,-1.86 3.82,-2.89 6.46,-3.09 2.43,-0.19 4.36,0.17 5.8,1.06l1.99 -2.8 3.06 2.48 -2.47 2.19c1.24,1.37 1.94,3.24 2.12,5.58 0.19,2.49 -0.43,4.63 -1.85,6.45 -1.42,1.81 -3.38,2.93 -5.88,3.37l-3.59 0.65c-0.43,0.08 -0.99,0.29 -1.69,0.63 -0.69,0.34 -1.02,0.74 -0.99,1.19 0.05,0.63 0.83,0.88 2.33,0.77 0.66,-0.05 1.68,-0.25 3.06,-0.59 1.38,-0.34 2.41,-0.54 3.09,-0.59 2.43,-0.19 4.37,0.25 5.81,1.3 1.45,1.05 2.25,2.61 2.41,4.66 0.17,2.27 -0.7,4.18 -2.63,5.74 -1.93,1.54 -4.45,2.44 -7.57,2.68 -1.6,0.12 -3.3,-0.03 -5.11,-0.46 -1.8,-0.43 -3.28,-1.02 -4.42,-1.74zm7.1 -29.06c-1.52,0.12 -2.72,0.75 -3.6,1.9 -0.89,1.15 -1.26,2.5 -1.15,4.03 0.13,1.72 0.7,3.11 1.72,4.17 1.02,1.06 2.31,1.53 3.9,1.41 1.56,-0.12 2.73,-0.76 3.53,-1.93 0.79,-1.17 1.12,-2.64 0.98,-4.42 -0.12,-1.54 -0.69,-2.81 -1.72,-3.81 -1.03,-1 -2.25,-1.44 -3.67,-1.34zm41.82 3.33l1.16 15.09 -4.62 0.35 -1.16 -15.09 -12.27 -17.78 4.76 -0.36 9.52 14.08 7.26 -15.37 4.76 -0.37 -9.42 19.44zm7.4 2.16c-0.29,-3.81 0.49,-6.97 2.36,-9.47 1.87,-2.5 4.48,-3.87 7.83,-4.13 3.53,-0.27 6.35,0.65 8.47,2.75 2.12,2.1 3.33,5.14 3.64,9.14 0.3,3.98 -0.45,7.19 -2.27,9.64 -1.82,2.45 -4.44,3.8 -7.88,4.07 -3.52,0.27 -6.34,-0.69 -8.48,-2.85 -2.14,-2.17 -3.37,-5.22 -3.67,-9.15zm4.62 -0.35c0.48,6.19 2.9,9.11 7.26,8.77 2.03,-0.16 3.56,-1.1 4.59,-2.85 1.03,-1.74 1.44,-4.06 1.22,-6.92 -0.46,-6.11 -2.87,-9 -7.22,-8.67 -1.99,0.15 -3.52,1.09 -4.58,2.8 -1.06,1.72 -1.48,4 -1.26,6.86zm25.49 -14.3l1.21 15.74c0.29,3.81 2.09,5.59 5.38,5.33 1.45,-0.11 2.73,-0.63 3.87,-1.55 1.13,-0.93 1.84,-1.94 2.15,-3.06l-1.33 -17.33 4.39 -0.34 1.89 24.66 -4.39 0.34 -0.26 -3.41c-0.41,1 -1.33,1.96 -2.75,2.89 -1.42,0.92 -2.83,1.44 -4.25,1.55 -2.69,0.2 -4.83,-0.41 -6.38,-1.85 -1.56,-1.44 -2.44,-3.59 -2.66,-6.44l-1.24 -16.2 4.38 -0.33zm35.33 1.51c-1,-0.59 -1.98,-0.84 -2.96,-0.77 -1.55,0.12 -2.85,0.94 -3.9,2.45 -1.05,1.52 -1.5,3.28 -1.35,5.29l1.08 14.16 -4.38 0.33 -1.89 -24.66 4.38 -0.33 0.3 3.91c1.37,-3.05 3.64,-4.69 6.79,-4.93 0.78,-0.06 1.92,-0 3.42,0.16l-1.5 4.39z"/>
    <path class="fil12" d="M4168.61 4263.89l-1.1 -14.35c-0.2,-2.63 -0.74,-4.43 -1.61,-5.43 -0.87,-0.99 -2.24,-1.42 -4.09,-1.28 -1,0.07 -2.02,0.45 -3.07,1.13 -1.04,0.69 -1.82,1.48 -2.34,2.41l1.41 18.34 -4.39 0.34 -1.89 -24.66 3 -0.23 1.63 3.07c1.26,-2.54 3.52,-3.94 6.8,-4.19 5.41,-0.41 8.36,2.66 8.87,9.24l1.17 15.27 -4.39 0.33zm10.51 -22.15l-2.88 0.22 -0.26 -3.44 2.88 -0.22 -0.39 -5.15 4.25 -2.02 0.53 6.84 6.79 -0.52 0.26 3.44 -6.79 0.52 0.94 12.26c0.16,2.07 0.63,3.52 1.39,4.35 0.77,0.82 1.93,1.17 3.49,1.06 1.12,-0.09 2.27,-0.46 3.43,-1.12l0.94 3.79c-1.78,0.6 -3.76,0.98 -5.94,1.15 -1.96,0.15 -3.66,-0.45 -5.12,-1.8 -1.46,-1.35 -2.27,-3.13 -2.44,-5.35l-1.07 -14.01zm38.63 6.43l-17.76 1.36c0.22,2.88 1.18,5.04 2.87,6.46 1.5,1.24 3.35,1.78 5.54,1.62 2.5,-0.19 4.52,-1.09 6.08,-2.7l2.08 3.02c-0.63,0.73 -1.62,1.4 -2.97,2 -1.7,0.79 -3.63,1.26 -5.77,1.42 -3.11,0.24 -5.82,-0.61 -8.14,-2.55 -2.59,-2.13 -4.03,-5.16 -4.33,-9.07 -0.31,-4.07 0.67,-7.43 2.96,-10.08 2.04,-2.36 4.57,-3.66 7.59,-3.89 3.51,-0.27 6.35,0.51 8.5,2.34 2.08,1.76 3.24,4.22 3.48,7.37 0.07,0.97 0.02,1.87 -0.14,2.7zm-11.34 -8.76c-1.96,0.15 -3.54,0.91 -4.77,2.28 -1.17,1.31 -1.76,2.86 -1.8,4.68l13.67 -1.05c-0.14,-1.78 -0.8,-3.23 -2,-4.34 -1.31,-1.2 -3.02,-1.73 -5.11,-1.57zm32.37 19.09l-1.1 -14.35c-0.2,-2.63 -0.74,-4.43 -1.61,-5.43 -0.87,-0.99 -2.24,-1.42 -4.09,-1.28 -1,0.08 -2.02,0.46 -3.07,1.14 -1.04,0.69 -1.82,1.48 -2.33,2.41l1.41 18.34 -4.39 0.33 -1.89 -24.66 3 -0.23 1.63 3.07c1.26,-2.54 3.52,-3.94 6.8,-4.19 5.41,-0.41 8.36,2.67 8.86,9.24l1.17 15.27 -4.39 0.33zm10.51 -22.14l-2.88 0.22 -0.26 -3.44 2.88 -0.22 -0.4 -5.15 4.26 -2.02 0.52 6.83 6.79 -0.52 0.26 3.44 -6.79 0.52 0.94 12.27c0.16,2.07 0.63,3.52 1.39,4.35 0.76,0.82 1.93,1.17 3.48,1.05 1.13,-0.09 2.28,-0.46 3.43,-1.11l0.94 3.78c-1.78,0.6 -3.76,0.98 -5.93,1.15 -1.96,0.15 -3.66,-0.44 -5.13,-1.8 -1.45,-1.35 -2.27,-3.13 -2.44,-5.35l-1.07 -14.01zm20.65 -14.44c0.75,-0.06 1.41,0.16 1.99,0.65 0.57,0.5 0.88,1.11 0.94,1.84 0.06,0.75 -0.16,1.42 -0.65,1.99 -0.49,0.57 -1.11,0.89 -1.86,0.94 -0.74,0.06 -1.39,-0.16 -1.97,-0.65 -0.57,-0.5 -0.89,-1.12 -0.94,-1.87 -0.06,-0.74 0.15,-1.41 0.64,-1.97 0.48,-0.57 1.1,-0.87 1.85,-0.93zm0.19 34.18l-1.61 -20.98 -3.39 0.26 -0.28 -3.68 7.78 -0.59 1.89 24.66 -4.39 0.33zm8.82 -13.13c-0.29,-3.81 0.49,-6.97 2.37,-9.47 1.87,-2.5 4.48,-3.88 7.82,-4.13 3.53,-0.27 6.35,0.65 8.47,2.75 2.12,2.09 3.33,5.14 3.64,9.14 0.31,3.98 -0.45,7.19 -2.27,9.64 -1.82,2.45 -4.44,3.8 -7.88,4.07 -3.52,0.27 -6.34,-0.69 -8.48,-2.85 -2.14,-2.17 -3.36,-5.22 -3.67,-9.15zm4.62 -0.35c0.47,6.19 2.89,9.1 7.26,8.77 2.03,-0.16 3.56,-1.11 4.59,-2.85 1.03,-1.75 1.44,-4.06 1.22,-6.92 -0.47,-6.11 -2.87,-9 -7.22,-8.67 -2,0.15 -3.52,1.09 -4.58,2.8 -1.06,1.72 -1.48,4 -1.26,6.86zm38.41 9.51l-1.1 -14.35c-0.2,-2.63 -0.73,-4.43 -1.61,-5.43 -0.87,-0.99 -2.24,-1.42 -4.09,-1.28 -1,0.07 -2.02,0.45 -3.07,1.13 -1.04,0.69 -1.82,1.48 -2.33,2.41l1.41 18.34 -4.39 0.33 -1.89 -24.65 2.99 -0.23 1.63 3.07c1.26,-2.54 3.52,-3.94 6.8,-4.19 5.41,-0.41 8.36,2.66 8.86,9.24l1.17 15.27 -4.38 0.33zm8.86 -2.15l1.22 -4.27c2.56,1.42 4.57,2.07 6.06,1.96 2.69,-0.21 3.95,-1.45 3.78,-3.72 -0.13,-1.63 -1.54,-2.93 -4.24,-3.91 -2.07,-0.76 -3.48,-1.36 -4.21,-1.79 -0.74,-0.42 -1.38,-0.91 -1.94,-1.48 -0.56,-0.57 -1,-1.19 -1.3,-1.85 -0.3,-0.67 -0.48,-1.39 -0.55,-2.17 -0.15,-2.02 0.46,-3.66 1.85,-4.91 1.39,-1.25 3.27,-1.96 5.65,-2.15 1.8,-0.14 4.11,0.26 6.93,1.19l-0.93 4.14c-1.84,-1.25 -3.64,-1.81 -5.39,-1.67 -1.04,0.08 -1.91,0.39 -2.58,0.94 -0.68,0.55 -0.98,1.2 -0.93,1.95 0.12,1.58 1.11,2.71 2.96,3.39l3.25 1.19c1.98,0.72 3.45,1.61 4.41,2.67 0.96,1.06 1.5,2.43 1.63,4.12 0.17,2.21 -0.48,4 -1.93,5.37 -1.45,1.37 -3.55,2.16 -6.29,2.37 -2.59,0.2 -5.07,-0.26 -7.46,-1.37zm25.35 -6.97c0.95,-0.07 1.78,0.2 2.51,0.83 0.72,0.63 1.12,1.41 1.19,2.36 0.07,0.96 -0.2,1.8 -0.82,2.54 -0.62,0.74 -1.41,1.14 -2.35,1.21 -0.95,0.07 -1.79,-0.2 -2.52,-0.83 -0.72,-0.63 -1.12,-1.42 -1.19,-2.38 -0.07,-0.95 0.2,-1.79 0.82,-2.51 0.62,-0.73 1.41,-1.13 2.36,-1.2zm17.31 -1.33c0.95,-0.07 1.78,0.2 2.51,0.83 0.72,0.63 1.12,1.41 1.19,2.36 0.07,0.96 -0.2,1.8 -0.82,2.54 -0.62,0.74 -1.41,1.14 -2.36,1.21 -0.95,0.07 -1.78,-0.2 -2.51,-0.83 -0.72,-0.63 -1.12,-1.42 -1.19,-2.38 -0.07,-0.95 0.2,-1.79 0.82,-2.51 0.62,-0.73 1.41,-1.13 2.36,-1.2zm17.31 -1.33c0.95,-0.07 1.79,0.2 2.52,0.83 0.72,0.63 1.12,1.41 1.19,2.36 0.07,0.96 -0.2,1.8 -0.82,2.54 -0.62,0.74 -1.41,1.14 -2.36,1.21 -0.95,0.07 -1.78,-0.2 -2.51,-0.83 -0.72,-0.63 -1.12,-1.42 -1.2,-2.38 -0.07,-0.95 0.2,-1.78 0.82,-2.51 0.63,-0.73 1.41,-1.13 2.36,-1.2z"/>
    <ellipse class="fil11" transform="matrix(0.151428 -0.0116044 0.0116044 0.151428 4142.17 4194.88)" rx="17.71" ry="17.97"/>
    <polygon class="fil11" points="4136.97,4201.29 4144.78,4200.69 4144.98,4203.33 4144.99,4203.33 4149.74,4265.31 4145.36,4265.65 4140.69,4204.66 4137.25,4204.92 "/>
   </g>
  </g>
  <path class="fil2" d="M5021.24 7386.46c70.94,-41.69 114.12,-163.98 173.13,-223.26l8.52 -1162.1c-219.97,-11.85 -471.74,-17.03 -628.81,-118.81l-9.09 -98.38c22.2,-102.43 25.63,-26.57 78.84,-107.13l-113.96 -9.03c-120.85,46.56 -101.83,404.45 -46.36,505.25 87.12,158.26 169.6,232.04 283.46,363.38 286,329.86 310.3,323.66 271.23,707.31 -0.36,3.46 -0.48,8.48 -0.93,12.01l-10.42 50.29c-32.86,115.06 -29.17,85.26 -5.62,80.47z"/>
  <path class="fil4" d="M4536.26 9436.81c54.82,95.2 227.65,97.15 318.8,233.33l31.73 50.21c36.19,-56.94 -26.92,-34.01 89.42,-41.61l257.04 9.23c113.74,1.21 227.51,0.28 341.19,-2.84 376,-10.31 886.82,-52.44 1237.19,-160.64 80.05,-24.72 178,-64.17 236.8,-104.87 85.69,-59.33 71.85,-132.83 64.33,-268.37 -97.74,69.33 -98.44,90.96 -231.26,137.85 -602.5,212.72 -1749.83,220.35 -2345.24,147.7z"/>
  <path class="fil0" d="M5974.03 8752.25l7.88 -83.29c7.03,-91.87 -14.33,-111.19 -39.29,-193.34 -45.05,-62.56 -207.9,-487.47 -259.48,-604.25 -97.68,-221.18 -148.27,-410.17 -220.07,-641.79 -31.87,139.95 -11.5,579.71 -11.5,750.89 0,250.19 1.99,500.61 1.99,750.24l520.48 21.54z"/>
  <path class="fil13" d="M3916.9 9312.69c-60.16,86.07 -47.47,126.91 -31.93,223.48 59.21,86.15 407.11,220.28 546.06,270.63 91.45,33.14 222.13,75.81 325.39,84.88 148.91,13.04 246.3,-66.73 130.37,-171.31l-31.73 -50.21c-91.15,-136.18 -263.98,-138.13 -318.8,-233.33 -92.66,-0.63 -105.37,-98.83 -168.07,-142.67 -157.26,12.78 -273.65,-5.34 -376.54,-73.52l-74.75 92.06z"/>
  <path class="fil13" d="M5981.91 8668.96l-7.88 83.29c-13.66,102.11 -2.38,224.1 43.92,300.87l1012.33 3.59 13.54 -57.72c-58.85,-128.68 -153.3,-169.34 -313.88,-196 -76.02,-12.63 -141.26,-19.44 -206.81,-49.5 -52.1,-23.89 -125.93,-84.18 -146.11,-90.74 -119.6,-26.61 -75.86,-4.11 -188.26,-1.27 -73.02,1.85 -111.17,-17.29 -170.79,-24.18l-36.04 31.67z"/>
  <path class="fil14" d="M2669.71 3584.91c-133.84,303.06 -151.25,1388.12 -118.59,1771.87l284.73 -11.2c66.61,-15.5 65.48,-2.84 134.12,9.97 -62.62,-124.41 -102.45,-140.35 -109.93,-325.91l-21.16 -1270.46c43.84,50.47 47.25,120.85 64.72,202.63l132.63 600.46c28.35,136.24 62.76,272.6 92.58,405.54 35.64,158.8 25.95,220.64 106.36,320.91 21.64,27 2.6,-4.74 26.25,33.83 164.73,155 1146.97,241.94 1268.44,345.19l113.96 9.03 40.92 8.2 2.72 -97.4 2.22 -97.56 16.74 -187.21 5.3 -68.74 -198.5 -67.74c-68.74,-21.5 -129.99,-39.17 -196.14,-58.93l20.17 -159.69c-34.93,40.37 -12.53,15.31 -33.16,74.81l-26.11 65.1c-97.86,-18.42 -187.62,-51.96 -284.47,-80.85 -116.8,-34.83 -154.83,-39.73 -172.99,-152.7 -29.03,-180.76 -67.17,-522.51 -82.41,-714.04 -22.52,-283.3 27,-860.63 -175.15,-1093.74l-17.43 -36.79c-2.82,-3.26 -22.3,-71.14 -25.24,-74.71 -96.05,-116.48 -114.96,-139.24 -163.34,-259.76 -183.17,52.04 -340.3,200.15 -443.13,342.91 -93.89,130.38 -197.81,367.25 -244.13,566.98z"/>
  <path class="fil1" d="M4520.26 2368.25c70.56,-39.89 145.77,3.3 179.07,47.81 -3.63,4.39 -12.92,14.95 -15.41,17.29 -23.78,22.24 -7.76,7.83 -30.65,26.69l-133.02 -91.79zm-261.96 -134.93c-49.95,91.99 -116.09,284.04 -60.52,401.38 63.48,134 201.3,10.42 353.17,93.57l-0.16 90.54c19.76,-23.89 7.05,1.63 22.55,-42.31 1.51,-4.29 3.32,-9.65 4.69,-14.22l7.01 -41.53 116.98 -11.24c42.67,-89.24 45.66,-185.86 94.15,-231.07 98.91,-92.18 16.12,70.66 147.02,-226.78l-243.65 24.34 -17.63 -60.91c-0.14,-1.35 1.61,-44.5 -0.43,-64.59 -3.61,-35.69 -17.37,-68.3 -31.07,-103.44 -48.41,25.69 -48.45,62.04 -152.9,133.28 -84.02,57.32 -120.89,64.71 -239.21,52.99z"/>
  <path class="fil9" d="M2835.85 5345.59c32.46,25.44 311.24,62.74 377.15,73.76 44.93,-17.57 5.18,8.06 24.76,-35 1.96,-4.31 6.81,-19.93 8.67,-24.64 20.39,-51.58 -14.91,-1.53 15.01,-37.15 -23.65,-38.56 -4.61,-6.83 -26.25,-33.83 -80.41,-100.28 -70.72,-162.11 -106.36,-320.91 -29.82,-132.94 -64.23,-269.3 -92.58,-405.54l-132.63 -600.46c-17.47,-81.78 -20.87,-152.15 -64.72,-202.63l21.16 1270.46c7.47,185.56 47.31,201.5 109.93,325.91 -68.64,-12.81 -67.52,-25.47 -134.12,-9.97z"/>
  <path class="fil3" d="M5655.23 5626.51c-40.17,114.18 -281.59,148.51 -406.89,147.76 -83.09,-0.5 -319.72,-120.55 -357.38,-156.83l-12.99 37.21 -39.29 1.45 -153.93 28.87 -40.92 -8.2c-53.21,80.55 -56.64,4.69 -78.84,107.13 268.83,156.87 1273.62,178.37 1523.92,-2.16 -36.25,-136.46 -235.91,-93.12 -355.77,-149.44l-56.37 11.06 12.33 -54.2 -33.87 37.33z"/>
  <path class="fil1" d="M5199.91 5577.28c86.9,8.72 157.19,42.61 227.75,37.42 83.19,-6.13 156.37,-27.52 241.81,-33.1 -28.45,33.97 -9.21,35.06 -101.14,57.48 -102.89,25.08 -208.29,50.83 -306.53,-0.74 -76.98,-40.44 -24.56,-3.22 -61.89,-61.05zm-493.48 -274.47l-16.74 187.21c203.54,21.22 318.15,105.84 474,164.73 212.4,80.27 301.63,25.47 491.55,-28.24l33.87 -37.33 0 -74.55c-198.33,-33.02 -365.34,89.57 -573.97,-162.23 98.97,2.64 263.01,79.43 341.43,35.2 -1.83,-93.99 -85.15,-82.16 -298.65,-148.07 -183.24,-56.56 -208.09,25.35 -384.06,25.43l-0.06 -80.41c-31.17,27.48 -3.97,0.18 -27.42,30.65 -3.12,4.05 -18.78,27.32 -21.11,31.55 -14.22,25.51 -12.78,-4.41 -18.82,56.07z"/>
  <path class="fil9" d="M4254.31 3036.43l-77.12 -41.08c5.66,51.56 14.79,107.49 12.19,159.17 -0.85,16.9 -3.55,42.21 -8.97,58.15 -28.45,83.94 -136.36,83.09 -214.91,-2.11l-271.67 -302.9c104.55,253.58 206.35,493.84 255.21,805.93l437.26 -10.52c11.08,-466.44 -90.5,-396.02 -131.99,-666.63z"/>
  <path class="fil3" d="M1974.65 6187.82c242.78,84.93 291.46,109.99 583.46,130.92 38.28,2.74 79.59,6.57 117.06,8.7 96.87,5.52 97.31,1.87 119.42,-24.84 -45.39,-61.87 -73.42,-85.95 -109.38,-142.35 -42.63,-66.91 -54.82,-107.99 -91.53,-178.63 -113.92,-0.1 -264.64,23.15 -373.12,46.2 -114.28,24.28 -233.75,46 -245.9,159.99z"/>
  <path class="fil3" d="M3540.13 9147.85c55.85,45.15 63.99,63.37 147.06,103.52 71.12,34.39 136.56,70.28 229.7,61.31l74.75 -92.06c11.59,-69.79 42.55,-108.8 35,-181.53l-39.81 -35.32 28.03 -163.7c-169,87.58 -471.86,79.95 -474.72,307.78z"/>
  <path class="fil3" d="M3018.75 8563.19c-23.74,-222.91 -1.78,-1431.72 -2.66,-1845.03 -0.32,-153.24 -25.12,-237.94 28.85,-218.87 -19.2,-18.19 9.75,-20.35 -48.7,-20.15 -85.43,-30.95 -24.32,-15.98 -52.67,0.2l0.02 2051.59 75.15 32.26z"/>
  <path class="fil0" d="M1427.92 9089.19c-26.45,-79.91 -49.94,-124.8 -53.31,-221.32 -3.65,-104.35 25.85,-149.48 28.23,-226.67l20.25 -54.24c-111.18,9.93 -111.74,13.14 -214.39,9.65 -74.34,-2.52 -149.15,-3.43 -222.71,-9.81 20.51,127.56 196.36,314.46 296.66,392.58l145.28 109.81z"/>
  <path class="fil0" d="M4361.92 4726.02c-3.41,83.41 -31.67,134.27 -24.66,221.69l-20.17 159.69c66.15,19.77 127.39,37.44 196.14,58.93l198.5 67.74 -5.3 68.74c6.04,-60.48 4.59,-30.56 18.82,-56.07 2.33,-4.23 17.99,-27.5 21.11,-31.55 23.45,-30.46 -3.75,-3.16 27.42,-30.65l2.28 -35.5c-152.07,-75.96 -152.6,-39.93 -232.75,-216.19 -39.22,-86.29 -103.9,-232.39 -147.4,-294.32 -13.58,73.26 11.52,26.41 -33.99,87.48z"/>
  <path class="fil7" d="M4687.47 5587.58l169.75 30.32 33.74 -0.46c37.66,36.28 274.3,156.33 357.38,156.83 125.3,0.74 366.71,-33.59 406.89,-147.76 -189.91,53.71 -279.15,108.52 -491.55,28.24 -155.84,-58.89 -270.46,-143.51 -474,-164.73l-2.22 97.56z"/>
  <path class="fil15" d="M3991.65 9220.63c102.89,68.18 219.29,86.3 376.54,73.52 -27.2,-64.39 -23.31,-163.42 -0.14,-239.56 -107.31,11.06 -260.17,11.38 -341.41,-15.5 7.56,72.74 -23.41,111.74 -35,181.53z"/>
  <path class="fil5" d="M2655.67 9030.69c-12.41,42.54 -1.27,8.34 -32.36,19.93 -59.6,-57.46 -20.27,-51.86 17.06,-69.41 9.41,13.98 38.24,-29.17 15.3,49.48zm121.17 -160.98c-54.36,-22.7 -29.11,-26.37 -84.09,-2.09 -42.21,18.66 -5.5,19.26 -69.43,37.7 -77.37,-44.28 -38.14,-77.27 -145.29,-30.46 -16.68,111.86 21.38,54.24 46.74,146.19 -38.67,61.63 -58.33,36.97 -46.42,128.08 88.09,40.5 88.43,10.86 144.96,-28.61 40.19,11.14 16.12,9.21 46.1,26.66 71.22,41.4 172.16,40.96 88.13,-107.23 -16.93,-29.84 -3.37,2.8 -18.6,-35.96 35.96,-56.05 78.31,-54.76 37.9,-134.27z"/>
  <path class="fil4" d="M3884.96 9536.16c-15.54,-96.57 -28.23,-137.41 31.93,-223.48 -93.14,8.96 -158.58,-26.92 -229.7,-61.31 -83.07,-40.15 -91.21,-58.37 -147.06,-103.52 -2.76,163.12 -25.93,215.56 87.64,285.19 73.34,44.97 161.99,77.15 257.19,103.11z"/>
  <path class="fil15" d="M5981.91 8668.96l36.04 -31.67c59.62,6.89 97.78,26.03 170.79,24.18 112.41,-2.84 68.67,-25.35 188.26,1.27 -43.22,-46.98 -72.19,-38.34 -84.64,-194.22l-349.75 7.11c24.96,82.15 46.32,101.46 39.29,193.34z"/>
  <path class="fil0" d="M2520.88 8406.54c-6.49,48.7 7.66,67.8 34.09,121.03l208.65 1.78 2.6 -279.27c-74,2.74 -214.19,54.7 -270.4,88.77l25.06 67.7z"/>
  <path class="fil7" d="M4258.3 2233.32c118.33,11.72 155.2,4.33 239.21,-52.99 104.45,-71.24 104.49,-107.59 152.9,-133.28 13.7,35.14 27.46,67.76 31.07,103.44 2.04,20.09 0.28,63.24 0.43,64.59l17.63 60.91c8.42,-120.41 42.49,-233.7 -63.33,-305.3 -78.96,44.32 -40.5,69.27 -141.66,136.56 -84.86,56.46 -128.16,38.97 -211.57,62.76l-24.68 63.3z"/>
  <path class="fil7" d="M5199.91 5577.28c37.33,57.83 -15.09,20.61 61.89,61.05 98.24,51.57 203.63,25.83 306.53,0.74 91.93,-22.43 72.69,-23.51 101.14,-57.48 -85.44,5.58 -158.62,26.98 -241.81,33.1 -70.56,5.2 -140.85,-28.69 -227.75,-37.42z"/>
  <path class="fil1" d="M4053.14 2186.09c-1.61,-32.46 -4.33,-76.9 0.24,-109.22 8.12,-57.38 10.9,-44.67 36.97,-69.55 60.67,33.83 26.21,8.97 54.04,70.94 -16.28,40.9 -43.32,88.39 -91.25,107.83zm-11.65 -193.42c-10.64,84.34 -77.75,184.85 -2.32,270.2 46.12,-16.98 70.7,-65.2 100.44,-117.72 40.92,-72.29 36.87,-109.08 -11.22,-166.62l-86.9 14.15z"/>
  <path class="fil9" d="M3562.98 3046.28c-19.28,-69.57 -38.74,-141.31 -78.81,-202.24 -17.35,-30.34 -31.85,-54.5 -49.65,-83.05 -36.06,-57.93 -55.75,-40.62 -47.63,-98.48l-29.92 12.51c-0.24,136.16 77.81,221.83 173.85,338.3 2.94,3.57 6.69,7.66 9.53,10.92l22.63 22.04z"/>
  <path class="fil2" d="M4684.75 5684.98l153.93 -28.87c16.08,-19.74 6.85,-12.85 18.54,-38.2l-169.75 -30.32 -2.72 97.4z"/>
  <path class="fil7" d="M4053.14 2186.09c47.93,-19.44 74.97,-66.93 91.25,-107.83 -27.82,-61.97 6.63,-37.11 -54.04,-70.94 -26.07,24.89 -28.85,12.17 -36.97,69.55 -4.57,32.32 -1.85,76.76 -0.24,109.22z"/>
  <path class="fil7" d="M4520.26 2368.25l133.02 91.79c22.89,-18.86 6.87,-4.45 30.65,-26.69 2.5,-2.34 11.78,-12.9 15.41,-17.29 -33.31,-44.51 -108.52,-87.7 -179.07,-47.81z"/>
  <path class="fil3" d="M2412.79 9047.84c3.3,-70.96 13.02,-61.53 -45.35,-69.69 -35.86,42.96 -21.09,17.37 -9.75,70.86l55.11 -1.17z"/>
  <path class="fil3" d="M2924.18 9033.98c-8.3,-48.52 -11.32,-50.47 -64.59,-59.72l-4.03 75.35 68.62 -15.63z"/>
  <path class="fil4" d="M2623.31 9050.62c31.09,-11.59 19.94,22.61 32.36,-19.93 22.94,-78.65 -5.89,-35.5 -15.3,-49.48 -37.33,17.55 -76.66,11.95 -17.06,69.41z"/>
  <path class="fil5" d="M2670.86 9259.85c-38.38,-46.66 13.42,-24 -59.35,-28.67 0,0.06 -11.65,36.75 7.54,52.71 63.95,20.17 18.66,31.25 51.82,-24.04z"/>
  <path class="fil5" d="M2650.09 8742.22c-15.25,-22.31 -23.35,-9.19 -46.64,-11.35 8.84,56.23 -10.28,36.85 36.93,60.43 2.62,-4.29 55.79,18.28 9.71,-49.08z"/>
  <path class="fil15" d="M4041.49 1992.67l86.9 -14.15c-19.56,-28.69 16.4,-25.37 -36.83,-17.33 -37.03,5.6 -30.54,14 -50.07,31.47z"/>
  <path class="fil4" d="M4838.68 5656.1l39.29 -1.45 12.99 -37.21 -33.74 0.46c-11.69,25.35 -2.46,18.46 -18.54,38.2z"/>
  <path class="fil9" d="M4358.54 3108.17c22.24,-31.11 -18.74,-25.24 45.84,-24.5l-53.13 -19.04c-58.07,8.3 6.31,42.74 7.29,43.54z"/>
  <path class="fil5" d="M5765.86 6000.03l27.5 -35.82c-69.87,3 -35.7,7.23 -48.33,22.85l20.83 12.98z"/>
  <path class="fil5" d="M3161.28 9278.21c39.13,-20.69 24.92,-5.9 42.59,-47.91l-42.59 47.91z"/>
 </g>
</svg>
