<?xml version="1.0" encoding="UTF-8"?>
<!DOCTYPE svg PUBLIC "-//W3C//DTD SVG 1.1//EN" "http://www.w3.org/Graphics/SVG/1.1/DTD/svg11.dtd">
<!-- Creator: CorelDRAW 2019 (64-Bit) -->
<svg xmlns="http://www.w3.org/2000/svg" xml:space="preserve" width="8.5in" height="11in" version="1.1" style="shape-rendering:geometricPrecision; text-rendering:geometricPrecision; image-rendering:optimizeQuality; fill-rule:evenodd; clip-rule:evenodd"
viewBox="0 0 8500 11000"
 xmlns:xlink="http://www.w3.org/1999/xlink"
 xmlns:xodm="http://www.corel.com/coreldraw/odm/2003">
 <defs>
  <style type="text/css">
   <![CDATA[
    .fil12 {fill:#00AFEF}
    .fil13 {fill:black}
    .fil0 {fill:#35302E}
    .fil2 {fill:#3B4B5A}
    .fil5 {fill:#54667A}
    .fil10 {fill:#9F969C}
    .fil3 {fill:#B9D3C6}
    .fil9 {fill:#BD7064}
    .fil8 {fill:#C73A2A}
    .fil6 {fill:#ED755C}
    .fil11 {fill:#F4A999}
    .fil4 {fill:#FEDCAD}
    .fil1 {fill:#FEFDFE}
    .fil7 {fill:#FFEED6}
    .fil14 {fill:black;fill-rule:nonzero}
   ]]>
  </style>
 </defs>
 <g id="Layer_x0020_1">
  <metadata id="CorelCorpID_0Corel-Layer"/>
  <g id="_1650892129168">
   <path class="fil0" d="M4442.6 5303.04l-11.08 3.36c-51.8,45.86 -43.5,80.75 -39.46,168.64l2.17 825.87 -4.37 1678.04c-482.91,23.96 -686.61,27.52 -1158.64,-55 -113.35,-19.81 -225.46,-65 -331.94,-85.26 1.83,114.7 181.49,812.76 217.81,993.93 15.71,78.35 37.02,152.87 57.72,235.67 21.85,87.41 36.81,158.74 61.34,244.8l64.54 229.38c4.89,34.21 -39,122.07 -12.94,190.03l32.48 57.7c-82.01,43.49 -141.93,154.57 -464.25,262.89 -143.04,48.07 -335.34,244.49 133.84,297.19 135.84,15.26 809.76,-30.61 840.61,-267.55 8.86,-68.06 -35.37,-160.96 -58.42,-221.26l-30.84 -71.2c61.03,-35.07 -5.73,21.15 102.04,-51.02 0,-148.39 11.82,-90.95 -28.07,-176.02 -22.39,-47.74 -7.07,-132.91 -9.83,-194.27 -3.44,-76.59 -13.51,-40.26 -13.13,-190.96 0.08,-32.6 1.81,-70.5 0.37,-102.42 -2.52,-56.04 -10.98,-45.26 -13.5,-101.3 -6.31,-140.37 3.65,-269.95 -11.13,-397.06 -14.61,-125.63 11.5,-313.78 11.5,-406.93l344.41 0c4.02,48.29 10.77,34.08 13.13,88.91l-0.13 306.76c0.27,80.83 -13.59,105.97 -13.12,190.97 0.4,71.56 2.05,146.24 0.63,217.48l-12.9 293.24c-2.46,54.7 -9.17,40.83 -12.97,89.08 -4.67,59.45 13.32,145.24 -6.11,197.98 -25.84,70.1 -32.31,-19.63 -32.31,184.54l89.3 51.02c-20.79,29.92 -93.82,230.46 -89.17,279.37 27.07,284.24 988.34,360.65 1112.99,195.86 74.42,-98.38 -52.74,-181.44 -119.74,-205.79 -321.42,-116.76 -269.26,-126.22 -483.14,-269.44 45.84,-61.19 54.26,-30.41 52.21,-127.63 -2.03,-96.21 -34.27,-64.23 -15.01,-140.04 12.03,-47.34 26.3,-91.05 39.16,-140.69l150.23 -589.6c10.71,-51.97 17.57,-105.36 41.28,-150.06 145.09,0 2003.12,8.78 2049.13,-4.54 108.21,-31.32 81.08,-192.22 81.08,-327.11 0,-278.18 0,-556.35 0,-834.53 -38.41,-8.41 -21.96,-2.59 -48.85,-20.94 -79.98,-54.55 -45.22,-4.75 -146.1,-48.12l-26.97 686.74c0,60.07 18.16,195.11 -14.11,242.42l-2095.22 -0.74 2.43 -2802.03 388.91 -1.64c89.62,-23.27 78.72,-27.44 192.38,-27.44 57.32,-30.43 23.24,-75.54 116.17,-85.4 52.93,-5.62 135.48,-0.73 190.71,-0.72l-0.75 -130.71 -264.16 0c-43.95,12.96 -324.05,3.27 -399.13,5.7 -111.38,3.61 -325.98,-14.56 -421.06,9.86z"/>
   <path class="fil1" d="M5284.71 7832.37c237.83,0 962.16,-12.73 1187.28,-1.27 67.77,3.45 45.9,8.78 59.37,26.24l-1246.65 0.28 0 -25.25zm1246.65 -148.3c-22.99,25.02 24.52,7.1 -34.94,20.12l-1211.7 0.37 1246.65 -20.49zm0 -153.07c-22.99,25.02 24.52,7.11 -34.94,20.13l-1211.7 0.37 1246.65 -20.49zm-1397.26 147.53l2.83 175.44c-3.15,1.78 -6.92,4.37 -9.49,5.25 -2.59,0.89 -6.64,3.57 -9.97,4.48l-312.77 -4.38c-16.33,-59.9 -16.33,-274.86 0,-334.77 67.23,-18.33 266.37,-12.95 340.52,-3.77 39.97,-35.69 60.56,-69.64 95.24,-109.38 23.39,-26.8 71.97,-74.66 92.61,-94.65l-23.77 55.1c158.49,3.3 1164.73,-13.59 1220.35,7.57 -13.46,16.66 -2.89,21.17 -70.58,21.97 -205.73,2.42 -1133.72,-13.79 -1169.84,4.26 -43.8,21.88 -149.67,229.93 -155.13,272.89zm150.61 -458.45l181.66 0.02 1017.37 -0.96 47.62 5.72c-11.59,12.62 20.7,20.49 -47.72,20.49l-1020.46 -0.19 -178.47 0.19 0 -25.27zm0 -153.05c237.83,0 962.16,-12.73 1187.28,-1.27 67.77,3.45 45.9,8.78 59.37,26.24l-1246.65 0.28 0 -25.25zm0 -153.07c237.83,0 962.16,-12.73 1187.28,-1.27 67.77,3.45 45.9,8.78 59.37,26.24l-1246.65 0.28 0 -25.25zm-149.96 157.12l2.18 170.61c-32.91,18.57 -37.24,14.36 -81.71,14.19 -65.06,-0.26 -200.67,4.75 -250.52,-8.84 -16.33,-59.9 -16.33,-274.86 0,-334.77 32.58,-8.88 303.28,-26.8 329.03,6.27 28.75,-15.94 144.64,-144.27 162.92,-177.62 59.06,38.48 206.63,18.06 294.09,18.06l803.62 -0.02c21.81,-0.11 58.04,-2.61 77.58,-1.47 68.65,4 45.91,9.72 60.36,30.31l-1241.23 -1.3c-33.41,38.91 -150.74,228.85 -156.32,284.58zm174.55 -336.58l0 0zm-24.59 -126.7l178.47 0.02 1020.46 0c67.32,0 36.19,7.41 47.72,24.98l-1246.65 0.27 0 -25.27zm1222.34 -150.19c32.57,8.49 5.82,-2.33 24.31,19l-1246.65 0.24 1222.34 -19.23zm-112.69 -155.94c23.44,-0.1 55.52,-2.1 77.63,-1.07 65.45,3.03 47.05,8.74 59.37,22.95l-1246.65 0.23 1109.65 -22.11zm-1260.61 162.48l3.18 165.27c-3.15,1.78 -6.92,4.36 -9.49,5.25 -2.59,0.89 -6.64,3.56 -9.97,4.47 -30.04,8.22 6.42,1.01 -23.29,4.54l-289.48 -8.92c-16.33,-59.91 -16.33,-274.87 0,-334.77 42.07,-11.47 285.24,-20.78 333.02,5.35l-4.65 9.88c36.2,-32.28 72.93,-66.83 104.14,-105.75 35.56,-44.33 59.77,-63.12 97.49,-101.5 -45.17,92.06 -176.36,249.34 -200.94,356.17zm227.45 -386.29c36.12,-73.19 28.2,-57.77 61.37,-64.68 -36.02,58.7 5.28,30.7 -61.37,64.68zm1371.12 2258.3l-1.44 -1014.24c-103.85,-8.72 -116.05,-53.62 -95.56,-148.5 -146.19,-41.81 -32.83,-131.4 -2.14,-231.51 24.79,-80.87 43.99,-117.07 111.5,-151.94l-2.15 -1255.92 -384.94 2.63c25.2,54.31 50.68,88.73 39.78,177.81l-1410.76 -1.45c-18.08,-102.15 12.02,-118.17 41.85,-181.29l-388.91 1.64 -2.43 2802.03 2095.22 0.74z"/>
   <path class="fil2" d="M1942.59 7542.68l446.45 -88.09 50.65 -12.67c-8.05,-103.35 -194.76,-462.41 -132.93,-782.57 37.97,-196.6 122.86,-311.66 271.26,-430.31 29.35,-23.46 119.32,-77.28 155.43,-86.93l115.08 1262.54c4,55.58 20.95,149.07 24.95,204.65 6.22,86.4 13.03,139.34 13.03,229.33l12.76 0.06c106.48,20.26 212.21,110.08 325.56,129.9 472.02,82.52 698.05,78.96 1180.96,55l-11.57 -1722.68c-318.31,133.7 -1324.23,-1070.46 -905.84,-1005.95l-12.98 -45.69c-165.56,-2.87 -345.28,-175.49 -423.07,-239.93 -22.82,12.39 -38.75,27.52 -66.27,46.01l-294.38 215.89c-241.16,182.72 -606.05,393.18 -748.87,641.5 -141.52,246.06 -241.39,697.35 -203.12,1044.53 7.11,64.5 25.68,146.31 40.04,215.07 23.51,112.53 78.44,289.5 124.57,385.65 38.09,-10.1 8.56,2.95 38.27,-15.31z"/>
   <path class="fil2" d="M3045.36 2364.06l49.01 93.16 -54.79 -1.13c-120.3,-1.44 -249.73,-62.57 -301.38,-132.71 -10.6,-14.39 -22.2,-36.58 -29.09,-47.44 -25.12,-39.61 1.1,-22.41 -39.44,-37.09 0,145.86 50.03,347.52 90.87,483.14 15.81,52.5 17.44,84.43 44.46,134.13 0.93,1.7 3.24,5.24 4.99,7.76 -109.76,163.91 -168.54,376.5 -190.08,575.26 -4.73,43.63 1.19,75.89 -6.47,121.09 -7.82,46.17 -7.67,68.99 -7.7,120.09l15.91 239.31c72.37,511.61 147.77,405.23 226.62,541.88 2.94,-2.16 5.33,-11 5.92,-9.22l17.2 -495.94c17.2,-32.31 -3.65,-1.57 23.93,-26.68l-11.88 -126.06c27.26,-9.56 28.91,-4.47 40.31,-7.58 43.26,-11.81 32.8,-2.6 20.79,3.16 -11.75,5.63 -25.01,7.98 8.89,-15.79 -35.89,-7.84 -11.65,15.48 -25.45,-13.85 36.15,-59.06 109.52,-223.98 177.8,-263.07 -26.87,-139.9 -40.47,-176.13 11.15,-310.15l174.14 92.35c454.43,211.26 1021.03,108.58 1393.22,-218.3 139.26,44.07 240.69,257.32 169.04,452 7.16,14.49 169.89,184.24 138.36,245.62 72.04,34.63 113.89,-14.8 122.16,90.07 3.01,38.14 3,71.37 -17.49,91.85 -34.95,34.93 -37.78,-13.75 -60.52,44.53 32.74,17.49 27.35,-25.8 35.59,117.22 5.39,93.42 4.77,372.75 21.85,405.81l13.71 -8.7c13.64,-13.1 -3.04,4.98 17.32,-19.06 227.64,-268.9 225.39,-670.61 198.74,-1013.7 -11.48,-147.71 5.36,-200.31 -58.83,-387.62 -20.67,-60.33 -65.26,-148.46 -96.74,-196.65 -20.4,-31.23 -35.07,-52.39 -57.85,-82.46 -24.29,-32.07 -50.66,-59.68 -67.38,-89.6 -32.73,-27.33 -54.35,-56.31 -89.48,-85 -152.33,-124.43 8.7,-48.39 -209.09,-326.67 -105.72,-135.09 -243.59,-223.05 -478.94,-233.65 -358.55,-16.15 -391.96,56.88 -614.22,99.19 -194.76,37.08 -281.67,48.47 -464.71,-17.3 -47.72,-17.15 -76.74,-25.23 -111.85,-57.7 -64.98,-17.74 -92.51,-87.15 -86.37,50.77 2.68,60.03 45.4,160.18 57.78,214.75z"/>
   <path class="fil3" d="M1202.76 2430.19c-137.21,-65.84 -274.11,-41.41 -385.3,48.39 -43.87,35.43 -71.04,96.52 -93.42,148.94 -18.51,43.35 10.73,25.18 -41.57,47.71 -62.93,27.11 -121.28,22.46 -210.11,121.54 -219.25,244.53 -56.76,666.63 296.72,666.63l1173.53 0c60.24,0 92.22,-20.54 136.19,-42.39 62.04,-30.83 57.54,-29.89 103.07,-75.51 167.3,-167.63 147.9,-421.39 19.06,-548.61 -79.52,-78.52 -46.16,-165.15 -169.04,-175.37 -4.08,-49 -32.09,-113.27 -56.02,-148.07 -209.37,-304.47 -620.61,-270.99 -773.11,-43.26z"/>
   <path class="fil4" d="M4438.28 4728.02c-5.02,143.44 -267.65,294.22 -443.96,314.16 -124.14,14.04 -227.81,-12.96 -310.42,-67.37 -55.57,-36.61 -162.02,-137.89 -167.52,-224.35 -9.55,-47.49 -2.75,-11.51 7.93,-25.31 527.71,141.6 765.69,-100.27 937.68,-153.07l-23.7 155.94zm-1590.03 -266.52c0,188.74 52.46,348.65 158.1,489.21 22.69,30.19 26.98,26.64 45.99,58.62 77.8,64.44 257.51,237.06 423.07,239.93 52.14,19.72 82.27,22.76 138.46,26.72 80.48,5.68 57.74,7.11 111.15,40.09 68.85,42.51 132.39,61.39 227.7,74.34l19.72 -0.88c93,-3.93 165.94,-25.98 234.38,-69.7 47.66,-30.44 38.66,-38.06 108.19,-43.17 59.44,-4.37 83.15,-5.87 141.48,-22.23 179.49,-18.75 350.8,-164.93 432.68,-245.47 77.86,-128.81 182.34,-189.88 204.09,-491.51 -17.07,-33.06 -16.46,-312.39 -21.85,-405.81 -8.25,-143.02 -2.85,-99.73 -35.59,-117.22 6.66,271.09 -262.56,522.56 -562.94,446.17 -490.86,-124.84 -221.69,-537.98 -556.43,-455.13 -69.81,133.35 -59.76,225.68 -174.31,333.79 -79.22,74.77 -216.56,146.33 -369.15,134.61 -225.81,-17.33 -357.45,-175.99 -403.46,-358.87 -47.4,-188.42 -44.77,-88.87 -74.22,-165.34 -27.59,25.11 -6.73,-5.63 -23.93,26.68l-17.2 495.94c-0.59,-1.78 -2.98,7.06 -5.92,9.22z"/>
   <path class="fil3" d="M3073.95 2098.54c35.11,32.47 64.13,40.56 111.85,57.7 183.04,65.77 269.95,54.37 464.71,17.3 222.26,-42.31 255.67,-115.34 614.22,-99.19 235.35,10.6 373.22,98.57 478.94,233.65 217.79,278.28 56.76,202.24 209.09,326.67 35.13,28.69 56.75,57.67 89.48,85 110.76,-9.6 310.64,-243.93 256.48,-507.69 -13.76,-67.04 -26.26,-88.35 -52.07,-139.26 -34.09,-67.22 -50.96,-60.2 -93.44,-110.64 -53.49,-63.5 7.04,-105.12 -123.99,-169.39 -75.29,-36.92 -21.02,3.86 -74.27,-117.07 -63.72,-144.71 -225.98,-276.86 -387.48,-314.08 -337.86,-77.86 -471.44,121.72 -571.18,188.5 -126.41,-29.45 -197.72,-79.36 -378.8,16.62 -101.58,53.84 -168.62,162.64 -195.2,276.76 -88.17,1.96 -152.06,44.95 -209.46,83.92 -59.3,40.26 -111.64,99.5 -138.85,171.2z"/>
   <path class="fil3" d="M7402.05 3221.04c-89.52,-20.86 -198.07,-64.54 -316.27,53.65 -104.87,104.87 -15.1,125.47 -113.94,153.92 -61.11,17.58 -121.02,44.98 -164.55,103.32 -158.37,212.24 -40.47,530.99 301.39,530.99l841.88 0c129.71,0 258.27,-76.82 310.35,-187.12 58.84,-124.61 34.43,-267.02 -52.05,-351.8 -62.74,-61.51 -20.36,-43.56 -57.11,-95.96 -31.96,-45.57 -58.94,-29.06 -84.89,-80.94 -37.57,-75.13 -30.52,-102.93 -126.68,-179.46 -121.26,-96.51 -264.96,-111.25 -406.56,-44.67 -79.35,37.32 -73.97,59.5 -131.55,98.06z"/>
   <path class="fil4" d="M4174.67 3513.08c63.55,-135.6 581.67,-131.09 638.11,22.43 -106.31,-22.28 -189.6,-43.95 -306.52,-44.5 -109.76,-0.51 -219.82,20.8 -331.59,22.07zm-1039.85 20.91c80.26,-171.67 537.88,-145.3 640.92,-22.51 -108.36,4.7 -226.3,-21.65 -340.83,-20.39 -121.44,1.34 -195.69,29.79 -300.09,42.89zm-181.4 249.4c109.55,-38.42 403.2,-266.57 728.51,-82.69 84.85,47.96 118.23,99.01 186.79,143.16 62.57,-5.52 68.35,-36.78 127.33,-36.33 59.97,0.46 65.72,31.48 133.43,37.88 32.61,-38.78 109.45,-106.95 162.34,-137.4 65.32,-37.61 144.54,-60.34 232.64,-70.05 231.17,-25.49 308.8,50.25 467.21,130.04 31.53,-61.37 -131.2,-231.13 -138.36,-245.62 71.65,-194.68 -29.78,-407.93 -169.04,-452 -27.51,24.16 -32.61,34.3 -65.73,58.48 -383.76,280.19 -901.84,357.69 -1327.48,159.82l-174.14 -92.35c-51.62,134.02 -38.02,170.26 -11.15,310.15 -68.28,39.08 -141.65,204.01 -177.8,263.07 13.8,29.33 -10.44,6.02 25.45,13.85z"/>
   <path class="fil5" d="M3977.52 6768.7c-28.89,-27.03 -23.98,-25.17 -38.7,-71.78 -10.2,-32.32 -18.12,-54.6 -28.18,-86.61 -35.77,-113.94 -151.16,-444.2 -159.05,-516.57l-127.02 -390.31c-25.11,-44.01 -121.31,-339.42 -120.8,-390.45 -20.78,0 -14.34,4.68 -15.39,-18.02 -230.82,-35.59 -360.22,-196.63 -437.83,-239.48l-6.8 516.03c33.77,20.39 68.14,36.98 103.97,51.93 42.19,17.6 66.9,21.92 101.22,59.48l-131.69 114.8 422.09 496.17c25.27,32.7 31.28,24.35 56.47,57.31l259.73 314.35c42.44,49.56 63.93,91.67 94.65,129.37 38.17,-17.61 9.15,3 27.31,-26.19z"/>
   <path class="fil0" d="M6761.54 6781.28c81.17,-13.47 58.6,-19.67 103.08,-66.85 22.5,-23.87 60.87,-59.13 93.26,-74.34 0,-52.86 -11.57,-542.21 10.47,-590.17l0.57 -609.93c-1.37,-107.86 -24.47,-92.95 -64.35,-152.5l-1061.26 0 -1.39 130.7c63.94,0 159.12,-5.65 219.37,0.76 97.34,10.37 60.61,53.41 116.21,85.37 67.92,0 76.35,-4.52 137.38,15.28 44.31,14.37 87.8,8.71 143.24,8.61 79.81,-0.15 215.89,-10.08 287.87,7.14 11.56,145.56 -15.88,1195.5 15.55,1245.93z"/>
   <path class="fil0" d="M4524.67 3703.48c464.92,-81.3 605.72,594.17 128.39,683.11 -476.74,88.82 -646.31,-592.55 -128.39,-683.11zm-1172.76 0.41c208.48,-38.02 388.39,102.85 423.3,273.2 96.07,468.71 -649.9,569.02 -732.55,133.82 -43.84,-230.85 124.74,-373.37 309.25,-407.02zm-398.5 79.51c-68.57,48.09 55.85,-10.71 -29.67,12.63 -11.4,3.11 -13.06,-1.98 -40.31,7.58l11.88 126.06c29.45,76.46 26.81,-23.08 74.22,165.34 46.01,182.88 177.65,341.53 403.46,358.87 152.59,11.72 289.93,-59.84 369.15,-134.61 114.55,-108.11 104.5,-200.44 174.31,-333.79 334.74,-82.85 65.57,330.29 556.43,455.13 300.37,76.39 569.6,-175.08 562.94,-446.17 22.73,-58.28 25.57,-9.6 60.52,-44.53 20.49,-20.48 20.5,-53.71 17.49,-91.85 -8.27,-104.86 -50.12,-55.44 -122.16,-90.07 -158.41,-79.78 -236.04,-155.53 -467.21,-130.04 -88.09,9.71 -167.31,32.44 -232.64,70.05 -52.89,30.45 -129.74,98.62 -162.34,137.4 -67.71,-6.39 -73.46,-37.42 -133.43,-37.88 -58.98,-0.45 -64.76,30.81 -127.33,36.33 -68.56,-44.15 -101.94,-95.2 -186.79,-143.16 -325.31,-183.87 -618.96,44.28 -728.51,82.69z"/>
   <path class="fil4" d="M6761.54 6781.28l-16.87 8.68c-67.51,34.87 -86.72,71.07 -111.5,151.94 -30.69,100.11 -144.05,189.7 2.14,231.51 -20.48,94.89 -8.29,139.79 95.56,148.5l1.44 1014.24c32.27,-47.31 14.11,-182.35 14.11,-242.42l26.97 -686.74c100.88,43.37 66.12,-6.43 146.1,48.12 26.9,18.35 10.44,12.54 48.85,20.94 108.61,-39.69 182.78,-33.48 257.05,-222.26 63.89,-162.41 45.68,-158.78 48.57,-308.62 1.18,-61.31 11.84,-56.86 13.27,-107.33 -67.96,-97.88 -116.56,-180.63 -329.36,-197.76 -32.4,15.21 -70.76,50.48 -93.26,74.34 -44.48,47.19 -21.91,53.38 -103.08,66.85z"/>
   <path class="fil6" d="M5655.16 5156.55c96.8,-52.37 145.16,97.36 65.46,133.88 -92.66,42.46 -159.8,-82.85 -65.46,-133.88zm-128.21 130.92l0.75 130.71c-55.23,-0.01 -137.78,-4.89 -190.71,0.72 -92.93,9.86 -58.85,54.96 -116.17,85.4 -113.66,0 -102.76,4.17 -192.38,27.44 -29.82,63.12 -59.93,79.13 -41.85,181.29l1410.76 1.45c10.9,-89.08 -14.58,-123.5 -39.78,-177.81l384.94 -2.63 2.15 1255.92 16.87 -8.68c-31.43,-50.44 -3.99,-1100.37 -15.55,-1245.93 -71.98,-17.22 -208.06,-7.29 -287.87,-7.14 -55.44,0.1 -98.93,5.76 -143.24,-8.61 -61.03,-19.8 -69.46,-15.28 -137.38,-15.28 -55.6,-31.96 -18.87,-75 -116.21,-85.37 -60.24,-6.41 -155.43,-0.76 -219.37,-0.76l1.39 -130.7c9.69,-125.42 -45.16,-211.75 -151.34,-216.24 -129.45,-5.49 -164.98,102.25 -165.03,216.24z"/>
   <path class="fil4" d="M1942.59 7542.68c0,109.21 -31.15,177.51 -26,283.44 3.84,79.1 34.16,198.8 69.12,250.01 119.54,175.12 231.97,97.87 250.33,96.74 63.98,-3.95 -14.74,15.38 59.47,5.58 50.74,-6.7 76.53,-33.61 80.78,-84.72 125.84,0 153.07,1.59 153.07,-127.56 149.13,-12.41 60.82,-131 52.33,-192.64 -44.29,-321.19 -95.83,-124.41 -192.64,-318.96l-446.45 88.09z"/>
   <path class="fil7" d="M4370.17 3946.54c144,-75.33 276.03,115.4 125.81,182.55 -147.85,66.08 -289.2,-97.07 -125.81,-182.55zm154.5 -243.07c-517.92,90.56 -348.35,771.93 128.39,683.11 477.33,-88.94 336.53,-764.41 -128.39,-683.11z"/>
   <path class="fil7" d="M3474.89 3944.96c145.69,-66.58 274.29,114.93 127.2,182.57 -166.49,76.56 -284.48,-110.69 -127.2,-182.57zm-122.98 -241.08c-184.51,33.65 -353.09,176.17 -309.25,407.02 82.65,435.2 828.62,334.89 732.55,-133.82 -34.91,-170.34 -214.83,-311.21 -423.3,-273.2z"/>
   <path class="fil6" d="M3906.28 5439.43l-122.25 124.98c48.47,131.56 83.28,106.69 43.29,256.33 -22.3,83.42 -43.78,193.99 -75.73,272.99 7.89,72.37 123.28,402.63 159.05,516.57 10.06,32.02 17.97,54.3 28.18,86.61 14.72,46.61 9.81,44.75 38.7,71.78l-4.35 -1.63 205.52 -664.94c-42.18,-53.85 -61.56,-198.64 -82.91,-275.77 -32.76,-118.35 -19.5,-152.69 42.06,-247.56 -11.88,-53.02 3.22,-22.2 -32.7,-56.46 -10.56,-10.07 -20.78,-16.23 -34.24,-28.85 -24.54,-22.98 -42.32,-40.42 -60.57,-65.32l-37.88 -38.65 -19.72 0.88 -46.44 49.01z"/>
   <path class="fil5" d="M4305.84 5707.83l-127.16 394.3 -205.52 664.94c36.03,-21.42 84.38,-81.75 110.14,-116.42l147.9 -170.41c38.56,-44.86 119.24,-161.83 166.22,-179.34l-4.48 -916.68c-2.01,2.79 -5.55,97.28 -6.72,99.31 -1.16,2.01 -4.16,6.05 -5.5,8.57 -1.67,3.15 -8.44,17.26 -8.85,18.24l-66.02 197.48z"/>
   <path class="fil5" d="M4274.65 3202.88c-371.04,-18.45 -610.03,-37.35 -925.85,-174.74 -105.65,-45.96 -277.18,-154.4 -335.46,-214.33 -44.94,-46.21 -230.8,-253.21 -219.86,-311.59 57.24,242.33 300.67,511.03 518.55,648.67 114.7,72.46 294.13,123.43 454.37,128.1 92.84,2.7 184.65,-4.07 271.27,-19.52 77.8,-13.87 178.26,-51.02 236.97,-56.59z"/>
   <path class="fil8" d="M3516.38 4750.47c5.5,86.46 111.95,187.74 167.52,224.35 82.61,54.41 186.28,81.4 310.42,67.37 176.31,-19.94 438.95,-170.72 443.96,-314.16 -107.81,82.48 -271.55,152.41 -454.79,151.54 -203.56,-0.96 -315.53,-62.39 -467.12,-129.09z"/>
   <path class="fil2" d="M6957.89 6640.08c212.8,17.13 261.4,99.88 329.36,197.76 -6.29,-92.85 -85.58,-343.47 -123.52,-431.9 -107.74,-251.08 -86.94,-170.15 -195.37,-356.04 -22.04,47.96 -17.65,537.31 -10.47,590.17z"/>
   <path class="fil5" d="M4499.15 2810.91c-395.75,18.39 -823.43,-11.43 -1139.95,-253.13 -56.65,-43.26 -205.92,-181.19 -225.52,-250.35 29.34,67.89 99.24,169.95 144.41,229.18 78.89,103.44 228.89,234.17 365.44,295.81 128.65,58.08 282.76,89.61 442.34,77.83 141.43,-10.44 241.78,-39.61 369.63,-89.31 49.47,-19.22 7.65,-16.98 43.64,-10.03z"/>
   <path class="fil1" d="M3516.38 4750.47c151.59,66.7 263.56,128.13 467.12,129.09 183.24,0.87 346.98,-69.06 454.79,-151.54l23.7 -155.94c-171.99,52.8 -409.97,294.67 -937.68,153.07 -10.68,13.81 -17.48,-22.17 -7.93,25.31z"/>
   <path class="fil9" d="M5145.22 7520.78l-26.31 9.92 -77.91 95.48 -210.03 -59.51c1.49,5.89 5.32,6.24 6.63,11.44l214 244.36 82.5 -143.93c5.46,-42.97 111.33,-251.01 155.13,-272.89 36.12,-18.05 964.11,-1.83 1169.84,-4.26 67.69,-0.8 57.11,-5.31 70.58,-21.97 -55.62,-21.16 -1061.86,-4.27 -1220.35,-7.57l23.77 -55.1c-20.63,19.99 -69.22,67.86 -92.61,94.65 -34.68,39.74 -55.26,73.69 -95.24,109.38z"/>
   <path class="fil7" d="M3624.57 5703.42c25.51,-23.21 43,-42.83 69.37,-67.73 15.29,-14.43 23.46,-22.34 39.34,-36.57 32.63,-29.25 11.04,-16 50.75,-34.7l122.25 -124.98c-51.46,-30.77 -127.72,-37.1 -188.13,-76.45 -87.81,-57.2 -207.51,-53.98 -214.37,-50.01 -0.51,51.03 95.69,346.44 120.8,390.45z"/>
   <path class="fil7" d="M4010.32 5428.18c18.25,24.9 36.03,42.33 60.57,65.32 13.46,12.62 23.68,18.78 34.24,28.85 35.92,34.26 20.81,3.44 32.7,56.46 46.67,-4.54 47.37,16.21 85.4,54.92 29.28,29.8 48.74,52.89 82.61,74.11l66.02 -197.48c0.41,-0.98 7.18,-15.09 8.85,-18.24 1.34,-2.52 4.34,-6.56 5.5,-8.57 1.17,-2.03 3.83,-5.71 5.84,-8.5 -4.04,-87.89 -12.33,-122.78 39.46,-168.64 -115.28,19.09 -139.51,-0.89 -223.08,54.15 -52.21,34.38 -123.45,65.72 -198.12,67.64z"/>
   <path class="fil9" d="M5133.73 6918.54c-44.43,64.19 -55.69,36 -91.49,101.39l-192.55 -35.37c45.65,54.46 90.52,77.46 149.77,169.16l64.66 67.93c10.1,-51.12 38.62,-116.28 70.63,-150.57 5.57,-55.74 122.91,-245.67 156.32,-284.58l1241.23 1.3c-14.45,-20.58 8.29,-26.3 -60.36,-30.31 -19.55,-1.14 -55.78,1.36 -77.58,1.47l-803.62 0.02c-87.46,0 -235.04,20.42 -294.09,-18.06 -18.28,33.35 -134.17,161.68 -162.92,177.62z"/>
   <path class="fil2" d="M4456.49 5254.44l-13.89 48.6c95.05,-21.32 309.68,-5.05 421.06,-8.66 75.07,-2.43 355.17,6.06 399.13,-6.9 -23.69,-29.39 -51.95,-46.02 -85.63,-71.14 -37.22,-27.76 -62.03,-44.78 -96.74,-69.08 -63.29,-44.3 -125.35,-101.26 -191.25,-138.28 -81.88,80.54 -253.19,226.72 -432.68,245.47z"/>
   <path class="fil5" d="M5136.93 6629.42l-3.18 -165.27 -81.09 146.76c-32.03,-33.46 -121.4,-194.97 -222.76,-248.13l212.33 58.38c44.76,-38.58 63.22,-60.75 90.83,-105.94l4.65 -9.88 -327.48 0 0.81 324.07 325.89 0z"/>
   <path class="fil5" d="M5136.93 7241.69l-2.18 -170.61c-32.01,34.28 -60.53,99.44 -70.63,150.57l-64.66 -67.93c-59.25,-91.7 -104.13,-114.7 -149.77,-169.16l192.55 35.37c35.8,-65.39 47.06,-37.2 91.49,-101.39l-323.54 -0.92 0.85 324.07 325.89 0z"/>
   <path class="fil5" d="M5136.93 7853.97l-2.83 -175.44 -82.5 143.93 -214 -244.36c-1.31,-5.2 -5.14,-5.55 -6.63,-11.44l210.03 59.51 77.91 -95.48 -308.7 -0.81 0.04 324.07 326.69 0z"/>
   <path class="fil1" d="M4178.68 6102.13l127.16 -394.3c-33.87,-21.21 -53.33,-44.3 -82.61,-74.11 -38.03,-38.71 -38.73,-59.45 -85.4,-54.92 -61.57,94.87 -74.82,129.2 -42.06,247.56 21.36,77.13 40.73,221.92 82.91,275.77z"/>
   <path class="fil1" d="M3624.57 5703.42l127.02 390.31c31.96,-79 53.44,-189.57 75.73,-272.99 39.99,-149.64 5.19,-124.77 -43.29,-256.33 -39.7,18.7 -18.12,5.45 -50.75,34.7 -15.87,14.23 -24.05,22.15 -39.34,36.57 -26.37,24.89 -43.87,44.52 -69.37,67.73z"/>
   <path class="fil6" d="M5133.06 6315.22c-27.61,45.19 -46.07,67.36 -90.83,105.94l-212.33 -58.38c101.36,53.15 190.73,214.67 222.76,248.13l81.09 -146.76c24.58,-106.83 155.78,-264.11 200.94,-356.17 -37.72,38.37 -61.93,57.16 -97.49,101.5 -31.21,38.92 -67.94,73.47 -104.14,105.75z"/>
   <path class="fil0" d="M3134.82 3533.99c104.41,-13.1 178.66,-41.56 300.09,-42.89 114.52,-1.26 232.46,25.09 340.83,20.39 -103.04,-122.79 -560.67,-149.16 -640.92,22.51z"/>
   <path class="fil0" d="M4174.67 3513.08c111.77,-1.26 221.82,-22.58 331.59,-22.07 116.93,0.55 200.22,22.22 306.52,44.5 -56.44,-153.52 -574.56,-158.03 -638.11,-22.43z"/>
   <path class="fil5" d="M4878.54 5046.81c-38.55,17.81 -45.08,37.3 -75.04,65 -23.61,21.83 -57.27,46.26 -87.07,65.8 -70.28,46.09 -138.53,65.37 -206.07,104.37l368.48 -3.7 -0.3 -231.48z"/>
   <path class="fil10" d="M3608.56 3979.46c31.06,32.54 17.27,55.27 17.27,55.28l-8.07 20.39c-61.43,17.69 -95.43,-26.32 -93.62,-94.44 40.11,-5.15 54.55,-12.53 84.42,18.76zm-133.66 -34.5c-157.29,71.88 -39.29,259.13 127.2,182.57 147.09,-67.65 18.49,-249.15 -127.2,-182.57z"/>
   <path class="fil10" d="M4517.49 4048.7c-40.33,42.35 -102.3,-15.59 -95.66,-83.2 81.89,-24.77 124.2,53.22 95.66,83.2zm-147.32 -102.16c-163.39,85.48 -22.04,248.63 125.81,182.55 150.22,-67.15 18.2,-257.88 -125.81,-182.55z"/>
   <path class="fil5" d="M5284.71 6939.21l1246.65 -0.28c-13.47,-17.46 8.4,-22.8 -59.37,-26.24 -225.12,-11.46 -949.44,1.27 -1187.28,1.27l0 25.25z"/>
   <path class="fil5" d="M5284.71 7857.63l1246.65 -0.28c-13.47,-17.46 8.4,-22.79 -59.37,-26.24 -225.12,-11.46 -949.44,1.27 -1187.28,1.27l0 25.25z"/>
   <path class="fil5" d="M5284.71 7092.28l1246.65 -0.28c-13.47,-17.46 8.4,-22.79 -59.37,-26.24 -225.12,-11.46 -949.44,1.27 -1187.28,1.27l0 25.25z"/>
   <path class="fil5" d="M5284.71 7245.35l178.47 -0.19 1020.46 0.19c68.41,0 36.13,-7.87 47.72,-20.49l-47.62 -5.72 -1017.37 0.96 -181.66 -0.02 0 25.27z"/>
   <path class="fil5" d="M5284.71 6633.07l1246.65 -0.27c-11.53,-17.57 19.61,-24.98 -47.72,-24.98l-1020.46 0 -178.47 -0.02 0 25.27z"/>
   <path class="fil3" d="M3488.39 5294.95c1.05,22.7 -5.39,18.02 15.39,18.02 6.86,-3.97 126.56,-7.19 214.37,50.01 60.42,39.35 136.67,45.68 188.13,76.45l46.44 -49.01c-95.31,-12.95 -158.85,-31.83 -227.7,-74.34 -53.41,-32.97 -30.67,-34.41 -111.15,-40.09 -56.2,-3.96 -86.33,-7 -138.46,-26.72l12.98 45.69z"/>
   <path class="fil3" d="M3972.44 5389.54l37.88 38.65c74.67,-1.92 145.91,-33.26 198.12,-67.64 83.57,-55.04 107.8,-35.06 223.08,-54.15l11.08 -3.36 13.89 -48.6c-58.33,16.35 -82.04,17.86 -141.48,22.23 -69.53,5.11 -60.53,12.73 -108.19,43.17 -68.44,43.72 -141.38,65.77 -234.38,69.7z"/>
   <path class="fil1" d="M5655.16 5156.55c-94.34,51.04 -27.2,176.35 65.46,133.88 79.7,-36.52 31.34,-186.25 -65.46,-133.88z"/>
   <path class="fil5" d="M5284.71 6323.77l1246.65 -0.23c-12.32,-14.21 6.08,-19.92 -59.37,-22.95 -22.1,-1.02 -54.18,0.98 -77.63,1.07l-1109.65 22.11z"/>
   <path class="fil3" d="M5136.93 7241.69l-325.89 0 -0.85 -324.07 323.54 0.92c-25.75,-33.07 -296.45,-15.15 -329.03,-6.27 -16.33,59.91 -16.33,274.87 0,334.77 49.85,13.59 185.46,8.58 250.52,8.84 44.47,0.17 48.8,4.39 81.71,-14.19z"/>
   <path class="fil3" d="M5136.93 6629.42l-325.89 0 -0.81 -324.07 327.48 0c-47.78,-26.12 -290.95,-16.81 -333.02,-5.35 -16.33,59.9 -16.33,274.86 0,334.77l289.48 8.92c29.7,-3.54 -6.75,3.67 23.29,-4.54 3.33,-0.91 7.38,-3.58 9.97,-4.47 2.57,-0.89 6.34,-3.47 9.49,-5.25z"/>
   <path class="fil5" d="M5284.71 7551.49l1211.7 -0.37c59.46,-13.02 11.95,4.89 34.94,-20.13l-1246.65 20.49z"/>
   <path class="fil5" d="M5284.71 7704.56l1211.7 -0.37c59.46,-13.02 11.95,4.9 34.94,-20.12l-1246.65 20.49z"/>
   <path class="fil3" d="M5136.93 7853.97l-326.69 0 -0.04 -324.07 308.7 0.81 26.31 -9.92c-74.15,-9.19 -273.29,-14.56 -340.52,3.77 -16.33,59.91 -16.33,274.87 0,334.77l312.77 4.38c3.33,-0.91 7.38,-3.58 9.97,-4.48 2.57,-0.89 6.34,-3.48 9.49,-5.25z"/>
   <path class="fil5" d="M5284.71 6476.84l1246.65 -0.24c-18.48,-21.33 8.27,-10.51 -24.31,-19l-1222.34 19.23z"/>
   <path class="fil1" d="M3617.76 4055.14l8.07 -20.39c0,-0.01 13.79,-22.75 -17.27,-55.28 -29.87,-31.29 -44.31,-23.91 -84.42,-18.76 -1.8,68.12 32.19,112.13 93.62,94.44z"/>
   <path class="fil1" d="M4421.83 3965.5c-6.64,67.61 55.33,125.56 95.66,83.2 28.54,-29.98 -13.77,-107.97 -95.66,-83.2z"/>
   <path class="fil7" d="M5361.2 6077.86c66.65,-33.97 25.35,-5.98 61.37,-64.68 -33.17,6.91 -25.26,-8.51 -61.37,64.68z"/>
   <line class="fil11" x1="5309.3" y1="6734.5" x2="5309.3" y2= "6734.5" />
   <g id="TCK_x0020_Black.cdr">
    <g>
     <path class="fil12" d="M6125.87 8152.13c0,0 -50.91,-51.66 -116.01,-39.65 -0.41,0.19 -11.12,1.23 -5.44,9.8 5.68,8.57 19.01,11.01 19.01,11.01 0,0 -17.35,-7.99 -16.35,-15.76 0,0 44.54,-16.11 118.79,34.6z"/>
     <path class="fil12" d="M6114.24 8120c0,0 -61.26,-58.88 -126.01,-41.65 -2.81,0.76 -9.78,1.43 -8.23,8.28 1.42,6.29 11.37,13.51 25.05,17.36 0,0 -22.76,-11.69 -21.18,-19.74 0,0 43.49,-20.05 130.37,35.75z"/>
     <path class="fil12" d="M6152.86 8028.2c0,0 -9.74,9.24 0.85,41.02 10.58,31.78 -10.26,65.94 -10.26,65.94 0,0 -48.26,-132.64 -179.81,-88.12 0,0 2.89,22.99 33.34,21.43 0,0 -21.32,-4.75 -25.9,-17.26 0,0 110.51,-41.51 171.48,105.39 0,0 14.74,-27.27 18.13,-43.49 3.4,-16.22 5.29,-26.98 -2.31,-44.5 -7.6,-17.52 -8.65,-28.91 -5.52,-40.41z"/>
     <path class="fil12" d="M6115.88 8073.22c0,0 -9.35,-39.43 28.16,-66.07 0,0 7.24,20.75 36.38,19.94 0,0 2.59,-0.93 3.56,4.59 0.96,5.53 4.49,24.56 23.78,11.94 0,0 0.34,-3.37 -1.77,-5.93 -2.1,-2.56 -0.44,-1.91 -0.44,-1.91 0,0 0.43,-0.58 4.19,5.28 0,0 0.51,1.22 3.98,3.6 0,0 11.89,-4.86 9.98,-26.48 0,0 -2.2,-8.81 -39.31,-45.68l45.76 -53.22 -56.37 42.56 -2.04 -2.02c0,0 3.59,-22.31 -25.9,-31.56 0,0 -6.38,24.3 -2.68,32.45 0,0 -26.26,10.33 -35.72,47.04 0,0 13.62,-31.31 44.77,-41.39 0,0 -1.06,-18.46 1.38,-22.92 0,0 10.33,3.58 11.31,19.65 0,0 37.87,30.51 52.25,56.61 0,0 -1.57,14.08 -4.32,13.65 0,0 -14.06,-5.8 -14.04,1.98 0.03,7.78 -6.17,3.56 -7.44,-1.36 -1.28,-4.91 -0.32,-14.02 -14.84,-11.93 0,0 -24.43,3.32 -26.5,-30.66 0,0 -49.57,16.96 -34.11,81.85z"/>
     <path class="fil12" d="M6170.53 7978.57c0,0 15.36,10.08 11.06,13.86 -4.3,3.78 -8.72,-5.19 -11.06,-13.86z"/>
     <path class="fil12" d="M6131.83 7956.83c0,0 -51.01,24.94 -57.46,83.65 0,0 -10.26,-63.57 57.46,-83.65z"/>
    </g>
    <g>
     <path class="fil13" d="M6212.31 8082.52l-13.88 69.9c0,0 -1.97,7.11 3.08,7.2 5.06,0.09 6,-0.04 7.37,0 1.37,0.04 3.43,-1.2 4.46,-6.85 1.03,-5.65 14.39,-70.93 14.39,-70.93l39.92 -0.34c0,0 4.63,0.34 6.17,-6.68 1.54,-7.02 2.57,-13.7 2.57,-13.7 0,0 1.2,-4.8 -4.63,-5.14 -5.82,-0.34 -93.03,0.52 -93.03,0.52 0,0 -5.48,-0.86 -7.37,6.68 -1.88,7.54 -2.57,12.68 -2.57,12.68 0,0 -2.23,7.03 6.34,7.03 8.57,0 37.18,-0.34 37.18,-0.34z"/>
     <path class="fil13" d="M6371.21 8080.8l-0.94 3.59c0,0 -1.88,4.63 2.91,4.63 4.8,0 9.59,0 9.59,0 0,0 3.08,-0.69 3.94,-4.8 0.85,-4.11 4.97,-25.02 4.97,-25.02 0,0 1.54,-4.8 -5.83,-4.8 -7.37,0 -93.37,0.34 -93.37,0.34 0,0 -5.44,-0.94 -7.2,8.05 -1.76,9 -17.43,86.92 -17.43,86.92 0,0 -2.22,9.41 5.56,9.33 7.79,-0.09 92.69,0.04 93.42,0.04 0.73,0 4.8,-0.69 6.85,-11.13 2.06,-10.45 1.67,-10.96 1.88,-11.82 -0.25,-0.99 1.67,-3.6 -7.54,-3.77 -9.21,-0.17 -75.89,0.85 -75.89,0.85l10.45 -52.25 68.62 -0.17z"/>
     <path class="fil13" d="M6417.21 8095.19l7.71 -36.83c0,0 1.89,-3.94 -3.43,-3.94 -5.31,0 -12.68,0 -12.68,0 0,0 -4.28,-0.67 -5.31,3.94 -1.03,4.6 -18.84,93.37 -18.84,93.37 0,0 -1.85,6.24 3.97,6.11 5.83,-0.13 13.84,0 13.84,0 0,0 3.67,0.58 4.78,-8.87 1.11,-9.45 4.65,-27.21 4.65,-27.21l30.67 0 38.04 33.07c0,0 3.94,3.59 7.37,1.03 3.43,-2.57 7.88,-7.37 7.88,-7.37 0,0 3.26,-3.43 -1.54,-7.71 -4.8,-4.28 -31.01,-30.15 -31.01,-30.15 0,0 -3.94,-2.91 2.22,-7.02 6.17,-4.11 45.79,-35.32 45.79,-35.32 0,0 4.11,-2.4 1.46,-7.1 -2.65,-4.7 -4.19,-6.67 -4.19,-6.67 0,0 -2.91,-3.77 -8.73,0.85 -5.82,4.62 -52.29,39.62 -52.29,39.62l-30.35 0.23z"/>
    </g>
    <g>
     <path class="fil14" d="M6277.69 8193.42l-6.53 -10.52c-0.75,0 -1.93,-0.06 -3.54,-0.17l0 10.68 -3.36 0 0 -24.51c0.13,0 1,-0.04 2.6,-0.13 1.62,-0.08 2.79,-0.12 3.52,-0.12 5.9,0 8.84,2.34 8.84,7.03 0,1.54 -0.47,2.93 -1.42,4.16 -0.95,1.23 -2.07,2 -3.38,2.3l7.09 11.27 -3.83 0zm-10.07 -21.51l0 7.99c0.8,0.11 1.58,0.17 2.34,0.17 2,0 3.46,-0.32 4.37,-0.97 0.91,-0.65 1.37,-1.81 1.37,-3.48 0,-1.37 -0.49,-2.36 -1.47,-2.97 -0.98,-0.61 -2.53,-0.91 -4.65,-0.91 -0.33,0 -0.99,0.06 -1.97,0.17zm29.87 12.88l-12.9 0c0,2.09 0.57,3.7 1.72,4.83 1.02,0.98 2.32,1.47 3.91,1.47 1.81,0 3.33,-0.54 4.54,-1.61l1.33 2.3c-0.49,0.49 -1.24,0.92 -2.25,1.28 -1.28,0.48 -2.69,0.71 -4.25,0.71 -2.26,0 -4.17,-0.76 -5.74,-2.3 -1.75,-1.68 -2.63,-3.95 -2.63,-6.79 0,-2.96 0.9,-5.33 2.69,-7.12 1.61,-1.59 3.5,-2.39 5.7,-2.39 2.55,0 4.56,0.72 6,2.17 1.41,1.39 2.11,3.22 2.11,5.51 0,0.71 -0.09,1.35 -0.25,1.95zm-7.7 -6.95c-1.42,0 -2.61,0.46 -3.57,1.38 -0.92,0.88 -1.43,1.97 -1.56,3.28l9.93 0c0,-1.3 -0.4,-2.37 -1.2,-3.24 -0.89,-0.94 -2.09,-1.42 -3.6,-1.42zm22.66 15.58l0 -1.32c-1.1,1.09 -2.71,1.63 -4.82,1.63 -2.24,0 -4.06,-0.8 -5.46,-2.41 -1.39,-1.61 -2.09,-3.74 -2.09,-6.43 0,-2.69 0.81,-4.98 2.41,-6.88 1.61,-1.9 3.52,-2.85 5.74,-2.85 1.86,0 3.26,0.44 4.22,1.31l0 -8.29 3.19 0 0 25.24 -3.19 0zm0 -13.78c-0.8,-1.2 -1.9,-1.8 -3.3,-1.8 -1.7,0 -3.08,0.63 -4.13,1.91 -1.06,1.27 -1.58,2.88 -1.58,4.85 0,4.31 1.96,6.47 5.89,6.47 0.5,0 1.1,-0.16 1.8,-0.47 0.7,-0.32 1.14,-0.66 1.32,-1.02l0 -9.93zm22.8 5.15l-12.9 0c0,2.09 0.57,3.7 1.72,4.83 1.02,0.98 2.32,1.47 3.91,1.47 1.81,0 3.33,-0.54 4.54,-1.61l1.33 2.3c-0.49,0.49 -1.24,0.92 -2.25,1.28 -1.28,0.48 -2.69,0.71 -4.25,0.71 -2.26,0 -4.17,-0.76 -5.74,-2.3 -1.75,-1.68 -2.63,-3.95 -2.63,-6.79 0,-2.96 0.9,-5.33 2.69,-7.12 1.61,-1.59 3.5,-2.39 5.7,-2.39 2.55,0 4.56,0.72 6,2.17 1.41,1.39 2.11,3.22 2.11,5.51 0,0.71 -0.09,1.35 -0.25,1.95zm-7.7 -6.95c-1.42,0 -2.61,0.46 -3.57,1.38 -0.92,0.88 -1.43,1.97 -1.56,3.28l9.93 0c0,-1.3 -0.4,-2.37 -1.2,-3.24 -0.89,-0.94 -2.08,-1.42 -3.6,-1.42zm20.98 -6.82c-0.65,-0.22 -1.26,-0.33 -1.81,-0.33 -0.97,0 -1.78,0.37 -2.41,1.1 -0.63,0.74 -0.95,1.67 -0.95,2.79 0,0.3 0.04,0.61 0.1,0.93l3.63 0 0 2.67 -3.63 0 0 15.24 -3.19 0 0 -15.24 -2.6 0 0 -2.67 2.61 0c0,-2.28 0.56,-4.07 1.69,-5.37 1.13,-1.3 2.62,-1.95 4.47,-1.95 0.93,0 1.92,0.17 2.98,0.5l-0.89 2.33zm24.31 22.41l0 -10.43c0,-1.91 -0.28,-3.24 -0.86,-4.01 -0.57,-0.76 -1.54,-1.15 -2.88,-1.15 -0.72,0 -1.48,0.22 -2.28,0.65 -0.79,0.44 -1.4,0.97 -1.82,1.61l0 13.32 -3.19 0 0 -17.91 2.17 0 1.01 2.31c1.05,-1.76 2.76,-2.65 5.14,-2.65 3.93,0 5.89,2.39 5.89,7.17l0 11.09 -3.19 0zm10.95 -24.69c0.54,0 1.01,0.19 1.4,0.57 0.38,0.39 0.58,0.85 0.58,1.38 0,0.55 -0.2,1.02 -0.58,1.41 -0.39,0.38 -0.85,0.57 -1.4,0.57 -0.54,0 -1,-0.19 -1.39,-0.57 -0.39,-0.39 -0.58,-0.86 -0.58,-1.41 0,-0.54 0.19,-1.01 0.57,-1.39 0.38,-0.38 0.85,-0.57 1.39,-0.57zm-1.76 24.69l0 -15.24 -2.46 0 0 -2.67 5.65 0 0 17.91 -3.19 0zm19.29 0l0 -10.43c0,-1.91 -0.29,-3.24 -0.86,-4.01 -0.57,-0.76 -1.54,-1.15 -2.89,-1.15 -0.72,0 -1.48,0.22 -2.28,0.65 -0.79,0.44 -1.4,0.97 -1.82,1.61l0 13.32 -3.19 0 0 -17.91 2.18 0 1 2.31c1.05,-1.76 2.76,-2.65 5.14,-2.65 3.93,0 5.89,2.39 5.89,7.17l0 11.09 -3.18 0zm7.03 4.91l1.72 -2.54c1.85,1.24 3.56,1.85 5.13,1.85 1.44,0 2.58,-0.24 3.41,-0.74 0.83,-0.5 1.25,-1.11 1.25,-1.85 0,-1.44 -1.05,-2.17 -3.15,-2.17 -0.36,0 -1,0.09 -1.94,0.28 -0.94,0.18 -1.67,0.27 -2.19,0.27 -2.54,0 -3.82,-0.96 -3.82,-2.88 0,-0.59 0.3,-1.13 0.89,-1.6 0.59,-0.48 1.33,-0.83 2.21,-1.04 -2.52,-1.19 -3.78,-3.24 -3.78,-6.17 0,-1.87 0.65,-3.44 1.96,-4.69 1.3,-1.25 2.91,-1.88 4.83,-1.88 1.76,0 3.14,0.37 4.13,1.09l1.59 -1.91 2.07 1.96 -1.91 1.44c0.81,1.06 1.22,2.44 1.22,4.15 0,1.81 -0.56,3.32 -1.69,4.56 -1.13,1.23 -2.6,1.93 -4.44,2.11l-2.63 0.27c-0.31,0.04 -0.73,0.16 -1.26,0.36 -0.52,0.2 -0.78,0.47 -0.78,0.8 0,0.46 0.55,0.69 1.64,0.69 0.48,0 1.23,-0.09 2.24,-0.26 1.02,-0.17 1.77,-0.26 2.26,-0.26 1.76,0 3.14,0.42 4.13,1.26 0.99,0.84 1.48,2.01 1.48,3.5 0,1.65 -0.74,2.98 -2.22,4 -1.48,1.01 -3.35,1.52 -5.62,1.52 -1.16,0 -2.38,-0.2 -3.66,-0.61 -1.28,-0.41 -2.31,-0.91 -3.09,-1.5zm6.74 -20.59c-1.11,0 -2.01,0.39 -2.71,1.17 -0.7,0.78 -1.05,1.74 -1.05,2.85 0,1.25 0.33,2.29 1.02,3.1 0.67,0.82 1.59,1.24 2.74,1.24 1.13,0 2.01,-0.4 2.65,-1.2 0.63,-0.8 0.95,-1.84 0.95,-3.14 0,-1.11 -0.34,-2.07 -1.04,-2.85 -0.68,-0.78 -1.54,-1.17 -2.57,-1.17zm30.02 4.72l0 10.96 -3.36 0 0 -10.96 -7.88 -13.52 3.46 0 6.09 10.7 6.1 -10.7 3.46 0 -7.87 13.52zm5.22 1.97c0,-2.77 0.74,-5 2.23,-6.7 1.49,-1.7 3.45,-2.56 5.88,-2.56 2.56,0 4.55,0.82 5.97,2.46 1.41,1.63 2.12,3.9 2.12,6.8 0,2.89 -0.72,5.17 -2.17,6.84 -1.45,1.67 -3.42,2.5 -5.92,2.5 -2.56,0 -4.54,-0.84 -5.97,-2.53 -1.43,-1.69 -2.14,-3.96 -2.14,-6.81zm3.36 0c0,4.49 1.59,6.74 4.75,6.74 1.48,0 2.63,-0.6 3.47,-1.8 0.84,-1.2 1.26,-2.85 1.26,-4.93 0,-4.43 -1.58,-6.65 -4.74,-6.65 -1.45,0 -2.6,0.59 -3.46,1.77 -0.86,1.18 -1.29,2.81 -1.29,4.89zm19.2 -8.92l0 11.44c0,2.77 1.2,4.15 3.59,4.15 1.05,0 2,-0.3 2.88,-0.91 0.87,-0.6 1.44,-1.3 1.72,-2.09l0 -12.59 3.19 0 0 17.91 -3.19 0 0 -2.48c-0.35,0.7 -1.07,1.35 -2.15,1.93 -1.08,0.59 -2.13,0.89 -3.16,0.89 -1.96,0 -3.46,-0.56 -4.5,-1.69 -1.04,-1.13 -1.56,-2.73 -1.56,-4.8l0 -11.77 3.19 0zm25.44 3.05c-0.69,-0.48 -1.39,-0.72 -2.09,-0.72 -1.13,0 -2.11,0.52 -2.95,1.55 -0.84,1.04 -1.27,2.28 -1.27,3.74l0 10.29 -3.19 0 0 -17.91 3.19 0 0 2.84c1.16,-2.12 2.89,-3.19 5.18,-3.19 0.57,0 1.39,0.11 2.46,0.3l-1.32 3.09z"/>
     <path class="fil14" d="M6370.16 8222.41l0 -10.43c0,-1.91 -0.29,-3.24 -0.86,-4.01 -0.57,-0.76 -1.54,-1.15 -2.89,-1.15 -0.72,0 -1.48,0.22 -2.28,0.65 -0.79,0.44 -1.4,0.97 -1.82,1.61l0 13.32 -3.19 0 0 -17.91 2.18 0 1 2.31c1.05,-1.76 2.76,-2.65 5.14,-2.65 3.93,0 5.89,2.39 5.89,7.17l0 11.09 -3.19 0zm8.81 -15.41l-2.09 0 0 -2.5 2.09 0 0 -3.74 3.19 -1.22 0 4.96 4.93 0 0 2.5 -4.93 0 0 8.91c0,1.5 0.26,2.58 0.76,3.22 0.51,0.63 1.33,0.95 2.46,0.95 0.82,0 1.67,-0.2 2.54,-0.61l0.47 2.78c-1.32,0.34 -2.77,0.5 -4.35,0.5 -1.42,0 -2.62,-0.52 -3.6,-1.58 -0.98,-1.06 -1.47,-2.39 -1.47,-4l0 -10.18zm27.54 6.78l-12.9 0c0,2.09 0.57,3.7 1.72,4.83 1.02,0.98 2.31,1.47 3.91,1.47 1.81,0 3.33,-0.54 4.54,-1.61l1.33 2.29c-0.49,0.49 -1.24,0.92 -2.26,1.28 -1.27,0.47 -2.69,0.71 -4.24,0.71 -2.26,0 -4.17,-0.76 -5.74,-2.3 -1.75,-1.69 -2.62,-3.95 -2.62,-6.79 0,-2.96 0.89,-5.33 2.69,-7.12 1.6,-1.59 3.5,-2.39 5.7,-2.39 2.55,0 4.56,0.72 6.01,2.17 1.4,1.39 2.11,3.22 2.11,5.51 0,0.71 -0.09,1.35 -0.25,1.95zm-7.71 -6.95c-1.42,0 -2.61,0.46 -3.57,1.38 -0.92,0.88 -1.43,1.97 -1.56,3.28l9.93 0c0,-1.3 -0.4,-2.37 -1.2,-3.24 -0.88,-0.94 -2.08,-1.41 -3.6,-1.41zm22.32 15.58l0 -10.43c0,-1.91 -0.29,-3.24 -0.86,-4.01 -0.57,-0.76 -1.54,-1.15 -2.89,-1.15 -0.72,0 -1.48,0.22 -2.28,0.65 -0.79,0.44 -1.4,0.97 -1.82,1.61l0 13.32 -3.19 0 0 -17.91 2.18 0 1 2.31c1.05,-1.76 2.76,-2.65 5.14,-2.65 3.93,0 5.89,2.39 5.89,7.17l0 11.09 -3.19 0zm8.81 -15.41l-2.09 0 0 -2.5 2.09 0 0 -3.74 3.19 -1.22 0 4.96 4.93 0 0 2.5 -4.93 0 0 8.91c0,1.5 0.26,2.58 0.76,3.22 0.51,0.63 1.33,0.95 2.46,0.95 0.82,0 1.67,-0.2 2.54,-0.61l0.46 2.78c-1.31,0.34 -2.77,0.5 -4.35,0.5 -1.42,0 -2.62,-0.52 -3.6,-1.58 -0.98,-1.06 -1.47,-2.39 -1.47,-4l0 -10.18zm15.72 -9.28c0.54,0 1.01,0.19 1.4,0.57 0.38,0.39 0.57,0.85 0.57,1.38 0,0.55 -0.19,1.02 -0.57,1.41 -0.39,0.38 -0.86,0.57 -1.4,0.57 -0.54,0 -1,-0.19 -1.39,-0.57 -0.38,-0.39 -0.57,-0.86 -0.57,-1.41 0,-0.54 0.19,-1.01 0.57,-1.39 0.38,-0.38 0.85,-0.57 1.39,-0.57zm-1.76 24.69l0 -15.24 -2.46 0 0 -2.67 5.65 0 0 17.91 -3.19 0zm7.09 -9c0,-2.77 0.74,-5.01 2.23,-6.71 1.49,-1.7 3.45,-2.55 5.88,-2.55 2.56,0 4.55,0.82 5.96,2.46 1.41,1.63 2.12,3.9 2.12,6.8 0,2.89 -0.72,5.17 -2.17,6.84 -1.45,1.67 -3.42,2.5 -5.91,2.5 -2.56,0 -4.54,-0.85 -5.97,-2.53 -1.43,-1.69 -2.14,-3.96 -2.14,-6.81zm3.36 0c0,4.49 1.59,6.74 4.76,6.74 1.47,0 2.63,-0.6 3.47,-1.8 0.84,-1.2 1.26,-2.85 1.26,-4.93 0,-4.44 -1.58,-6.66 -4.73,-6.66 -1.45,0 -2.61,0.59 -3.46,1.77 -0.86,1.18 -1.29,2.81 -1.29,4.89zm27.22 9l0 -10.43c0,-1.91 -0.29,-3.24 -0.86,-4.01 -0.57,-0.76 -1.54,-1.15 -2.88,-1.15 -0.72,0 -1.48,0.22 -2.28,0.65 -0.79,0.44 -1.4,0.97 -1.82,1.61l0 13.32 -3.19 0 0 -17.91 2.17 0 1 2.31c1.05,-1.76 2.76,-2.65 5.15,-2.65 3.93,0 5.89,2.39 5.89,7.17l0 11.09 -3.19 0zm6.52 -1.06l1.12 -3.01c1.77,1.17 3.19,1.74 4.27,1.74 1.96,0 2.94,-0.83 2.94,-2.48 0,-1.19 -0.95,-2.2 -2.84,-3.06 -1.46,-0.67 -2.44,-1.17 -2.95,-1.52 -0.51,-0.34 -0.94,-0.74 -1.31,-1.17 -0.38,-0.44 -0.66,-0.91 -0.84,-1.41 -0.18,-0.5 -0.27,-1.03 -0.27,-1.6 0,-1.47 0.54,-2.62 1.61,-3.45 1.07,-0.83 2.47,-1.24 4.2,-1.24 1.31,0 2.96,0.41 4.94,1.24l-0.9 2.94c-1.26,-1.01 -2.53,-1.51 -3.8,-1.51 -0.76,0 -1.4,0.18 -1.92,0.54 -0.52,0.36 -0.78,0.81 -0.78,1.36 0,1.15 0.65,2.02 1.95,2.61l2.28 1.04c1.39,0.63 2.4,1.36 3.04,2.17 0.63,0.82 0.95,1.84 0.95,3.07 0,1.6 -0.56,2.87 -1.69,3.77 -1.13,0.91 -2.68,1.37 -4.67,1.37 -1.89,0 -3.65,-0.47 -5.31,-1.41zm18.69 -3.63c0.69,0 1.28,0.25 1.77,0.74 0.48,0.49 0.73,1.08 0.73,1.77 0,0.7 -0.24,1.29 -0.73,1.78 -0.49,0.5 -1.08,0.74 -1.77,0.74 -0.69,0 -1.28,-0.24 -1.77,-0.74 -0.49,-0.5 -0.73,-1.09 -0.73,-1.78 0,-0.69 0.24,-1.28 0.73,-1.77 0.49,-0.49 1.08,-0.74 1.77,-0.74zm12.57 0c0.69,0 1.28,0.25 1.77,0.74 0.48,0.49 0.73,1.08 0.73,1.77 0,0.7 -0.24,1.29 -0.73,1.78 -0.49,0.5 -1.08,0.74 -1.77,0.74 -0.69,0 -1.28,-0.24 -1.77,-0.74 -0.48,-0.5 -0.73,-1.09 -0.73,-1.78 0,-0.69 0.25,-1.28 0.73,-1.77 0.49,-0.49 1.08,-0.74 1.77,-0.74zm12.57 0c0.69,0 1.28,0.25 1.77,0.74 0.48,0.49 0.73,1.08 0.73,1.77 0,0.7 -0.24,1.29 -0.73,1.78 -0.49,0.5 -1.08,0.74 -1.77,0.74 -0.69,0 -1.28,-0.24 -1.77,-0.74 -0.48,-0.5 -0.73,-1.09 -0.73,-1.78 0,-0.69 0.25,-1.28 0.73,-1.77 0.49,-0.49 1.08,-0.74 1.77,-0.74z"/>
     <ellipse class="fil13" cx="6354.88" cy="8171.11" rx="1.95" ry="1.98"/>
     <polygon class="fil13" points="6350.77,8175.45 6356.44,8175.45 6356.44,8177.36 6356.45,8177.36 6356.45,8222.39 6353.27,8222.39 6353.27,8178.08 6350.77,8178.08 "/>
    </g>
   </g>
  </g>
 </g>
</svg>
