<?xml version="1.0" encoding="UTF-8"?>
<!DOCTYPE svg PUBLIC "-//W3C//DTD SVG 1.1//EN" "http://www.w3.org/Graphics/SVG/1.1/DTD/svg11.dtd">
<!-- Creator: CorelDRAW 2019 (64-Bit) -->
<svg xmlns="http://www.w3.org/2000/svg" xml:space="preserve" width="2.5in" height="2.5in" version="1.1" style="shape-rendering:geometricPrecision; text-rendering:geometricPrecision; image-rendering:optimizeQuality; fill-rule:evenodd; clip-rule:evenodd"
viewBox="0 0 250000 250000"
 xmlns:xlink="http://www.w3.org/1999/xlink">
 <defs>
  <style type="text/css">
   <![CDATA[
    .fil0 {fill:#00AFEF}
   ]]>
  </style>
 </defs>
 <g id="Layer_x0020_1">
  <metadata id="CorelCorpID_0Corel-Layer"/>
  <g id="_2518970692112">
   <path class="fil0" d="M154546 226484c0,0 -46279,-46961 -105460,-36045 -377,172 -10110,1120 -4946,8909 5164,7788 17278,10013 17278,10013 0,0 -15771,-7265 -14859,-14332 0,0 40489,-14644 107987,31456z"/>
   <path class="fil0" d="M143971 197279c0,0 -55683,-53528 -114547,-37858 -2554,694 -8889,1304 -7486,7522 1291,5720 10334,12278 22772,15782 0,0 -20690,-10628 -19252,-17943 0,0 39533,-18228 118513,32497z"/>
   <path class="fil0" d="M179075 113826c0,0 -8850,8400 768,37290 9618,28891 -9330,59942 -9330,59942 0,0 -43872,-120576 -163457,-80105 0,0 2622,20900 30310,19485 0,0 -19383,-4317 -23544,-15696 0,0 100457,-37734 155879,95801 0,0 13401,-24789 16487,-39532 3085,-14743 4805,-24523 -2100,-40452 -6905,-15929 -7860,-26276 -5013,-36733z"/>
   <path class="fil0" d="M145457 154756c0,0 -8496,-35844 25597,-60066 0,0 6583,18861 33070,18126 0,0 2352,-849 3230,4177 879,5026 4080,22326 21613,10848 0,0 309,-3067 -1605,-5390 -1914,-2323 -404,-1734 -404,-1734 0,0 386,-531 3802,4799 0,0 462,1112 3620,3272 0,0 10809,-4419 9072,-24077 0,0 -2004,-8005 -35738,-41522l41596 -48378 -51238 38685 -1849 -1835c0,0 3267,-20288 -23544,-28686 0,0 -5801,22086 -2435,29498 0,0 -23869,9387 -32475,42759 0,0 12381,-28457 40695,-37625 0,0 -958,-16785 1252,-20830 0,0 9394,3254 10284,17861 0,0 34421,27733 47500,51461 0,0 -1430,12802 -3929,12407 0,0 -12786,-5270 -12761,1802 26,7072 -5606,3231 -6765,-1238 -1159,-4469 -288,-12751 -13491,-10848 0,0 -22209,3015 -24086,-27874 0,0 -45064,15415 -31009,74409z"/>
   <path class="fil0" d="M195139 68710c0,0 13966,9161 10052,12599 -3915,3438 -7925,-4721 -10052,-12599z"/>
   <path class="fil0" d="M159958 48955c0,0 -46366,22670 -52231,76045 0,0 -9327,-57795 52231,-76045z"/>
  </g>
 </g>
</svg>
