<?xml version="1.0" encoding="UTF-8"?>
<!DOCTYPE svg PUBLIC "-//W3C//DTD SVG 1.1//EN" "http://www.w3.org/Graphics/SVG/1.1/DTD/svg11.dtd">
<!-- Creator: CorelDRAW 2020 (64-Bit) -->
<svg xmlns="http://www.w3.org/2000/svg" xml:space="preserve" width="5.2in" height="2.8in" version="1.1" style="shape-rendering:geometricPrecision; text-rendering:geometricPrecision; image-rendering:optimizeQuality; fill-rule:evenodd; clip-rule:evenodd"
viewBox="0 0 5200 2800"
 xmlns:xlink="http://www.w3.org/1999/xlink"
 xmlns:xodm="http://www.corel.com/coreldraw/odm/2003">
 <defs>
  <style type="text/css">
   <![CDATA[
    .fil0 {fill:#00AFEF}
    .fil1 {fill:black}
    .fil2 {fill:black;fill-rule:nonzero}
   ]]>
  </style>
 </defs>
 <g id="Layer_x0020_1">
  <metadata id="CorelCorpID_0Corel-Layer"/>
  <g id="_3024651967888">
   <path class="fil0" d="M1477.93 2131.39c0,0 -462.79,-469.61 -1054.6,-360.45 -3.77,1.72 -101.1,11.2 -49.46,89.09 51.64,77.88 172.78,100.13 172.78,100.13 0,0 -157.71,-72.65 -148.59,-143.32 0,0 404.89,-146.44 1079.87,314.56z"/>
   <path class="fil0" d="M1372.19 1839.33c0,0 -556.83,-535.28 -1145.47,-378.58 -25.54,6.94 -88.89,13.04 -74.86,75.22 12.91,57.2 103.34,122.78 227.72,157.82 0,0 -206.9,-106.28 -192.52,-179.43 0,0 395.33,-182.28 1185.13,324.97z"/>
   <path class="fil0" d="M1723.22 1004.81c0,0 -88.5,84 7.68,372.9 96.18,288.91 -93.3,599.42 -93.3,599.42 0,0 -438.72,-1205.76 -1634.57,-801.05 0,0 26.22,209 303.1,194.85 0,0 -193.83,-43.17 -235.44,-156.96 0,0 1004.57,-377.34 1558.79,958.01 0,0 134.01,-247.89 164.87,-395.32 30.85,-147.43 48.05,-245.23 -21,-404.52 -69.05,-159.29 -78.6,-262.76 -50.13,-367.33z"/>
   <path class="fil0" d="M1387.04 1414.11c0,0 -84.96,-358.44 255.97,-600.66 0,0 65.83,188.61 330.7,181.26 0,0 23.52,-8.49 32.3,41.77 8.79,50.26 40.8,223.26 216.13,108.48 0,0 3.09,-30.67 -16.05,-53.9 -19.14,-23.23 -4.04,-17.34 -4.04,-17.34 0,0 3.86,-5.31 38.02,47.99 0,0 4.62,11.12 36.2,32.72 0,0 108.09,-44.19 90.72,-240.77 0,0 -20.04,-80.05 -357.38,-415.22l415.96 -483.78 -512.38 386.85 -18.49 -18.35c0,0 32.67,-202.88 -235.44,-286.86 0,0 -58.01,220.86 -24.35,294.98 0,0 -238.69,93.87 -324.75,427.59 0,0 123.81,-284.57 406.95,-376.25 0,0 -9.58,-167.85 12.52,-208.3 0,0 93.94,32.54 102.84,178.61 0,0 344.21,277.33 475,514.61 0,0 -14.3,128.02 -39.29,124.07 0,0 -127.86,-52.7 -127.61,18.02 0.26,70.72 -56.06,32.31 -67.65,-12.38 -11.59,-44.69 -2.88,-127.51 -134.91,-108.48 0,0 -222.09,30.15 -240.86,-278.74 0,0 -450.64,154.15 -310.09,744.09z"/>
   <path class="fil0" d="M1883.87 553.65c0,0 139.66,91.61 100.52,125.99 -39.15,34.38 -79.25,-47.21 -100.52,-125.99z"/>
   <path class="fil0" d="M1532.06 356.09c0,0 -463.66,226.7 -522.31,760.45 0,0 -93.27,-577.95 522.31,-760.45z"/>
  </g>
  <g id="_3024651968464">
   <path class="fil1" d="M2263.63 1498.55l-126.15 635.43c0,0 -17.91,64.63 28.03,65.41 45.94,0.78 54.51,-0.39 66.97,0 12.46,0.39 31.15,-10.9 40.5,-62.3 9.34,-51.39 130.82,-644.77 130.82,-644.77l362.88 -3.11c0,0 42.05,3.11 56.07,-60.74 14.02,-63.85 23.36,-124.59 23.36,-124.59 0,0 10.9,-43.61 -42.05,-46.72 -52.95,-3.12 -845.68,4.67 -845.68,4.67 0,0 -49.84,-7.79 -66.97,60.74 -17.13,68.53 -23.36,115.25 -23.36,115.25 0,0 -20.25,63.85 57.62,63.85 77.87,0 337.96,-3.11 337.96,-3.11z"/>
   <path class="fil1" d="M3708.14 1482.99l-8.57 32.69c0,0 -17.13,42.05 26.48,42.05 43.61,0 87.22,0 87.22,0 0,0 28.03,-6.23 35.82,-43.61 7.79,-37.38 45.17,-227.38 45.17,-227.38 0,0 14.03,-43.61 -52.95,-43.61 -66.98,0 -848.79,3.12 -848.79,3.12 0,0 -49.45,-8.56 -65.41,73.2 -15.96,81.76 -158.46,790.15 -158.46,790.15 0,0 -20.22,85.57 50.56,84.79 70.79,-0.78 842.61,0.33 849.23,0.33 6.62,0 43.61,-6.23 62.3,-101.23 18.69,-95 15.15,-99.65 17.13,-107.46 -2.3,-8.98 15.19,-32.71 -68.52,-34.26 -83.71,-1.56 -689.94,7.79 -689.94,7.79l95 -475.01 623.75 -1.54z"/>
   <path class="fil1" d="M4126.3 1613.8l70.08 -334.84c0,0 17.13,-35.82 -31.15,-35.82 -48.28,0 -115.25,0 -115.25,0 0,0 -38.93,-6.02 -48.28,35.82 -9.34,41.85 -171.31,848.79 -171.31,848.79 0,0 -16.82,56.67 36.14,55.5 52.96,-1.17 125.78,0 125.78,0 0,0 33.38,5.3 43.49,-80.66 10.11,-85.96 42.22,-247.39 42.22,-247.39l278.78 0 345.75 300.58c0,0 35.82,32.71 66.97,9.35 31.15,-23.36 71.64,-66.97 71.64,-66.97 0,0 29.59,-31.15 -14.02,-70.08 -43.61,-38.94 -281.89,-274.11 -281.89,-274.11 0,0 -35.82,-26.48 20.25,-63.85 56.07,-37.38 416.21,-321.07 416.21,-321.07 0,0 37.34,-21.78 13.22,-64.56 -24.11,-42.78 -38.12,-60.67 -38.12,-60.67 0,0 -26.45,-34.23 -79.34,7.78 -52.9,42.01 -475.29,360.16 -475.29,360.16l-275.88 2.05z"/>
  </g>
  <g id="_3024172110064">
   <path class="fil2" d="M2858 2506.71l-59.31 -95.58c-6.8,0 -17.54,-0.52 -32.22,-1.5l0 97.09 -30.51 0 0 -222.81c1.14,0 9.03,-0.36 23.66,-1.14 14.69,-0.78 25.32,-1.14 32.02,-1.14 53.6,0 80.38,21.33 80.38,63.93 0,14.01 -4.31,26.62 -12.92,37.83 -8.61,11.21 -18.83,18.16 -30.72,20.91l64.5 102.43 -34.87 0zm-91.54 -195.57l0 72.65c7.26,0.98 14.37,1.5 21.28,1.5 18.21,0 31.44,-2.96 39.75,-8.82 8.3,-5.91 12.45,-16.45 12.45,-31.6 0,-12.51 -4.46,-21.48 -13.33,-26.98 -8.93,-5.5 -22.99,-8.25 -42.24,-8.25 -3.01,0 -8.98,0.52 -17.9,1.51zm271.54 117.11l-117.27 0c0,19.04 5.19,33.68 15.62,43.9 9.24,8.93 21.07,13.39 35.54,13.39 16.5,0 30.25,-4.88 41.3,-14.63l12.14 20.86c-4.46,4.46 -11.31,8.35 -20.5,11.62 -11.57,4.31 -24.44,6.44 -38.61,6.44 -20.5,0 -37.88,-6.95 -52.15,-20.86 -15.93,-15.31 -23.87,-35.91 -23.87,-61.75 0,-26.88 8.15,-48.46 24.49,-64.7 14.58,-14.48 31.86,-21.74 51.83,-21.74 23.2,0 41.41,6.54 54.59,19.67 12.76,12.61 19.15,29.31 19.15,50.12 0,6.44 -0.78,12.3 -2.28,17.7zm-70.05 -63.2c-12.92,0 -23.71,4.2 -32.43,12.56 -8.35,7.99 -13.02,17.9 -14.17,29.78l90.29 0c0,-11.78 -3.63,-21.58 -10.95,-29.47 -8.04,-8.56 -18.94,-12.87 -32.74,-12.87zm206 141.66l0 -11.99c-10.02,9.86 -24.65,14.79 -43.8,14.79 -20.39,0 -36.89,-7.32 -49.61,-21.9 -12.66,-14.58 -18.99,-34.04 -18.99,-58.38 0,-24.44 7.31,-45.3 21.9,-62.58 14.58,-17.28 32.02,-25.89 52.15,-25.89 16.86,0 29.63,3.94 38.35,11.89l0 -75.4 28.95 0 0 229.46 -28.95 0zm0 -125.26c-7.26,-10.95 -17.28,-16.39 -29.94,-16.39 -15.46,0 -28.02,5.76 -37.57,17.33 -9.6,11.52 -14.37,26.2 -14.37,44.06 0,39.17 17.85,58.79 53.5,58.79 4.52,0 10.02,-1.45 16.4,-4.3 6.38,-2.91 10.38,-5.97 11.99,-9.24l0 -90.24zm207.3 46.81l-117.27 0c0,19.04 5.19,33.68 15.62,43.9 9.24,8.93 21.07,13.39 35.54,13.39 16.5,0 30.25,-4.88 41.3,-14.63l12.14 20.86c-4.46,4.46 -11.31,8.35 -20.5,11.62 -11.57,4.31 -24.44,6.44 -38.61,6.44 -20.5,0 -37.88,-6.95 -52.15,-20.86 -15.93,-15.31 -23.87,-35.91 -23.87,-61.75 0,-26.88 8.15,-48.46 24.49,-64.7 14.58,-14.48 31.86,-21.74 51.83,-21.74 23.2,0 41.41,6.54 54.59,19.67 12.76,12.61 19.15,29.31 19.15,50.12 0,6.44 -0.78,12.3 -2.28,17.7zm-70.05 -63.2c-12.92,0 -23.71,4.2 -32.43,12.56 -8.35,7.99 -13.02,17.9 -14.17,29.78l90.29 0c0,-11.78 -3.63,-21.58 -10.95,-29.47 -8.04,-8.56 -18.94,-12.87 -32.74,-12.87zm190.75 -62.01c-5.92,-2.02 -11.42,-3.06 -16.5,-3.06 -8.82,0 -16.14,3.32 -21.9,10.02 -5.76,6.69 -8.61,15.15 -8.61,25.37 0,2.75 0.31,5.55 0.93,8.51l33 0 0 24.28 -33 0 0 138.55 -28.95 0 0 -138.55 -23.66 0 0 -24.28 23.71 0c0,-20.76 5.14,-37.05 15.36,-48.88 10.28,-11.83 23.82,-17.75 40.63,-17.75 8.41,0 17.44,1.5 27.09,4.57l-8.09 21.22zm221.05 203.67l0 -94.8c0,-17.33 -2.59,-29.47 -7.83,-36.43 -5.19,-6.95 -13.96,-10.43 -26.2,-10.43 -6.59,0 -13.49,1.97 -20.7,5.91 -7.16,4 -12.71,8.82 -16.55,14.63l0 121.11 -28.96 0 0 -162.83 19.77 0 9.13 20.96c9.55,-16.04 25.11,-24.08 46.75,-24.08 35.7,0 53.55,21.69 53.55,65.12l0 100.82 -28.95 0zm99.52 -224.48c4.93,0 9.19,1.76 12.71,5.24 3.48,3.53 5.24,7.73 5.24,12.56 0,4.98 -1.77,9.24 -5.24,12.76 -3.53,3.48 -7.78,5.24 -12.71,5.24 -4.88,0 -9.08,-1.77 -12.61,-5.24 -3.48,-3.53 -5.24,-7.78 -5.24,-12.76 0,-4.93 1.71,-9.19 5.19,-12.61 3.43,-3.48 7.68,-5.19 12.66,-5.19zm-15.98 224.48l0 -138.55 -22.42 0 0 -24.28 51.37 0 0 162.83 -28.95 0zm175.33 0l0 -94.8c0,-17.33 -2.59,-29.47 -7.83,-36.43 -5.19,-6.95 -13.96,-10.43 -26.2,-10.43 -6.59,0 -13.49,1.97 -20.7,5.91 -7.16,4 -12.71,8.82 -16.55,14.63l0 121.11 -28.96 0 0 -162.83 19.77 0 9.13 20.96c9.55,-16.04 25.11,-24.08 46.75,-24.08 35.7,0 53.55,21.69 53.55,65.12l0 100.82 -28.95 0zm63.93 44.57l15.67 -23.09c16.87,11.2 32.38,16.81 46.6,16.81 13.13,0 23.45,-2.23 30.98,-6.75 7.58,-4.51 11.37,-10.12 11.37,-16.81 0,-13.13 -9.55,-19.72 -28.59,-19.72 -3.27,0 -9.13,0.83 -17.64,2.49 -8.56,1.66 -15.2,2.49 -19.93,2.49 -23.14,0 -34.71,-8.72 -34.71,-26.2 0,-5.34 2.7,-10.22 8.09,-14.58 5.4,-4.36 12.09,-7.53 20.08,-9.44 -22.93,-10.74 -34.4,-29.42 -34.4,-56.04 0,-17.02 5.92,-31.24 17.8,-42.6 11.88,-11.37 26.52,-17.07 43.95,-17.07 16.04,0 28.54,3.32 37.57,9.91l14.48 -17.39 18.83 17.8 -17.33 13.13c7.42,9.6 11.11,22.21 11.11,37.72 0,16.45 -5.14,30.2 -15.36,41.41 -10.22,11.16 -23.66,17.54 -40.32,19.15l-23.87 2.49c-2.85,0.31 -6.64,1.4 -11.42,3.27 -4.72,1.87 -7.11,4.31 -7.11,7.31 0,4.15 4.98,6.23 14.89,6.23 4.36,0 11.16,-0.78 20.39,-2.34 9.24,-1.56 16.09,-2.33 20.55,-2.33 16.04,0 28.54,3.84 37.52,11.47 8.98,7.63 13.44,18.27 13.44,31.81 0,15 -6.69,27.08 -20.13,36.32 -13.44,9.18 -30.46,13.8 -51.06,13.8 -10.54,0 -21.64,-1.87 -33.31,-5.6 -11.62,-3.74 -21.02,-8.3 -28.12,-13.65zm61.23 -187.17c-10.07,0 -18.26,3.53 -24.59,10.64 -6.38,7.11 -9.55,15.78 -9.55,25.89 0,11.36 3.06,20.81 9.24,28.23 6.12,7.47 14.43,11.21 24.91,11.21 10.28,0 18.32,-3.63 24.13,-10.9 5.76,-7.26 8.67,-16.76 8.67,-28.54 0,-10.12 -3.11,-18.78 -9.39,-25.89 -6.22,-7.11 -14.06,-10.64 -23.4,-10.64z"/>
   <path class="fil2" d="M3698.54 2770.22l0 -94.8c0,-17.33 -2.59,-29.47 -7.83,-36.43 -5.19,-6.95 -13.96,-10.43 -26.2,-10.43 -6.59,0 -13.49,1.97 -20.7,5.91 -7.16,4 -12.71,8.82 -16.55,14.63l0 121.11 -28.96 0 0 -162.83 19.77 0 9.13 20.96c9.55,-16.04 25.11,-24.08 46.75,-24.08 35.7,0 53.55,21.69 53.55,65.12l0 100.82 -28.95 0zm80.12 -140.1l-18.99 0 0 -22.73 18.99 0 0 -34.04 28.95 -11.1 0 45.14 44.83 0 0 22.73 -44.83 0 0 81c0,13.7 2.33,23.45 6.95,29.26 4.62,5.76 12.09,8.67 22.37,8.67 7.42,0 15.15,-1.87 23.09,-5.61l4.26 25.32c-11.99,3.06 -25.17,4.57 -39.54,4.57 -12.92,0 -23.82,-4.78 -32.74,-14.37 -8.87,-9.6 -13.33,-21.69 -13.33,-36.32l0 -92.52zm250.37 61.65l-117.27 0c0,19.04 5.19,33.68 15.62,43.9 9.24,8.93 21.07,13.39 35.54,13.39 16.5,0 30.25,-4.88 41.3,-14.63l12.14 20.86c-4.46,4.46 -11.31,8.35 -20.5,11.62 -11.57,4.31 -24.44,6.44 -38.61,6.44 -20.5,0 -37.88,-6.95 -52.15,-20.86 -15.93,-15.31 -23.87,-35.91 -23.87,-61.75 0,-26.88 8.15,-48.46 24.49,-64.7 14.58,-14.48 31.86,-21.74 51.83,-21.74 23.2,0 41.41,6.54 54.59,19.67 12.76,12.61 19.15,29.31 19.15,50.12 0,6.44 -0.78,12.3 -2.28,17.7zm-70.05 -63.2c-12.92,0 -23.71,4.2 -32.43,12.56 -8.35,7.99 -13.02,17.9 -14.17,29.78l90.29 0c0,-11.78 -3.63,-21.58 -10.95,-29.47 -8.04,-8.56 -18.94,-12.87 -32.74,-12.87zm202.89 141.66l0 -94.8c0,-17.33 -2.59,-29.47 -7.83,-36.43 -5.19,-6.95 -13.96,-10.43 -26.2,-10.43 -6.59,0 -13.49,1.97 -20.7,5.91 -7.16,4 -12.71,8.82 -16.55,14.63l0 121.11 -28.96 0 0 -162.83 19.77 0 9.13 20.96c9.55,-16.04 25.11,-24.08 46.75,-24.08 35.7,0 53.55,21.69 53.55,65.12l0 100.82 -28.95 0zm80.12 -140.1l-18.99 0 0 -22.73 18.99 0 0 -34.04 28.95 -11.1 0 45.14 44.83 0 0 22.73 -44.83 0 0 81c0,13.7 2.33,23.45 6.95,29.26 4.62,5.76 12.09,8.67 22.37,8.67 7.42,0 15.15,-1.87 23.09,-5.61l4.26 25.32c-11.99,3.06 -25.17,4.57 -39.54,4.57 -12.92,0 -23.82,-4.78 -32.74,-14.37 -8.87,-9.6 -13.33,-21.69 -13.33,-36.32l0 -92.52zm142.85 -84.37c4.93,0 9.19,1.76 12.71,5.24 3.48,3.53 5.24,7.73 5.24,12.56 0,4.98 -1.77,9.24 -5.24,12.76 -3.53,3.48 -7.78,5.24 -12.71,5.24 -4.88,0 -9.08,-1.77 -12.61,-5.24 -3.48,-3.53 -5.24,-7.78 -5.24,-12.76 0,-4.93 1.71,-9.19 5.19,-12.61 3.43,-3.48 7.68,-5.19 12.66,-5.19zm-15.98 224.48l0 -138.55 -22.42 0 0 -24.28 51.37 0 0 162.83 -28.95 0zm64.5 -81.78c0,-25.17 6.74,-45.51 20.29,-60.97 13.54,-15.46 31.34,-23.2 53.44,-23.2 23.3,0 41.36,7.42 54.22,22.31 12.87,14.84 19.3,35.44 19.3,61.85 0,26.26 -6.59,46.96 -19.77,62.17 -13.18,15.15 -31.08,22.73 -53.76,22.73 -23.24,0 -41.3,-7.68 -54.28,-22.99 -12.97,-15.31 -19.46,-35.96 -19.46,-61.91zm30.51 0c0,40.84 14.43,61.23 43.22,61.23 13.39,0 23.92,-5.45 31.55,-16.4 7.63,-10.95 11.47,-25.89 11.47,-44.83 0,-40.32 -14.32,-60.5 -43.02,-60.5 -13.18,0 -23.66,5.35 -31.5,16.09 -7.83,10.74 -11.73,25.53 -11.73,44.42zm247.41 81.78l0 -94.8c0,-17.33 -2.59,-29.47 -7.83,-36.43 -5.19,-6.95 -13.96,-10.43 -26.2,-10.43 -6.59,0 -13.49,1.97 -20.7,5.91 -7.16,4 -12.71,8.82 -16.55,14.63l0 121.11 -28.96 0 0 -162.83 19.77 0 9.13 20.96c9.55,-16.04 25.11,-24.08 46.75,-24.08 35.7,0 53.55,21.69 53.55,65.12l0 100.82 -28.95 0zm59.26 -9.65l10.17 -27.4c16.09,10.59 29,15.88 38.81,15.88 17.8,0 26.67,-7.53 26.67,-22.52 0,-10.79 -8.61,-20.03 -25.84,-27.76 -13.23,-6.07 -22.15,-10.69 -26.78,-13.85 -4.62,-3.11 -8.61,-6.69 -11.98,-10.69 -3.43,-4.05 -5.97,-8.3 -7.63,-12.81 -1.66,-4.52 -2.49,-9.34 -2.49,-14.53 0,-13.39 4.88,-23.81 14.63,-31.34 9.75,-7.52 22.47,-11.26 38.19,-11.26 11.88,0 26.88,3.74 44.94,11.26l-8.2 26.72c-11.46,-9.13 -22.98,-13.7 -34.56,-13.7 -6.9,0 -12.71,1.61 -17.44,4.88 -4.72,3.27 -7.06,7.37 -7.06,12.35 0,10.43 5.91,18.37 17.74,23.77l20.7 9.44c12.61,5.76 21.85,12.35 27.61,19.77 5.76,7.42 8.67,16.71 8.67,27.87 0,14.58 -5.14,26.05 -15.36,34.3 -10.22,8.25 -24.39,12.4 -42.5,12.4 -17.12,0 -33.21,-4.26 -48.31,-12.76zm169.94 -33c6.28,0 11.62,2.23 16.09,6.69 4.41,4.46 6.64,9.81 6.64,16.09 0,6.33 -2.23,11.73 -6.64,16.24 -4.46,4.52 -9.81,6.75 -16.09,6.75 -6.28,0 -11.62,-2.23 -16.09,-6.75 -4.41,-4.51 -6.64,-9.91 -6.64,-16.24 0,-6.28 2.23,-11.62 6.64,-16.09 4.46,-4.46 9.81,-6.69 16.09,-6.69zm114.31 0c6.28,0 11.62,2.23 16.09,6.69 4.41,4.46 6.64,9.81 6.64,16.09 0,6.33 -2.23,11.73 -6.64,16.24 -4.46,4.52 -9.81,6.75 -16.09,6.75 -6.28,0 -11.62,-2.23 -16.09,-6.75 -4.41,-4.51 -6.64,-9.91 -6.64,-16.24 0,-6.28 2.23,-11.62 6.64,-16.09 4.46,-4.46 9.81,-6.69 16.09,-6.69zm114.31 0c6.28,0 11.62,2.23 16.09,6.69 4.41,4.46 6.64,9.81 6.64,16.09 0,6.33 -2.23,11.73 -6.64,16.24 -4.46,4.52 -9.81,6.75 -16.09,6.75 -6.28,0 -11.62,-2.23 -16.09,-6.75 -4.41,-4.51 -6.64,-9.91 -6.64,-16.24 0,-6.28 2.23,-11.62 6.64,-16.09 4.46,-4.46 9.81,-6.69 16.09,-6.69z"/>
   <ellipse class="fil1" cx="3559.7" cy="2303.9" rx="17.71" ry="17.97"/>
   <polygon class="fil1" points="3522.33,2343.35 3573.89,2343.35 3573.89,2360.76 3573.97,2360.76 3573.97,2770.07 3545.02,2770.07 3545.02,2367.31 3522.33,2367.31 "/>
  </g>
 </g>
</svg>
