<?xml version="1.0" encoding="UTF-8"?>
<!DOCTYPE svg PUBLIC "-//W3C//DTD SVG 1.1//EN" "http://www.w3.org/Graphics/SVG/1.1/DTD/svg11.dtd">
<!-- Creator: CorelDRAW 2019 (64-Bit) -->
<svg xmlns="http://www.w3.org/2000/svg" xml:space="preserve" width="8.5in" height="11in" version="1.1" style="shape-rendering:geometricPrecision; text-rendering:geometricPrecision; image-rendering:optimizeQuality; fill-rule:evenodd; clip-rule:evenodd"
viewBox="0 0 8500 11000"
 xmlns:xlink="http://www.w3.org/1999/xlink"
 xmlns:xodm="http://www.corel.com/coreldraw/odm/2003">
 <defs>
  <style type="text/css">
   <![CDATA[
    .fil20 {fill:none;fill-rule:nonzero}
    .fil9 {fill:#00AFEF}
    .fil10 {fill:black}
    .fil2 {fill:#FEFEFE;fill-rule:nonzero}
    .fil18 {fill:#FDC365;fill-rule:nonzero}
    .fil16 {fill:#FAB99F;fill-rule:nonzero}
    .fil21 {fill:#EDEDEB;fill-rule:nonzero}
    .fil8 {fill:#EAF6F7;fill-rule:nonzero}
    .fil17 {fill:#DE8C77;fill-rule:nonzero}
    .fil0 {fill:#DFF2F6;fill-rule:nonzero}
    .fil7 {fill:#DFE5EB;fill-rule:nonzero}
    .fil13 {fill:#D7EFF6;fill-rule:nonzero}
    .fil12 {fill:#C9E9F1;fill-rule:nonzero}
    .fil23 {fill:#BF8D4B;fill-rule:nonzero}
    .fil28 {fill:#C2C4C4;fill-rule:nonzero}
    .fil24 {fill:#BDD0DE;fill-rule:nonzero}
    .fil14 {fill:#AFDDEA;fill-rule:nonzero}
    .fil27 {fill:#A3C5D8;fill-rule:nonzero}
    .fil1 {fill:#9AB5BD;fill-rule:nonzero}
    .fil5 {fill:#6CC9E1;fill-rule:nonzero}
    .fil15 {fill:#5FC1DE;fill-rule:nonzero}
    .fil26 {fill:#61AFCF;fill-rule:nonzero}
    .fil29 {fill:#4F5152;fill-rule:nonzero}
    .fil3 {fill:#5BBF95;fill-rule:nonzero}
    .fil6 {fill:#4A71A9;fill-rule:nonzero}
    .fil4 {fill:#356A63;fill-rule:nonzero}
    .fil25 {fill:#3E659B;fill-rule:nonzero}
    .fil22 {fill:#232529;fill-rule:nonzero}
    .fil19 {fill:#31466B;fill-rule:nonzero}
    .fil11 {fill:black;fill-rule:nonzero}
   ]]>
  </style>
 </defs>
 <g id="Layer_x0020_1">
  <metadata id="CorelCorpID_0Corel-Layer"/>
  <path class="fil0" d="M2521.53 7688.34c-546.2,0 -1134.38,-856.26 -1222.39,-1665.35 -154.82,-1423.33 1180.55,-3232.16 2934.09,-3409.87 72.56,-7.35 143.98,-11.72 214.15,-13.44 22.39,-0.54 44.83,-0.82 67.09,-0.82 767.33,0 1462.83,323.42 1862.72,848.28 827.31,1085.87 980.6,2170.92 425.5,2741.22 -97.19,99.85 -345.85,317.21 -712.58,444.91 140.19,-271.92 219.69,-580.21 220.64,-906.97 8.46,14.58 13.64,22.36 13.64,22.36 0,0 260.71,-237.44 225.64,-355.93 -35.07,-118.5 24.93,-249.74 -55.96,-392.67 -80.9,-142.93 -117.72,-118.7 -307.9,-153.11 -33.79,-6.11 -62.52,-14.41 -87.83,-23.19 -328.3,-651.33 -1003.14,-1098.07 -1782.33,-1098.07 -333.11,0 -647.22,81.7 -923.27,226.07 47.82,-210.72 107.31,-461.83 107.31,-461.83l-820.48 -144.94c0,0 -265.76,987.6 -238.25,1033.78 11.89,19.97 140.37,75.19 299.4,117.82 -262.9,337.89 -419.46,762.6 -419.46,1223.87 0,641.47 302.87,1212.29 773.33,1577.19 -157.85,208.69 -312.4,378 -546.51,390.03 -8.82,0.46 -17.7,0.68 -26.54,0.68z"/>
  <polygon class="fil1" points="2831.02,3841.28 2837.65,3882.47 2836.64,3882.58 "/>
  <path class="fil1" d="M2842.47 3967.69c-0.39,28.51 -2.79,57.03 -7.22,85.26l-5.09 -0.86c5.07,-27.87 8.15,-56.13 9.22,-84.48l3.1 0.08z"/>
  <path class="fil1" d="M2815.83 4136.41c-8.6,27.28 -19.21,53.96 -31.72,79.71l-7.44 -3.67c12.71,-25.22 23.52,-51.39 32.39,-78.22l6.78 2.18z"/>
  <path class="fil1" d="M2740.82 4290.32c-16.29,23.58 -34.43,45.94 -54.28,66.69l-7.64 -7.39c19.74,-20.08 37.85,-41.76 54.17,-64.74l7.75 5.43z"/>
  <path class="fil1" d="M2622.07 4414.11c-23.13,17.09 -47.75,32.21 -73.56,44.98l-5.36 -10.87c25.19,-12.35 49.29,-26.97 71.96,-43.57l6.96 9.46z"/>
  <path class="fil1" d="M2468.02 4490.18c-27.76,7.81 -56.18,12.99 -84.78,16.02l-1.33 -12.83c27.96,-2.82 55.71,-7.78 82.74,-15.24l3.36 12.06z"/>
  <path class="fil1" d="M2297.16 4509.07c-28.7,-1.01 -57.33,-3.9 -85.66,-8.57l2.25 -13.48c27.75,4.69 55.8,7.65 83.91,8.78l-0.5 13.28z"/>
  <path class="fil1" d="M2127.62 4480.8c-27.45,-8.56 -54.39,-19 -80.15,-32.13l6.03 -11.87c24.98,12.58 51.3,22.67 78.16,30.9l-4.04 13.1z"/>
  <path class="fil1" d="M1976.15 4398.69c-10.25,-10.58 -19.54,-22.67 -25.47,-36.87 -6.19,-14.24 -7.05,-30.59 -4.78,-45.2l12.42 1.76c-1.93,13.42 -1.13,26.53 4.12,38.53 5.08,12.1 13.43,23 22.94,32.74l-9.23 9.04z"/>
  <path class="fil1" d="M1987.86 4238.96c6.48,-4.49 15.17,-7.92 23.98,-6.89 8.65,0.78 16.13,4.53 22.49,9.06 12.7,9.25 21.86,22.06 27.25,36.61l-11.09 3.92c-4.48,-12.07 -12.69,-23.37 -23.1,-30.79 -5.17,-3.68 -10.98,-6.35 -16.59,-6.79 -5.49,-0.64 -10.94,1.42 -16.1,4.92l-6.84 -10.03z"/>
  <path class="fil1" d="M2042.77 4363.04c-16.43,24.25 -37.57,44.71 -61.32,61.32l-5.47 -7.76c22.58,-16.26 42.71,-36.33 57.87,-59.43l8.91 5.87z"/>
  <path class="fil1" d="M1901.09 4456.51c-29.06,3.32 -58.35,-1.15 -85.72,-9.93l2.15 -6.82c26.76,8.18 55.03,12.03 82.57,8.5l1 8.25z"/>
  <path class="fil1" d="M1738.29 4408.69c-23.93,-15.7 -46.13,-33.83 -66.75,-53.52l2.13 -2.28c20.97,19.06 43.43,36.48 67.43,51.4l-2.8 4.39z"/>
  <polygon class="fil1" points="1614.43,4291.87 1589.76,4258.26 1615.22,4291.23 "/>
  <polygon class="fil1" points="6220.69,3000.23 6259.51,3015.54 6259.09,3016.47 "/>
  <path class="fil1" d="M6335.26 3054.89c24.33,14.88 47.64,31.5 69.65,49.71l-3.35 3.94c-21.38,-18.58 -44.11,-35.65 -67.96,-51.04l1.65 -2.61z"/>
  <path class="fil1" d="M6466.78 3163.89c19.08,21.32 36.61,44.04 52.36,67.96l-6.94 4.51c-15.21,-23.79 -32.19,-46.44 -50.75,-67.76l5.33 -4.71z"/>
  <path class="fil1" d="M6560.86 3306.91c11.98,26.06 21.94,53.06 29.67,80.72l-10.25 2.79c-7.21,-27.21 -16.61,-53.85 -28.04,-79.61l8.63 -3.91z"/>
  <path class="fil1" d="M6606.73 3472.22c2.9,28.61 3.33,57.5 1.17,86.21l-12.09 -0.93c2.24,-27.97 1.96,-56.17 -0.75,-84.12l11.68 -1.15z"/>
  <path class="fil1" d="M6593.55 3643.53c-7.44,27.85 -17.48,54.94 -29.47,81.07l-11.72 -5.4c11.83,-25.49 21.74,-51.87 29.11,-78.93l12.08 3.26z"/>
  <path class="fil1" d="M6522.62 3800.09c-15.53,24.17 -32.6,47.31 -51.07,69.31l-10.46 -8.82c18.19,-21.47 35.04,-44.09 50.36,-67.68l11.17 7.19z"/>
  <path class="fil1" d="M6411.8 3931.48c-21.36,19.25 -44.1,37.08 -68.53,52.54l-7.13 -11.25c23.57,-15.06 45.67,-32.54 66.44,-51.44l9.21 10.15z"/>
  <path class="fil1" d="M6263.91 4019.87c-14.36,3.4 -29.47,5.24 -44.72,3.08 -15.4,-1.94 -29.9,-9.54 -41.3,-18.96l7.86 -9.78c10.54,8.5 22.24,14.51 35.24,16.11 12.99,1.81 26.63,0.2 39.85,-3.03l3.08 12.57z"/>
  <path class="fil1" d="M6132.5 3928.29c-0.54,-7.86 0.94,-17.09 6.32,-24.15 5.08,-7.04 12.11,-11.56 19.25,-14.71 14.43,-6.21 30.12,-7.54 45.39,-4.76l-2.26 11.54c-12.68,-2.3 -26.59,-1.01 -38.29,4.15 -5.8,2.57 -11.06,6.21 -14.29,10.81 -3.35,4.4 -4.37,10.14 -3.98,16.36l-12.13 0.76z"/>
  <path class="fil1" d="M6267.23 3944.37c12.47,26.5 19.26,55.12 21.46,84.03l-9.47 0.74c-2.47,-27.72 -9.46,-55.26 -21.59,-80.1l9.61 -4.67z"/>
  <path class="fil1" d="M6275.34 4113.91c-11.98,26.68 -30.76,49.6 -52.3,68.65l-4.76 -5.33c20.7,-18.82 38.43,-41.18 49.44,-66.67l7.63 3.35z"/>
  <path class="fil1" d="M6151.13 4229.54c-25.71,12.56 -52.64,22.4 -80.08,30.1l-0.87 -3c27.08,-8.31 53.54,-18.72 78.61,-31.75l2.35 4.65z"/>
  <polygon class="fil1" points="5987.47,4276.44 5945.98,4280.51 5987.31,4275.44 "/>
  <path class="fil2" d="M2679.57 3344.97c0,0 -265.76,987.6 -238.25,1033.78 27.51,46.19 678.33,280.86 889.5,112.46 0,0 -15.93,-154.32 5.68,-278.21 21.61,-123.89 163.56,-723.08 163.56,-723.08l-820.48 -144.94z"/>
  <path class="fil1" d="M3188.32 4512.18c21.37,-17.93 41.08,-36 58.63,-56.25 8.94,-9.93 17.21,-20.44 25.01,-31.4 8.07,-10.85 14.89,-22.49 22.78,-34.18 -2.47,13.75 -6.85,27.36 -13.53,39.79 -6.26,12.71 -14.58,24.29 -23.85,34.97 -9.39,10.57 -19.86,20.21 -31.49,28.19 -11.51,8.06 -24.01,14.92 -37.56,18.87z"/>
  <path class="fil1" d="M2751.94 3513.04l73.36 14.83 73.18 15.42 146.3 30.47c48.72,10.3 97.61,19.62 146.51,28.82 48.96,8.93 98.02,17.28 147.75,21.59 -12.46,0.06 -24.99,0.18 -37.49,-0.22l-37.46 -2.15c-24.86,-2.53 -49.75,-5.19 -74.5,-8.67 -49.53,-6.75 -98.7,-15.75 -147.61,-25.78 -48.87,-10.28 -97.59,-21.13 -145.91,-33.71 -48.35,-12.4 -96.54,-25.43 -144.13,-40.61z"/>
  <path class="fil1" d="M2734.64 3628.25l73.38 14.83 73.17 15.4 146.3 30.47c48.71,10.31 97.6,19.63 146.5,28.82 48.96,8.93 98.03,17.28 147.76,21.58 -12.46,0.07 -24.98,0.2 -37.48,-0.21l-37.47 -2.15c-24.86,-2.53 -49.74,-5.19 -74.48,-8.67 -49.54,-6.75 -98.71,-15.75 -147.63,-25.78 -48.86,-10.26 -97.6,-21.13 -145.9,-33.71 -48.35,-12.41 -96.54,-25.43 -144.14,-40.6z"/>
  <path class="fil1" d="M2717.35 3743.43l73.36 14.83 73.18 15.41 146.29 30.47c48.72,10.31 97.61,19.63 146.51,28.82 48.96,8.92 98.02,17.28 147.75,21.6 -12.46,0.06 -24.97,0.18 -37.49,-0.22l-37.46 -2.17c-24.86,-2.51 -49.75,-5.18 -74.48,-8.65 -49.54,-6.75 -98.71,-15.75 -147.63,-25.78 -48.86,-10.28 -97.6,-21.13 -145.92,-33.71 -48.35,-12.4 -96.53,-25.43 -144.13,-40.61z"/>
  <path class="fil1" d="M2700.04 3858.64l73.37 14.82 73.17 15.42 146.31 30.47c48.72,10.3 97.61,19.62 146.51,28.82 48.96,8.92 98.02,17.28 147.75,21.6 -12.46,0.06 -24.99,0.18 -37.49,-0.22l-37.47 -2.15c-24.86,-2.53 -49.74,-5.19 -74.48,-8.67 -49.53,-6.75 -98.71,-15.75 -147.61,-25.78 -48.88,-10.28 -97.61,-21.14 -145.92,-33.71 -48.35,-12.4 -96.54,-25.43 -144.14,-40.59z"/>
  <path class="fil1" d="M2682.75 3973.83l73.38 14.82 73.17 15.42 146.31 30.47c48.72,10.31 97.61,19.63 146.51,28.82 48.94,8.93 98.02,17.28 147.75,21.6 -12.47,0.06 -24.99,0.18 -37.49,-0.22l-37.47 -2.15c-24.86,-2.53 -49.74,-5.2 -74.48,-8.67 -49.54,-6.75 -98.71,-15.75 -147.63,-25.78 -48.86,-10.28 -97.6,-21.13 -145.9,-33.71 -48.35,-12.4 -96.54,-25.43 -144.14,-40.6z"/>
  <path class="fil1" d="M2665.46 4089.03l73.36 14.82 73.17 15.43 146.31 30.46c48.72,10.31 97.61,19.63 146.52,28.83 48.96,8.92 98.01,17.26 147.75,21.58 -12.46,0.06 -24.98,0.18 -37.48,-0.22l-37.46 -2.15c-24.86,-2.53 -49.74,-5.19 -74.5,-8.67 -49.53,-6.75 -98.71,-15.75 -147.61,-25.78 -48.87,-10.28 -97.6,-21.14 -145.92,-33.71 -48.35,-12.4 -96.54,-25.43 -144.13,-40.59z"/>
  <path class="fil1" d="M2648.17 4204.22l73.36 14.82 73.17 15.43 146.31 30.46c48.72,10.3 97.61,19.63 146.52,28.83 48.96,8.91 98.01,17.26 147.75,21.58 -12.46,0.06 -24.98,0.18 -37.48,-0.22l-37.46 -2.15c-24.86,-2.53 -49.75,-5.19 -74.5,-8.67 -49.54,-6.75 -98.71,-15.75 -147.63,-25.78 -48.86,-10.28 -97.58,-21.14 -145.9,-33.71 -48.35,-12.41 -96.54,-25.42 -144.13,-40.6z"/>
  <path class="fil3" d="M6324.4 5748.65c0,0 260.71,-237.44 225.64,-355.93 -35.07,-118.5 24.93,-249.74 -55.96,-392.67 -80.9,-142.93 -117.72,-118.7 -307.9,-153.11 -190.18,-34.4 -219.49,-138 -388,-8.41 -165.2,127.06 -129.46,206.41 79.29,225.08 124.96,11.17 278.78,-24.92 293.14,202.18 17.57,278.14 153.79,482.86 153.79,482.86z"/>
  <path class="fil3" d="M6432.97 6261.77c-63.1,-46.28 16.33,-227.29 137.81,-314.04 83.9,-59.93 154.72,7.3 275.46,-69.22 85.28,-54.06 87.72,-111.53 150.93,-117.74 74.71,-7.32 94.11,70.65 207.28,107.63 108.96,35.61 143.36,-19.54 209.06,16.93 80.79,44.83 133.43,186.3 133.08,296.93l0 0.95c-0.31,53.98 -13.31,100.5 -41.87,124.7 -53.33,45.2 -151.63,-121.58 -283.82,-84.04 -65.87,18.71 -69.81,66.14 -134.42,74.67 -90.49,11.94 -125.56,-75.44 -216.07,-101.87 -174.93,-51.08 -366.89,116.86 -437.43,65.11z"/>
  <path class="fil4" d="M5830.57 7471.94c49.54,-167.96 106.24,-333.88 170.48,-496.91 31.52,-81.76 66.29,-162.25 102.58,-242.06 36.17,-79.85 75.47,-158.35 118.58,-234.85 43.72,-75.97 91,-150.87 150.25,-216.36l44.94 -48.32c15.4,-15.69 32.07,-30.13 48.04,-45.24 8.21,-7.31 15.85,-15.28 24.52,-22.06l25.83 -20.56c17.25,-13.64 34.28,-27.6 52.91,-39.39 72.1,-50.33 150.96,-91.22 234.21,-119.42 83.22,-27.43 170.79,-45.04 258.46,-41.07 -87.7,-1.69 -174.36,18.14 -256.22,47.49 -82.14,29.29 -159.69,70.86 -230.3,121.75 -18.25,11.89 -34.89,25.97 -51.78,39.71l-25.42 20.5c-8.56,6.74 -16.07,14.68 -24.15,21.96 -15.72,15.04 -32.15,29.36 -47.33,44.97l-44.25 48.04c-58.07,64.76 -104.5,139.14 -147.65,214.85 -43.21,75.81 -82.74,153.82 -119.2,233.27 -36.74,79.32 -71.15,159.72 -104.15,240.72 -33.08,80.97 -64.58,162.61 -94.32,244.9 -30.25,82.1 -59.17,164.72 -86.04,248.06z"/>
  <path class="fil4" d="M6001.2 6826.74c40.24,-144.82 82.18,-289.11 124.51,-433.29l128.5 -432.07c43.42,-143.81 86.56,-287.74 126.04,-432.58 19.48,-72.43 38.29,-145.22 50.17,-219.17 5.86,-36.91 9.99,-74.33 7.17,-111.6 -1.82,-18.53 -5.63,-36.94 -12.89,-54.13 -7.15,-17.25 -18.07,-32.85 -31.17,-46.32 13.57,12.97 25.17,28.24 33.07,45.46 7.92,17.21 12.26,35.86 14.65,54.62 3.89,37.7 0.76,75.63 -4.1,112.94 -10.59,74.7 -28.3,147.97 -46.56,220.89 -37.46,145.69 -80.71,289.68 -123.09,433.86l-131.61 431.15c-44.44,143.53 -88.98,287.04 -134.69,430.22z"/>
  <path class="fil3" d="M6057.73 6947.51c0,0 11.74,-294.28 107.6,-332.36 95.86,-38.08 151.06,-145.15 286.59,-165.78 135.53,-20.61 138.61,16.04 259.28,123.12 120.67,107.09 203.76,72.89 205.63,250.33 1.8,173.94 -68.72,191.43 -188.63,64.03 -71.78,-76.25 -127.42,-195.8 -283.87,-88.13 -191.63,131.92 -386.6,148.78 -386.6,148.78z"/>
  <path class="fil4" d="M5868.31 7481.09c18.68,-82.96 41.44,-165.03 68.24,-245.88 26.79,-80.82 58.35,-160.14 94.63,-237.35 37.33,-76.59 79.43,-151.39 131.22,-219.44 12.35,-17.44 26.76,-33.29 40.68,-49.49 13.39,-16.67 29.4,-30.97 44.4,-46.14 3.85,-3.69 7.59,-7.5 11.53,-11.08l12.44 -10.11 24.86 -20.14c16.81,-13.07 35.46,-23.67 53.13,-35.36l-25.65 18.93c-8.36,6.5 -17.63,11.81 -25.19,19.31l-23.67 21.21 -11.8 10.56c-3.74,3.75 -7.26,7.72 -10.89,11.56 -14.33,15.57 -29.75,30.06 -42.52,47 -13.29,16.44 -27.03,32.48 -38.75,50.14 -49.4,68.57 -91.17,142.51 -127.28,219.06 -37.06,76.13 -68.25,155.08 -97.08,234.83l-21.03 60.07 -19.76 60.53 -19.17 60.75 -18.33 61.06z"/>
  <polygon class="fil5" points="4059.98,3782.17 4503.48,3782.17 4503.48,3395.63 4059.98,3395.63 "/>
  <path class="fil6" d="M4577.4 3615.35l-591.33 0 0 -398.53c188.8,-54.54 402.52,-54.54 591.33,0l0 398.53z"/>
  <path class="fil5" d="M4023.36 3241.01c20.92,5.65 42.03,10.1 63.3,13.46 21.21,3.68 42.53,6.64 63.96,8.52 42.79,3.98 85.74,5.82 128.69,5.35 21.44,-0.83 42.96,-0.79 64.37,-2.78l32.17 -2.21c10.68,-1.25 21.37,-2.33 32.09,-3.33 42.86,-4.36 85.29,-11.92 128.07,-19 -20.74,6.13 -41.64,11.98 -62.69,17.25 -21.29,4.08 -42.41,9.46 -63.94,12.35 -42.86,7.54 -86.4,10.19 -129.89,11.59 -43.53,0.14 -87.14,-2.08 -130.18,-8.67 -42.96,-6.6 -85.82,-15.87 -125.96,-32.53z"/>
  <path class="fil5" d="M4023.53 3312.51c3.33,44.54 3.94,88.71 5.52,132.81 0.51,22.06 1.48,44.07 2.67,66.04 1.48,21.94 2.53,43.96 6.42,65.94 -9.11,-20.51 -13.88,-42.75 -17.2,-64.82 -3.43,-22.14 -4.98,-44.46 -5.76,-66.72 -1.14,-44.57 0.78,-89.2 8.36,-133.25z"/>
  <path class="fil5" d="M4103.24 3327.53c5.03,41.85 6.36,83.54 7.56,125.22l0.99 62.46 0.59 31.2c0.46,10.33 0.25,20.86 3.25,30.9 -9.96,-18.97 -11.97,-40.75 -14.65,-61.4 -2.42,-20.92 -3.46,-41.87 -4.06,-62.82 -0.76,-41.91 0.43,-83.81 6.32,-125.56z"/>
  <path class="fil5" d="M4193.14 3341.86c3.64,37.39 4.43,74.36 6.06,111.26 0.54,18.46 1.44,36.86 2.53,55.24 1.36,18.37 2.25,36.76 5.54,55.25 -8.46,-16.89 -13.13,-35.49 -16.31,-53.97 -3.32,-18.54 -4.85,-37.29 -5.64,-55.99 -1.19,-37.4 0.54,-74.89 7.82,-111.79z"/>
  <path class="fil5" d="M4529.04 3312.51c7.58,44.06 9.5,88.68 8.36,133.25 -0.78,22.26 -2.33,44.58 -5.76,66.72 -3.3,22.07 -8.08,44.31 -17.18,64.82 3.89,-21.98 4.92,-44 6.41,-65.94 1.18,-21.97 2.15,-43.98 2.67,-66.04 1.57,-44.1 2.18,-88.26 5.52,-132.81z"/>
  <path class="fil5" d="M4449.34 3327.53c5.87,41.75 7.07,83.65 6.31,125.56 -0.6,20.94 -1.64,41.9 -4.06,62.82 -2.68,20.65 -4.7,42.43 -14.65,61.4 3,-10.04 2.79,-20.57 3.25,-30.9l0.6 -31.2 0.99 -62.46c1.2,-41.68 2.53,-83.37 7.57,-125.22z"/>
  <path class="fil5" d="M4359.43 3341.86c7.28,36.91 9.02,74.39 7.82,111.79 -0.8,18.7 -2.32,37.44 -5.64,55.99 -3.18,18.48 -7.85,37.08 -16.3,53.97 3.29,-18.49 4.19,-36.88 5.54,-55.25 1.07,-18.37 1.99,-36.78 2.54,-55.24 1.61,-36.9 2.4,-73.87 6.04,-111.26z"/>
  <path class="fil5" d="M4277.58 3341.86c5.79,36.93 7.17,73.96 7.13,111 -0.25,18.52 -0.76,37.04 -2.35,55.57 -1.57,18.44 -3.46,37.18 -8.92,55.18 0.08,-18.6 -1.67,-36.99 -1.93,-55.46 -0.63,-18.47 -0.68,-36.92 -0.68,-55.39 0.48,-36.93 1.62,-73.88 6.75,-110.91z"/>
  <path class="fil7" d="M4366.54 7768.38c-957.22,0 -1733.21,-15.71 -1733.21,-35.08 0,-17.26 614.98,-31.59 1425.37,-34.54 84.25,10.84 170.1,16.44 257.31,16.44 88.02,0 174.62,-5.69 259.62,-16.75 858.67,2.09 1524.13,16.89 1524.13,34.85 0,19.37 -775.98,35.08 -1733.22,35.08z"/>
  <path class="fil8" d="M4316.02 7501.24c-983.52,0 -1780.81,-797.31 -1780.81,-1780.8 0,-983.51 797.29,-1780.8 1780.81,-1780.8 983.51,0 1780.8,797.29 1780.8,1780.8 0,983.5 -797.29,1780.8 -1780.8,1780.8z"/>
  <path class="fil2" d="M4709.15 5636.54c-371.17,0 -672.04,-300.89 -672.04,-672.06 0,-371.15 300.87,-672.04 672.04,-672.04 371.17,0 672.06,300.89 672.06,672.04 0,371.17 -300.89,672.06 -672.06,672.06z"/>
  <g id="TCK_x0020_Black.cdr">
   <g>
    <path class="fil9" d="M4454.36 4944.04c0,0 -99.34,-100.81 -226.39,-77.38 -0.81,0.37 -21.7,2.41 -10.62,19.12 11.09,16.72 37.09,21.5 37.09,21.5 0,0 -33.85,-15.6 -31.9,-30.77 0,0 86.92,-31.43 231.81,67.53z"/>
    <path class="fil9" d="M4431.66 4881.34c0,0 -119.53,-114.91 -245.89,-81.27 -5.48,1.49 -19.08,2.8 -16.07,16.15 2.77,12.28 22.18,26.35 48.88,33.88 0,0 -44.41,-22.81 -41.33,-38.52 0,0 84.86,-39.13 254.41,69.76z"/>
    <path class="fil9" d="M4507.02 4702.2c0,0 -19,18.03 1.65,80.05 20.65,62.02 -20.03,128.68 -20.03,128.68 0,0 -94.18,-258.84 -350.89,-171.96 0,0 5.63,44.87 65.06,41.83 0,0 -41.61,-9.26 -50.54,-33.69 0,0 215.65,-81 334.62,205.65 0,0 28.77,-53.21 35.39,-84.86 6.62,-31.65 10.31,-52.64 -4.51,-86.84 -14.82,-34.19 -16.87,-56.41 -10.76,-78.85z"/>
    <path class="fil9" d="M4434.85 4790.06c0,0 -18.24,-76.94 54.94,-128.94 0,0 14.13,40.48 70.99,38.91 0,0 5.05,-1.82 6.93,8.96 1.89,10.79 8.76,47.93 46.4,23.29 0,0 0.66,-6.58 -3.44,-11.57 -4.11,-4.99 -0.87,-3.72 -0.87,-3.72 0,0 0.83,-1.14 8.16,10.3 0,0 0.99,2.39 7.77,7.02 0,0 23.2,-9.48 19.48,-51.69 0,0 -4.3,-17.19 -76.72,-89.14l89.29 -103.85 -109.99 83.04 -3.97 -3.94c0,0 7.02,-43.56 -50.54,-61.58 0,0 -12.45,47.41 -5.23,63.32 0,0 -51.24,20.15 -69.71,91.79 0,0 26.57,-61.09 87.36,-80.77 0,0 -2.06,-36.03 2.69,-44.71 0,0 20.17,6.98 22.07,38.34 0,0 73.89,59.53 101.97,110.47 0,0 -3.07,27.48 -8.44,26.63 0,0 -27.44,-11.31 -27.39,3.87 0.06,15.18 -12.04,6.94 -14.52,-2.66 -2.49,-9.59 -0.62,-27.37 -28.96,-23.29 0,0 -47.67,6.47 -51.7,-59.83 0,0 -96.74,33.09 -66.56,159.73z"/>
    <path class="fil9" d="M4541.5 4605.35c0,0 29.98,19.67 21.58,27.04 -8.41,7.38 -17.01,-10.13 -21.58,-27.04z"/>
    <path class="fil9" d="M4465.98 4562.94c0,0 -99.53,48.67 -112.12,163.24 0,0 -20.02,-124.07 112.12,-163.24z"/>
   </g>
   <g>
    <path class="fil10" d="M4623.02 4808.19l-27.08 136.41c0,0 -3.85,13.87 6.02,14.04 9.86,0.17 11.7,-0.09 14.37,0 2.67,0.08 6.69,-2.34 8.69,-13.37 2,-11.04 28.08,-138.41 28.08,-138.41l77.9 -0.67c0,0 9.03,0.67 12.04,-13.04 3.01,-13.71 5.02,-26.75 5.02,-26.75 0,0 2.34,-9.36 -9.03,-10.03 -11.37,-0.67 -181.54,1 -181.54,1 0,0 -10.7,-1.67 -14.37,13.04 -3.68,14.71 -5.02,24.74 -5.02,24.74 0,0 -4.35,13.71 12.37,13.71 16.72,0 72.55,-0.67 72.55,-0.67z"/>
    <path class="fil10" d="M4933.11 4804.85l-1.84 7.02c0,0 -3.68,9.03 5.69,9.03 9.36,0 18.72,0 18.72,0 0,0 6.02,-1.34 7.69,-9.36 1.67,-8.02 9.7,-48.81 9.7,-48.81 0,0 3.01,-9.36 -11.37,-9.36 -14.38,0 -182.21,0.67 -182.21,0.67 0,0 -10.61,-1.83 -14.04,15.72 -3.43,17.55 -34.02,169.61 -34.02,169.61 0,0 -4.34,18.37 10.85,18.2 15.2,-0.17 180.88,0.07 182.3,0.07 1.42,0 9.36,-1.34 13.37,-21.73 4.01,-20.39 3.25,-21.39 3.68,-23.07 -0.5,-1.93 3.26,-7.02 -14.71,-7.36 -17.97,-0.33 -148.11,1.67 -148.11,1.67l20.39 -101.97 133.9 -0.33z"/>
    <path class="fil10" d="M5022.87 4832.93l15.04 -71.88c0,0 3.68,-7.69 -6.69,-7.69 -10.37,0 -24.74,0 -24.74,0 0,0 -8.36,-1.3 -10.37,7.69 -2,8.98 -36.78,182.2 -36.78,182.2 0,0 -3.61,12.17 7.76,11.92 11.37,-0.25 27,0 27,0 0,0 7.17,1.14 9.33,-17.31 2.17,-18.45 9.06,-53.11 9.06,-53.11l59.85 0 74.22 64.52c0,0 7.69,7.02 14.37,2 6.69,-5.01 15.38,-14.37 15.38,-14.37 0,0 6.35,-6.69 -3.01,-15.05 -9.36,-8.35 -60.51,-58.84 -60.51,-58.84 0,0 -7.69,-5.69 4.35,-13.71 12.04,-8.02 89.35,-68.92 89.35,-68.92 0,0 8.02,-4.68 2.84,-13.86 -5.18,-9.19 -8.18,-13.03 -8.18,-13.03 0,0 -5.68,-7.35 -17.03,1.67 -11.36,9.02 -102.03,77.31 -102.03,77.31l-59.22 0.44z"/>
   </g>
   <g>
    <path class="fil11" d="M4750.61 5024.61l-12.73 -20.52c-1.46,0 -3.77,-0.11 -6.92,-0.32l0 20.84 -6.55 0 0 -47.83c0.24,0 1.94,-0.07 5.08,-0.24 3.15,-0.17 5.44,-0.24 6.87,-0.24 11.51,0 17.26,4.58 17.26,13.72 0,3.01 -0.93,5.71 -2.78,8.12 -1.85,2.41 -4.04,3.9 -6.59,4.49l13.85 21.99 -7.48 0zm-19.65 -41.98l0 15.59c1.56,0.21 3.09,0.32 4.57,0.32 3.91,0 6.75,-0.63 8.53,-1.89 1.78,-1.27 2.67,-3.53 2.67,-6.78 0,-2.69 -0.96,-4.61 -2.86,-5.79 -1.92,-1.18 -4.93,-1.77 -9.07,-1.77 -0.65,0 -1.93,0.11 -3.84,0.32zm58.29 25.14l-25.18 0c0,4.09 1.11,7.23 3.35,9.42 1.98,1.92 4.52,2.87 7.63,2.87 3.54,0 6.5,-1.05 8.87,-3.14l2.61 4.48c-0.96,0.96 -2.43,1.79 -4.4,2.49 -2.48,0.93 -5.25,1.38 -8.29,1.38 -4.4,0 -8.13,-1.49 -11.2,-4.48 -3.42,-3.29 -5.12,-7.71 -5.12,-13.26 0,-5.77 1.75,-10.41 5.26,-13.89 3.13,-3.11 6.84,-4.67 11.13,-4.67 4.98,0 8.89,1.41 11.72,4.22 2.74,2.7 4.11,6.29 4.11,10.76 0,1.38 -0.17,2.64 -0.49,3.8zm-15.04 -13.57c-2.78,0 -5.09,0.9 -6.96,2.69 -1.8,1.72 -2.8,3.84 -3.04,6.39l19.38 0c0,-2.53 -0.78,-4.63 -2.35,-6.33 -1.72,-1.84 -4.06,-2.76 -7.03,-2.76zm44.22 30.41l0 -2.57c-2.15,2.11 -5.29,3.17 -9.4,3.17 -4.38,0 -7.92,-1.57 -10.65,-4.7 -2.72,-3.13 -4.08,-7.31 -4.08,-12.53 0,-5.24 1.57,-9.72 4.7,-13.43 3.13,-3.71 6.87,-5.56 11.2,-5.56 3.62,0 6.36,0.85 8.23,2.55l0 -16.19 6.22 0 0 49.26 -6.22 0zm0 -26.89c-1.56,-2.35 -3.71,-3.52 -6.43,-3.52 -3.32,0 -6.02,1.24 -8.07,3.72 -2.06,2.48 -3.08,5.63 -3.08,9.46 0,8.41 3.83,12.62 11.48,12.62 0.97,0 2.15,-0.31 3.52,-0.93 1.37,-0.62 2.23,-1.28 2.57,-1.98l0 -19.37zm44.5 10.05l-25.17 0c0,4.09 1.11,7.23 3.35,9.42 1.98,1.92 4.52,2.87 7.63,2.87 3.54,0 6.49,-1.05 8.87,-3.14l2.61 4.48c-0.96,0.96 -2.43,1.79 -4.4,2.49 -2.48,0.93 -5.24,1.38 -8.29,1.38 -4.4,0 -8.13,-1.49 -11.19,-4.48 -3.42,-3.29 -5.12,-7.71 -5.12,-13.26 0,-5.77 1.75,-10.41 5.26,-13.89 3.13,-3.11 6.84,-4.67 11.13,-4.67 4.98,0 8.89,1.41 11.72,4.22 2.74,2.7 4.11,6.29 4.11,10.76 0,1.38 -0.17,2.64 -0.49,3.8zm-15.04 -13.57c-2.78,0 -5.09,0.9 -6.96,2.69 -1.8,1.72 -2.8,3.84 -3.04,6.39l19.38 0c0,-2.53 -0.78,-4.63 -2.35,-6.33 -1.72,-1.84 -4.07,-2.76 -7.03,-2.76zm40.94 -13.31c-1.27,-0.43 -2.45,-0.66 -3.54,-0.66 -1.89,0 -3.46,0.71 -4.7,2.15 -1.24,1.44 -1.85,3.25 -1.85,5.44 0,0.59 0.07,1.19 0.2,1.83l7.09 0 0 5.21 -7.09 0 0 29.74 -6.22 0 0 -29.74 -5.08 0 0 -5.21 5.09 0c0,-4.46 1.1,-7.95 3.3,-10.49 2.2,-2.54 5.11,-3.81 8.72,-3.81 1.8,0 3.74,0.32 5.81,0.98l-1.74 4.56zm47.45 43.72l0 -20.35c0,-3.72 -0.56,-6.33 -1.68,-7.82 -1.11,-1.49 -3,-2.24 -5.63,-2.24 -1.41,0 -2.9,0.42 -4.44,1.27 -1.54,0.86 -2.73,1.89 -3.55,3.14l0 26 -6.22 0 0 -34.95 4.24 0 1.96 4.5c2.05,-3.44 5.39,-5.17 10.04,-5.17 7.67,0 11.5,4.66 11.5,13.98l0 21.64 -6.22 0zm21.37 -48.19c1.06,0 1.97,0.38 2.73,1.13 0.74,0.76 1.13,1.66 1.13,2.69 0,1.07 -0.38,1.98 -1.13,2.74 -0.76,0.75 -1.67,1.13 -2.73,1.13 -1.05,0 -1.95,-0.38 -2.71,-1.13 -0.74,-0.76 -1.13,-1.67 -1.13,-2.74 0,-1.06 0.37,-1.97 1.11,-2.7 0.74,-0.75 1.65,-1.11 2.72,-1.11zm-3.43 48.19l0 -29.74 -4.81 0 0 -5.21 11.03 0 0 34.95 -6.22 0zm37.64 0l0 -20.35c0,-3.72 -0.56,-6.33 -1.68,-7.82 -1.11,-1.49 -3,-2.24 -5.63,-2.24 -1.41,0 -2.89,0.42 -4.44,1.27 -1.54,0.86 -2.73,1.89 -3.56,3.14l0 26 -6.22 0 0 -34.95 4.24 0 1.96 4.5c2.05,-3.44 5.39,-5.17 10.04,-5.17 7.67,0 11.5,4.66 11.5,13.98l0 21.64 -6.22 0zm13.72 9.57l3.37 -4.96c3.62,2.41 6.95,3.61 10,3.61 2.82,0 5.04,-0.48 6.65,-1.44 1.63,-0.97 2.44,-2.17 2.44,-3.61 0,-2.82 -2.05,-4.23 -6.14,-4.23 -0.7,0 -1.96,0.18 -3.79,0.54 -1.84,0.35 -3.26,0.53 -4.28,0.53 -4.97,0 -7.45,-1.87 -7.45,-5.62 0,-1.15 0.58,-2.2 1.74,-3.13 1.16,-0.94 2.6,-1.62 4.31,-2.03 -4.92,-2.31 -7.39,-6.32 -7.39,-12.03 0,-3.65 1.27,-6.7 3.82,-9.15 2.55,-2.44 5.69,-3.67 9.43,-3.67 3.44,0 6.13,0.71 8.07,2.13l3.11 -3.73 4.04 3.82 -3.72 2.82c1.59,2.06 2.39,4.77 2.39,8.1 0,3.53 -1.1,6.48 -3.3,8.89 -2.19,2.39 -5.08,3.76 -8.65,4.11l-5.13 0.54c-0.61,0.07 -1.43,0.3 -2.45,0.7 -1.02,0.4 -1.53,0.93 -1.53,1.57 0,0.89 1.07,1.33 3.2,1.33 0.94,0 2.4,-0.17 4.38,-0.5 1.98,-0.33 3.45,-0.5 4.41,-0.5 3.44,0 6.13,0.82 8.06,2.46 1.93,1.64 2.89,3.92 2.89,6.83 0,3.22 -1.44,5.81 -4.32,7.8 -2.89,1.97 -6.54,2.96 -10.96,2.96 -2.26,0 -4.65,-0.4 -7.15,-1.2 -2.5,-0.8 -4.51,-1.78 -6.04,-2.93zm13.15 -40.18c-2.16,0 -3.92,0.76 -5.28,2.28 -1.37,1.53 -2.05,3.39 -2.05,5.56 0,2.44 0.66,4.47 1.98,6.06 1.31,1.61 3.09,2.41 5.35,2.41 2.2,0 3.93,-0.78 5.18,-2.34 1.24,-1.56 1.86,-3.59 1.86,-6.13 0,-2.17 -0.67,-4.03 -2.02,-5.56 -1.34,-1.52 -3.02,-2.28 -5.02,-2.28zm58.58 9.21l0 21.4 -6.55 0 0 -21.4 -15.37 -26.39 6.75 0 11.89 20.87 11.9 -20.87 6.75 0 -15.37 26.39zm10.19 3.84c0,-5.4 1.45,-9.77 4.35,-13.09 2.91,-3.32 6.73,-4.98 11.47,-4.98 5,0 8.88,1.59 11.64,4.79 2.76,3.19 4.14,7.61 4.14,13.28 0,5.64 -1.41,10.08 -4.24,13.35 -2.83,3.25 -6.67,4.88 -11.54,4.88 -4.99,0 -8.87,-1.65 -11.65,-4.93 -2.78,-3.29 -4.18,-7.72 -4.18,-13.29zm6.55 0c0,8.77 3.1,13.15 9.28,13.15 2.87,0 5.14,-1.17 6.78,-3.52 1.63,-2.35 2.46,-5.56 2.46,-9.63 0,-8.65 -3.07,-12.99 -9.24,-12.99 -2.83,0 -5.08,1.15 -6.76,3.45 -1.68,2.31 -2.52,5.48 -2.52,9.54zm37.47 -17.4l0 22.31c0,5.4 2.34,8.1 7.01,8.1 2.05,0 3.91,-0.59 5.61,-1.76 1.69,-1.18 2.81,-2.54 3.35,-4.09l0 -24.56 6.21 0 0 34.95 -6.21 0 0 -4.83c-0.69,1.37 -2.09,2.63 -4.19,3.78 -2.11,1.15 -4.15,1.72 -6.16,1.72 -3.82,0 -6.76,-1.1 -8.79,-3.3 -2.04,-2.2 -3.05,-5.33 -3.05,-9.37l0 -22.96 6.21 0zm49.64 5.95c-1.35,-0.94 -2.71,-1.4 -4.09,-1.4 -2.19,0 -4.12,1.01 -5.76,3.03 -1.65,2.03 -2.48,4.46 -2.48,7.31l0 20.07 -6.21 0 0 -34.95 6.21 0 0 5.55c2.26,-4.14 5.64,-6.22 10.11,-6.22 1.1,0 2.7,0.2 4.8,0.59l-2.58 6.03z"/>
    <path class="fil11" d="M4931.05 5081.17l0 -20.35c0,-3.72 -0.56,-6.33 -1.68,-7.82 -1.11,-1.49 -3,-2.24 -5.63,-2.24 -1.41,0 -2.89,0.43 -4.44,1.27 -1.54,0.86 -2.73,1.89 -3.55,3.14l0 26 -6.22 0 0 -34.95 4.24 0 1.96 4.5c2.05,-3.44 5.39,-5.17 10.04,-5.17 7.67,0 11.5,4.66 11.5,13.98l0 21.64 -6.22 0zm17.2 -30.07l-4.08 0 0 -4.88 4.08 0 0 -7.31 6.21 -2.39 0 9.69 9.63 0 0 4.88 -9.63 0 0 17.39c0,2.94 0.5,5.03 1.5,6.28 0.99,1.24 2.59,1.86 4.8,1.86 1.59,0 3.25,-0.4 4.96,-1.2l0.91 5.44c-2.57,0.66 -5.4,0.98 -8.49,0.98 -2.77,0 -5.11,-1.02 -7.03,-3.09 -1.91,-2.06 -2.86,-4.65 -2.86,-7.8l0 -19.86zm53.74 13.23l-25.17 0c0,4.09 1.11,7.23 3.35,9.43 1.98,1.92 4.52,2.87 7.63,2.87 3.54,0 6.49,-1.05 8.87,-3.14l2.61 4.48c-0.96,0.96 -2.43,1.8 -4.4,2.5 -2.48,0.93 -5.24,1.38 -8.29,1.38 -4.4,0 -8.13,-1.49 -11.19,-4.48 -3.42,-3.29 -5.13,-7.71 -5.13,-13.26 0,-5.77 1.75,-10.41 5.26,-13.89 3.13,-3.11 6.84,-4.67 11.13,-4.67 4.98,0 8.89,1.41 11.72,4.22 2.74,2.7 4.11,6.29 4.11,10.76 0,1.38 -0.17,2.64 -0.49,3.8zm-15.04 -13.57c-2.78,0 -5.09,0.9 -6.96,2.7 -1.79,1.72 -2.8,3.84 -3.04,6.39l19.38 0c0,-2.53 -0.78,-4.63 -2.35,-6.33 -1.73,-1.84 -4.07,-2.76 -7.03,-2.76zm43.55 30.41l0 -20.35c0,-3.72 -0.56,-6.33 -1.68,-7.82 -1.11,-1.49 -3,-2.24 -5.63,-2.24 -1.41,0 -2.89,0.43 -4.44,1.27 -1.54,0.86 -2.73,1.89 -3.55,3.14l0 26 -6.22 0 0 -34.95 4.24 0 1.96 4.5c2.05,-3.44 5.39,-5.17 10.04,-5.17 7.67,0 11.5,4.66 11.5,13.98l0 21.64 -6.22 0zm17.2 -30.07l-4.08 0 0 -4.88 4.08 0 0 -7.31 6.21 -2.39 0 9.69 9.63 0 0 4.88 -9.63 0 0 17.39c0,2.94 0.5,5.03 1.49,6.28 0.99,1.24 2.6,1.86 4.8,1.86 1.59,0 3.25,-0.4 4.96,-1.2l0.91 5.44c-2.57,0.66 -5.4,0.98 -8.49,0.98 -2.77,0 -5.11,-1.02 -7.03,-3.09 -1.91,-2.06 -2.86,-4.65 -2.86,-7.8l0 -19.86zm30.67 -18.11c1.06,0 1.97,0.38 2.73,1.12 0.74,0.76 1.13,1.66 1.13,2.7 0,1.07 -0.38,1.98 -1.13,2.74 -0.76,0.75 -1.67,1.13 -2.73,1.13 -1.05,0 -1.95,-0.38 -2.71,-1.13 -0.75,-0.76 -1.13,-1.67 -1.13,-2.74 0,-1.06 0.37,-1.97 1.11,-2.7 0.74,-0.75 1.65,-1.11 2.72,-1.11zm-3.43 48.19l0 -29.74 -4.81 0 0 -5.21 11.03 0 0 34.95 -6.22 0zm13.85 -17.56c0,-5.4 1.45,-9.77 4.35,-13.09 2.91,-3.32 6.73,-4.98 11.47,-4.98 5,0 8.88,1.59 11.64,4.79 2.76,3.19 4.15,7.61 4.15,13.28 0,5.64 -1.42,10.08 -4.24,13.35 -2.83,3.25 -6.67,4.88 -11.54,4.88 -4.99,0 -8.87,-1.65 -11.65,-4.93 -2.78,-3.29 -4.18,-7.72 -4.18,-13.29zm6.55 0c0,8.77 3.09,13.15 9.28,13.15 2.87,0 5.14,-1.17 6.78,-3.52 1.64,-2.35 2.46,-5.56 2.46,-9.63 0,-8.65 -3.07,-12.99 -9.24,-12.99 -2.83,0 -5.08,1.15 -6.76,3.45 -1.68,2.31 -2.52,5.48 -2.52,9.54zm53.11 17.56l0 -20.35c0,-3.72 -0.56,-6.33 -1.68,-7.82 -1.11,-1.49 -3,-2.24 -5.63,-2.24 -1.41,0 -2.9,0.43 -4.44,1.27 -1.54,0.86 -2.73,1.89 -3.56,3.14l0 26 -6.21 0 0 -34.95 4.24 0 1.96 4.5c2.05,-3.44 5.39,-5.17 10.04,-5.17 7.66,0 11.5,4.66 11.5,13.98l0 21.64 -6.22 0zm12.72 -2.07l2.19 -5.88c3.45,2.27 6.22,3.41 8.33,3.41 3.82,0 5.72,-1.61 5.72,-4.83 0,-2.32 -1.85,-4.3 -5.55,-5.96 -2.84,-1.3 -4.76,-2.3 -5.75,-2.97 -0.99,-0.67 -1.85,-1.44 -2.57,-2.3 -0.74,-0.87 -1.28,-1.78 -1.64,-2.75 -0.36,-0.97 -0.54,-2 -0.54,-3.12 0,-2.87 1.05,-5.11 3.14,-6.73 2.09,-1.61 4.82,-2.42 8.2,-2.42 2.55,0 5.77,0.8 9.65,2.42l-1.76 5.74c-2.46,-1.96 -4.93,-2.94 -7.42,-2.94 -1.48,0 -2.73,0.35 -3.74,1.05 -1.01,0.7 -1.51,1.58 -1.51,2.65 0,2.24 1.27,3.94 3.81,5.1l4.44 2.03c2.71,1.24 4.69,2.65 5.93,4.24 1.24,1.59 1.86,3.59 1.86,5.98 0,3.13 -1.1,5.59 -3.3,7.36 -2.19,1.77 -5.24,2.66 -9.12,2.66 -3.68,0 -7.13,-0.91 -10.37,-2.74zm36.48 -7.08c1.35,0 2.5,0.48 3.45,1.43 0.94,0.96 1.43,2.11 1.43,3.46 0,1.36 -0.48,2.52 -1.43,3.48 -0.96,0.97 -2.11,1.45 -3.45,1.45 -1.35,0 -2.5,-0.48 -3.45,-1.45 -0.95,-0.97 -1.43,-2.13 -1.43,-3.48 0,-1.35 0.48,-2.5 1.43,-3.46 0.96,-0.96 2.1,-1.43 3.45,-1.43zm24.54 0c1.35,0 2.5,0.48 3.45,1.43 0.94,0.96 1.43,2.11 1.43,3.46 0,1.36 -0.48,2.52 -1.43,3.48 -0.96,0.97 -2.11,1.45 -3.45,1.45 -1.35,0 -2.5,-0.48 -3.45,-1.45 -0.95,-0.97 -1.43,-2.13 -1.43,-3.48 0,-1.35 0.48,-2.5 1.43,-3.46 0.96,-0.96 2.11,-1.43 3.45,-1.43zm24.54 0c1.35,0 2.5,0.48 3.45,1.43 0.95,0.96 1.43,2.11 1.43,3.46 0,1.36 -0.48,2.52 -1.43,3.48 -0.96,0.97 -2.11,1.45 -3.45,1.45 -1.35,0 -2.5,-0.48 -3.45,-1.45 -0.95,-0.97 -1.43,-2.13 -1.43,-3.48 0,-1.35 0.48,-2.5 1.43,-3.46 0.96,-0.96 2.11,-1.43 3.45,-1.43z"/>
    <ellipse class="fil10" cx="4901.24" cy="4981.07" rx="3.8" ry="3.86"/>
    <polygon class="fil10" points="4893.22,4989.54 4904.29,4989.54 4904.29,4993.28 4904.31,4993.28 4904.31,5081.14 4898.09,5081.14 4898.09,4994.69 4893.22,4994.69 "/>
   </g>
  </g>
  <path class="fil6" d="M2738.02 6799.12c0,0 -314.91,907.35 -219.25,933.32 95.65,25.99 778.93,-548.5 778.93,-548.5l-559.68 -384.82z"/>
  <path class="fil6" d="M5882.57 6799.12c0,0 314.9,907.35 219.25,933.32 -95.65,25.99 -778.93,-548.5 -778.93,-548.5l559.68 -384.82z"/>
  <path class="fil6" d="M4316.02 7501.24c-983.52,0 -1780.81,-797.31 -1780.81,-1780.8 0,-983.51 797.29,-1780.8 1780.81,-1780.8 983.51,0 1780.8,797.29 1780.8,1780.8 0,983.5 -797.29,1780.8 -1780.8,1780.8zm0 -3775.57c-1101.67,0 -1994.76,893.09 -1994.76,1994.76 0,1101.67 893.09,1994.76 1994.76,1994.76 1101.67,0 1994.76,-893.09 1994.76,-1994.76 0,-1101.68 -893.09,-1994.76 -1994.76,-1994.76z"/>
  <path class="fil12" d="M4354.25 5616.39c-5.33,-2.67 -10.86,-5.01 -16.54,-7.04l-4.96 -88.03c5.53,3.75 11.11,7.4 16.77,10.98l4.73 84.08z"/>
  <path class="fil13" d="M4349.52 5532.3c-5.65,-3.58 -11.24,-7.24 -16.77,-10.98l-35.08 -622.81 8.07 -143.26 43.78 777.06z"/>
  <polygon class="fil5" points="4229.14,5780.28 4347.33,5780.28 4288.24,4731.19 "/>
  <path class="fil12" d="M4434.95 5731.04c-1.44,-12.26 -4.4,-24.06 -8.67,-35.21l73.37 -92.58c9.74,3.18 19.57,6.15 29.5,8.92l-94.21 118.87z"/>
  <path class="fil13" d="M4529.16 5612.17c-9.93,-2.76 -19.76,-5.74 -29.5,-8.92l472.24 -595.94 231.18 -245.6 -673.92 850.46z"/>
  <polygon class="fil5" points="4232.72,5749.96 4322.17,5827.23 5185.58,4737.67 "/>
  <path class="fil12" d="M4435.16 5764.46c-0.98,-9.22 -2.82,-18.21 -5.42,-26.83l5.21 -6.58c0.7,5.76 1.04,11.63 1.04,17.58 0,5.35 -0.28,10.63 -0.83,15.83zm-293.84 0c-0.56,-5.21 -0.85,-10.49 -0.85,-15.83 0,-64.25 41.01,-118.93 98.29,-139.28l-1.82 32.32c-51.58,19.1 -89.6,66.17 -95.63,122.79zm213.17 -143.86l-0.24 -4.21c0.94,0.49 1.89,0.96 2.83,1.46l-2.6 2.75z"/>
  <path class="fil14" d="M4339.25 5636.78l-1.54 -27.43c5.68,2.03 11.21,4.37 16.54,7.04l0.24 4.21 -15.24 16.18z"/>
  <path class="fil15" d="M4236.94 5641.67l1.82 -32.32c15.47,-5.49 32.13,-8.49 49.47,-8.49 17.36,0 34,3 49.47,8.49l1.54 27.43 -3.37 3.6c-14.94,-5.1 -30.97,-7.85 -47.64,-7.85 -18.03,0 -35.32,3.22 -51.29,9.14z"/>
  <path class="fil14" d="M4429.74 5737.62c-3.18,-10.54 -7.48,-20.58 -12.8,-29.98l9.35 -11.81c4.26,11.15 7.22,22.94 8.67,35.21l-5.21 6.58z"/>
  <path class="fil15" d="M4416.94 5707.64c-17.72,-31.31 -46.51,-55.5 -81.07,-67.26l3.37 -3.6 15.24 -16.18 2.6 -2.75c31.54,16.64 56.34,44.36 69.2,77.98l-9.35 11.81z"/>
  <path class="fil12" d="M4288.24 5952.49c-81.61,0 -147.76,-66.15 -147.76,-147.76 0,-4.11 0.17,-8.19 0.5,-12.22 6.22,75.89 69.78,135.52 147.26,135.52 77.48,0 141.04,-59.63 147.26,-135.52 0.33,4.03 0.5,8.11 0.5,12.22 0,81.61 -66.16,147.76 -147.76,147.76z"/>
  <path class="fil5" d="M4436 5780.28c0,81.61 -66.16,147.76 -147.76,147.76 -81.61,0 -147.76,-66.15 -147.76,-147.76 0,-81.6 66.15,-147.75 147.76,-147.75 81.6,0 147.76,66.15 147.76,147.75z"/>
  <path class="fil15" d="M4290.57 5874.98c-28.35,0 -58.67,-18.24 -68.22,-49.78 -10.47,-34.53 8.1,-71.24 40,-85 9.03,-3.9 18.57,-5.72 27.99,-5.72 21.56,0 42.39,9.57 54.51,25.72 27.13,36.15 6.63,99.93 -37.5,112.5 -5.39,1.53 -11.04,2.28 -16.78,2.28z"/>
  <path class="fil5" d="M4316.02 4032.28c8.62,14.18 13.09,28.37 16.32,42.56 3.07,14.18 4.48,28.37 4.5,42.56 0.04,14.18 -1.39,28.38 -4.44,42.56 -3.21,14.18 -7.71,28.38 -16.37,42.56 -8.67,-14.18 -13.17,-28.37 -16.38,-42.56 -3.06,-14.18 -4.47,-28.37 -4.44,-42.56 0.02,-14.18 1.44,-28.37 4.5,-42.56 3.22,-14.18 7.7,-28.37 16.32,-42.56z"/>
  <path class="fil5" d="M3471.94 4258.46c14.54,7.97 25.51,18.01 35.4,28.68 9.75,10.76 18.07,22.33 25.18,34.61 7.13,12.26 12.97,25.26 17.43,39.07 4.31,13.89 7.52,28.43 7.09,45.04 -14.6,-7.94 -25.59,-17.98 -35.46,-28.65 -9.74,-10.76 -18.07,-22.33 -25.13,-34.64 -7.08,-12.29 -12.93,-25.29 -17.39,-39.1 -4.29,-13.9 -7.52,-28.43 -7.13,-45.01z"/>
  <path class="fil5" d="M2854.03 4876.36c16.6,-0.37 31.13,2.85 45.02,7.14 13.82,4.44 26.8,10.31 39.09,17.38 12.31,7.07 23.88,15.39 34.64,25.14 10.68,9.86 20.7,20.85 28.67,35.46 -16.63,0.42 -31.15,-2.78 -45.06,-7.08 -13.81,-4.46 -26.81,-10.32 -39.07,-17.43 -12.28,-7.13 -23.85,-15.44 -34.6,-25.18 -10.68,-9.89 -20.72,-20.86 -28.69,-35.42z"/>
  <path class="fil5" d="M2627.86 5720.44c14.18,-8.62 28.36,-13.11 42.56,-16.33 14.18,-3.06 28.36,-4.47 42.56,-4.5 14.18,-0.03 28.36,1.39 42.56,4.44 14.18,3.22 28.36,7.71 42.56,16.39 -14.19,8.68 -28.37,13.17 -42.56,16.38 -14.19,3.06 -28.37,4.48 -42.56,4.46 -14.19,-0.03 -28.37,-1.46 -42.56,-4.5 -14.2,-3.24 -28.37,-7.71 -42.56,-16.33z"/>
  <path class="fil5" d="M2854.03 6564.51c7.97,-14.56 18.02,-25.53 28.69,-35.42 10.75,-9.74 22.32,-18.04 34.6,-25.17 12.26,-7.13 25.26,-12.99 39.07,-17.43 13.9,-4.3 28.43,-7.51 45.06,-7.09 -7.96,14.61 -17.99,25.59 -28.67,35.47 -10.76,9.74 -22.33,18.07 -34.64,25.14 -12.29,7.06 -25.28,12.92 -39.09,17.37 -13.89,4.29 -28.42,7.52 -45.02,7.13z"/>
  <path class="fil5" d="M3471.94 7182.42c-0.39,-16.59 2.83,-31.12 7.13,-45.01 4.46,-13.83 10.3,-26.81 17.39,-39.1 7.06,-12.3 15.39,-23.89 25.13,-34.63 9.87,-10.68 20.86,-20.72 35.46,-28.67 0.43,16.63 -2.78,31.15 -7.09,45.04 -4.46,13.82 -10.3,26.81 -17.43,39.08 -7.11,12.28 -15.43,23.85 -25.18,34.59 -9.89,10.68 -20.86,20.72 -35.4,28.69z"/>
  <path class="fil5" d="M4316.02 7408.6c-8.63,-14.19 -13.1,-28.37 -16.32,-42.57 -3.06,-14.18 -4.48,-28.36 -4.51,-42.54 -0.02,-14.19 1.4,-28.37 4.46,-42.57 3.21,-14.18 7.7,-28.37 16.38,-42.54 8.68,14.17 13.17,28.36 16.37,42.54 3.06,14.19 4.48,28.37 4.46,42.57 -0.03,14.18 -1.44,28.36 -4.51,42.54 -3.22,14.19 -7.7,28.38 -16.32,42.57z"/>
  <path class="fil5" d="M5160.09 7182.42c-14.56,-7.97 -25.53,-18.01 -35.42,-28.69 -9.74,-10.75 -18.07,-22.31 -25.17,-34.59 -7.13,-12.27 -12.99,-25.26 -17.43,-39.08 -4.32,-13.89 -7.51,-28.42 -7.1,-45.04 14.61,7.94 25.6,17.99 35.47,28.67 9.74,10.75 18.06,22.33 25.11,34.63 7.08,12.3 12.94,25.28 17.39,39.1 4.29,13.89 7.52,28.41 7.14,45.01z"/>
  <path class="fil5" d="M5778 6564.51c-16.58,0.39 -31.11,-2.83 -45.02,-7.13 -13.8,-4.46 -26.8,-10.32 -39.09,-17.37 -12.31,-7.07 -23.87,-15.4 -34.64,-25.14 -10.67,-9.88 -20.7,-20.86 -28.65,-35.47 16.61,-0.42 31.14,2.79 45.04,7.09 13.81,4.44 26.81,10.31 39.08,17.43 12.26,7.13 23.83,15.43 34.6,25.17 10.67,9.89 20.71,20.86 28.68,35.42z"/>
  <path class="fil5" d="M6004.16 5720.44c-14.17,8.63 -28.36,13.1 -42.54,16.33 -14.2,3.04 -28.38,4.47 -42.57,4.5 -14.17,0.03 -28.36,-1.4 -42.54,-4.46 -14.2,-3.21 -28.38,-7.7 -42.56,-16.38 14.18,-8.68 28.36,-13.17 42.56,-16.39 14.18,-3.06 28.37,-4.47 42.54,-4.44 14.19,0.03 28.37,1.44 42.57,4.5 14.18,3.22 28.37,7.71 42.54,16.33z"/>
  <path class="fil5" d="M5778 4876.36c-7.97,14.56 -18.02,25.53 -28.68,35.42 -10.76,9.74 -22.33,18.06 -34.6,25.18 -12.28,7.11 -25.28,12.97 -39.08,17.43 -13.9,4.31 -28.43,7.5 -45.04,7.08 7.94,-14.61 17.98,-25.58 28.65,-35.46 10.77,-9.75 22.33,-18.07 34.64,-25.14 12.29,-7.07 25.29,-12.93 39.09,-17.38 13.91,-4.29 28.43,-7.51 45.02,-7.14z"/>
  <path class="fil5" d="M5160.09 4258.46c0.37,16.58 -2.85,31.11 -7.14,45.01 -4.44,13.81 -10.3,26.81 -17.39,39.1 -7.06,12.31 -15.38,23.87 -25.11,34.64 -9.87,10.67 -20.86,20.71 -35.47,28.65 -0.41,-16.61 2.78,-31.15 7.1,-45.04 4.44,-13.81 10.31,-26.81 17.43,-39.07 7.09,-12.28 15.43,-23.85 25.17,-34.61 9.89,-10.67 20.86,-20.71 35.42,-28.68z"/>
  <path class="fil12" d="M6096.15 5764.85c-25.46,-961.31 -812.68,-1732.78 -1780.13,-1732.78 -629.33,0 -1182.42,326.47 -1499.15,819.28 -14.76,-5.17 -28.74,-7.28 -42.7,-7.28 -2.97,0 -5.93,0.1 -8.9,0.28 305.82,-540.18 885.69,-904.71 1550.75,-904.71 303.74,0 589.69,76.03 839.91,210.13 0.04,0.06 0.09,0.11 0.13,0.17 36.39,19.5 72,40.25 106.81,62.15 0.06,-0.02 0.09,-0.03 0.15,-0.06 500.93,315.14 833.8,872.89 833.8,1508.41l0 0c0,14.85 -0.26,29.65 -0.67,44.41zm-3560.28 0c-0.4,-14.75 -0.67,-29.56 -0.67,-44.41l0 0c0,-214.97 38.1,-421.06 107.89,-611.85 12.61,-3.3 25.78,-5.06 39.33,-5.79 -88.64,203.68 -140.33,427.24 -146.56,662.04z"/>
  <path class="fil6" d="M4222.35 5801.44c11.5,37.93 53,56.61 84.99,47.5 44.14,-12.57 64.64,-76.35 37.51,-112.5 -17.4,-23.21 -52.79,-32.82 -82.5,-20 -31.9,13.76 -50.47,50.47 -40,85z"/>
  <path class="fil5" d="M4709.15 3817.89c132.06,22.07 260.29,64.35 383.42,117.11 123.26,52.92 240.18,120.22 349.72,197.72 54.32,39.44 106.21,82.11 156.13,126.96 49.25,45.56 96.63,93.22 140.25,144.2 87.35,101.82 162,214.29 222.1,333.79 -33.4,-57.93 -67.14,-115.67 -106.42,-169.71 -37.63,-55.13 -79.93,-106.86 -123.72,-157.04 -44.61,-49.54 -91.33,-97.11 -140.7,-141.87 -49.85,-44.21 -101.62,-86.21 -155.75,-125.07 -108.1,-77.87 -224.26,-144.54 -345.92,-199.24 -60.72,-27.57 -122.85,-52.12 -186.14,-73.33 -63.15,-21.57 -127.44,-40.14 -192.97,-53.52z"/>
  <path class="fil5" d="M4285.68 7583.66c-133.86,2.21 -267.65,-16.12 -398.29,-45.71 -130.81,-29.69 -257.99,-74.7 -379.76,-131.06 -60.56,-28.94 -119.32,-61.53 -176.54,-96.56 -56.71,-35.88 -111.92,-74.17 -164.07,-116.39 -104.35,-84.32 -198.15,-181.41 -278.92,-288.03 43.36,50.93 87,101.6 135.42,147.61 46.98,47.4 97.97,90.63 150.14,132.04 52.85,40.63 107.42,78.94 164.07,114.01 57.03,34.45 115.57,66.37 175.85,94.78 120.41,57 246.74,101.51 376.28,133.26 64.72,16.09 130.28,28.98 196.36,38.37 66.01,9.76 132.6,16.37 199.47,17.66z"/>
  <path class="fil16" d="M4911.4 5083.67c5.17,5.03 6.94,4.29 10.29,9.28 10.74,15.94 45.89,28.56 65.89,36.09 34.54,27.62 89.68,83.01 101.96,28.82 10.87,-47.99 19.85,-71.96 11.26,-100.13 -0.52,-2.85 -20.97,-15.81 -22.7,-18.99 -16.61,-30.65 -32.75,-62.43 -52.07,-89.56 -28.44,-39.91 -65.8,-17.47 -59.75,-5.59 1.89,3.69 68.43,32.48 55.74,24.5 -15.19,-22.94 -14.17,-19.03 -30.94,-31.47 -34.06,-25.28 -71.35,1.98 -42.47,20.4 4.46,2.85 22.1,2.48 30.18,4.82 1.53,0.43 2.65,1.03 3.19,1.85 0.64,0.97 -13.94,-9.15 -21.9,-14.12 -35.85,-22.39 -59.97,12.28 -49.79,25.89 3.74,5.02 30.56,-2.94 34.9,1.36 3.85,3.79 -28.39,-19.79 -38.64,-12.32 -26.14,19.04 -17.98,68.36 -10.56,80.58l26.57 -24.96c-1.24,-1.94 10.39,16.76 14.71,26.29 4.58,13.22 3.97,11.69 -1.82,6.9l-24.06 30.36z"/>
  <path class="fil17" d="M4911.4 4963.03c5.86,-1.49 12.07,-0.96 18,0.64 5.96,1.6 11.54,4.83 16.17,9.11 4.65,4.42 7.72,9.87 10.36,14.9 2.72,5.15 5.38,10.38 7.38,16.02 -4.41,-4.06 -8.17,-8.53 -11.85,-13.08 -3.83,-4.6 -6.72,-9.31 -10.67,-12.79 -7.74,-7.42 -17.86,-12.04 -29.39,-14.79z"/>
  <path class="fil17" d="M4939.63 4942.32c5.89,0.51 11.63,1.78 17.35,3.17 5.91,1.68 11.06,2.33 17.24,5.82 5.28,4.13 8.68,8.87 11.82,13.93 3.07,5.04 5.79,10.25 7.64,15.93 -4.28,-4.13 -8.07,-8.5 -11.92,-12.72 -3.87,-4.06 -7.63,-8.62 -11.58,-11.5 -1.39,-1.3 -4.76,-2.04 -7.22,-3.12 -2.62,-1.13 -5.3,-2.07 -7.87,-3.38 -5.21,-2.37 -10.39,-4.87 -15.44,-8.12z"/>
  <path class="fil17" d="M4972.7 4927.69c5.1,1.03 9.76,2.82 14.43,4.57 4.6,1.82 9.11,3.97 13.39,5.97l1.44 0.63 0.72 0.28 1.81 0.89c1.52,1.15 2.36,2.32 3.15,3.41 1.63,2.2 2.85,4.44 3.93,6.78 2.25,4.56 4.08,9.26 5.25,14.26 -3.46,-3.79 -6.49,-7.75 -9.49,-11.61l-4.58 -5.44 -2.06 -1.89 0.15 0.06 -1.04 -0.33 -2.01 -0.74c-4.79,-2.06 -9.09,-4.53 -13.29,-7.3 -4.13,-2.87 -8.2,-5.79 -11.81,-9.54z"/>
  <path class="fil7" d="M5997.33 8250.29c-297.18,0 -538.1,-15.71 -538.1,-35.09 0,-19.37 240.92,-35.08 538.1,-35.08 297.19,0 538.09,15.7 538.09,35.08 0,19.37 -240.9,35.09 -538.09,35.09z"/>
  <path class="fil16" d="M6298.15 6649.74c-2.75,24.72 -10.72,60.43 -16.5,88.85 -7.47,36.86 -26.25,35.79 -24.87,20.72 0.5,-5.57 11.43,-92.14 12.72,-97.44 1.14,-4.65 -4.4,-4.06 -6.42,14.56 -0.06,0.07 -5.22,22.13 -8.96,41.78 -9.11,47.85 -26.28,37.25 -26.35,24.52 -0.03,-4.69 6.28,-81.11 6.37,-85.74 0.04,-2.06 -1.97,-34.94 -3.14,-44.18 -3.44,-15.54 -6.22,-17.63 -8.39,-9.51 -4.63,38.08 -12.85,62.28 -23.89,55.2 -9.06,-5.8 -2.39,-45.94 -1.25,-73.72 0.7,-17.1 13.88,-54.04 25.53,-69.08 13.3,-37.07 36.86,-93.82 71.46,-58.44 30.64,31.29 51.18,75.5 57.85,100.85 0.92,2.39 1.93,9.61 2.11,12.82 1.72,31 0.35,49.58 -1.67,79.18 -2.94,43.54 -17.97,54.57 -18.93,42.74 -0.31,-3.67 3.89,-72.17 -2.02,-60.19 -0.79,24.5 -9.57,53.87 -12.87,82.28 -4.35,37.52 -22.31,34.52 -22.22,19.36 0.04,-5.57 6.64,-74.11 6.8,-79.61 0.03,-1.03 0.33,-7.94 -2.72,-8.35 -1.42,-0.2 -2.4,1.69 -2.64,3.43z"/>
  <polygon class="fil18" points="5082.7,5057.57 5441.59,5357.46 5397.78,5333.65 5737.15,5414.86 5699.58,5684.39 5353.08,5520.47 5325.09,5513.78 5309.26,5496.68 4991.55,5153.46 "/>
  <path class="fil19" d="M6108.48 6331.62c0,0 119.82,495.61 148.1,916.56 0,0 -108.75,91.18 -210.79,105.71 0,0 -176.56,-392.43 -312.17,-768.61l374.86 -253.65z"/>
  <path class="fil19" d="M5997.33 6438.34c0,0 -111.64,491.44 -292.35,909.47 0,0 -124.01,20 -221.91,-12.6 0,0 36.96,-605.5 100.26,-1029.43l414 132.56z"/>
  <path class="fil16" d="M5773.69 5377.89c27.74,-18.17 16.78,-81.67 14.33,-115.75l164.54 -126.26c0.64,4.29 0.74,136.19 1.41,140.59 9.43,60.82 115.1,127.47 125.82,133.47 64.35,36.04 -29.02,363.41 -355.36,183.75 -1.42,-0.72 -2.76,-1.53 -4.11,-2.37 -65.41,-36.99 -2.61,-176.76 53.36,-213.43z"/>
  <path class="fil18" d="M5553.07 5702.73c1.46,-27.98 12.24,-198.79 113.47,-269.36 37.48,-26.13 107.14,-55.5 107.15,-55.49 6.6,19.79 12.42,55.49 72.21,56.44 126.41,2.03 159.76,-80.83 159.76,-80.83 82.74,65.04 108.35,56.5 132.96,77.96 78.21,68.17 132.74,100.22 31.89,359.17l-63.71 302.61 31.86 270.75c-284.11,134.89 -465.43,129.29 -564.92,3.03 0,0 -36.62,-361.67 -20.68,-664.28z"/>
  <polygon class="fil2" points="5919.18,5447.82 5823.91,5552.06 5764.22,5449.43 "/>
  <path class="fil19" d="M5870.81 5453.79c0,0 -34.17,54.96 -84.51,-6.8l46.76 -13.51 37.75 20.31z"/>
  <path class="fil18" d="M6339.57 6522.12c0.41,-2.09 0.93,-4.71 1.51,-7.58 -0.65,3.25 -1.15,5.72 -1.51,7.58z"/>
  <line class="fil20" x1="6338.66" y1="6526.58" x2="6338.66" y2= "6526.58" />
  <polygon class="fil18" points="6338.66,6526.58 6339.05,6524.67 "/>
  <path class="fil18" d="M6341.08 6514.54c0.28,-1.42 0.58,-2.94 0.93,-4.65 -0.32,1.57 -0.63,3.14 -0.93,4.65z"/>
  <polygon class="fil18" points="6339.05,6524.67 6339.57,6522.12 "/>
  <polygon class="fil18" points="6342.01,6509.88 6342.61,6506.88 "/>
  <path class="fil18" d="M6411.23 5994.62c-35.5,-89.32 -90.21,-289.61 -160.21,-442.81 -64.64,-141.47 -251.19,-234.56 -184.15,73.36 20.94,96.14 96.6,295.93 162.39,417.77l-11.54 451c31.28,2.56 127.99,-2.54 127.99,-2.54 15.93,-79.64 65.53,-496.78 65.53,-496.78z"/>
  <polygon class="fil18" points="6345.33,6493.3 6344.72,6496.31 "/>
  <path class="fil18" d="M6342.61 6506.88c0.52,-2.57 1.07,-5.32 1.7,-8.48 -0.5,2.5 -1.09,5.44 -1.7,8.48z"/>
  <polygon class="fil18" points="6345.7,6491.4 6345.33,6493.3 "/>
  <path class="fil21" d="M6211.87 6494.38c0,0 98.96,-7.3 138.86,-15.96 0,0 8.68,40.3 -6.93,54.79 -15.6,14.47 -112.04,20.44 -123.92,7.71 -10.75,-11.53 -8.02,-46.54 -8.02,-46.54z"/>
  <path class="fil18" d="M6227.87 6521.65c3.14,1.33 6.78,-0.14 8.11,-3.29 1.33,-3.15 -0.15,-6.78 -3.3,-8.11 -3.14,-1.33 -6.78,0.15 -8.1,3.29 -1.33,3.15 0.14,6.79 3.29,8.11z"/>
  <path class="fil21" d="M5123.69 5071.28c0,0 -80.19,86.17 -107.91,125.87 0,0 -40.04,-28.07 -38.15,-53.25 1.89,-25.18 80.97,-108.15 101.58,-106.64 18.64,1.36 44.48,34.01 44.48,34.01z"/>
  <path class="fil18" d="M5008.44 5144.06c-3.81,1.37 -5.78,5.58 -4.39,9.4 1.37,3.81 5.58,5.78 9.39,4.39 3.82,-1.39 5.78,-5.58 4.4,-9.41 -1.39,-3.8 -5.6,-5.78 -9.4,-4.39z"/>
  <path class="fil22" d="M5873.18 6938.09c-7.26,-10.69 -13.81,-21.73 -20.56,-32.68 -6.57,-11.03 -12.85,-22.21 -19.11,-33.4 -12.21,-22.53 -24.17,-45.19 -35.28,-68.28l2.89 2.94c-34.21,-18.59 -67.91,-38.17 -100.14,-60.51 36.64,14.01 71.81,30.79 106.46,48.54l1.86 0.94 1.04 2c11.86,22.72 22.86,45.86 33.6,69.13 5.22,11.72 10.43,23.43 15.33,35.31 4.75,11.94 9.67,23.81 13.9,36.01z"/>
  <path class="fil19" d="M6425.9 7870.98l-382.75 -522.29 149.79 -193.29c0,0 133.69,110.47 181.8,221.03 96.43,221.58 153.72,341.79 187.39,406.97 -39.14,34.43 -88.14,70.64 -136.24,87.58z"/>
  <path class="fil16" d="M6492.08 7961.3l-66.18 -90.32c48.1,-16.94 97.1,-53.15 136.24,-87.58 38.2,73.94 45.97,77.08 45.97,77.08 0,0 -24.89,70.26 -116.03,100.82z"/>
  <path class="fil19" d="M5417.54 8003.94l71.14 -700.91 222.18 -27.95c0,0 11.44,288.63 -26.33,403.11 -54.89,166.32 -86.46,274.17 -104.51,344.06 -49.44,-0.79 -111.72,-4.94 -162.47,-18.31z"/>
  <path class="fil16" d="M5558.5 8121.08c0,0 -68.14,53.4 -153.86,9.93l12.91 -127.07c50.75,13.36 113.03,17.52 162.47,18.31 -22.2,94.67 -21.52,98.83 -21.52,98.83z"/>
  <path class="fil16" d="M5783.66 4909.2c0,0 -62.97,37.7 -61.14,107.29 0.46,17.64 -21.25,106.8 -21.25,106.8 -10.92,110.4 56.87,183.91 83.03,184.86 63.08,2.29 114.5,-29.14 145.72,-58.9 57.32,-54.68 91.75,-240.67 46.87,-301.79 -60.3,-82.14 -162.64,-75.06 -193.24,-38.25z"/>
  <path class="fil19" d="M5700.69 5163.43c0,0 17,10.13 52.61,-1.14 22.62,-7.17 56.33,-30.96 63.57,-15.91 32.86,68.41 31.58,151.7 -27.26,161.86 -58.86,10.17 -97.15,-120.03 -88.92,-144.82z"/>
  <path class="fil19" d="M5947.54 5123.75c-1.91,-14.11 -9.83,-93.46 -4.99,-109.58 -2.5,-1.68 -7.11,-2.56 -12.74,-2.92 -27.74,-1.75 -49.51,-24.63 -50.6,-52.4 0,0 -53.64,1.21 -107.97,-9.49 -70.15,-13.79 -51.76,-93.51 -50.36,-93.86 18.59,-4.72 168.86,-28.37 254.48,27.44 84.06,54.79 43.52,188.88 36,211.31 -0.67,2 -2.47,3.26 -4.57,3.35l-54.07 30.52c-2.6,0.11 -4.83,-1.79 -5.19,-4.36z"/>
  <path class="fil19" d="M6008.51 4917.36c0,0 66.5,37.13 14.07,165.76 0,0 -43.24,-42.46 -14.07,-165.76z"/>
  <path class="fil16" d="M5732.89 5028.22c0,0 -26.39,53.14 -64.18,87.78 -12.69,11.63 25.61,49.67 42.36,51.36 37.18,3.72 21.82,-139.14 21.82,-139.14z"/>
  <path class="fil16" d="M6016.36 5142.68c-17.21,30.1 -48.42,43.22 -69.71,29.32 -21.29,-13.89 -24.61,-49.57 -7.41,-79.65 17.21,-30.1 48.43,-43.24 69.72,-29.32 21.29,13.89 24.61,49.56 7.39,79.65z"/>
  <path class="fil17" d="M5932.44 5216.28c-3.24,13.6 -9.93,26.29 -18.35,37.58 -8.43,11.31 -18.86,21.32 -30.88,28.93 -12.09,7.33 -25.01,13.72 -38.87,16.56 -6.76,2.08 -13.86,2.4 -20.75,3.59 -6.99,0.43 -13.97,0.42 -20.89,0.32 13.72,-2.38 27.26,-4.56 40.15,-9.04 13.06,-3.92 25.17,-10.18 36.58,-17.25 11.5,-7.08 21.44,-16.39 30.5,-26.44 8.96,-10.21 16.6,-21.68 22.5,-34.25z"/>
  <path class="fil16" d="M5789.61 5173.56c-4.09,10.47 -12.65,18.98 -22.92,24.12 -10.28,5.15 -23.01,5.86 -33.21,1.31 5.59,-0.71 10.82,-0.9 15.83,-2.33 4.97,-1.3 9.82,-2.85 14.35,-5.22 9.24,-4.39 17.49,-10.67 25.94,-17.87z"/>
  <path class="fil19" d="M5754.86 5072.85c-0.33,5.94 2.58,10.93 6.54,11.17 3.94,0.24 7.44,-4.39 7.79,-10.32 0.35,-5.93 -2.57,-10.93 -6.53,-11.17 -3.94,-0.24 -7.44,4.39 -7.8,10.32z"/>
  <path class="fil17" d="M5997.86 5080.43c-7.96,-0.43 -15.93,1.11 -21.91,5.24 -2.97,2.07 -5.33,4.79 -7.07,7.9 -1.91,3.02 -2.86,6.6 -3.86,10.11l-2.04 -3.93c3.71,1.53 7.03,3.24 10.3,5.76 2.86,2.42 7.07,6.32 5.98,12.37 -0.5,2.79 -2.25,4.7 -3.72,6.21l-4.1 3.7c-1.39,1.24 -2.86,2.36 -4.4,3.47 -1.89,1.12 -2.35,2.09 -6.02,3.18l2.13 -2.12c-0.7,7.09 0.09,15.36 5.63,21.25 -3.54,-1.96 -6.18,-5.47 -7.86,-9.29 -1.74,-3.87 -2.35,-7.97 -2.43,-12.37l2.15 -2.13 2.99 -2.71 3.74 -3.68c2.44,-2.54 5.48,-5.24 5.35,-6.76 0.48,-1.43 -1.24,-3.8 -3.72,-5.69 -2.44,-1.9 -5.51,-3.67 -8.46,-4.92l-0.21 -0.08c-1.5,-0.65 -2.26,-2.31 -1.83,-3.83 1.17,-4.13 2.75,-8.21 5.31,-11.8 2.31,-3.75 5.97,-6.63 9.78,-8.64 7.78,-4.11 16.78,-3.89 24.29,-1.22z"/>
  <path class="fil19" d="M5794.76 5046.12c3.25,-4.13 1.54,-17.29 -15.85,-25.35 -9.72,-4.5 -18.52,-1.86 -19.76,-1.1 -2.63,1.61 -3.94,5.44 -2.76,8.5 2.07,5.41 10.18,3.44 20.47,10.49 7.39,5.06 4.46,6.29 11.8,8.61 0.71,0.22 4.18,1.28 6.1,-1.15z"/>
  <path class="fil2" d="M5965.45 5306.4c0,0 -58.46,99.48 -132.39,127.08 0,0 47.44,23.94 81.83,47.24 0,0 101.17,-96.07 107.68,-114.33 0,0 -7.3,-45.37 -57.13,-59.98z"/>
  <path class="fil2" d="M5788.45 5355.23l-10.36 36.31 54.97 41.94c0,0 -44.24,19.58 -64.49,31.94 0,0 -23.58,-26.26 -23.97,-70.26 0,0 9.13,-30.42 43.85,-39.93z"/>
  <path class="fil19" d="M5973.28 4905.72c0,0 -35.02,-55.32 -210.31,-86.61 0,0 -29.1,82.97 210.31,86.61z"/>
  <path class="fil19" d="M5996.63 4901.18c0,0 -33.03,-45.11 -138.18,-75.11 0,0 -7.83,58.04 138.18,75.11z"/>
  <path class="fil19" d="M5981.57 4912.97c0,0 -0.15,-24.29 33.96,-50.56 0,0 18.18,29.89 -33.96,50.56z"/>
  <path class="fil19" d="M5980.95 4909.47c0,0 17.36,-17.01 59.96,-10.75 0,0 -8.85,33.85 -59.96,10.75z"/>
  <path class="fil21" d="M5734.95 5072.9l-2.54 0c0,11.61 3.53,22.17 9.37,29.93 5.83,7.75 14.14,12.78 23.44,12.78 9.32,0 17.61,-5.03 23.44,-12.78 5.85,-7.76 9.39,-18.32 9.39,-29.93 0,-11.61 -3.54,-22.17 -9.39,-29.93 -5.83,-7.76 -14.13,-12.78 -23.44,-12.78 -9.31,0 -17.61,5.01 -23.44,12.78 -5.85,7.76 -9.37,18.32 -9.37,29.93l5.08 0c-0.02,-10.58 3.24,-20.11 8.35,-26.87 5.14,-6.8 11.97,-10.75 19.39,-10.75 7.42,0 14.25,3.96 19.39,10.75 5.11,6.76 8.36,16.29 8.36,26.87 0,10.57 -3.25,20.09 -8.36,26.87 -5.14,6.78 -11.97,10.75 -19.39,10.75 -7.42,0 -14.25,-3.97 -19.39,-10.75 -5.11,-6.78 -8.36,-16.31 -8.35,-26.87l-2.54 0z"/>
  <path class="fil21" d="M5738.24 5061.65c-0.08,-0.21 -1.12,-3.03 -3.9,-5.94 -2.75,-2.9 -7.43,-5.85 -14.15,-5.83 -1.33,0 -2.75,0.12 -4.24,0.36l0.82 5.02 3.41 -0.29c5.25,0.03 8.41,2.13 10.49,4.28l2.19 2.96 0.49 0.94 0.11 0.26 4.78 -1.75z"/>
  <path class="fil19" d="M5819.45 5153.98c0,0 29.46,34.18 27.47,64.97 0,0 -31.46,-32.78 -27.47,-64.97z"/>
  <path class="fil19" d="M5716.37 5169.69c0,0 39.41,-43.15 69.17,-25.82 0,0 -38.43,47.69 -69.17,25.82z"/>
  <path class="fil19" d="M5826.81 5175.43c0,0 27.06,41.37 13.4,70.28 0,0 -30.24,-40.62 -13.4,-70.28z"/>
  <polygon class="fil19" points="5828.93,5465.43 5870.81,5500.73 5823.91,5552.06 5788.83,5491.73 "/>
  <path class="fil19" d="M5372.19 8133.84l0.1 -0.07c27.08,-12.6 17.08,-53.89 50.11,-30.61 21.2,14.96 32.38,41.83 54.42,44.79 48.78,-1.18 81.68,-26.87 81.68,-26.87l0 -0.02 5.39 -0.33c0,0 23.68,41.71 16.89,123.5 -0.38,4.57 -4.17,8.24 -8.74,8.51l-85.54 4.89c-81.1,-27.56 -62.31,23.62 -291.42,-4.44 -4.07,-0.49 -7.5,-3.56 -8.11,-7.6 -3.6,-23.36 -0.79,-99.74 185.22,-111.75z"/>
  <path class="fil19" d="M6453.2 7972.04l0.04 -0.14c13.74,-26.52 -19.44,-53.07 20.93,-54.83 25.92,-1.14 51.21,13.29 70.44,2.15 37.89,-30.78 48.19,-71.22 48.19,-71.22l0 -0.01 4.06 -3.56c0,0 44.25,18.53 88.89,87.4 2.48,3.84 1.76,9.06 -1.69,12.06l-64.72 56.19c-81,27.8 -34.83,56.79 -233.26,174.7 -3.51,2.09 -8.11,1.78 -11.07,-1.04 -17.14,-16.29 -61.61,-78.44 78.19,-201.69z"/>
  <polygon class="fil21" points="5793.91,5075.8 5945.19,5085.67 5945.52,5080.58 5794.23,5070.73 "/>
  <path class="fil23" d="M6148.51 5867.97c-12.14,-24.79 -21.28,-50.54 -29.7,-76.53 -8.1,-26.07 -15.43,-52.39 -19.75,-79.65 12.17,24.78 21.3,50.51 29.68,76.51 8.09,26.07 15.42,52.4 19.77,79.67z"/>
  <path class="fil23" d="M5591 5531.61c-3.93,15.43 -8.1,29.86 -12.36,44.54 -4.43,14.61 -8.57,29.24 -14.96,43.94 -1.75,-15.96 0.68,-31.72 4.97,-46.9 4.68,-14.97 11.13,-29.93 22.35,-41.58z"/>
  <path class="fil23" d="M5960.76 5647.19c-10.57,37.63 -23.35,74.57 -37,111.18 -13.69,36.59 -29.13,72.56 -45.43,108.12 -17.17,35.18 -35.13,70.11 -57.09,102.76 -11.03,16.25 -23.03,31.98 -36.89,46.07 -13.82,13.5 -30.79,27.06 -50.88,27.61 19.63,-2.97 34.71,-16.74 47.17,-31.12 12.76,-14.42 23.8,-30.38 33.87,-46.92 20.22,-33.03 38.08,-67.55 54.39,-102.84 16.98,-34.97 32.19,-70.81 47.43,-106.64 15.17,-35.89 29.79,-72 44.42,-108.22z"/>
  <path class="fil23" d="M5630.59 5827.23c6.15,41.68 12.4,83.28 19.37,124.73 7.01,41.43 14.1,82.85 23.24,123.81 8.36,41.11 18.51,81.85 31.36,121.67 6.44,19.88 13.74,39.53 22.97,58.24 9.06,18.7 20.17,36.86 36.68,50.11 -18,-11.36 -30.53,-29.59 -41.19,-47.72 -10.33,-18.58 -18.58,-38.18 -26.03,-58.01 -14.61,-39.79 -24.76,-80.93 -33.96,-122.11 -8.35,-41.39 -15.61,-82.98 -20.96,-124.8 -5.35,-41.82 -9.6,-83.79 -11.48,-125.9z"/>
  <path class="fil23" d="M6067.48 6086.29c-9.09,2.35 -17.94,5.01 -26.94,6.93 -8.96,2.11 -17.96,3.83 -26.91,5.65l-26.74 5.11c-4.25,0.97 -8.96,1.98 -12.01,3.61l-0.89 0.2 1.61 1.79c1.76,1.19 3.86,2.25 5.96,3.37 -2.36,-0.03 -4.74,-0.15 -7.17,-0.89 -1.19,-0.37 -2.56,-0.8 -3.82,-2.33 -1.61,-2.12 -0.13,-4.8 0.83,-5.89 4.26,-4.08 8.65,-5.75 13.1,-7.63 8.89,-3.53 18.01,-5.71 27.15,-7.57 18.33,-3.18 36.99,-5.37 55.82,-2.36z"/>
  <path class="fil23" d="M6056.36 6099.62c-7.68,10.02 -16.56,17.75 -25,25.64 -4.22,3.83 -8.46,7.76 -11.7,11.69 -1.54,2.01 -2.83,3.93 -2.75,5.54 -0.32,2.02 2.25,4.04 4.78,5.88 -3.04,0.24 -6.87,-0.13 -9.5,-3.93 -2.29,-4.14 -0.9,-8.43 0.39,-11.48 2.83,-6.43 7.26,-11.03 11.74,-15.36 9.31,-8.22 19.78,-14.74 32.04,-17.97z"/>
  <path class="fil24" d="M2836.01 5109.97c-6.43,0 -13.09,-0.09 -19.93,-0.29 -38.18,-1.06 -78.76,-7.3 -117.15,-7.3 -5.54,0 -11.06,0.14 -16.5,0.43 38.2,-87.75 83.21,-171.74 134.43,-251.46 14.57,5.11 29.9,13.19 46.71,25.19 -2.28,-0.14 -4.59,-0.21 -6.93,-0.21 -0.86,0 -1.74,0 -2.61,0.03 7.97,14.56 18.02,25.53 28.69,35.42 10.75,9.74 22.32,18.06 34.6,25.18 7.68,4.46 15.65,8.42 23.93,11.85 92.09,105.49 51.06,161.17 -105.24,161.17z"/>
  <path class="fil25" d="M2344.35 5675.47c0,0 -8.54,-9.85 -21.69,-26.24 9.53,-271.7 73.37,-529.56 181.05,-763.08 17.68,-0.57 37.21,-1.35 59.01,-2.69 95.86,-5.96 150.13,-35.92 202.54,-39.11 -47.58,84.07 -88.56,172.4 -122.17,264.25 -50.92,13.36 -92.42,52.07 -110.44,151.14 -44.96,246.93 -188.31,415.74 -188.31,415.74z"/>
  <path class="fil26" d="M2941.25 4948.8c-8.28,-3.43 -16.25,-7.39 -23.93,-11.85 -12.28,-7.13 -23.85,-15.44 -34.6,-25.18 -10.68,-9.89 -20.72,-20.86 -28.69,-35.42 0.87,-0.03 1.75,-0.03 2.61,-0.03 2.35,0 4.65,0.07 6.93,0.21 14.44,10.31 29.98,23.49 47.08,40.15 11.46,11.17 21.67,21.87 30.59,32.11z"/>
  <path class="fil27" d="M2643.1 5108.59c33.61,-91.85 74.58,-180.18 122.17,-264.25 2.97,-0.18 5.93,-0.28 8.9,-0.28 13.96,0 27.93,2.11 42.7,7.28 -51.22,79.72 -96.24,163.71 -134.43,251.46 -13.56,0.74 -26.72,2.49 -39.33,5.79z"/>
  <path class="fil3" d="M2344.35 5596.61c0,0 -208.25,-239.78 -164.43,-342.08 43.82,-102.31 3.93,-226 91.31,-345.35 87.37,-119.35 117.76,-93.8 291.48,-104.59 173.72,-10.79 210.82,-100.39 347.93,33.24 134.42,131 94.11,198.24 -94.57,192.98 -112.94,-3.14 -246.72,-51.56 -283.43,150.06 -44.96,246.93 -188.31,415.75 -188.31,415.75z"/>
  <path class="fil3" d="M2075.1 5453.61c61.3,-34.76 9.28,-205.02 -90.27,-295.38 -68.75,-62.43 -139.16,-9.74 -239.12,-90.87 -70.59,-57.3 -66.74,-108.96 -122.64,-121.15 -66.05,-14.4 -91.59,53.32 -196.71,74.49 -101.19,20.4 -126.17,-32.54 -188.76,-6.82 -114.81,47.15 -196.21,293.18 -125.98,368.4 42.97,46.03 148.4,-92.82 262.69,-45.36 56.96,23.67 55.48,66.5 112.38,80.92 79.7,20.2 120.24,-54.29 203.98,-68.43 161.84,-27.31 315.89,143.08 384.43,104.21z"/>
  <path class="fil4" d="M2486.78 6599.34c-15.82,-77.24 -32.66,-154.25 -51.22,-230.85 -18.01,-76.7 -37.69,-153.03 -58.81,-228.9 -42.43,-151.58 -88.63,-302.58 -150.11,-447.29 -30.62,-72.24 -64.3,-143.6 -109.38,-207.58l-34.51 -47.61c-11.91,-15.54 -25.09,-30.08 -37.58,-45.2 -6.45,-7.35 -12.34,-15.24 -19.27,-22.17l-20.56 -20.98c-13.63,-14.07 -27.03,-28.42 -42.08,-40.99 -57.74,-52.96 -122.67,-98.32 -193.01,-133.18 -70.09,-34.96 -145.53,-61.46 -224.05,-69.69 78.93,5.11 155.42,30.42 227.02,63.58 71.56,33.9 137.88,78.74 197.15,131.33 15.45,12.5 29.23,26.75 43.25,40.78l20.98 21.1c7.04,6.98 13.05,14.9 19.62,22.32 12.71,15.21 26.12,29.87 38.26,45.52l35.15 47.96c46.17,64.85 80.63,136.85 111.78,209.42 30.51,72.98 57.41,147.35 81.37,222.59 24.03,75.21 46.71,150.86 66.23,227.33 40.08,152.65 73.67,306.99 99.77,462.52z"/>
  <path class="fil4" d="M2520.17 6594.87c-26.12,-132.82 -51.01,-265.83 -75.79,-398.88l-72.59 -399.45c-22.71,-133.42 -46.28,-266.75 -64.36,-401.04 -8.62,-67.17 -16.71,-134.58 -18.26,-202.53 -0.37,-33.91 0.86,-68.18 8.36,-101.51 4.14,-16.54 10.03,-32.76 18.94,-47.33 8.91,-14.56 20.93,-26.98 34.45,-37.13 -13.1,10.7 -24.48,23.52 -32.64,38.2 -8.29,14.61 -13.59,30.68 -17.15,47.06 -6.37,33.02 -6.56,66.92 -5.15,100.53 2.91,67.36 12.15,134.42 22.04,201.24 20.21,133.67 43.67,266.94 67.44,400.13l69.39 400c22.6,133.44 44.84,266.94 65.32,400.74z"/>
  <path class="fil3" d="M2338.69 6106.4c0,0 20.41,-264.46 -61.33,-308.59 -81.74,-44.14 -119.86,-145.71 -238.93,-178.39 -119.07,-32.67 -125.68,-0.21 -244.85,82.89 -119.19,83.11 -189.93,43.79 -210.23,202.31 -19.89,155.41 41.36,178.44 161.98,77.08 72.21,-60.67 134.55,-161.76 263.19,-48.98 157.54,138.1 330.16,173.68 330.16,173.68z"/>
  <path class="fil4" d="M2452.06 6603.58l-10.17 -56.53 -10.9 -56.32 -11.41 -56.18 -12.59 -55.92c-17.51,-74.32 -37.11,-148.2 -62.3,-220.14 -24.2,-72.23 -53.77,-142.73 -90.65,-209.28 -8.59,-17.02 -19.17,-32.82 -29.29,-48.93 -9.6,-16.5 -21.84,-31.09 -32.99,-46.54l-8.49 -11.48 -9.42 -10.71 -18.87 -21.5c-5.96,-7.52 -13.67,-13.25 -20.45,-19.99l-20.89 -19.69c14.61,12.26 30.24,23.65 43.94,37.08l20.17 20.6 10.11 10.32 9.19 11.09c11.85,15.14 24.71,29.61 34.96,45.91 10.78,15.94 22.04,31.63 31.29,48.52 39.28,66.29 69.09,137.65 94.51,210.13 24.28,72.91 44.2,147.18 59.56,222.33 15.37,75.15 26.98,151 34.68,227.22z"/>
  <path class="fil7" d="M2529.67 8297c-664.5,0 -1203.2,-82.14 -1203.2,-183.43 0,-101.31 538.7,-183.44 1203.2,-183.44 664.52,0 1203.22,82.13 1203.22,183.44 0,101.29 -538.71,183.43 -1203.22,183.43z"/>
  <polygon class="fil1" points="1489.74,6220.23 1326.46,8073.38 1722.06,8073.38 "/>
  <path class="fil2" d="M1514.41 6572.12c0,0 58.49,1572.33 155.77,1628.56 97.28,56.21 1801.36,120.01 2184,-220.07 0,0 -145.15,-220.74 -180.25,-412.9 -35.09,-192.15 -116.3,-1137.75 -116.3,-1137.75l-2043.21 142.17z"/>
  <polygon class="fil28" points="2205.8,7043.84 2205.34,7040.4 1895.94,7082.36 1873.19,6757.95 2191.78,6735.62 2202.33,7043.95 2205.8,7043.84 2205.34,7040.4 2205.8,7043.84 2209.28,7043.72 2198.47,6728.19 1865.78,6751.52 1889.53,7090.23 2209.38,7046.85 2209.28,7043.72 "/>
  <polygon class="fil28" points="2624.56,7034.98 2624.31,7031.52 2302.14,7054.11 2277.8,6707.08 2598.07,6706.9 2621.08,7035.23 2624.56,7034.98 2624.31,7031.52 2624.56,7034.98 2628.01,7034.74 2604.54,6699.95 2270.36,6700.13 2295.7,7061.52 2628.26,7038.2 2628.01,7034.74 "/>
  <polygon class="fil28" points="3018,6984.48 3017.5,6981.03 2708.31,7025.37 2685.56,6701.01 3004.14,6678.66 3014.53,6984.59 3018,6984.48 3017.5,6981.03 3018,6984.48 3021.47,6984.35 3010.83,6671.23 2678.14,6694.56 2701.9,7033.31 3021.57,6987.47 3021.47,6984.35 "/>
  <polygon class="fil28" points="2250.53,7522.02 2250.46,7518.55 1926.94,7524.51 1904.17,7199.7 2222.87,7177.34 2247.06,7522.26 2250.53,7522.02 2250.46,7518.55 2250.53,7522.02 2253.99,7521.77 2229.31,7169.94 1896.76,7193.26 1920.48,7531.57 2254.24,7525.43 2253.99,7521.77 "/>
  <polygon class="fil28" points="2655.53,7476.73 2655.03,7473.29 2334.78,7519.66 2310.33,7171.05 2627.89,7132.16 2652.06,7476.96 2655.53,7476.73 2655.03,7473.29 2655.53,7476.73 2658.98,7476.48 2634.29,7124.38 2302.94,7164.95 2328.37,7527.6 2659.21,7479.7 2658.98,7476.48 "/>
  <polygon class="fil28" points="3063.39,7472.32 3063.4,7468.85 2739.31,7467.62 2716.53,7142.73 3035.24,7120.4 3059.93,7472.56 3063.39,7472.32 3063.4,7468.85 3063.39,7472.32 3066.85,7472.07 3041.68,7112.98 2709.11,7136.3 2732.82,7474.53 3067.11,7475.81 3066.85,7472.07 "/>
  <polygon class="fil28" points="2280.31,7946.94 2280.07,7943.48 1957.9,7966.07 1934.37,7630.44 2253.84,7618.98 2276.85,7947.19 2280.31,7946.94 2280.07,7943.48 2280.31,7946.94 2283.78,7946.7 2260.3,7611.8 1926.94,7623.74 1951.46,7973.49 2284.02,7950.16 2283.78,7946.7 "/>
  <polygon class="fil28" points="3427.53,6978.69 3427.28,6975.22 3105.11,6997.81 3082.35,6673.19 3401.06,6650.83 3424.06,6978.92 3427.53,6978.69 3427.28,6975.22 3427.53,6978.69 3430.98,6978.44 3407.5,6643.43 3074.93,6666.74 3098.67,7005.23 3431.24,6981.89 3430.98,6978.44 "/>
  <polygon class="fil28" points="3458.5,7420.43 3458.25,7416.96 3136.07,7439.55 3113.32,7114.93 3432.03,7092.58 3455.03,7420.68 3458.5,7420.43 3458.25,7416.96 3458.5,7420.43 3461.96,7420.19 3438.47,7085.16 3105.9,7108.48 3129.64,7446.96 3462.21,7423.65 3461.96,7420.19 "/>
  <polygon class="fil28" points="3489.47,7862.17 3489.22,7858.7 3167.19,7881.29 3156.07,7535.17 3462.98,7534.1 3486,7862.41 3489.47,7862.17 3489.22,7858.7 3489.47,7862.17 3492.93,7861.93 3469.46,7527.13 3148.89,7528.26 3160.47,7888.72 3493.18,7865.4 3492.93,7861.93 "/>
  <polygon class="fil28" points="2686.5,7918.48 2686.58,7915.01 2346.15,7905.98 2341.14,7612.98 2660.03,7590.62 2683.03,7918.72 2686.5,7918.48 2686.58,7915.01 2686.5,7918.48 2689.96,7918.23 2666.47,7583.21 2334.09,7606.51 2339.32,7912.74 2690.22,7922.05 2689.96,7918.23 "/>
  <polygon class="fil28" points="3092.67,7890 3092.43,7886.52 2770.26,7909.1 2747.48,7584.37 3065.44,7551.13 3089.21,7890.23 3092.67,7890 3092.43,7886.52 3092.67,7890 3096.14,7889.74 3071.86,7543.48 2740.1,7578.16 2763.82,7916.52 3096.37,7893.22 3096.14,7889.74 "/>
  <path class="fil18" d="M3263.28 6331.24c-32.18,2.25 -60.1,-22 -62.35,-54.18 -2.26,-32.17 22,-60.1 54.18,-62.35 32.17,-2.25 60.08,22 62.35,54.18 2.25,32.17 -22,60.08 -54.18,62.35zm-347.92 24.39c-32.18,2.25 -60.1,-22 -62.35,-54.18 -2.27,-32.18 22,-60.08 54.17,-62.33 32.18,-2.28 60.1,21.99 62.36,54.17 2.25,32.18 -22,60.09 -54.18,62.35zm-347.92 24.39c-32.18,2.26 -60.1,-22 -62.35,-54.17 -2.26,-32.18 22,-60.11 54.18,-62.36 32.18,-2.25 60.08,22 62.35,54.2 2.25,32.17 -22,60.08 -54.18,62.33zm-347.92 24.4c-32.18,2.25 -60.09,-22 -62.34,-54.2 -2.26,-32.17 22,-60.08 54.17,-62.35 32.17,-2.25 60.09,22.02 62.34,54.2 2.26,32.17 -22,60.08 -54.18,62.35zm-347.92 24.39c-32.18,2.26 -60.09,-22 -62.35,-54.18 -2.26,-32.18 22,-60.1 54.18,-62.35 32.18,-2.25 60.09,22 62.35,54.18 2.26,32.18 -22,60.1 -54.19,62.35zm1661.35 -350.75l-2043.22 142.17 24.67 351.89 2043.22 -142.17 -24.68 -351.89z"/>
  <path class="fil29" d="M2515.29 6805.62c-6.5,16.29 -15.19,30.7 -24.37,44.64 -9.33,13.85 -19.48,26.96 -30.32,39.47 -10.85,12.52 -22.43,24.39 -34.83,35.56 -12.52,11.05 -25.58,21.65 -40.83,30.33 6.47,-16.31 15.14,-30.72 24.35,-44.66 9.32,-13.85 19.47,-26.97 30.35,-39.44 10.87,-12.5 22.44,-24.38 34.85,-35.54 12.53,-11.04 25.57,-21.65 40.81,-30.36z"/>
  <path class="fil29" d="M2525.11 6945.78c-16.29,-6.48 -30.68,-15.16 -44.64,-24.37 -13.84,-9.31 -26.96,-19.46 -39.47,-30.3 -12.51,-10.85 -24.39,-22.42 -35.55,-34.83 -11.06,-12.51 -21.66,-25.57 -30.34,-40.82 16.32,6.46 30.72,15.13 44.67,24.35 13.83,9.31 26.95,19.46 39.44,30.33 12.49,10.87 24.37,22.46 35.53,34.86 11.06,12.53 21.65,25.57 30.36,40.79z"/>
  <path class="fil29" d="M2984.19 7655.06c-6.48,16.31 -15.17,30.7 -24.36,44.65 -9.32,13.83 -19.47,26.94 -30.32,39.46 -10.85,12.51 -22.43,24.39 -34.83,35.55 -12.52,11.06 -25.57,21.67 -40.82,30.35 6.46,-16.32 15.14,-30.72 24.33,-44.67 9.33,-13.83 19.47,-26.97 30.36,-39.44 10.86,-12.5 22.44,-24.37 34.85,-35.54 12.53,-11.05 25.57,-21.65 40.79,-30.36z"/>
  <path class="fil29" d="M2994.03 7795.24c-16.29,-6.5 -30.68,-15.18 -44.64,-24.37 -13.83,-9.32 -26.96,-19.48 -39.47,-30.32 -12.52,-10.84 -24.39,-22.43 -35.56,-34.83 -11.06,-12.52 -21.65,-25.57 -30.33,-40.82 16.32,6.47 30.72,15.14 44.67,24.34 13.83,9.32 26.96,19.46 39.44,30.33 12.49,10.88 24.36,22.46 35.53,34.86 11.04,12.53 21.65,25.57 30.36,40.8z"/>
  <path class="fil5" d="M2140.07 7275.84c-6.49,16.29 -15.19,30.68 -24.37,44.64 -9.32,13.83 -19.46,26.96 -30.32,39.47 -10.84,12.52 -22.43,24.39 -34.82,35.56 -12.53,11.06 -25.58,21.65 -40.83,30.33 6.46,-16.32 15.14,-30.72 24.34,-44.67 9.33,-13.83 19.47,-26.94 30.35,-39.44 10.88,-12.49 22.45,-24.37 34.85,-35.53 12.54,-11.04 25.57,-21.65 40.8,-30.36z"/>
  <path class="fil5" d="M2149.9 7416.02c-16.29,-6.5 -30.69,-15.2 -44.63,-24.37 -13.84,-9.33 -26.96,-19.47 -39.47,-30.33 -12.52,-10.83 -24.4,-22.42 -35.56,-34.8 -11.06,-12.53 -21.65,-25.59 -30.33,-40.85 16.31,6.47 30.72,15.15 44.66,24.35 13.83,9.33 26.96,19.47 39.44,30.36 12.49,10.87 24.37,22.44 35.54,34.85 11.04,12.54 21.65,25.57 30.36,40.8z"/>
  <path class="fil28" d="M3531.44 8073.38c19.26,-14.82 37.26,-30.8 54.71,-47.14 17.24,-16.56 33.61,-33.88 48.43,-52.39 14.99,-18.4 27.64,-38.44 38.89,-59.3 10.96,-21.06 18.74,-43.52 25.06,-67.11 -0.92,24.21 -5.46,48.92 -15.22,71.67 -9.67,22.71 -22.5,44.13 -37.89,63.39 -31.18,38.08 -69.87,70.07 -113.97,90.87z"/>
  <path class="fil28" d="M1572.37 6621.96l11.39 187.75 12.22 187.65c8.75,125.06 17.73,250.08 29.57,374.83 10.87,124.83 24.41,249.43 41.94,373.42 8.92,61.96 19.15,123.77 32.72,184.85 3.09,15.33 6.87,30.5 10.81,45.64 3.54,15.26 8.4,30.09 12.93,45.07 2.08,7.56 5.06,14.78 7.79,22.1 2.97,7.19 5.1,14.81 8.74,21.72l10.22 21.11 13.16 19.43c-20.97,-23.79 -32.07,-54.05 -43.39,-83.16 -5.05,-14.88 -10.44,-29.69 -14.5,-44.86 -4.46,-15.07 -8.77,-30.19 -12.38,-45.49 -14.98,-61.02 -26.43,-122.85 -36.67,-184.79 -19.77,-124.01 -33.23,-248.86 -45.19,-373.78 -10.7,-125.03 -19.9,-250.15 -26.38,-375.43 -6.42,-125.28 -11.39,-250.64 -12.99,-376.06z"/>
  <polygon class="fil23" points="1514.41,6572.12 1593.66,6566.56 1572.37,6245.73 1489.74,6220.23 "/>
  <path class="fil29" d="M1668.12 6207.73c10.94,-23.68 25.56,-45.76 42.98,-65.8 17.6,-19.71 38.54,-37.94 64.66,-48.61 12.96,-5.31 27.16,-8.64 41.69,-8.92 14.53,-0.17 29.06,2.78 42.52,7.92 26.91,10.91 48.54,29.11 66.44,50.43 18.23,21.24 30.57,49.03 32.71,77.87 2.25,28.92 -5.92,57.32 -19.26,81.33 -13.49,24.14 -32.06,44.54 -53.33,60.85 -21.34,16.03 -45.58,28.82 -71.46,33.37 23.72,-10.86 44.31,-26.3 61.98,-44.21 17.64,-17.82 32.55,-38.22 42.61,-60.3 10.21,-21.99 15.2,-45.81 12.76,-68.7 -2.02,-23.01 -12.49,-44.39 -27.24,-62.94 -14.95,-18.6 -34.12,-34.64 -54.89,-44.44 -21.07,-9.26 -44.76,-10.52 -67.46,-3.08 -22.64,7.46 -43.92,21.5 -62.83,38.3 -19,16.83 -36.28,36.11 -51.87,56.93z"/>
  <path class="fil29" d="M2017.92 6176.23c10.95,-23.68 25.56,-45.76 42.98,-65.79 17.59,-19.71 38.53,-37.96 64.64,-48.61 12.96,-5.32 27.17,-8.63 41.7,-8.93 14.52,-0.15 29.06,2.78 42.51,7.93 26.9,10.93 48.54,29.1 66.44,50.42 18.24,21.26 30.57,49.04 32.72,77.89 2.25,28.9 -5.92,57.32 -19.26,81.32 -13.49,24.15 -32.06,44.54 -53.33,60.85 -21.33,16.04 -45.58,28.82 -71.46,33.39 23.73,-10.87 44.31,-26.31 61.98,-44.2 17.65,-17.83 32.56,-38.25 42.61,-60.33 10.21,-21.99 15.2,-45.81 12.77,-68.68 -2.03,-23.02 -12.49,-44.39 -27.26,-62.94 -14.95,-18.6 -34.12,-34.65 -54.88,-44.46 -21.09,-9.26 -44.77,-10.5 -67.46,-3.06 -22.65,7.44 -43.92,21.48 -62.84,38.29 -19,16.82 -36.28,36.09 -51.87,56.91z"/>
  <path class="fil29" d="M2370.25 6160.2c9.86,-21.86 23.17,-42.25 39.09,-60.76 16.09,-18.22 35.3,-35.12 59.42,-45.04 11.98,-4.96 25.11,-8.06 38.57,-8.37 13.47,-0.18 26.94,2.54 39.41,7.29 24.94,10.06 44.92,26.83 61.47,46.53 16.88,19.61 28.28,45.37 30.25,72.11 2.06,26.76 -5.57,53.06 -17.94,75.18 -12.53,22.24 -29.72,40.96 -49.4,55.86 -19.74,14.64 -42.14,26.28 -65.99,30.2 21.7,-10.22 40.44,-24.52 56.52,-41.02 16.06,-16.43 29.58,-35.15 38.68,-55.36 9.25,-20.1 13.71,-41.76 11.44,-62.52 -1.85,-20.89 -11.38,-40.26 -24.8,-57.19 -13.59,-16.94 -31.09,-31.58 -49.9,-40.54 -19.11,-8.43 -40.53,-9.67 -61.24,-2.98 -20.65,6.71 -40.2,19.41 -57.61,34.74 -17.5,15.32 -33.49,32.89 -47.99,51.89z"/>
  <path class="fil29" d="M2715.53 6129.55c9.81,-21.76 23.04,-42.06 38.89,-60.49 16.01,-18.13 35.13,-34.96 59.13,-44.85 11.91,-4.94 25,-8.03 38.4,-8.33 13.42,-0.17 26.83,2.53 39.25,7.25 24.85,10.01 44.71,26.72 61.2,46.32 16.8,19.53 28.17,45.18 30.11,71.79 2.06,26.67 -5.54,52.81 -17.86,74.83 -12.47,22.14 -29.59,40.78 -49.18,55.59 -19.65,14.57 -41.96,26.14 -65.69,30.02 21.58,-10.18 40.22,-24.4 56.22,-40.82 15.94,-16.36 29.42,-35.02 38.46,-55.1 9.19,-19.98 13.61,-41.54 11.37,-62.18 -1.83,-20.79 -11.32,-40.03 -24.65,-56.86 -13.54,-16.87 -30.94,-31.44 -49.64,-40.33 -19,-8.41 -40.31,-9.64 -60.9,-2.99 -20.53,6.67 -39.99,19.29 -57.32,34.53 -17.43,15.24 -33.33,32.71 -47.78,51.61z"/>
  <path class="fil29" d="M3081.19 6101.52c9.56,-21.35 22.5,-41.25 38.02,-59.35 15.68,-17.8 34.4,-34.35 57.96,-44.06 11.7,-4.86 24.54,-7.9 37.71,-8.21 13.17,-0.19 26.35,2.46 38.54,7.1 24.4,9.83 43.9,26.22 60.08,45.44 16.5,19.15 27.65,44.37 29.57,70.5 2,26.18 -5.47,51.86 -17.57,73.47 -12.26,21.71 -29.08,39.96 -48.31,54.47 -19.29,14.26 -41.19,25.56 -64.47,29.32 21.13,-10.07 39.36,-24.03 54.99,-40.14 15.61,-16.04 28.76,-34.31 37.6,-53.97 8.97,-19.57 13.28,-40.64 11.08,-60.82 -1.81,-20.28 -11.08,-39.09 -24.11,-55.56 -13.24,-16.5 -30.27,-30.75 -48.53,-39.46 -18.56,-8.21 -39.35,-9.43 -59.5,-2.97 -20.09,6.52 -39.15,18.85 -56.15,33.74 -17.08,14.9 -32.71,32 -46.91,50.49z"/>
  <path class="fil18" d="M2394.64 7307.56c-1.07,35.15 8.32,70.51 28.51,98.57 19.55,27.97 50.54,49.1 84.16,50.28 33.4,0.92 66.25,-14.53 90.04,-38.41 23.6,-23.75 40.72,-55.78 40.89,-89.02 1.25,-33.01 -16.06,-65.2 -40.67,-87.87 -24.46,-22.78 -58.72,-36.89 -91.46,-30.36 -32.77,6.39 -59.66,33.36 -71.98,65.11 -13.35,31.8 -12.87,68.83 -0.53,101.81 -15.28,-31.8 -17.68,-70.06 -5.84,-104.22 11.69,-33.8 39.16,-64.36 76.09,-73.13 18.2,-4.41 37.63,-2.9 55.08,3.25 17.53,6.06 33.46,15.93 47.13,28.17 27,24.29 46.94,59.46 46.06,97.56 -0.79,37.83 -20.13,72.29 -45.94,97.73 -26,25.26 -62.09,42.78 -99.53,40 -37.59,-2.82 -69.84,-27.11 -89.1,-57.14 -19.16,-30.54 -27.09,-67.31 -22.9,-102.33z"/>
  <path class="fil18" d="M3320.68 6699.87c-34.9,-4.33 -70.99,1.75 -100.76,19.26 -29.67,16.87 -53.58,45.78 -57.86,79.14 -4.01,33.18 8.32,67.32 29.9,93.21 21.47,25.7 51.76,45.72 84.85,48.96 32.76,4.29 66.41,-9.94 91.26,-32.36 24.93,-22.25 42.17,-55.06 38.68,-88.26 -3.32,-33.22 -27.68,-62.49 -58.17,-77.71 -30.42,-16.24 -67.35,-19.18 -101.32,-9.93 33.1,-12.26 71.39,-11.12 104.32,3.82 32.58,14.77 60.47,44.94 65.78,82.53 2.71,18.53 -0.6,37.74 -8.35,54.54 -7.64,16.9 -18.94,31.85 -32.41,44.32 -26.68,24.64 -63.54,41.24 -101.39,36.83 -37.59,-4.29 -70.11,-26.71 -93.07,-54.79 -22.75,-28.24 -36.85,-65.78 -30.61,-102.79 6.28,-37.18 33.44,-67.04 65.12,-83.44 32.2,-16.25 69.56,-20.75 104.02,-13.32z"/>
  <path class="fil18" d="M2469.63 7332.73c16.63,10.7 31.8,22.96 46.61,35.57l-9.22 0.96c5.54,-8.87 11.53,-17.33 17.54,-25.81 6.24,-8.31 12.36,-16.72 19.14,-24.64 6.64,-8.03 13.54,-15.86 21,-23.25 7.43,-7.3 15.25,-14.76 24.65,-19.72 -6.83,7.94 -12.18,16.71 -18.14,25.14l-17.5 25.47c-11.82,16.86 -23.94,33.59 -36.65,49.81l-4.56 5.82 -4.67 -4.88c-13.44,-14.08 -26.57,-28.5 -38.21,-44.48z"/>
  <path class="fil25" d="M5263.01 4212.03c-34.88,-21.93 -70.64,-42.74 -107.09,-62.26 -41.67,-59.71 -98.9,-149.11 -157.56,-243.21 30.28,11.98 60.25,24.72 89.89,38.18 117.24,52.71 229.37,116.54 334.13,190.81 -63.36,35.44 -120.87,62.25 -159.37,76.49z"/>
  <path class="fil27" d="M5262.86 4212.08c-34.81,-21.91 -70.42,-42.65 -106.81,-62.15 -0.04,-0.06 -0.08,-0.11 -0.13,-0.17 36.44,19.53 72.21,40.33 107.09,62.26 -0.06,0.03 -0.1,0.04 -0.15,0.06z"/>
  <path class="fil25" d="M5435.65 4128.04c-107.63,-75.53 -222.32,-141.19 -343.08,-193.04 -33.56,-14.37 -67.49,-27.98 -101.76,-40.61 -13.57,-21.82 -27.2,-43.83 -40.67,-65.74 191.6,64.2 370.18,156.71 530.86,272.53 -15.26,9.38 -30.43,18.35 -45.35,26.86z"/>
  <path class="fil26" d="M5422.39 4135.54c-104.75,-74.26 -216.89,-138.1 -334.13,-190.81 -29.64,-13.46 -59.61,-26.19 -89.89,-38.18 -2.53,-4.04 -5.04,-8.1 -7.57,-12.17 34.28,12.63 68.21,26.24 101.76,40.61 120.76,51.85 235.46,117.52 343.08,193.04 -4.44,2.54 -8.87,5.04 -13.26,7.5z"/>
  <path class="fil2" d="M4876.78 3515.18c0,0 431.83,729.18 475.15,739.6 43.32,10.43 559.15,-239.71 581.52,-462.39 0,0 -100.74,-79.87 -161.7,-164.39 -60.97,-84.53 -334.15,-515.47 -334.15,-515.47l-560.82 402.65z"/>
  <path class="fil1" d="M5863.4 3889.03c0.82,-23.28 1.25,-45.22 -0.61,-67.24 -0.69,-10.99 -2.08,-21.91 -3.87,-32.86 -1.57,-11.06 -4.25,-21.86 -6.18,-33.53 7.18,9.22 13,19.67 16.68,30.83 4.1,11.07 6.22,22.78 7.22,34.52 0.79,11.76 0.41,23.61 -1.78,35.17 -2.07,11.52 -5.5,22.93 -11.46,33.11z"/>
  <path class="fil1" d="M5018.34 3569.54l50.94 -35.42 51.31 -34.75 102.57 -69.33c34.32,-22.9 68.14,-46.46 102.02,-69.94 33.72,-23.71 67.18,-47.76 98.86,-74.4 -7.1,7.51 -14.2,15.1 -21.63,22.35l-22.79 21.18c-15.82,13.39 -31.76,26.68 -48.07,39.44 -32.57,25.65 -66.37,49.64 -100.61,72.87 -34.4,23.02 -69.07,45.6 -104.61,66.79 -35.44,21.33 -71.2,42.2 -107.99,61.21z"/>
  <path class="fil1" d="M5076.63 3646.47l50.96 -35.41 51.29 -34.75 102.58 -69.33c34.31,-22.9 68.13,-46.47 102.01,-69.96 33.72,-23.71 67.18,-47.75 98.85,-74.39 -7.09,7.52 -14.18,15.1 -21.63,22.35l-22.79 21.18c-15.82,13.38 -31.74,26.68 -48.07,39.44 -32.57,25.65 -66.35,49.64 -100.6,72.87 -34.4,23 -69.08,45.6 -104.61,66.8 -35.44,21.33 -71.19,42.18 -108,61.2z"/>
  <path class="fil1" d="M5134.94 3723.4l50.94 -35.43 51.32 -34.74 102.56 -69.33c34.32,-22.92 68.15,-46.47 102.02,-69.96 33.74,-23.71 67.18,-47.75 98.86,-74.39 -7.08,7.51 -14.18,15.09 -21.61,22.35l-22.81 21.18c-15.83,13.37 -31.75,26.68 -48.08,39.44 -32.56,25.64 -66.35,49.62 -100.59,72.86 -34.41,23.02 -69.07,45.61 -104.61,66.81 -35.44,21.33 -71.18,42.18 -107.98,61.21z"/>
  <path class="fil1" d="M5193.24 3800.32l50.94 -35.42 51.31 -34.74 102.57 -69.35c34.3,-22.91 68.14,-46.46 102,-69.94 33.74,-23.71 67.18,-47.75 98.87,-74.39 -7.1,7.51 -14.2,15.08 -21.63,22.35l-22.8 21.17c-15.81,13.39 -31.75,26.68 -48.07,39.44 -32.56,25.65 -66.35,49.64 -100.6,72.88 -34.4,23.01 -69.07,45.61 -104.61,66.8 -35.46,21.33 -71.19,42.18 -107.99,61.2z"/>
  <path class="fil1" d="M5251.54 3877.25l50.96 -35.42 51.29 -34.74 102.58 -69.35c34.32,-22.89 68.13,-46.46 102.02,-69.94 33.71,-23.71 67.18,-47.76 98.85,-74.39 -7.08,7.5 -14.19,15.1 -21.61,22.33l-22.79 21.18c-15.83,13.39 -31.76,26.68 -48.09,39.44 -32.57,25.65 -66.36,49.64 -100.59,72.87 -34.41,23.02 -69.08,45.61 -104.63,66.79 -35.43,21.35 -71.18,42.19 -107.98,61.21z"/>
  <path class="fil1" d="M5309.84 3954.18l50.94 -35.41 51.31 -34.74 102.57 -69.35c34.32,-22.9 68.14,-46.46 102.02,-69.96 33.74,-23.71 67.18,-47.75 98.86,-74.39 -7.1,7.52 -14.18,15.1 -21.63,22.35l-22.79 21.18c-15.82,13.37 -31.75,26.68 -48.07,39.44 -32.57,25.65 -66.36,49.64 -100.61,72.87 -34.4,23.02 -69.07,45.61 -104.61,66.81 -35.44,21.32 -71.18,42.17 -107.99,61.19z"/>
  <path class="fil1" d="M5368.13 4031.11l50.94 -35.42 51.32 -34.75 102.56 -69.33c34.32,-22.91 68.15,-46.46 102.02,-69.96 33.74,-23.71 67.18,-47.75 98.86,-74.37 -7.07,7.52 -14.18,15.08 -21.61,22.33l-22.8 21.18c-15.82,13.37 -31.74,26.68 -48.07,39.44 -32.57,25.65 -66.35,49.64 -100.6,72.86 -34.4,23.02 -69.08,45.61 -104.61,66.81 -35.46,21.33 -71.19,42.18 -108,61.21z"/>
 </g>
</svg>
